<svg width="635" height="405" xmlns="http://www.w3.org/2000/svg" xmlns:xlink="http://www.w3.org/1999/xlink" xml:space="preserve" overflow="hidden"><g transform="translate(-1413 -879)"><path d="M1413.78 1111.13 1437.48 1111.13 1437.48 1113.98C1435.7 1114.4 1434.44 1114.81 1433.71 1115.2 1432.97 1115.59 1432.42 1116.09 1432.05 1116.71 1431.68 1117.33 1431.5 1118.16 1431.5 1119.21 1431.5 1120.25 1431.62 1121.35 1431.88 1122.49 1432.13 1123.63 1432.53 1124.96 1433.07 1126.47L1443.18 1155.87 1455.03 1127.69C1455.81 1125.83 1456.35 1124.3 1456.66 1123.1 1456.97 1121.9 1457.12 1120.78 1457.12 1119.73 1457.12 1118.1 1456.69 1116.86 1455.82 1116.01 1454.94 1115.16 1453.35 1114.48 1451.02 1113.98L1451.02 1111.13 1472.75 1111.13 1472.75 1113.98C1471.24 1114.29 1470.08 1114.76 1469.27 1115.4 1468.45 1116.04 1467.64 1117.05 1466.83 1118.42 1466.01 1119.8 1465.04 1121.73 1463.92 1124.21L1444.34 1167.26 1437.48 1167.26 1421.74 1123.86C1420.65 1120.87 1419.79 1118.83 1419.15 1117.73 1418.51 1116.62 1417.81 1115.8 1417.06 1115.26 1416.3 1114.71 1415.21 1114.29 1413.78 1113.98Z" fill="#595959" fill-rule="evenodd"/><text fill="#000000" fill-opacity="0" font-family="Arial,Arial_MSFontService,sans-serif" font-size="56.1299" x="1413.78" y="1160.25">v</text><path d="M1505.45 1147.62C1508.57 1147.62 1511.07 1148.28 1512.95 1149.6 1514.83 1150.91 1516.22 1152.96 1517.09 1155.74 1518.68 1154.21 1520.1 1152.93 1521.36 1151.91 1522.62 1150.89 1523.81 1150.07 1524.93 1149.45 1526.05 1148.83 1527.16 1148.38 1528.27 1148.11 1529.37 1147.84 1530.57 1147.68 1531.88 1147.62 1533.8 1147.65 1535.53 1147.93 1537.06 1148.45 1538.59 1148.97 1539.88 1149.82 1540.95 1150.98 1542.01 1152.14 1542.82 1153.67 1543.39 1155.57 1543.96 1157.46 1544.22 1159.79 1544.2 1162.53L1544.2 1180.16C1544.2 1181.83 1544.22 1183.11 1544.26 1184.01 1544.3 1184.9 1544.48 1185.6 1544.79 1186.11 1545.1 1186.62 1545.6 1187.01 1546.3 1187.28 1546.99 1187.55 1547.99 1187.88 1549.29 1188.28L1549.29 1190.99 1530.73 1190.99 1530.73 1188.28C1531.86 1187.88 1532.77 1187.57 1533.45 1187.34 1534.13 1187.12 1534.64 1186.77 1535 1186.3 1535.35 1185.83 1535.58 1185.15 1535.68 1184.26 1535.78 1183.37 1535.83 1182.07 1535.83 1180.37L1535.83 1167.04C1535.83 1164.03 1535.66 1161.64 1535.34 1159.86 1535.01 1158.07 1534.53 1156.71 1533.89 1155.76 1533.26 1154.81 1532.44 1154.19 1531.45 1153.91 1530.46 1153.63 1529.31 1153.48 1528.01 1153.48 1527.02 1153.48 1525.93 1153.75 1524.74 1154.27 1523.55 1154.79 1522.45 1155.5 1521.43 1156.39 1520.41 1157.29 1519.55 1158.31 1518.86 1159.47 1518.16 1160.64 1517.82 1161.84 1517.82 1163.09L1517.82 1180.16C1517.82 1181.83 1517.84 1183.13 1517.9 1184.05 1517.96 1184.97 1518.15 1185.68 1518.47 1186.17 1518.8 1186.67 1519.31 1187.05 1520 1187.32 1520.7 1187.59 1521.7 1187.91 1523 1188.28L1523 1190.99 1504.35 1190.99 1504.35 1188.28C1505.48 1187.88 1506.38 1187.56 1507.05 1187.32 1507.71 1187.08 1508.22 1186.73 1508.58 1186.26 1508.93 1185.79 1509.16 1185.12 1509.26 1184.24 1509.35 1183.36 1509.4 1182.07 1509.4 1180.37L1509.4 1167.59C1509.4 1164.5 1509.24 1162.04 1508.92 1160.2 1508.59 1158.36 1508.11 1156.95 1507.47 1155.97 1506.83 1154.99 1506.02 1154.35 1505.03 1154.04 1504.04 1153.73 1502.89 1153.54 1501.59 1153.48 1500.46 1153.54 1499.28 1153.85 1498.06 1154.4 1496.84 1154.95 1495.73 1155.67 1494.73 1156.56 1493.72 1157.46 1492.91 1158.45 1492.28 1159.56 1491.66 1160.66 1491.38 1161.77 1491.44 1162.87L1491.44 1180.16C1491.44 1181.92 1491.47 1183.26 1491.54 1184.18 1491.61 1185.1 1491.82 1185.79 1492.16 1186.26 1492.5 1186.73 1493.01 1187.07 1493.71 1187.3 1494.4 1187.53 1495.39 1187.85 1496.66 1188.28L1496.66 1190.99 1478.01 1190.99 1478.01 1188.28C1479.12 1187.88 1480 1187.57 1480.67 1187.34 1481.33 1187.12 1481.84 1186.77 1482.2 1186.3 1482.55 1185.83 1482.78 1185.15 1482.88 1184.24 1482.97 1183.33 1483.02 1182.02 1483.02 1180.29L1483.02 1160.28C1483.02 1159.21 1483 1158.28 1482.96 1157.5 1482.92 1156.72 1482.87 1156.09 1482.81 1155.61 1482.75 1155.01 1482.65 1154.5 1482.49 1154.08 1482.34 1153.65 1482.07 1153.28 1481.69 1152.95 1481.3 1152.63 1480.77 1152.34 1480.07 1152.1 1479.38 1151.86 1478.48 1151.63 1477.37 1151.4L1477.37 1148.51 1488.5 1148.05 1491.52 1148.05C1491.44 1149.27 1491.34 1150.46 1491.22 1151.64 1491.11 1152.81 1491.01 1153.99 1490.93 1155.18 1491.01 1155.24 1491.1 1155.27 1491.18 1155.27 1491.27 1155.27 1491.35 1155.3 1491.44 1155.35 1492.94 1153.88 1494.31 1152.66 1495.56 1151.68 1496.8 1150.7 1497.98 1149.92 1499.08 1149.32 1500.19 1148.73 1501.26 1148.3 1502.29 1148.05 1503.32 1147.79 1504.38 1147.65 1505.45 1147.62Z" fill="#595959" fill-rule="evenodd"/><text fill="#000000" fill-opacity="0" font-family="Arial,Arial_MSFontService,sans-serif" font-size="43.3726" x="1477.37" y="1185.57">m</text><path d="M1600.31 1140.88 1671.9 1140.88 1671.9 1148.61 1600.31 1148.61ZM1600.31 1116.77 1671.9 1116.77 1671.9 1124.5 1600.31 1124.5Z" fill="#595959" fill-rule="evenodd"/><text fill="#000000" fill-opacity="0" font-family="Arial,Arial_MSFontService,sans-serif" font-size="31.8418" x="1600.31" y="1144.63">=</text><path d="M1714.65 1111.13 1738.36 1111.13 1738.36 1113.98C1736.57 1114.4 1735.32 1114.81 1734.58 1115.2 1733.84 1115.59 1733.29 1116.09 1732.92 1116.71 1732.56 1117.33 1732.37 1118.16 1732.37 1119.21 1732.37 1120.25 1732.5 1121.35 1732.75 1122.49 1733 1123.63 1733.4 1124.96 1733.94 1126.47L1744.05 1155.87 1755.9 1127.69C1756.68 1125.83 1757.22 1124.3 1757.53 1123.1 1757.84 1121.9 1758 1120.78 1758 1119.73 1758 1118.1 1757.56 1116.86 1756.69 1116.01 1755.82 1115.16 1754.22 1114.48 1751.89 1113.98L1751.89 1111.13 1773.63 1111.13 1773.63 1113.98C1772.12 1114.29 1770.95 1114.76 1770.14 1115.4 1769.33 1116.04 1768.51 1117.05 1767.7 1118.42 1766.89 1119.8 1765.92 1121.73 1764.79 1124.21L1745.21 1167.26 1738.36 1167.26 1722.61 1123.86C1721.53 1120.87 1720.66 1118.83 1720.02 1117.73 1719.38 1116.62 1718.69 1115.8 1717.93 1115.26 1717.18 1114.71 1716.08 1114.29 1714.65 1113.98Z" fill="#595959" fill-rule="evenodd"/><text fill="#000000" fill-opacity="0" font-family="Arial,Arial_MSFontService,sans-serif" font-size="56.1299" x="1714.65" y="1160.25">v</text><path d="M1717.99 1090.97 1769.18 1090.97 1769.18 1097.13 1717.99 1097.13Z" fill="#595959" fill-rule="evenodd"/><text fill="#000000" fill-opacity="0" font-family="Arial,Arial_MSFontService,sans-serif" font-size="6.15918" x="1717.99" y="1096.36">ത</text><path d="M1815.45 1140.88 1887.04 1140.88 1887.04 1148.61 1815.45 1148.61ZM1815.45 1116.77 1887.04 1116.77 1887.04 1124.5 1815.45 1124.5Z" fill="#595959" fill-rule="evenodd"/><text fill="#000000" fill-opacity="0" font-family="Arial,Arial_MSFontService,sans-serif" font-size="31.8418" x="1815.45" y="1144.63">=</text><path d="M1967.5 1001.35C1964.02 1001.35 1961.02 1002.16 1958.52 1003.79 1956.03 1005.42 1953.95 1007.73 1952.31 1010.73 1950.66 1013.74 1949.46 1017.37 1948.7 1021.63 1947.95 1025.89 1947.57 1030.64 1947.57 1035.86 1947.57 1047.76 1949.3 1056.8 1952.77 1063 1956.24 1069.2 1961.3 1072.3 1967.97 1072.3 1972.19 1072.3 1975.77 1070.95 1978.72 1068.26 1981.66 1065.57 1983.87 1061.62 1985.34 1056.43 1986.81 1051.24 1987.55 1045.18 1987.55 1038.25 1987.55 1029.8 1986.69 1022.8 1984.96 1017.24 1983.24 1011.68 1980.89 1007.64 1977.9 1005.13 1974.92 1002.61 1971.45 1001.35 1967.5 1001.35ZM1967.91 996.237C1974.8 996.237 1980.6 997.757 1985.31 1000.8 1990.02 1003.84 1993.56 1008.31 1995.94 1014.22 1998.33 1020.13 1999.52 1027.32 1999.52 1035.81 1999.52 1046.58 1997.6 1055.4 1993.77 1062.27 1989.93 1069.15 1984.35 1073.71 1977.03 1075.96L1979.06 1078.92C1980.11 1080.43 1981.1 1081.8 1982.03 1083.02 1982.96 1084.24 1983.95 1085.4 1985.02 1086.5 1986.09 1087.61 1987.09 1088.5 1988.04 1089.18 1988.99 1089.85 1989.89 1090.34 1990.74 1090.63 1991.6 1090.92 1992.41 1091.06 1993.18 1091.06 1995.31 1091.06 1997.15 1090.67 1998.7 1089.87 2000.25 1089.08 2001.74 1087.99 2003.18 1086.59L2005.97 1090.19C2002.95 1093.21 2000.14 1095.38 1997.54 1096.7 1994.95 1098.02 1992.27 1098.68 1989.52 1098.68 1987.32 1098.68 1985.49 1098.46 1984.06 1098.04 1982.63 1097.61 1981.2 1096.91 1979.79 1095.95 1978.38 1094.98 1976.8 1093.51 1975.06 1091.53 1973.31 1089.55 1971.3 1086.86 1969.01 1083.45L1964.89 1077.35C1955.24 1076.89 1947.95 1073.27 1943.01 1066.49 1938.07 1059.71 1935.6 1050.04 1935.6 1037.49 1935.6 1028.85 1936.92 1021.44 1939.55 1015.24 1942.19 1009.04 1945.95 1004.32 1950.85 1001.09 1955.75 997.854 1961.44 996.237 1967.91 996.237Z" fill="#595959" fill-rule="evenodd"/><text fill="#000000" fill-opacity="0" font-family="Arial,Arial_MSFontService,sans-serif" font-size="102.44" x="1935.6" y="1085.87">Q</text><path d="M1967.59 1177.55 1954.35 1215.03 1978.63 1215.03ZM1965.33 1166.16 1974.51 1166.16 1994.26 1230.95C1995.19 1233.97 1996.02 1236.28 1996.73 1237.87 1997.45 1239.45 1998.31 1240.69 1999.32 1241.58 2000.33 1242.48 2001.7 1243.13 2003.44 1243.56L2003.44 1246.41 1976.66 1246.41 1976.66 1243.56C1978.59 1243.17 1980.04 1242.75 1980.99 1242.28 1981.94 1241.82 1982.64 1241.17 1983.11 1240.34 1983.57 1239.5 1983.8 1238.39 1983.8 1236.99 1983.8 1235.68 1983.65 1234.25 1983.34 1232.72 1983.03 1231.19 1982.58 1229.48 1982 1227.58L1979.85 1220.09 1952.78 1220.09 1950.8 1225.78C1949.79 1228.65 1949.14 1230.82 1948.83 1232.29 1948.52 1233.76 1948.36 1235.1 1948.36 1236.3 1948.36 1238.62 1948.95 1240.33 1950.13 1241.41 1951.31 1242.49 1953.12 1243.21 1955.57 1243.56L1955.57 1246.41 1930.75 1246.41 1930.75 1243.56C1932.92 1243.21 1934.81 1241.95 1936.42 1239.78 1938.03 1237.61 1939.59 1234.52 1941.1 1230.49Z" fill="#595959" fill-rule="evenodd"/><text fill="#000000" fill-opacity="0" font-family="Arial,Arial_MSFontService,sans-serif" font-size="80.2437" x="1930.75" y="1236.38">A</text><path d="M1928.67 1128.69 2006.67 1128.69 2006.67 1136.69 1928.67 1136.69Z" fill="#595959" fill-rule="evenodd"/></g></svg>