<svg width="2069" height="568" xmlns="http://www.w3.org/2000/svg" xmlns:xlink="http://www.w3.org/1999/xlink" xml:space="preserve" overflow="hidden"><g transform="translate(-917 -1482)"><path d="M1018.82 1826.37C1014.72 1826.37 1011.44 1828.61 1009 1833.08 1006.56 1837.55 1005.34 1843.51 1005.34 1850.95 1005.34 1865.24 1008.89 1872.39 1015.97 1872.39 1023.53 1872.39 1028.95 1865.01 1032.24 1850.25 1031.2 1841.54 1029.66 1835.38 1027.62 1831.77 1025.59 1828.17 1022.66 1826.37 1018.82 1826.37ZM1018.36 1821.78C1023.24 1821.78 1027.06 1822.94 1029.83 1825.27 1032.6 1827.59 1034.99 1831.48 1037.01 1836.94L1037.88 1836.94 1041.95 1822.77 1051.48 1822.77 1051.48 1825.61C1048.69 1829.91 1044.97 1837.87 1040.32 1849.5 1041.13 1857.32 1042.08 1863.21 1043.17 1867.16 1044.25 1871.11 1046 1873.09 1048.4 1873.09 1049.99 1873.09 1051.86 1872.2 1054.03 1870.41L1056.3 1873.84C1052.16 1877.44 1048.01 1879.25 1043.87 1879.25 1037.94 1879.25 1034.37 1873.82 1033.17 1862.98L1032.53 1862.98C1027.23 1873.82 1020.72 1879.25 1013.01 1879.25 1007.24 1879.25 1002.75 1876.86 999.531 1872.1 996.316 1867.33 994.708 1860.54 994.708 1851.7 994.708 1842.6 997.013 1835.34 1001.62 1829.91 1006.23 1824.49 1011.81 1821.78 1018.36 1821.78Z" fill="#595959" fill-rule="evenodd"/><text fill="#000000" fill-opacity="0" font-family="Arial,Arial_MSFontService,sans-serif" font-size="57.4663" x="994.708" y="1872.06">α</text><path d="M1098.59 1852.52 1170.18 1852.52 1170.18 1860.25 1098.59 1860.25ZM1098.59 1828.4 1170.18 1828.4 1170.18 1836.13 1098.59 1836.13Z" fill="#595959" fill-rule="evenodd"/><text fill="#000000" fill-opacity="0" font-family="Arial,Arial_MSFontService,sans-serif" font-size="31.8418" x="1098.59" y="1856.26">=</text><path d="M1253.65 1707.87 1256.84 1707.87C1256.61 1711.59 1256.5 1716.74 1256.5 1723.33L1256.5 1772.95C1256.5 1775.2 1256.62 1776.89 1256.87 1778.03 1257.13 1779.18 1257.57 1780.11 1258.21 1780.82 1258.85 1781.54 1259.77 1782.1 1260.97 1782.51 1262.17 1782.92 1263.68 1783.23 1265.5 1783.44 1267.32 1783.65 1269.72 1783.8 1272.71 1783.87L1272.71 1788.12 1229.77 1788.12 1229.77 1783.87C1234.07 1783.68 1237.14 1783.42 1238.98 1783.09 1240.82 1782.76 1242.22 1782.27 1243.19 1781.61 1244.16 1780.95 1244.87 1780.02 1245.31 1778.82 1245.76 1777.62 1245.98 1775.66 1245.98 1772.95L1245.98 1725.83C1245.98 1724.28 1245.71 1723.14 1245.17 1722.43 1244.62 1721.71 1243.83 1721.35 1242.78 1721.35 1241.54 1721.35 1239.78 1721.99 1237.5 1723.27 1235.21 1724.55 1232.38 1726.31 1229.01 1728.56L1226.46 1724.08Z" fill="#595959" fill-rule="evenodd"/><text fill="#000000" fill-opacity="0" font-family="Arial,Arial_MSFontService,sans-serif" font-size="80.2437" x="1226.46" y="1778.09">1</text><path d="M1249.02 1889.19 1235.77 1926.67 1260.06 1926.67ZM1246.75 1877.8 1255.93 1877.8 1275.69 1942.59C1276.62 1945.61 1277.44 1947.91 1278.16 1949.5 1278.87 1951.09 1279.73 1952.33 1280.74 1953.22 1281.75 1954.11 1283.12 1954.77 1284.87 1955.2L1284.87 1958.04 1258.08 1958.04 1258.08 1955.2C1260.02 1954.81 1261.46 1954.38 1262.41 1953.92 1263.36 1953.45 1264.06 1952.8 1264.53 1951.97 1264.99 1951.14 1265.23 1950.02 1265.23 1948.63 1265.23 1947.31 1265.07 1945.89 1264.76 1944.36 1264.45 1942.83 1264.01 1941.11 1263.43 1939.22L1261.28 1931.72 1234.2 1931.72 1232.22 1937.42C1231.22 1940.28 1230.56 1942.45 1230.25 1943.92 1229.94 1945.4 1229.78 1946.73 1229.78 1947.93 1229.78 1950.26 1230.37 1951.96 1231.55 1953.05 1232.74 1954.13 1234.55 1954.85 1236.99 1955.2L1236.99 1958.04 1212.18 1958.04 1212.18 1955.2C1214.35 1954.85 1216.23 1953.59 1217.84 1951.42 1219.45 1949.25 1221.01 1946.15 1222.52 1942.12Z" fill="#595959" fill-rule="evenodd"/><text fill="#000000" fill-opacity="0" font-family="Arial,Arial_MSFontService,sans-serif" font-size="80.2437" x="1212.18" y="1948.01">A</text><path d="M1212.1 1840.32 1286.1 1840.32 1286.1 1848.32 1212.1 1848.32Z" fill="#595959" fill-rule="evenodd"/><path d="M1378.92 1716.37C1380.98 1716.37 1382.85 1716.55 1384.53 1716.92 1386.22 1717.29 1387.64 1717.74 1388.8 1718.29L1387.7 1730.43 1381.25 1730.43C1381.13 1728.3 1380.67 1726.68 1379.85 1725.58 1379.04 1724.47 1377.55 1723.92 1375.38 1723.92 1369.96 1723.92 1366 1730.02 1363.53 1742.23 1361.05 1754.43 1358.82 1788.11 1356.84 1843.27 1354.87 1892.89 1351.02 1926.81 1345.31 1945.01 1339.6 1963.22 1331.88 1972.32 1322.15 1972.32 1320.18 1972.32 1318.36 1972.17 1316.69 1971.86 1315.03 1971.55 1313.55 1971.04 1312.28 1970.35L1313.38 1957.62 1319.25 1957.62C1319.83 1960.18 1320.59 1961.97 1321.52 1963 1322.45 1964.02 1323.86 1964.54 1325.76 1964.54 1329.24 1964.54 1332.59 1958.51 1335.81 1946.47 1339.02 1934.42 1341.54 1902.91 1343.36 1851.93 1345.61 1796.61 1349.22 1760.19 1354.2 1742.66 1359.18 1725.13 1367.42 1716.37 1378.92 1716.37Z" fill="#595959" fill-rule="evenodd"/><text fill="#000000" fill-opacity="0" font-family="Arial,Arial_MSFontService,sans-serif" font-size="255.955" x="1312.28" y="1940.33">න</text><path d="M1605.25 1746.19C1618.23 1752.78 1628.54 1764.87 1636.19 1782.45 1643.84 1800.04 1647.67 1820.65 1647.67 1844.28 1647.67 1867.75 1643.84 1888.36 1636.19 1906.1 1628.54 1923.84 1618.23 1935.97 1605.25 1942.47L1603.39 1937.83C1613.77 1931.09 1621.9 1919.5 1627.76 1903.08 1633.63 1886.66 1636.57 1867.09 1636.57 1844.39 1636.57 1821.27 1633.61 1801.58 1627.71 1785.33 1621.8 1769.08 1613.69 1757.58 1603.39 1750.84ZM1474.77 1746.19 1476.68 1750.84C1466.38 1757.58 1458.27 1769.08 1452.37 1785.33 1446.46 1801.58 1443.5 1821.27 1443.5 1844.39 1443.5 1867.09 1446.43 1886.66 1452.28 1903.08 1458.13 1919.5 1466.26 1931.09 1476.68 1937.83L1474.77 1942.47C1461.83 1935.97 1451.53 1923.84 1443.88 1906.1 1436.23 1888.36 1432.41 1867.75 1432.41 1844.28 1432.41 1820.65 1436.23 1800.04 1443.88 1782.45 1451.53 1764.87 1461.83 1752.78 1474.77 1746.19Z" fill="#595959" fill-rule="evenodd"/><path d="M1481.7 1732.57 1505.41 1732.57 1505.41 1735.41C1503.62 1735.84 1502.36 1736.25 1501.63 1736.63 1500.89 1737.02 1500.34 1737.53 1499.97 1738.15 1499.6 1738.77 1499.42 1739.6 1499.42 1740.64 1499.42 1741.69 1499.55 1742.78 1499.8 1743.93 1500.05 1745.07 1500.45 1746.4 1500.99 1747.91L1511.1 1777.31 1522.95 1749.13C1523.73 1747.27 1524.27 1745.74 1524.58 1744.54 1524.89 1743.34 1525.05 1742.21 1525.05 1741.17 1525.05 1739.54 1524.61 1738.3 1523.74 1737.45 1522.87 1736.6 1521.27 1735.92 1518.94 1735.41L1518.94 1732.57 1540.68 1732.57 1540.68 1735.41C1539.16 1735.72 1538 1736.2 1537.19 1736.84 1536.38 1737.48 1535.56 1738.48 1534.75 1739.86 1533.94 1741.23 1532.97 1743.16 1531.84 1745.64L1512.26 1788.7 1505.41 1788.7 1489.66 1745.29C1488.57 1742.31 1487.71 1740.27 1487.07 1739.16 1486.43 1738.06 1485.74 1737.23 1484.98 1736.69 1484.23 1736.15 1483.13 1735.72 1481.7 1735.41Z" fill="#595959" fill-rule="evenodd"/><text fill="#000000" fill-opacity="0" font-family="Arial,Arial_MSFontService,sans-serif" font-size="56.1299" x="1481.7" y="1781.68">v</text><path d="M1555.75 1750.62 1558.76 1750.62 1558.76 1776.7 1558.85 1776.7C1560.29 1775.32 1561.62 1774.13 1562.84 1773.16 1564.06 1772.18 1565.23 1771.39 1566.35 1770.78 1567.46 1770.17 1568.56 1769.73 1569.64 1769.46 1570.71 1769.19 1571.85 1769.06 1573.04 1769.06 1577.45 1769.06 1580.64 1770.27 1582.59 1772.69 1584.55 1775.11 1585.53 1778.9 1585.53 1784.05L1585.53 1801.6C1585.53 1803.3 1585.55 1804.6 1585.59 1805.51 1585.63 1806.41 1585.81 1807.11 1586.12 1807.59 1586.43 1808.07 1586.96 1808.44 1587.69 1808.69 1588.43 1808.95 1589.48 1809.29 1590.84 1809.71L1590.84 1812.43 1572.1 1812.43 1572.1 1809.71C1573.23 1809.32 1574.13 1809 1574.8 1808.76 1575.46 1808.52 1575.97 1808.16 1576.31 1807.69 1576.65 1807.23 1576.87 1806.55 1576.97 1805.68 1577.06 1804.8 1577.11 1803.51 1577.11 1801.81L1577.11 1788.73C1577.11 1785.95 1576.99 1783.67 1576.73 1781.89 1576.48 1780.1 1576.05 1778.7 1575.46 1777.68 1574.86 1776.66 1574.06 1775.95 1573.06 1775.56 1572.05 1775.16 1570.81 1774.95 1569.34 1774.92 1568.26 1774.92 1567.11 1775.2 1565.88 1775.75 1564.65 1776.3 1563.51 1777.01 1562.46 1777.87 1561.41 1778.74 1560.53 1779.71 1559.82 1780.78 1559.12 1781.86 1558.76 1782.92 1558.76 1783.97L1558.76 1801.6C1558.76 1803.33 1558.8 1804.65 1558.87 1805.57 1558.94 1806.49 1559.14 1807.19 1559.48 1807.67 1559.82 1808.15 1560.33 1808.52 1561.01 1808.78 1561.69 1809.03 1562.64 1809.34 1563.86 1809.71L1563.86 1812.43 1545.21 1812.43 1545.21 1809.71C1546.43 1809.37 1547.38 1809.07 1548.08 1808.8 1548.77 1808.53 1549.29 1808.14 1549.63 1807.63 1549.97 1807.12 1550.18 1806.41 1550.27 1805.48 1550.35 1804.56 1550.39 1803.27 1550.39 1801.6L1550.39 1765.53C1550.39 1763.24 1550.39 1761.4 1550.39 1760.03 1550.39 1758.66 1550.22 1757.57 1549.88 1756.76 1549.54 1755.95 1548.96 1755.36 1548.14 1754.98 1547.32 1754.59 1546.09 1754.27 1544.45 1754.02L1544.45 1751.22Z" fill="#595959" fill-rule="evenodd"/><text fill="#000000" fill-opacity="0" font-family="Arial,Arial_MSFontService,sans-serif" font-size="61.8091" x="1544.45" y="1804.7">h</text><path d="M1511.1 1902.49 1534.81 1902.49 1534.81 1905.34C1533.03 1905.77 1531.77 1906.17 1531.03 1906.56 1530.29 1906.95 1529.74 1907.45 1529.37 1908.07 1529.01 1908.69 1528.82 1909.52 1528.82 1910.57 1528.82 1911.62 1528.95 1912.71 1529.2 1913.85 1529.45 1915 1529.85 1916.32 1530.39 1917.83L1540.5 1947.24 1552.36 1919.05C1553.13 1917.19 1553.67 1915.66 1553.98 1914.46 1554.29 1913.26 1554.45 1912.14 1554.45 1911.09 1554.45 1909.47 1554.01 1908.23 1553.14 1907.38 1552.27 1906.52 1550.67 1905.84 1548.35 1905.34L1548.35 1902.49 1570.08 1902.49 1570.08 1905.34C1568.57 1905.65 1567.4 1906.13 1566.59 1906.76 1565.78 1907.4 1564.96 1908.41 1564.15 1909.79 1563.34 1911.16 1562.37 1913.09 1561.25 1915.57L1541.66 1958.62 1534.81 1958.62 1519.06 1915.22C1517.98 1912.24 1517.11 1910.19 1516.48 1909.09 1515.84 1907.99 1515.14 1907.16 1514.38 1906.62 1513.63 1906.08 1512.53 1905.65 1511.1 1905.34Z" fill="#595959" fill-rule="evenodd"/><text fill="#000000" fill-opacity="0" font-family="Arial,Arial_MSFontService,sans-serif" font-size="56.1299" x="1511.1" y="1951.61">v</text><path d="M1514.44 1882.33 1565.63 1882.33 1565.63 1888.49 1514.44 1888.49Z" fill="#595959" fill-rule="evenodd"/><text fill="#000000" fill-opacity="0" font-family="Arial,Arial_MSFontService,sans-serif" font-size="6.15918" x="1514.44" y="1887.72">ത</text><path d="M1480.1 1840.32 1599.1 1840.32 1599.1 1848.32 1480.1 1848.32Z" fill="#595959" fill-rule="evenodd"/><path d="M1683.25 1704.25C1685.51 1704.25 1687.63 1704.49 1689.6 1704.97 1691.56 1705.46 1693.27 1706.18 1694.71 1707.16 1696.16 1708.14 1697.29 1709.36 1698.09 1710.81 1698.9 1712.27 1699.3 1713.97 1699.3 1715.89 1699.3 1717.7 1699.05 1719.3 1698.54 1720.69 1698.03 1722.08 1697.24 1723.34 1696.18 1724.47 1695.12 1725.61 1693.82 1726.63 1692.27 1727.55 1690.73 1728.47 1688.95 1729.36 1686.94 1730.21L1686.94 1730.72C1688.84 1731.06 1690.61 1731.6 1692.25 1732.35 1693.89 1733.1 1695.33 1734.05 1696.56 1735.2 1697.79 1736.35 1698.76 1737.67 1699.47 1739.17 1700.18 1740.67 1700.53 1742.33 1700.53 1744.14 1700.53 1746.41 1700.11 1748.51 1699.26 1750.45 1698.41 1752.39 1697.14 1754.07 1695.44 1755.48 1693.74 1756.9 1691.64 1758 1689.15 1758.8 1686.66 1759.59 1683.74 1759.99 1680.4 1759.99 1677.77 1759.99 1675.09 1759.72 1672.37 1759.2 1669.65 1758.68 1667.07 1757.99 1664.64 1757.14L1664.64 1747.96 1670.12 1747.96C1670.57 1749.38 1671.11 1750.59 1671.73 1751.6 1672.36 1752.6 1673.09 1753.42 1673.92 1754.06 1674.76 1754.7 1675.72 1755.16 1676.81 1755.44 1677.9 1755.72 1679.14 1755.87 1680.53 1755.87 1684.18 1755.87 1686.95 1754.99 1688.83 1753.25 1690.71 1751.51 1691.66 1748.87 1691.66 1745.33 1691.66 1741.56 1690.42 1738.71 1687.94 1736.77 1685.46 1734.83 1681.79 1733.86 1676.92 1733.86L1673.18 1733.86 1673.18 1729.78C1676.15 1729.64 1678.72 1729.22 1680.89 1728.53 1683.05 1727.84 1684.86 1726.94 1686.3 1725.83 1687.75 1724.73 1688.82 1723.44 1689.53 1721.97 1690.24 1720.49 1690.59 1718.92 1690.59 1717.25 1690.59 1714.53 1689.79 1712.39 1688.17 1710.81 1686.56 1709.24 1684.22 1708.46 1681.16 1708.46 1678.59 1708.46 1676.43 1709.17 1674.69 1710.58 1672.94 1712 1671.61 1714.11 1670.67 1716.91L1665.28 1716.91 1665.28 1708.54C1668.62 1707.13 1671.77 1706.06 1674.73 1705.33 1677.69 1704.61 1680.53 1704.25 1683.25 1704.25Z" fill="#595959" fill-rule="evenodd"/><text fill="#000000" fill-opacity="0" font-family="Arial,Arial_MSFontService,sans-serif" font-size="55.7344" x="1664.64" y="1753.02">3</text><path d="M1765.45 1826.43C1760.49 1826.43 1756.72 1828.41 1754.12 1832.38 1751.53 1836.35 1750.23 1842.06 1750.23 1849.5 1750.23 1856.93 1751.29 1862.59 1753.43 1866.46 1755.56 1870.34 1758.79 1872.27 1763.13 1872.27 1764.83 1872.27 1766.25 1872.13 1767.37 1871.84 1768.49 1871.55 1769.6 1871.08 1770.68 1870.44 1771.77 1869.8 1772.87 1868.92 1773.99 1867.8 1775.12 1866.68 1775.94 1865.65 1776.46 1864.72 1776.99 1863.79 1777.38 1862.72 1777.66 1861.52 1777.93 1860.32 1778.06 1858.77 1778.06 1856.88L1778.06 1843.86C1778.06 1840.84 1777.93 1838.42 1777.66 1836.6 1777.38 1834.78 1776.93 1833.25 1776.29 1832.01 1775.65 1830.77 1774.79 1829.72 1773.7 1828.87 1772.62 1828.02 1771.43 1827.4 1770.13 1827.01 1768.83 1826.62 1767.27 1826.43 1765.45 1826.43ZM1836.39 1809.46 1823.14 1846.94 1847.43 1846.94ZM1834.13 1798.07 1843.31 1798.07 1863.06 1862.86C1863.99 1865.88 1864.82 1868.19 1865.53 1869.77 1866.25 1871.36 1867.11 1872.6 1868.12 1873.49 1869.12 1874.38 1870.5 1875.04 1872.24 1875.47L1872.24 1878.32 1845.46 1878.32 1845.46 1875.47C1847.39 1875.08 1848.84 1874.66 1849.79 1874.19 1850.73 1873.73 1851.44 1873.08 1851.91 1872.24 1852.37 1871.41 1852.6 1870.3 1852.6 1868.9 1852.6 1867.59 1852.45 1866.16 1852.14 1864.63 1851.83 1863.1 1851.38 1861.39 1850.8 1859.49L1848.65 1851.99 1821.58 1851.99 1819.6 1857.69C1818.59 1860.56 1817.93 1862.72 1817.62 1864.2 1817.31 1865.67 1817.16 1867 1817.16 1868.21 1817.16 1870.53 1817.75 1872.23 1818.93 1873.32 1820.11 1874.4 1821.92 1875.12 1824.36 1875.47L1824.36 1878.32 1799.55 1878.32 1799.55 1875.47C1801.72 1875.12 1803.61 1873.86 1805.22 1871.69 1806.83 1869.52 1808.39 1866.42 1809.9 1862.4ZM1784.63 1795.17 1788.06 1795.17 1788.06 1862.45C1788.06 1865.47 1788.11 1867.63 1788.23 1868.93 1788.35 1870.23 1788.6 1871.27 1788.99 1872.04 1789.37 1872.82 1789.98 1873.44 1790.82 1873.93 1791.65 1874.41 1793.11 1874.87 1795.2 1875.29L1795.2 1878.32 1781.49 1878.9 1778 1878.9 1778.7 1869.37 1777.83 1869.14C1775.39 1871.73 1773.27 1873.68 1771.47 1874.97 1769.67 1876.27 1767.75 1877.31 1765.71 1878.08 1763.68 1878.86 1761.5 1879.25 1759.18 1879.25 1752.82 1879.25 1747.92 1876.83 1744.48 1872.01 1741.03 1867.19 1739.31 1860.23 1739.31 1851.12 1739.31 1844.77 1740.43 1839.38 1742.68 1834.94 1744.92 1830.5 1747.95 1827.2 1751.77 1825.03 1755.58 1822.86 1759.88 1821.78 1764.64 1821.78 1767.2 1821.78 1769.52 1821.98 1771.61 1822.39 1773.7 1822.8 1775.85 1823.46 1778.06 1824.39L1778.06 1815.16C1778.06 1811.44 1778.03 1808.84 1777.97 1807.37 1777.92 1805.9 1777.76 1804.65 1777.51 1803.62 1777.26 1802.59 1776.91 1801.79 1776.46 1801.21 1776.02 1800.63 1775.42 1800.16 1774.66 1799.82 1773.91 1799.47 1772.54 1799.12 1770.57 1798.77L1770.57 1795.75Z" fill="#595959" fill-rule="evenodd"/><text fill="#000000" fill-opacity="0" font-family="Arial,Arial_MSFontService,sans-serif" font-size="84.0786" x="1739.31" y="1868.74">dA</text><path d="M2066.91 1799.76C2061.52 1799.76 2057.66 1802.13 2055.31 1806.88 2052.97 1811.62 2051.8 1818.82 2051.8 1828.46L2051.8 1862.98C2051.8 1866.54 2053.18 1869.35 2055.95 1871.4 2058.72 1873.45 2061.99 1874.48 2065.74 1874.48 2075.89 1874.48 2080.97 1868.75 2080.97 1857.28 2080.97 1851.12 2079.21 1846.24 2075.71 1842.64 2072.2 1839.04 2067.22 1837.16 2060.75 1837L2060.75 1832.35C2066.21 1832.16 2070.66 1830.39 2074.11 1827.04 2077.56 1823.69 2079.28 1819.28 2079.28 1813.82 2079.28 1809.36 2078.17 1805.91 2075.94 1803.45 2073.71 1800.99 2070.7 1799.76 2066.91 1799.76ZM2068.13 1794.88C2074.75 1794.88 2080.01 1796.51 2083.9 1799.79 2087.8 1803.06 2089.74 1807.58 2089.74 1813.35 2089.74 1823.31 2084.12 1830.13 2072.89 1833.81L2072.89 1834.27C2085.56 1837.18 2091.89 1844.6 2091.89 1856.53 2091.89 1863.89 2089.59 1869.51 2084.98 1873.41 2080.37 1877.3 2074.67 1879.25 2067.89 1879.25 2061.77 1879.25 2056.41 1877.58 2051.8 1874.25L2051.8 1903.42 2041.8 1903.42 2041.8 1827.65C2041.8 1805.8 2050.58 1794.88 2068.13 1794.88Z" fill="#595959" fill-rule="evenodd"/><text fill="#000000" fill-opacity="0" font-family="Arial,Arial_MSFontService,sans-serif" font-size="108.541" x="2041.8" y="1889.85">β</text><path d="M2139.33 1852.52 2210.92 1852.52 2210.92 1860.25 2139.33 1860.25ZM2139.33 1828.4 2210.92 1828.4 2210.92 1836.13 2139.33 1836.13Z" fill="#595959" fill-rule="evenodd"/><text fill="#000000" fill-opacity="0" font-family="Arial,Arial_MSFontService,sans-serif" font-size="31.8418" x="2139.33" y="1856.26">=</text><path d="M2294.39 1707.87 2297.58 1707.87C2297.35 1711.59 2297.23 1716.74 2297.23 1723.33L2297.23 1772.95C2297.23 1775.2 2297.36 1776.89 2297.61 1778.03 2297.86 1779.18 2298.31 1780.11 2298.95 1780.82 2299.59 1781.54 2300.51 1782.1 2301.71 1782.51 2302.91 1782.92 2304.42 1783.23 2306.24 1783.44 2308.06 1783.65 2310.46 1783.8 2313.45 1783.87L2313.45 1788.12 2270.51 1788.12 2270.51 1783.87C2274.81 1783.68 2277.88 1783.42 2279.72 1783.09 2281.56 1782.76 2282.96 1782.27 2283.93 1781.61 2284.9 1780.95 2285.6 1780.02 2286.05 1778.82 2286.49 1777.62 2286.72 1775.66 2286.72 1772.95L2286.72 1725.83C2286.72 1724.28 2286.45 1723.14 2285.9 1722.43 2285.36 1721.71 2284.57 1721.35 2283.52 1721.35 2282.28 1721.35 2280.52 1721.99 2278.23 1723.27 2275.95 1724.55 2273.12 1726.31 2269.75 1728.56L2267.19 1724.08Z" fill="#595959" fill-rule="evenodd"/><text fill="#000000" fill-opacity="0" font-family="Arial,Arial_MSFontService,sans-serif" font-size="80.2437" x="2267.19" y="1778.09">1</text><path d="M2289.75 1889.19 2276.5 1926.67 2300.79 1926.67ZM2287.49 1877.8 2296.67 1877.8 2316.42 1942.59C2317.35 1945.61 2318.18 1947.91 2318.89 1949.5 2319.61 1951.09 2320.47 1952.33 2321.48 1953.22 2322.49 1954.11 2323.86 1954.77 2325.6 1955.2L2325.6 1958.04 2298.82 1958.04 2298.82 1955.2C2300.75 1954.81 2302.2 1954.38 2303.15 1953.92 2304.09 1953.45 2304.8 1952.8 2305.27 1951.97 2305.73 1951.14 2305.96 1950.02 2305.96 1948.63 2305.96 1947.31 2305.81 1945.89 2305.5 1944.36 2305.19 1942.83 2304.74 1941.11 2304.16 1939.22L2302.01 1931.72 2274.94 1931.72 2272.96 1937.42C2271.95 1940.28 2271.29 1942.45 2270.98 1943.92 2270.67 1945.4 2270.52 1946.73 2270.52 1947.93 2270.52 1950.26 2271.11 1951.96 2272.29 1953.05 2273.47 1954.13 2275.28 1954.85 2277.72 1955.2L2277.72 1958.04 2252.91 1958.04 2252.91 1955.2C2255.08 1954.85 2256.97 1953.59 2258.58 1951.42 2260.19 1949.25 2261.75 1946.15 2263.26 1942.12Z" fill="#595959" fill-rule="evenodd"/><text fill="#000000" fill-opacity="0" font-family="Arial,Arial_MSFontService,sans-serif" font-size="80.2437" x="2252.91" y="1948.01">A</text><path d="M2252.1 1840.32 2326.1 1840.32 2326.1 1848.32 2252.1 1848.32Z" fill="#595959" fill-rule="evenodd"/><path d="M2419.66 1716.37C2421.71 1716.37 2423.58 1716.55 2425.27 1716.92 2426.95 1717.29 2428.38 1717.74 2429.54 1718.29L2428.44 1730.43 2421.99 1730.43C2421.87 1728.3 2421.4 1726.68 2420.59 1725.58 2419.78 1724.47 2418.29 1723.92 2416.12 1723.92 2410.69 1723.92 2406.74 1730.02 2404.26 1742.23 2401.78 1754.43 2399.56 1788.11 2397.58 1843.27 2395.61 1892.89 2391.76 1926.81 2386.05 1945.01 2380.33 1963.22 2372.61 1972.32 2362.89 1972.32 2360.92 1972.32 2359.1 1972.17 2357.43 1971.86 2355.76 1971.55 2354.29 1971.04 2353.01 1970.35L2354.12 1957.62 2359.99 1957.62C2360.57 1960.18 2361.32 1961.97 2362.25 1963 2363.18 1964.02 2364.6 1964.54 2366.49 1964.54 2369.98 1964.54 2373.33 1958.51 2376.55 1946.47 2379.76 1934.42 2382.28 1902.91 2384.1 1851.93 2386.35 1796.61 2389.96 1760.19 2394.94 1742.66 2399.92 1725.13 2408.16 1716.37 2419.66 1716.37Z" fill="#595959" fill-rule="evenodd"/><text fill="#000000" fill-opacity="0" font-family="Arial,Arial_MSFontService,sans-serif" font-size="255.955" x="2353.01" y="1940.33">න</text><path d="M2645.99 1746.19C2658.96 1752.78 2669.28 1764.87 2676.93 1782.45 2684.58 1800.04 2688.4 1820.65 2688.4 1844.28 2688.4 1867.75 2684.58 1888.36 2676.93 1906.1 2669.28 1923.84 2658.96 1935.97 2645.99 1942.47L2644.13 1937.83C2654.51 1931.09 2662.63 1919.5 2668.5 1903.08 2674.37 1886.66 2677.31 1867.09 2677.31 1844.39 2677.31 1821.27 2674.35 1801.58 2668.44 1785.33 2662.54 1769.08 2654.43 1757.58 2644.13 1750.84ZM2515.5 1746.19 2517.42 1750.84C2507.12 1757.58 2499.01 1769.08 2493.1 1785.33 2487.2 1801.58 2484.24 1821.27 2484.24 1844.39 2484.24 1867.09 2487.17 1886.66 2493.02 1903.08 2498.87 1919.5 2507 1931.09 2517.42 1937.83L2515.5 1942.47C2502.56 1935.97 2492.27 1923.84 2484.62 1906.1 2476.97 1888.36 2473.14 1867.75 2473.14 1844.28 2473.14 1820.65 2476.97 1800.04 2484.62 1782.45 2492.27 1764.87 2502.56 1752.78 2515.5 1746.19Z" fill="#595959" fill-rule="evenodd"/><path d="M2522.44 1732.57 2546.14 1732.57 2546.14 1735.41C2544.36 1735.84 2543.1 1736.25 2542.37 1736.63 2541.63 1737.02 2541.08 1737.53 2540.71 1738.15 2540.34 1738.77 2540.16 1739.6 2540.16 1740.64 2540.16 1741.69 2540.28 1742.78 2540.54 1743.93 2540.79 1745.07 2541.18 1746.4 2541.73 1747.91L2551.84 1777.31 2563.69 1749.13C2564.47 1747.27 2565.01 1745.74 2565.32 1744.54 2565.63 1743.34 2565.78 1742.21 2565.78 1741.17 2565.78 1739.54 2565.35 1738.3 2564.48 1737.45 2563.6 1736.6 2562.01 1735.92 2559.68 1735.41L2559.68 1732.57 2581.41 1732.57 2581.41 1735.41C2579.9 1735.72 2578.74 1736.2 2577.93 1736.84 2577.11 1737.48 2576.3 1738.48 2575.49 1739.86 2574.67 1741.23 2573.7 1743.16 2572.58 1745.64L2553 1788.7 2546.14 1788.7 2530.4 1745.29C2529.31 1742.31 2528.45 1740.27 2527.81 1739.16 2527.17 1738.06 2526.47 1737.23 2525.72 1736.69 2524.96 1736.15 2523.87 1735.72 2522.44 1735.41Z" fill="#595959" fill-rule="evenodd"/><text fill="#000000" fill-opacity="0" font-family="Arial,Arial_MSFontService,sans-serif" font-size="56.1299" x="2522.44" y="1781.68">v</text><path d="M2596.48 1750.62 2599.5 1750.62 2599.5 1776.7 2599.58 1776.7C2601.03 1775.32 2602.36 1774.13 2603.58 1773.16 2604.8 1772.18 2605.96 1771.39 2607.08 1770.78 2608.2 1770.17 2609.3 1769.73 2610.37 1769.46 2611.45 1769.19 2612.58 1769.06 2613.77 1769.06 2618.19 1769.06 2621.38 1770.27 2623.33 1772.69 2625.29 1775.11 2626.26 1778.9 2626.26 1784.05L2626.26 1801.6C2626.26 1803.3 2626.28 1804.6 2626.33 1805.51 2626.37 1806.41 2626.55 1807.11 2626.86 1807.59 2627.17 1808.07 2627.69 1808.44 2628.43 1808.69 2629.17 1808.95 2630.21 1809.29 2631.57 1809.71L2631.57 1812.43 2612.84 1812.43 2612.84 1809.71C2613.97 1809.32 2614.87 1809 2615.54 1808.76 2616.2 1808.52 2616.7 1808.16 2617.04 1807.69 2617.38 1807.23 2617.6 1806.55 2617.7 1805.68 2617.8 1804.8 2617.85 1803.51 2617.85 1801.81L2617.85 1788.73C2617.85 1785.95 2617.72 1783.67 2617.47 1781.89 2617.21 1780.1 2616.79 1778.7 2616.19 1777.68 2615.6 1776.66 2614.8 1775.95 2613.79 1775.56 2612.79 1775.16 2611.55 1774.95 2610.08 1774.92 2609 1774.92 2607.85 1775.2 2606.62 1775.75 2605.38 1776.3 2604.24 1777.01 2603.2 1777.87 2602.15 1778.74 2601.27 1779.71 2600.56 1780.78 2599.85 1781.86 2599.5 1782.92 2599.5 1783.97L2599.5 1801.6C2599.5 1803.33 2599.54 1804.65 2599.61 1805.57 2599.68 1806.49 2599.88 1807.19 2600.22 1807.67 2600.56 1808.15 2601.07 1808.52 2601.75 1808.78 2602.43 1809.03 2603.38 1809.34 2604.6 1809.71L2604.6 1812.43 2585.95 1812.43 2585.95 1809.71C2587.17 1809.37 2588.12 1809.07 2588.82 1808.8 2589.51 1808.53 2590.03 1808.14 2590.37 1807.63 2590.71 1807.12 2590.92 1806.41 2591 1805.48 2591.09 1804.56 2591.13 1803.27 2591.13 1801.6L2591.13 1765.53C2591.13 1763.24 2591.13 1761.4 2591.13 1760.03 2591.13 1758.66 2590.96 1757.57 2590.62 1756.76 2590.28 1755.95 2589.7 1755.36 2588.88 1754.98 2588.06 1754.59 2586.83 1754.27 2585.18 1754.02L2585.18 1751.22Z" fill="#595959" fill-rule="evenodd"/><text fill="#000000" fill-opacity="0" font-family="Arial,Arial_MSFontService,sans-serif" font-size="61.8091" x="2585.18" y="1804.7">h</text><path d="M2551.84 1902.49 2575.54 1902.49 2575.54 1905.34C2573.76 1905.77 2572.5 1906.17 2571.77 1906.56 2571.03 1906.95 2570.48 1907.45 2570.11 1908.07 2569.74 1908.69 2569.56 1909.52 2569.56 1910.57 2569.56 1911.62 2569.69 1912.71 2569.94 1913.85 2570.19 1915 2570.59 1916.32 2571.13 1917.83L2581.24 1947.24 2593.09 1919.05C2593.87 1917.19 2594.41 1915.66 2594.72 1914.46 2595.03 1913.26 2595.18 1912.14 2595.18 1911.09 2595.18 1909.47 2594.75 1908.23 2593.88 1907.38 2593.01 1906.52 2591.41 1905.84 2589.08 1905.34L2589.08 1902.49 2610.81 1902.49 2610.81 1905.34C2609.3 1905.65 2608.14 1906.13 2607.33 1906.76 2606.52 1907.4 2605.7 1908.41 2604.89 1909.79 2604.07 1911.16 2603.11 1913.09 2601.98 1915.57L2582.4 1958.62 2575.54 1958.62 2559.8 1915.22C2558.71 1912.24 2557.85 1910.19 2557.21 1909.09 2556.57 1907.99 2555.88 1907.16 2555.12 1906.62 2554.37 1906.08 2553.27 1905.65 2551.84 1905.34Z" fill="#595959" fill-rule="evenodd"/><text fill="#000000" fill-opacity="0" font-family="Arial,Arial_MSFontService,sans-serif" font-size="56.1299" x="2551.84" y="1951.61">v</text><path d="M2555.18 1882.33 2606.37 1882.33 2606.37 1888.49 2555.18 1888.49Z" fill="#595959" fill-rule="evenodd"/><text fill="#000000" fill-opacity="0" font-family="Arial,Arial_MSFontService,sans-serif" font-size="6.15918" x="2555.18" y="1887.72">ത</text><path d="M2521.1 1840.32 2640.1 1840.32 2640.1 1848.32 2521.1 1848.32Z" fill="#595959" fill-rule="evenodd"/><path d="M2724.07 1704.25C2727.01 1704.25 2729.53 1704.58 2731.61 1705.25 2733.69 1705.92 2735.38 1706.81 2736.68 1707.95 2737.99 1709.08 2738.93 1710.44 2739.51 1712.03 2740.09 1713.61 2740.38 1715.32 2740.38 1717.17 2740.38 1718.27 2740.3 1719.3 2740.15 1720.25 2739.99 1721.19 2739.72 1722.13 2739.34 1723.05 2738.96 1723.97 2738.45 1724.9 2737.83 1725.83 2737.21 1726.77 2736.43 1727.76 2735.49 1728.81 2734.79 1729.71 2733.87 1730.76 2732.73 1731.95 2731.6 1733.14 2730.36 1734.41 2729.02 1735.77 2727.67 1737.13 2726.26 1738.55 2724.79 1740.02 2723.32 1741.49 2721.89 1742.95 2720.5 1744.4 2719.11 1745.84 2717.84 1747.24 2716.68 1748.6 2715.51 1749.96 2714.57 1751.21 2713.83 1752.34L2729.55 1752.34C2730.88 1752.34 2731.94 1752.29 2732.73 1752.19 2733.53 1752.09 2734.19 1751.87 2734.71 1751.53 2735.23 1751.19 2735.68 1750.68 2736.05 1749.98 2736.42 1749.29 2736.84 1748.33 2737.32 1747.11L2741.27 1747.11C2741.13 1749.13 2741 1751.15 2740.87 1753.19 2740.74 1755.23 2740.61 1757.25 2740.47 1759.26L2704.48 1759.26 2704.48 1757.05C2705.16 1755.53 2705.96 1754.02 2706.86 1752.53 2707.77 1751.04 2708.79 1749.54 2709.92 1748.01 2711.05 1746.48 2712.34 1744.9 2713.79 1743.27 2715.23 1741.64 2716.83 1739.95 2718.59 1738.19 2721.25 1735.53 2723.42 1733.26 2725.09 1731.38 2726.76 1729.49 2728.07 1727.81 2729.04 1726.34 2730 1724.87 2730.66 1723.51 2731.01 1722.26 2731.37 1721.02 2731.54 1719.69 2731.54 1718.27 2731.54 1716.83 2731.34 1715.49 2730.93 1714.28 2730.52 1713.06 2729.93 1712.03 2729.17 1711.18 2728.4 1710.33 2727.43 1709.66 2726.26 1709.18 2725.08 1708.7 2723.73 1708.46 2722.2 1708.46 2719.56 1708.46 2717.36 1709.17 2715.57 1710.6 2713.79 1712.03 2712.4 1714.11 2711.41 1716.83L2705.84 1716.83 2705.84 1708.54C2709.47 1707.04 2712.8 1705.95 2715.85 1705.27 2718.89 1704.59 2721.63 1704.25 2724.07 1704.25Z" fill="#595959" fill-rule="evenodd"/><text fill="#000000" fill-opacity="0" font-family="Arial,Arial_MSFontService,sans-serif" font-size="55.0122" x="2704.48" y="1752.39">2</text><path d="M2806.19 1826.43C2801.23 1826.43 2797.46 1828.41 2794.86 1832.38 2792.26 1836.35 2790.97 1842.06 2790.97 1849.5 2790.97 1856.93 2792.03 1862.59 2794.16 1866.46 2796.29 1870.34 2799.53 1872.27 2803.87 1872.27 2805.57 1872.27 2806.98 1872.13 2808.11 1871.84 2809.23 1871.55 2810.34 1871.08 2811.42 1870.44 2812.5 1869.8 2813.61 1868.92 2814.73 1867.8 2815.86 1866.68 2816.68 1865.65 2817.2 1864.72 2817.72 1863.79 2818.12 1862.72 2818.39 1861.52 2818.66 1860.32 2818.8 1858.77 2818.8 1856.88L2818.8 1843.86C2818.8 1840.84 2818.66 1838.42 2818.39 1836.6 2818.12 1834.78 2817.67 1833.25 2817.03 1832.01 2816.39 1830.77 2815.53 1829.72 2814.44 1828.87 2813.36 1828.02 2812.17 1827.4 2810.87 1827.01 2809.57 1826.62 2808.01 1826.43 2806.19 1826.43ZM2877.13 1809.46 2863.88 1846.94 2888.17 1846.94ZM2874.86 1798.07 2884.04 1798.07 2903.8 1862.86C2904.73 1865.88 2905.55 1868.19 2906.27 1869.77 2906.99 1871.36 2907.85 1872.6 2908.86 1873.49 2909.86 1874.38 2911.24 1875.04 2912.98 1875.47L2912.98 1878.32 2886.19 1878.32 2886.19 1875.47C2888.13 1875.08 2889.57 1874.66 2890.52 1874.19 2891.47 1873.73 2892.18 1873.08 2892.64 1872.24 2893.11 1871.41 2893.34 1870.3 2893.34 1868.9 2893.34 1867.59 2893.19 1866.16 2892.88 1864.63 2892.57 1863.1 2892.12 1861.39 2891.54 1859.49L2889.39 1851.99 2862.31 1851.99 2860.34 1857.69C2859.33 1860.56 2858.67 1862.72 2858.36 1864.2 2858.05 1865.67 2857.9 1867 2857.9 1868.21 2857.9 1870.53 2858.49 1872.23 2859.67 1873.32 2860.85 1874.4 2862.66 1875.12 2865.1 1875.47L2865.1 1878.32 2840.29 1878.32 2840.29 1875.47C2842.46 1875.12 2844.35 1873.86 2845.96 1871.69 2847.56 1869.52 2849.12 1866.42 2850.63 1862.4ZM2825.37 1795.17 2828.79 1795.17 2828.79 1862.45C2828.79 1865.47 2828.85 1867.63 2828.97 1868.93 2829.08 1870.23 2829.34 1871.27 2829.72 1872.04 2830.11 1872.82 2830.72 1873.44 2831.55 1873.93 2832.39 1874.41 2833.85 1874.87 2835.94 1875.29L2835.94 1878.32 2822.23 1878.9 2818.74 1878.9 2819.44 1869.37 2818.57 1869.14C2816.13 1871.73 2814.01 1873.68 2812.2 1874.97 2810.4 1876.27 2808.49 1877.31 2806.45 1878.08 2804.42 1878.86 2802.24 1879.25 2799.92 1879.25 2793.56 1879.25 2788.66 1876.83 2785.21 1872.01 2781.77 1867.19 2780.04 1860.23 2780.04 1851.12 2780.04 1844.77 2781.17 1839.38 2783.41 1834.94 2785.66 1830.5 2788.69 1827.2 2792.51 1825.03 2796.32 1822.86 2800.61 1821.78 2805.38 1821.78 2807.93 1821.78 2810.26 1821.98 2812.35 1822.39 2814.44 1822.8 2816.59 1823.46 2818.8 1824.39L2818.8 1815.16C2818.8 1811.44 2818.77 1808.84 2818.71 1807.37 2818.65 1805.9 2818.5 1804.65 2818.25 1803.62 2818 1802.59 2817.65 1801.79 2817.2 1801.21 2816.76 1800.63 2816.16 1800.16 2815.4 1799.82 2814.65 1799.47 2813.28 1799.12 2811.3 1798.77L2811.3 1795.75Z" fill="#595959" fill-rule="evenodd"/><text fill="#000000" fill-opacity="0" font-family="Arial,Arial_MSFontService,sans-serif" font-size="84.0786" x="2780.04" y="1868.74">dA</text></g></svg>