<svg width="1172" height="487" xmlns="http://www.w3.org/2000/svg" xmlns:xlink="http://www.w3.org/1999/xlink" xml:space="preserve" overflow="hidden"><g transform="translate(-1413 -338)"><path d="M1413.78 606.84 1437.48 606.84 1437.48 609.687C1435.7 610.113 1434.44 610.52 1433.71 610.907 1432.97 611.294 1432.42 611.798 1432.05 612.418 1431.68 613.037 1431.5 613.87 1431.5 614.916 1431.5 615.962 1431.62 617.056 1431.88 618.199 1432.13 619.342 1432.53 620.669 1433.07 622.179L1443.18 651.581 1455.03 623.4C1455.81 621.54 1456.35 620.01 1456.66 618.809 1456.97 617.608 1457.12 616.485 1457.12 615.439 1457.12 613.812 1456.69 612.573 1455.82 611.72 1454.94 610.868 1453.35 610.19 1451.02 609.687L1451.02 606.84 1472.75 606.84 1472.75 609.687C1471.24 609.997 1470.08 610.471 1469.27 611.11 1468.45 611.749 1467.64 612.757 1466.83 614.132 1466.01 615.507 1465.04 617.434 1463.92 619.913L1444.34 662.969 1437.48 662.969 1421.74 619.565C1420.65 616.582 1419.79 614.539 1419.15 613.435 1418.51 612.331 1417.81 611.507 1417.06 610.965 1416.3 610.423 1415.21 609.997 1413.78 609.687Z" fill="#595959" fill-rule="evenodd"/><text fill="#000000" fill-opacity="0" font-family="Arial,Arial_MSFontService,sans-serif" font-size="56.1299" x="1413.78" y="655.953">v</text><path d="M1487.82 624.894 1490.84 624.894 1490.84 650.977 1490.93 650.977C1492.37 649.589 1493.7 648.407 1494.92 647.43 1496.14 646.453 1497.3 645.66 1498.42 645.051 1499.54 644.442 1500.64 644.003 1501.72 643.734 1502.79 643.465 1503.92 643.33 1505.11 643.33 1509.53 643.33 1512.72 644.541 1514.67 646.962 1516.63 649.384 1517.6 653.172 1517.6 658.326L1517.6 675.87C1517.6 677.57 1517.62 678.872 1517.67 679.779 1517.71 680.685 1517.89 681.379 1518.2 681.86 1518.51 682.342 1519.03 682.71 1519.77 682.965 1520.51 683.22 1521.55 683.559 1522.91 683.984L1522.91 686.703 1504.18 686.703 1504.18 683.984C1505.31 683.588 1506.21 683.269 1506.88 683.028 1507.54 682.788 1508.04 682.434 1508.38 681.966 1508.72 681.499 1508.94 680.826 1509.04 679.949 1509.14 679.071 1509.19 677.782 1509.19 676.083L1509.19 662.999C1509.19 660.223 1509.06 657.944 1508.81 656.159 1508.55 654.375 1508.13 652.973 1507.54 651.954 1506.94 650.934 1506.14 650.226 1505.14 649.83 1504.13 649.433 1502.89 649.221 1501.42 649.193 1500.34 649.193 1499.19 649.469 1497.96 650.021 1496.72 650.573 1495.58 651.281 1494.54 652.145 1493.49 653.009 1492.61 653.979 1491.9 655.055 1491.19 656.131 1490.84 657.193 1490.84 658.241L1490.84 675.87C1490.84 677.598 1490.88 678.922 1490.95 679.842 1491.02 680.763 1491.22 681.464 1491.56 681.945 1491.9 682.427 1492.41 682.795 1493.09 683.05 1493.77 683.305 1494.72 683.616 1495.94 683.984L1495.94 686.703 1477.29 686.703 1477.29 683.984C1478.51 683.644 1479.46 683.34 1480.16 683.071 1480.85 682.802 1481.37 682.412 1481.71 681.903 1482.05 681.393 1482.26 680.678 1482.34 679.757 1482.43 678.837 1482.47 677.541 1482.47 675.87L1482.47 639.805C1482.47 637.511 1482.47 635.677 1482.47 634.303 1482.47 632.93 1482.3 631.839 1481.96 631.032 1481.62 630.225 1481.04 629.63 1480.22 629.248 1479.4 628.866 1478.17 628.547 1476.52 628.292L1476.52 625.489Z" fill="#595959" fill-rule="evenodd"/><text fill="#000000" fill-opacity="0" font-family="Arial,Arial_MSFontService,sans-serif" font-size="61.8091" x="1476.52" y="678.977">h</text><path d="M1573.38 636.59 1644.97 636.59 1644.97 644.318 1573.38 644.318ZM1573.38 612.476 1644.97 612.476 1644.97 620.204 1573.38 620.204Z" fill="#595959" fill-rule="evenodd"/><text fill="#000000" fill-opacity="0" font-family="Arial,Arial_MSFontService,sans-serif" font-size="31.8418" x="1573.38" y="640.337">=</text><path d="M1705.5 573.118C1703.53 574.59 1702.05 576.149 1701.06 577.796 1700.07 579.442 1699.58 581.311 1699.58 583.403 1699.58 586.889 1700.96 589.455 1703.73 591.102 1706.5 592.748 1710.73 593.571 1716.43 593.571 1719.91 593.571 1722.91 593.106 1725.4 592.177 1727.9 591.247 1729.81 589.911 1731.13 588.167 1732.44 586.424 1733.1 584.391 1733.1 582.066 1733.1 580.982 1732.97 579.926 1732.7 578.9 1732.42 577.873 1731.91 576.953 1731.16 576.14 1730.4 575.326 1729.33 574.677 1727.93 574.193 1726.54 573.709 1724.72 573.467 1722.47 573.467L1713.81 573.467C1710.67 573.467 1707.9 573.35 1705.5 573.118ZM1715.38 520.068C1711.7 520.068 1708.89 521.288 1706.96 523.728 1705.02 526.169 1704.05 529.694 1704.05 534.304 1704.05 539.146 1705.04 542.884 1707.01 545.518 1708.99 548.152 1711.84 549.469 1715.55 549.469 1717.53 549.469 1719.22 549.091 1720.61 548.336 1722 547.581 1723.14 546.544 1724.01 545.227 1724.88 543.91 1725.52 542.39 1725.93 540.666 1726.33 538.942 1726.54 537.131 1726.54 535.233 1726.54 531.824 1726.05 528.977 1725.08 526.692 1724.12 524.406 1722.8 522.731 1721.13 521.666 1719.47 520.6 1717.55 520.068 1715.38 520.068ZM1715.5 515.652C1718.29 515.652 1721.06 515.981 1723.81 516.64L1744.38 516.64 1744.38 522.508 1733.63 522.101 1733.1 522.741C1734.3 523.941 1735.25 525.578 1735.95 527.651 1736.65 529.723 1737 531.96 1737 534.362 1737 540.676 1735.05 545.547 1731.16 548.975 1727.26 552.403 1721.73 554.118 1714.57 554.118 1711.35 554.118 1708.58 553.711 1706.26 552.897 1703.31 555.144 1701.84 557.352 1701.84 559.521 1701.84 560.955 1702.12 562.039 1702.68 562.775 1703.25 563.511 1704.18 564.034 1705.47 564.344 1706.77 564.654 1708.74 564.809 1711.37 564.809L1725.32 564.809C1729.42 564.809 1732.77 565.448 1735.37 566.726 1737.96 568.005 1739.81 569.719 1740.92 571.869 1742.02 574.019 1742.57 576.527 1742.57 579.393 1742.57 583.035 1741.53 586.279 1739.44 589.126 1737.34 591.973 1734.32 594.191 1730.37 595.779 1726.42 597.367 1721.81 598.161 1716.54 598.161 1712.63 598.161 1709.06 597.929 1705.82 597.464 1702.59 596.999 1699.82 596.215 1697.51 595.111 1695.21 594.007 1693.43 592.554 1692.17 590.753 1690.91 588.952 1690.28 586.695 1690.28 583.984 1690.28 581.543 1691.09 579.326 1692.72 577.331 1694.35 575.336 1696.65 573.583 1699.63 572.072 1697.81 571.336 1696.38 570.252 1695.33 568.818 1694.29 567.385 1693.77 565.7 1693.77 563.763 1693.77 561.555 1694.38 559.531 1695.62 557.691 1696.86 555.851 1699.05 553.75 1702.19 551.387 1699.4 549.76 1697.28 547.552 1695.83 544.763 1694.38 541.974 1693.65 538.797 1693.65 535.233 1693.65 531.902 1694.2 529.006 1695.3 526.547 1696.41 524.087 1697.94 522.053 1699.9 520.445 1701.85 518.838 1704.17 517.637 1706.84 516.843 1709.51 516.049 1712.4 515.652 1715.5 515.652Z" fill="#595959" fill-rule="evenodd"/><text fill="#000000" fill-opacity="0" font-family="Arial,Arial_MSFontService,sans-serif" font-size="82.5098" x="1690.28" y="587.848">g</text><path d="M1778.34 491.945C1781.29 491.945 1784.16 492.1 1786.97 492.41 1789.78 492.719 1793.29 493.417 1797.52 494.501L1797.52 510.19 1791.76 510.19C1790.87 506.781 1789.75 504.128 1788.39 502.229 1787.04 500.331 1785.45 499.005 1783.63 498.249 1781.81 497.494 1779.45 497.116 1776.54 497.116 1774.02 497.116 1771.77 497.581 1769.77 498.511 1767.78 499.44 1766.2 500.845 1765.04 502.723 1763.87 504.602 1763.29 506.839 1763.29 509.434 1763.29 512.185 1763.79 514.509 1764.77 516.407 1765.76 518.305 1767.3 520.068 1769.39 521.695 1771.49 523.322 1774.58 525.142 1778.69 527.157 1783.65 529.636 1787.49 531.941 1790.22 534.071 1792.96 536.202 1795.09 538.632 1796.62 541.363 1798.15 544.094 1798.91 547.28 1798.91 550.922 1798.91 554.989 1798.27 558.427 1796.99 561.235 1795.72 564.044 1793.94 566.329 1791.68 568.092 1789.41 569.854 1786.7 571.133 1783.54 571.927 1780.39 572.721 1776.93 573.118 1773.17 573.118 1767.09 573.118 1760.08 572.091 1752.14 570.038L1752.14 554.118 1757.95 554.118C1758.72 557.526 1759.77 560.219 1761.08 562.194 1762.4 564.17 1764.11 565.632 1766.2 566.581 1768.29 567.53 1770.98 568.005 1774.27 568.005 1778.81 568.005 1782.28 566.823 1784.7 564.46 1787.13 562.097 1788.34 558.65 1788.34 554.118 1788.34 551.212 1787.83 548.772 1786.83 546.796 1785.82 544.821 1784.17 542.961 1781.89 541.218 1779.6 539.475 1776.11 537.441 1771.43 535.117 1766.9 532.87 1763.31 530.672 1760.68 528.522 1758.04 526.372 1756.08 524.038 1754.78 521.52 1753.48 519.003 1752.83 516.252 1752.83 513.269 1752.83 508.931 1753.85 505.164 1755.88 501.968 1757.92 498.772 1760.9 496.303 1764.83 494.559 1768.76 492.816 1773.27 491.945 1778.34 491.945Z" fill="#595959" fill-rule="evenodd"/><text fill="#000000" fill-opacity="0" font-family="Arial,Arial_MSFontService,sans-serif" font-size="81.1733" x="1752.14" y="562.971">S</text><path d="M1830.72 557.336C1827.1 557.336 1824.3 558.851 1822.33 561.881 1820.36 564.912 1819.38 569.23 1819.38 574.838 1819.38 577.755 1819.63 580.346 1820.14 582.612 1820.65 584.877 1821.4 586.789 1822.37 588.347 1823.35 589.904 1824.55 591.094 1825.96 591.915 1827.38 592.736 1828.99 593.147 1830.81 593.147 1832.85 593.147 1834.58 592.68 1836.01 591.745 1837.44 590.811 1838.6 589.557 1839.47 587.986 1840.35 586.414 1840.99 584.587 1841.38 582.506 1841.78 580.424 1841.98 578.236 1841.98 575.942 1841.98 572.714 1841.69 569.931 1841.11 567.595 1840.53 565.259 1839.73 563.333 1838.73 561.818 1837.72 560.302 1836.53 559.177 1835.16 558.44 1833.79 557.704 1832.31 557.336 1830.72 557.336ZM1830.89 553.13C1834.43 553.13 1837.48 553.654 1840.03 554.702 1842.57 555.75 1844.67 557.223 1846.31 559.12 1847.95 561.018 1849.17 563.297 1849.94 565.959 1850.72 568.622 1851.11 571.553 1851.11 574.753 1851.11 578.435 1850.62 581.677 1849.65 584.481 1848.67 587.285 1847.27 589.635 1845.44 591.533 1843.61 593.43 1841.41 594.86 1838.84 595.823 1836.26 596.786 1833.38 597.268 1830.21 597.268 1827.07 597.268 1824.26 596.829 1821.78 595.951 1819.3 595.073 1817.2 593.735 1815.47 591.936 1813.74 590.138 1812.43 587.879 1811.52 585.161 1810.61 582.442 1810.16 579.242 1810.16 575.56 1810.16 571.907 1810.69 568.685 1811.73 565.896 1812.78 563.106 1814.23 560.763 1816.09 558.865 1817.94 556.968 1820.13 555.538 1822.65 554.575 1825.17 553.612 1827.92 553.13 1830.89 553.13Z" fill="#595959" fill-rule="evenodd"/><text fill="#000000" fill-opacity="0" font-family="Arial,Arial_MSFontService,sans-serif" font-size="44.1372" x="1810.16" y="591.75">o</text><path d="M1746.15 686.567 1760.56 686.567C1765.13 696.599 1769.88 712.443 1774.8 734.097 1783.59 721.895 1787.99 711.087 1787.99 701.674 1787.99 697.103 1787.29 693.055 1785.9 689.53L1785.9 686.567 1797.23 686.567C1797.65 689.162 1797.87 691.757 1797.87 694.353 1797.87 701.209 1796.28 708.037 1793.1 714.835 1789.93 721.633 1784.12 730.901 1775.67 742.638L1767.94 742.638C1764.22 728.461 1760.88 717.024 1757.92 708.327 1754.96 699.631 1752.72 694.43 1751.21 692.726 1749.7 691.021 1748.01 689.995 1746.15 689.646Z" fill="#595959" fill-rule="evenodd"/><text fill="#000000" fill-opacity="0" font-family="Arial,Arial_MSFontService,sans-serif" font-size="56.0718" x="1746.15" y="735.629">ν</text><path d="M1686.67 624.393 1861.67 624.393 1861.67 632.393 1686.67 632.393Z" fill="#595959" fill-rule="evenodd"/><path d="M2496.46 476.694C2512.38 490.329 2525.02 510.666 2534.37 537.705 2543.73 564.743 2548.41 594.919 2548.41 628.233 2548.41 661.043 2543.73 691.171 2534.37 718.616 2525.02 746.061 2512.38 766.563 2496.46 780.121L2493.73 775.821C2507.48 761.837 2518.07 741.597 2525.51 715.101 2532.95 688.605 2536.67 659.668 2536.67 628.291 2536.67 596.178 2532.93 567.106 2525.45 541.075 2517.98 515.044 2507.4 495.036 2493.73 481.052ZM1969.66 476.694 1972.39 481.052C1958.67 495.036 1948.09 515.044 1940.63 541.075 1933.17 567.106 1929.45 596.178 1929.45 628.291 1929.45 659.668 1933.17 688.605 1940.6 715.101 1948.04 741.597 1958.63 761.837 1972.39 775.821L1969.66 780.121C1953.73 766.563 1941.1 746.061 1931.74 718.616 1922.39 691.171 1917.71 661.043 1917.71 628.233 1917.71 594.919 1922.39 564.743 1931.74 537.705 1941.1 510.666 1953.73 490.329 1969.66 476.694Z" fill="#595959" fill-rule="evenodd"/><path d="M1994.03 579.239 1997.52 579.239 1997.52 615.962 1997.75 616.02C2000.77 612.96 2003.16 610.82 2004.92 609.6 2006.69 608.379 2008.43 607.459 2010.15 606.84 2011.88 606.22 2013.73 605.91 2015.7 605.91 2017.83 605.91 2019.73 606.162 2021.4 606.665 2023.06 607.169 2024.53 607.934 2025.78 608.96 2027.04 609.987 2028.07 611.246 2028.86 612.737 2029.66 614.229 2030.25 616.01 2030.64 618.083 2031.02 620.155 2031.22 622.78 2031.22 625.956L2031.22 647.862C2031.22 651.232 2031.36 653.527 2031.65 654.747 2031.94 655.968 2032.47 656.917 2033.22 657.595 2033.98 658.273 2035.5 658.921 2037.78 659.541L2037.78 662.388 2014.89 662.388 2014.89 659.541C2016.4 659.076 2017.49 658.67 2018.14 658.321 2018.8 657.972 2019.35 657.488 2019.8 656.868 2020.25 656.249 2020.59 655.29 2020.85 653.992 2021.1 652.694 2021.22 650.729 2021.22 648.094L2021.22 632.871C2021.22 627.719 2020.96 623.777 2020.44 621.046 2019.92 618.315 2018.89 616.272 2017.36 614.916 2015.83 613.56 2013.69 612.883 2010.94 612.883 2009.39 612.883 2007.99 613.154 2006.76 613.696 2005.52 614.238 2004.08 615.207 2002.46 616.601 2000.83 617.996 1999.6 619.429 1998.77 620.901 1997.93 622.373 1997.52 623.942 1997.52 625.608L1997.52 647.862C1997.52 650.496 1997.58 652.375 1997.72 653.498 1997.86 654.622 1998.12 655.561 1998.5 656.316 1998.89 657.072 1999.48 657.692 2000.28 658.176 2001.07 658.66 2002.3 659.115 2003.97 659.541L2003.97 662.388 1980.96 662.388 1980.96 659.541C1982.66 659.076 1983.88 658.631 1984.62 658.205 1985.35 657.779 1985.92 657.236 1986.33 656.578 1986.74 655.919 1987.04 654.97 1987.23 653.731 1987.43 652.491 1987.52 650.535 1987.52 647.862L1987.52 599.228C1987.52 595.509 1987.49 592.914 1987.43 591.442 1987.38 589.97 1987.22 588.72 1986.97 587.694 1986.72 586.667 1986.37 585.863 1985.92 585.282 1985.48 584.701 1984.88 584.237 1984.12 583.888 1983.37 583.539 1982 583.191 1980.03 582.842L1980.03 579.82Z" fill="#595959" fill-rule="evenodd"/><text fill="#000000" fill-opacity="0" font-family="Arial,Arial_MSFontService,sans-serif" font-size="83.1489" x="1980.03" y="651.995">h</text><path d="M2043.36 606.84 2067 606.84 2067 609.687C2065.18 610.113 2063.91 610.529 2063.17 610.936 2062.43 611.343 2061.89 611.866 2061.54 612.505 2061.19 613.144 2061.02 613.967 2061.02 614.974 2061.02 616.02 2061.15 617.105 2061.4 618.228 2061.65 619.352 2062.05 620.669 2062.59 622.179L2072.93 651.29 2084.55 623.4C2085.21 621.85 2085.72 620.427 2086.09 619.129 2086.46 617.831 2086.64 616.621 2086.64 615.497 2086.64 613.832 2086.19 612.573 2085.28 611.72 2084.37 610.868 2082.79 610.19 2080.54 609.687L2080.54 606.84 2102.27 606.84 2102.27 609.687C2100.76 609.997 2099.6 610.471 2098.79 611.11 2097.97 611.749 2097.16 612.757 2096.35 614.132 2095.53 615.507 2094.57 617.434 2093.44 619.913L2072.41 667.153C2070.28 671.956 2068.21 675.849 2066.19 678.832 2064.18 681.815 2061.96 684.062 2059.54 685.572 2057.12 687.083 2054.24 687.839 2050.91 687.839 2048.78 687.839 2046.38 687.587 2043.7 687.083L2043.7 675.578 2048.88 675.578C2049.34 677.167 2049.92 678.271 2050.62 678.89 2051.32 679.51 2052.32 679.82 2053.64 679.82 2054.8 679.82 2055.84 679.597 2056.75 679.152 2057.66 678.706 2058.61 677.941 2059.6 676.857 2060.58 675.772 2061.75 674.106 2063.08 671.86 2064.42 669.613 2065.92 666.766 2067.59 663.318L2051.32 619.565C2050.27 616.737 2049.43 614.761 2048.79 613.638 2048.15 612.515 2047.46 611.662 2046.73 611.081 2045.99 610.5 2044.87 610.035 2043.36 609.687Z" fill="#595959" fill-rule="evenodd"/><text fill="#000000" fill-opacity="0" font-family="Arial,Arial_MSFontService,sans-serif" font-size="80.999" x="2043.36" y="677.714">y</text><path d="M2113.05 633.432 2120.02 633.432 2120.02 644.222 2134.89 644.222 2134.89 648.938 2120.02 648.938 2120.02 669.201C2120.05 671.806 2120.21 673.923 2120.49 675.552 2120.77 677.18 2121.21 678.448 2121.81 679.354 2122.4 680.26 2123.14 680.876 2124.01 681.202 2124.89 681.527 2125.94 681.69 2127.16 681.69 2128.38 681.69 2129.57 681.414 2130.75 680.862 2131.92 680.31 2133.08 679.566 2134.21 678.632 2134.61 679.141 2134.97 679.651 2135.31 680.161 2135.65 680.671 2136.01 681.18 2136.38 681.69 2134.03 683.701 2131.84 685.167 2129.83 686.087 2127.82 687.007 2125.78 687.468 2123.72 687.468 2119.61 687.468 2116.56 686.363 2114.56 684.154 2112.57 681.945 2111.57 678.49 2111.57 673.789L2111.57 648.938 2104.81 648.938 2104.81 646.346C2105.72 646.205 2106.54 645.985 2107.28 645.688 2108.01 645.391 2108.66 645.044 2109.23 644.647 2109.74 644.279 2110.18 643.84 2110.55 643.33 2110.92 642.821 2111.24 642.155 2111.53 641.334 2111.81 640.513 2112.07 639.465 2112.31 638.19 2112.55 636.916 2112.8 635.33 2113.05 633.432Z" fill="#595959" fill-rule="evenodd"/><text fill="#000000" fill-opacity="0" font-family="Arial,Arial_MSFontService,sans-serif" font-size="54.0352" x="2104.81" y="680.713">t</text><path d="M2176.25 624.504 2247.84 624.504 2247.84 632.232 2176.25 632.232Z" fill="#595959" fill-rule="evenodd"/><text fill="#000000" fill-opacity="0" font-family="Arial,Arial_MSFontService,sans-serif" font-size="7.72803" x="2176.25" y="631.266">−</text><path d="M2320.42 491.945 2323.62 491.945C2323.39 495.663 2323.27 500.815 2323.27 507.401L2323.27 557.023C2323.27 559.27 2323.4 560.964 2323.65 562.107 2323.9 563.25 2324.35 564.18 2324.98 564.896 2325.62 565.613 2326.54 566.174 2327.74 566.581 2328.95 566.988 2330.46 567.298 2332.28 567.511 2334.1 567.724 2336.5 567.869 2339.48 567.947L2339.48 572.188 2296.54 572.188 2296.54 567.947C2300.84 567.753 2303.91 567.492 2305.75 567.162 2307.59 566.833 2309 566.339 2309.96 565.681 2310.93 565.022 2311.64 564.092 2312.08 562.891 2312.53 561.691 2312.75 559.734 2312.75 557.023L2312.75 509.899C2312.75 508.35 2312.48 507.217 2311.94 506.5 2311.4 505.784 2310.6 505.425 2309.56 505.425 2308.32 505.425 2306.56 506.064 2304.27 507.343 2301.98 508.621 2299.16 510.384 2295.79 512.63L2293.23 508.156Z" fill="#595959" fill-rule="evenodd"/><text fill="#000000" fill-opacity="0" font-family="Arial,Arial_MSFontService,sans-serif" font-size="80.2437" x="2293.23" y="562.158">1</text><path d="M2316.3 661.872C2323.5 661.872 2328.95 663.45 2332.63 666.607 2336.31 669.764 2338.15 674.345 2338.15 680.349 2338.15 682.402 2337.94 684.291 2337.54 686.015 2337.13 687.738 2336.49 689.443 2335.62 691.128 2334.75 692.813 2333.57 694.624 2332.1 696.561 2330.63 698.498 2329 700.464 2327.22 702.458 2325.44 704.453 2322.36 707.775 2317.98 712.424 2310.62 720.21 2305.22 727.008 2301.77 732.819L2323.68 732.819C2325.58 732.819 2327.11 732.702 2328.27 732.47 2329.43 732.237 2330.36 731.85 2331.06 731.308 2331.75 730.766 2332.31 730.059 2332.71 729.187 2333.12 728.315 2333.63 726.969 2334.25 725.149L2339.19 725.149 2338.2 742.115 2290.38 742.115 2290.38 739.326C2292.05 735.259 2294.29 731.095 2297.12 726.834 2299.95 722.573 2303.96 717.556 2309.15 711.784 2313.64 706.826 2316.88 703.069 2318.85 700.512 2321.02 697.723 2322.64 695.311 2323.71 693.278 2324.77 691.244 2325.54 689.327 2326 687.525 2326.47 685.724 2326.7 683.913 2326.7 682.092 2326.7 679.187 2326.23 676.621 2325.3 674.393 2324.37 672.166 2322.95 670.413 2321.03 669.135 2319.12 667.857 2316.7 667.217 2313.8 667.217 2306.56 667.217 2301.67 671.246 2299.16 679.303L2292.13 679.303 2292.13 668.147C2296.81 665.939 2301.2 664.341 2305.29 663.353 2309.37 662.366 2313.04 661.872 2316.3 661.872Z" fill="#595959" fill-rule="evenodd"/><text fill="#000000" fill-opacity="0" font-family="Arial,Arial_MSFontService,sans-serif" font-size="80.2437" x="2290.38" y="732.085">2</text><path d="M2282.67 624.393 2348.67 624.393 2348.67 632.393 2282.67 632.393Z" fill="#595959" fill-rule="evenodd"/><path d="M2386.36 579.239 2389.85 579.239 2389.85 615.962 2390.08 616.02C2393.1 612.96 2395.5 610.82 2397.26 609.6 2399.02 608.379 2400.76 607.459 2402.49 606.84 2404.21 606.22 2406.06 605.91 2408.04 605.91 2410.17 605.91 2412.07 606.162 2413.73 606.665 2415.4 607.169 2416.86 607.934 2418.12 608.96 2419.38 609.987 2420.4 611.246 2421.2 612.737 2421.99 614.229 2422.58 616.01 2422.97 618.083 2423.36 620.155 2423.55 622.78 2423.55 625.956L2423.55 647.862C2423.55 651.232 2423.7 653.527 2423.99 654.747 2424.28 655.968 2424.8 656.917 2425.56 657.595 2426.31 658.273 2427.83 658.921 2430.12 659.541L2430.12 662.388 2407.22 662.388 2407.22 659.541C2408.73 659.076 2409.82 658.67 2410.48 658.321 2411.14 657.972 2411.69 657.488 2412.13 656.868 2412.58 656.249 2412.93 655.29 2413.18 653.992 2413.43 652.694 2413.56 650.729 2413.56 648.094L2413.56 632.871C2413.56 627.719 2413.3 623.777 2412.77 621.046 2412.25 618.315 2411.22 616.272 2409.69 614.916 2408.16 613.56 2406.02 612.883 2403.27 612.883 2401.72 612.883 2400.33 613.154 2399.09 613.696 2397.85 614.238 2396.42 615.207 2394.79 616.601 2393.16 617.996 2391.93 619.429 2391.1 620.901 2390.27 622.373 2389.85 623.942 2389.85 625.608L2389.85 647.862C2389.85 650.496 2389.92 652.375 2390.05 653.498 2390.19 654.622 2390.45 655.561 2390.84 656.316 2391.22 657.072 2391.82 657.692 2392.61 658.176 2393.4 658.66 2394.63 659.115 2396.3 659.541L2396.3 662.388 2373.29 662.388 2373.29 659.541C2374.99 659.076 2376.21 658.631 2376.95 658.205 2377.69 657.779 2378.26 657.236 2378.66 656.578 2379.07 655.919 2379.37 654.97 2379.56 653.731 2379.76 652.491 2379.86 650.535 2379.86 647.862L2379.86 599.228C2379.86 595.509 2379.83 592.914 2379.77 591.442 2379.71 589.97 2379.56 588.72 2379.3 587.694 2379.05 586.667 2378.7 585.863 2378.26 585.282 2377.81 584.701 2377.21 584.237 2376.46 583.888 2375.7 583.539 2374.34 583.191 2372.36 582.842L2372.36 579.82Z" fill="#595959" fill-rule="evenodd"/><text fill="#000000" fill-opacity="0" font-family="Arial,Arial_MSFontService,sans-serif" font-size="83.1489" x="2372.36" y="651.995">h</text><path d="M2459.89 563.743C2462.83 563.743 2465.35 564.076 2467.43 564.741 2469.51 565.407 2471.2 566.306 2472.5 567.439 2473.81 568.571 2474.75 569.931 2475.33 571.517 2475.91 573.103 2476.2 574.816 2476.2 576.657 2476.2 577.761 2476.12 578.788 2475.97 579.737 2475.81 580.685 2475.54 581.62 2475.16 582.54 2474.78 583.461 2474.27 584.388 2473.65 585.323 2473.03 586.257 2472.25 587.249 2471.31 588.297 2470.61 589.203 2469.69 590.251 2468.55 591.44 2467.42 592.63 2466.18 593.904 2464.84 595.263 2463.49 596.623 2462.08 598.039 2460.61 599.511 2459.14 600.984 2457.71 602.443 2456.32 603.887 2454.93 605.331 2453.66 606.733 2452.5 608.092 2451.33 609.452 2450.39 610.698 2449.65 611.831L2465.37 611.831C2466.7 611.831 2467.76 611.781 2468.55 611.682 2469.35 611.583 2470 611.363 2470.53 611.024 2471.05 610.684 2471.5 610.167 2471.87 609.473 2472.24 608.779 2472.66 607.823 2473.14 606.606L2477.09 606.606C2476.95 608.616 2476.82 610.641 2476.69 612.68 2476.56 614.719 2476.43 616.744 2476.28 618.755L2440.3 618.755 2440.3 616.546C2440.98 615.017 2441.78 613.509 2442.68 612.022 2443.59 610.535 2444.61 609.027 2445.74 607.498 2446.87 605.968 2448.16 604.39 2449.61 602.761 2451.05 601.133 2452.65 599.441 2454.41 597.685 2457.07 595.023 2459.24 592.75 2460.91 590.867 2462.58 588.983 2463.89 587.305 2464.86 585.833 2465.82 584.36 2466.48 583.001 2466.83 581.755 2467.19 580.508 2467.36 579.177 2467.36 577.761 2467.36 576.317 2467.16 574.986 2466.75 573.768 2466.34 572.55 2465.75 571.517 2464.99 570.667 2464.22 569.818 2463.25 569.152 2462.08 568.671 2460.9 568.189 2459.55 567.948 2458.02 567.948 2455.38 567.948 2453.18 568.663 2451.39 570.094 2449.61 571.524 2448.22 573.598 2447.23 576.317L2441.66 576.317 2441.66 568.033C2445.29 566.532 2448.62 565.442 2451.67 564.762 2454.71 564.083 2457.45 563.743 2459.89 563.743Z" fill="#595959" fill-rule="evenodd"/><text fill="#000000" fill-opacity="0" font-family="Arial,Arial_MSFontService,sans-serif" font-size="55.0122" x="2440.3" y="611.878">2</text></g></svg>