<svg width="4422" height="1602" xmlns="http://www.w3.org/2000/svg" xmlns:xlink="http://www.w3.org/1999/xlink" xml:space="preserve" overflow="hidden"><g transform="translate(22 -261)"><path d="M2368.19 529.192 2391.89 529.192 2391.89 532.04C2390.11 532.466 2388.85 532.872 2388.12 533.26 2387.38 533.647 2386.83 534.151 2386.46 534.771 2386.09 535.39 2385.91 536.223 2385.91 537.269 2385.91 538.315 2386.04 539.409 2386.29 540.552 2386.54 541.695 2386.94 543.022 2387.48 544.532L2397.59 573.934 2409.44 545.753C2410.22 543.893 2410.76 542.363 2411.07 541.162 2411.38 539.961 2411.53 538.838 2411.53 537.792 2411.53 536.165 2411.1 534.926 2410.23 534.073 2409.36 533.221 2407.76 532.543 2405.43 532.04L2405.43 529.192 2427.16 529.192 2427.16 532.04C2425.65 532.349 2424.49 532.824 2423.68 533.463 2422.86 534.102 2422.05 535.109 2421.24 536.485 2420.42 537.86 2419.46 539.787 2418.33 542.266L2398.75 585.322 2391.89 585.322 2376.15 541.918C2375.06 538.935 2374.2 536.891 2373.56 535.787 2372.92 534.683 2372.23 533.86 2371.47 533.318 2370.72 532.776 2369.62 532.349 2368.19 532.04Z" fill="#595959" fill-rule="evenodd"/><text fill="#000000" fill-opacity="0" font-family="Arial,Arial_MSFontService,sans-serif" font-size="56.1299" x="2368.19" y="578.306">v</text><path d="M2442.24 547.247 2445.25 547.247 2445.25 573.33 2445.34 573.33C2446.78 571.942 2448.11 570.76 2449.33 569.783 2450.55 568.806 2451.72 568.013 2452.83 567.404 2453.95 566.795 2455.05 566.356 2456.13 566.087 2457.2 565.818 2458.34 565.683 2459.53 565.683 2463.94 565.683 2467.13 566.894 2469.08 569.315 2471.04 571.737 2472.01 575.525 2472.01 580.679L2472.01 598.223C2472.01 599.923 2472.04 601.225 2472.08 602.132 2472.12 603.038 2472.3 603.732 2472.61 604.213 2472.92 604.695 2473.44 605.063 2474.18 605.318 2474.92 605.572 2475.97 605.912 2477.32 606.337L2477.32 609.056 2458.59 609.056 2458.59 606.337C2459.72 605.941 2460.62 605.622 2461.29 605.381 2461.95 605.141 2462.46 604.787 2462.8 604.319 2463.14 603.852 2463.36 603.179 2463.45 602.301 2463.55 601.424 2463.6 600.135 2463.6 598.436L2463.6 585.352C2463.6 582.576 2463.48 580.297 2463.22 578.512 2462.97 576.728 2462.54 575.326 2461.95 574.307 2461.35 573.287 2460.55 572.579 2459.55 572.183 2458.54 571.786 2457.3 571.574 2455.83 571.546 2454.75 571.546 2453.6 571.822 2452.37 572.374 2451.14 572.926 2450 573.634 2448.95 574.498 2447.9 575.362 2447.02 576.332 2446.31 577.408 2445.61 578.484 2445.25 579.546 2445.25 580.594L2445.25 598.223C2445.25 599.951 2445.29 601.275 2445.36 602.195 2445.43 603.116 2445.63 603.817 2445.97 604.298 2446.31 604.779 2446.82 605.148 2447.5 605.403 2448.18 605.657 2449.13 605.969 2450.35 606.337L2450.35 609.056 2431.7 609.056 2431.7 606.337C2432.92 605.997 2433.87 605.693 2434.57 605.424 2435.26 605.155 2435.78 604.765 2436.12 604.256 2436.46 603.746 2436.67 603.031 2436.76 602.11 2436.84 601.19 2436.88 599.894 2436.88 598.223L2436.88 562.157C2436.88 559.863 2436.88 558.03 2436.88 556.656 2436.88 555.283 2436.71 554.192 2436.37 553.385 2436.03 552.578 2435.45 551.983 2434.63 551.601 2433.81 551.219 2432.58 550.9 2430.94 550.645L2430.94 547.841Z" fill="#595959" fill-rule="evenodd"/><text fill="#000000" fill-opacity="0" font-family="Arial,Arial_MSFontService,sans-serif" font-size="61.8091" x="2430.94" y="601.33">h</text><path d="M2527.79 558.942 2599.38 558.942 2599.38 566.67 2527.79 566.67ZM2527.79 534.829 2599.38 534.829 2599.38 542.557 2527.79 542.557Z" fill="#595959" fill-rule="evenodd"/><text fill="#000000" fill-opacity="0" font-family="Arial,Arial_MSFontService,sans-serif" font-size="31.8418" x="2527.79" y="562.69">=</text><path d="M2642.13 438.992 2665.84 438.992 2665.84 441.84C2664.06 442.266 2662.8 442.672 2662.06 443.06 2661.33 443.447 2660.78 443.951 2660.41 444.571 2660.04 445.19 2659.86 446.023 2659.86 447.069 2659.86 448.115 2659.98 449.209 2660.23 450.352 2660.49 451.495 2660.88 452.822 2661.42 454.332L2671.53 483.734 2683.39 455.553C2684.16 453.693 2684.71 452.163 2685.02 450.962 2685.33 449.761 2685.48 448.638 2685.48 447.592 2685.48 445.965 2685.04 444.726 2684.17 443.873 2683.3 443.021 2681.7 442.343 2679.38 441.84L2679.38 438.992 2701.11 438.992 2701.11 441.84C2699.6 442.15 2698.44 442.624 2697.62 443.263 2696.81 443.902 2696 444.91 2695.18 446.285 2694.37 447.66 2693.4 449.587 2692.28 452.066L2672.7 495.122 2665.84 495.122 2650.09 451.718C2649.01 448.735 2648.15 446.691 2647.51 445.587 2646.87 444.483 2646.17 443.66 2645.42 443.118 2644.66 442.576 2643.57 442.15 2642.13 441.84Z" fill="#595959" fill-rule="evenodd"/><text fill="#000000" fill-opacity="0" font-family="Arial,Arial_MSFontService,sans-serif" font-size="56.1299" x="2642.13" y="488.106">v</text><path d="M2719.41 477.947 2725.02 477.947 2723.79 491.244 2734.7 483.555 2737.46 488.312 2725.36 493.962 2737.46 499.655 2734.7 504.37 2723.79 496.681 2725.02 509.977 2719.41 509.977 2720.68 496.681 2709.72 504.37 2706.92 499.655 2719.07 493.962 2706.92 488.312 2709.72 483.555 2720.68 491.244Z" fill="#595959" fill-rule="evenodd"/><text fill="#000000" fill-opacity="0" font-family="Arial,Arial_MSFontService,sans-serif" font-size="32.0303" x="2706.92" y="505.974">∗</text><path d="M2680.92 581.319 2684.41 581.319 2684.41 632.104 2686.27 632.104C2687.55 632.104 2688.59 631.968 2689.41 631.697 2690.37 631.348 2691.44 630.758 2692.6 629.925 2693.76 629.092 2695.41 627.688 2697.54 625.712 2699.32 624.046 2700.67 622.632 2701.58 621.47 2702.49 620.308 2703.12 619.243 2703.47 618.275 2703.78 617.461 2703.93 616.648 2703.93 615.834 2703.93 614.672 2703.57 613.762 2702.86 613.103 2702.14 612.445 2700.97 611.999 2699.34 611.767L2699.34 608.92 2724.39 608.92 2724.39 611.767C2722.6 612.115 2720.71 612.909 2718.69 614.149 2716.68 615.389 2714.6 617.016 2712.47 619.03L2699.11 631.697 2715.84 653.545C2717.78 656.101 2719.53 657.99 2721.1 659.21 2722.67 660.43 2724.39 661.234 2726.24 661.621L2726.24 664.468 2703.93 664.468 2703.93 661.621C2704.94 661.505 2705.69 661.282 2706.17 660.953 2706.65 660.624 2706.9 660.072 2706.9 659.297 2706.9 658.716 2706.79 658.145 2706.58 657.583 2706.36 657.021 2705.93 656.256 2705.27 655.288 2704.61 654.319 2703.41 652.634 2701.67 650.233L2694.75 640.936C2693.43 639.193 2692.5 638.05 2691.93 637.507 2691.37 636.965 2690.78 636.578 2690.16 636.345 2689.54 636.113 2688.71 635.997 2687.66 635.997L2684.41 635.997 2684.41 649.942C2684.41 653.273 2684.56 655.588 2684.87 656.886 2685.18 658.183 2685.77 659.171 2686.65 659.849 2687.52 660.527 2688.94 661.118 2690.92 661.621L2690.92 664.468 2667.85 664.468 2667.85 661.621C2669.79 661.118 2671.13 660.595 2671.89 660.052 2672.64 659.51 2673.18 658.861 2673.51 658.106 2673.84 657.35 2674.08 656.324 2674.21 655.026 2674.35 653.729 2674.41 652.034 2674.41 649.942L2674.41 601.308C2674.41 597.589 2674.39 594.994 2674.33 593.522 2674.27 592.05 2674.11 590.8 2673.86 589.774 2673.61 588.747 2673.26 587.943 2672.82 587.362 2672.37 586.781 2671.77 586.317 2671.02 585.968 2670.26 585.619 2668.89 585.271 2666.92 584.922L2666.92 581.901Z" fill="#595959" fill-rule="evenodd"/><text fill="#000000" fill-opacity="0" font-family="Arial,Arial_MSFontService,sans-serif" font-size="83.1489" x="2666.92" y="654.075">k</text><path d="M2641.08 546.745 2748.08 546.745 2748.08 554.745 2641.08 554.745Z" fill="#595959" fill-rule="evenodd"/><path d="M2839.98 528.263C2842.07 528.263 2843.94 528.505 2845.59 528.989 2847.23 529.473 2848.68 530.219 2849.94 531.226 2851.2 532.233 2852.24 533.483 2853.05 534.974 2853.87 536.465 2854.48 538.257 2854.88 540.349 2855.29 542.44 2855.49 545.094 2855.49 548.309L2855.49 570.215C2855.49 572.888 2855.57 574.825 2855.72 576.025 2855.88 577.226 2856.15 578.156 2856.54 578.815 2856.93 579.473 2857.49 580.025 2858.22 580.471 2858.96 580.916 2860.24 581.391 2862.06 581.894L2862.06 584.741 2839.16 584.741 2839.16 581.894C2840.68 581.429 2841.76 581.023 2842.42 580.674 2843.08 580.325 2843.63 579.841 2844.07 579.221 2844.52 578.601 2844.87 577.643 2845.12 576.345 2845.37 575.047 2845.5 573.081 2845.5 570.447L2845.5 555.224C2845.5 552.512 2845.42 550.052 2845.27 547.844 2845.11 545.636 2844.85 543.825 2844.48 542.411 2844.11 540.998 2843.67 539.894 2843.15 539.099 2842.62 538.305 2842 537.627 2841.29 537.066 2840.57 536.504 2839.75 536.059 2838.82 535.729 2837.89 535.4 2836.67 535.235 2835.16 535.235 2833.64 535.235 2832.21 535.536 2830.86 536.136 2829.5 536.736 2828.01 537.773 2826.38 539.245 2824.75 540.717 2823.57 542.169 2822.84 543.603 2822.1 545.036 2821.73 546.682 2821.73 548.542L2821.73 570.215C2821.73 573.546 2821.89 575.861 2822.2 577.159 2822.51 578.456 2823.1 579.444 2823.97 580.122 2824.84 580.8 2826.27 581.391 2828.24 581.894L2828.24 584.741 2805.46 584.741 2805.46 581.894C2806.97 581.429 2808.05 581.023 2808.69 580.674 2809.33 580.325 2809.87 579.841 2810.32 579.221 2810.76 578.601 2811.11 577.652 2811.36 576.374 2811.61 575.096 2811.74 573.101 2811.74 570.389L2811.74 545.055C2811.74 542.576 2811.7 540.581 2811.62 539.07 2811.55 537.56 2811.27 536.349 2810.81 535.439 2810.34 534.528 2809.64 533.851 2808.69 533.405 2807.74 532.96 2806.39 532.582 2804.65 532.272L2804.65 529.192 2818.25 528.669 2821.79 528.669 2821.15 538.141 2821.97 538.373C2824.83 535.468 2827.15 533.395 2828.91 532.156 2830.67 530.916 2832.45 529.958 2834.25 529.28 2836.06 528.602 2837.96 528.263 2839.98 528.263ZM2785.49 501.592 2788.98 501.592 2788.98 570.215C2788.98 573.546 2789.13 575.861 2789.44 577.159 2789.75 578.456 2790.34 579.444 2791.21 580.122 2792.09 580.8 2793.51 581.391 2795.49 581.894L2795.49 584.741 2772.42 584.741 2772.42 581.894C2774.35 581.391 2775.7 580.868 2776.46 580.325 2777.21 579.783 2777.75 579.134 2778.08 578.379 2778.41 577.623 2778.64 576.597 2778.78 575.299 2778.92 574.001 2778.98 572.307 2778.98 570.215L2778.98 521.581C2778.98 517.862 2778.95 515.266 2778.9 513.794 2778.84 512.323 2778.68 511.073 2778.43 510.047 2778.18 509.02 2777.83 508.216 2777.39 507.635 2776.94 507.054 2776.34 506.589 2775.58 506.241 2774.83 505.892 2773.46 505.544 2771.49 505.195L2771.49 502.173Z" fill="#595959" fill-rule="evenodd"/><text fill="#000000" fill-opacity="0" font-family="Arial,Arial_MSFontService,sans-serif" font-size="83.1489" x="2771.49" y="574.348">ln</text><path d="M3422.16 399.047C3438.08 412.682 3450.71 433.019 3460.07 460.058 3469.42 487.096 3474.1 517.272 3474.1 550.586 3474.1 583.396 3469.42 613.524 3460.07 640.969 3450.71 668.414 3438.08 688.916 3422.16 702.474L3419.42 698.174C3433.18 684.19 3443.77 663.95 3451.21 637.454 3458.65 610.957 3462.36 582.021 3462.36 550.644 3462.36 518.531 3458.63 489.459 3451.15 463.428 3443.67 437.396 3433.1 417.389 3419.42 403.405ZM2947.95 399.047 2950.68 403.405C2936.96 417.389 2926.38 437.396 2918.92 463.428 2911.47 489.459 2907.74 518.531 2907.74 550.644 2907.74 582.021 2911.46 610.957 2918.89 637.454 2926.33 663.95 2936.93 684.19 2950.68 698.174L2947.95 702.474C2932.02 688.916 2919.39 668.414 2910.03 640.969 2900.68 613.524 2896 583.396 2896 550.586 2896 517.272 2900.68 487.096 2910.03 460.058 2919.39 433.019 2932.02 412.682 2947.95 399.047Z" fill="#595959" fill-rule="evenodd"/><path d="M2987.25 419.237C2984.35 419.237 2981.89 419.74 2979.87 420.747 2977.86 421.755 2976.22 423.139 2974.96 424.902 2973.71 426.664 2972.79 428.737 2972.2 431.119 2971.62 433.501 2971.33 436.087 2971.33 438.876 2971.33 444.648 2972.51 449.122 2974.88 452.299 2977.24 455.475 2980.57 457.063 2984.87 457.063 2986.34 457.063 2987.75 456.937 2989.08 456.686 2990.42 456.434 2991.73 456.066 2993.01 455.582 2994.28 455.097 2995.53 454.478 2996.75 453.722 2997.97 452.967 2999.07 452.163 3000.04 451.311 3000.39 451.001 3000.7 450.594 3000.97 450.091 3001.24 449.587 3001.45 448.928 3001.61 448.115 3001.76 447.302 3001.84 446.023 3001.84 444.28 3001.84 438.973 3001.31 434.431 3000.24 430.654 2999.17 426.877 2997.55 424.03 2995.36 422.113 2993.17 420.195 2990.47 419.237 2987.25 419.237ZM2987.89 414.298C2996.03 414.298 3002.23 417.106 3006.49 422.723 3010.75 428.34 3012.88 436.416 3012.88 446.953 3012.88 456.598 3011.31 464.956 3008.17 472.025 3005.03 479.095 3000.64 484.596 2994.98 488.527 2989.33 492.459 2982.72 494.774 2975.17 495.471L2972.79 492.275 2972.79 489.428C2978.21 489.428 2982.91 488.227 2986.88 485.825 2990.85 483.424 2994.04 479.87 2996.46 475.163 2998.88 470.457 3000.5 464.288 3001.31 456.657L3000.73 456.424C2997.48 458.748 2994.27 460.453 2991.12 461.537 2987.96 462.622 2984.54 463.164 2980.86 463.164 2976.48 463.164 2972.76 462.206 2969.68 460.288 2966.6 458.371 2964.28 455.678 2962.73 452.211 2961.18 448.745 2960.41 444.687 2960.41 440.038 2960.41 436.552 2960.99 433.25 2962.15 430.131 2963.31 427.013 2965.04 424.282 2967.32 421.939 2969.61 419.595 2972.47 417.736 2975.89 416.36 2979.32 414.985 2983.32 414.298 2987.89 414.298Z" fill="#595959" fill-rule="evenodd"/><text fill="#000000" fill-opacity="0" font-family="Arial,Arial_MSFontService,sans-serif" font-size="81.1733" x="2960.41" y="485.324">9</text><path d="M3026.82 481.061 3038.55 481.061 3038.55 494.541 3026.82 494.541Z" fill="#595959" fill-rule="evenodd"/><text fill="#000000" fill-opacity="0" font-family="Arial,Arial_MSFontService,sans-serif" font-size="13.4805" x="3026.82" y="492.856">.</text><path d="M3078.06 419.237C3075.39 419.237 3073.16 420.031 3071.35 421.619 3069.55 423.207 3068.1 425.493 3067 428.475 3065.89 431.458 3065.11 435.09 3064.64 439.37 3064.18 443.651 3063.95 448.483 3063.95 453.867 3063.95 466.496 3065.12 475.764 3067.46 481.671 3069.8 487.578 3073.44 490.532 3078.36 490.532 3083.04 490.532 3086.52 487.753 3088.79 482.194 3091.05 476.635 3092.18 468.026 3092.18 456.366 3092.18 447.456 3091.6 440.242 3090.44 434.722 3089.28 429.202 3087.66 425.241 3085.59 422.839 3083.52 420.437 3081.01 419.237 3078.06 419.237ZM3144.53 414.298C3151.73 414.298 3157.18 415.876 3160.86 419.033 3164.54 422.19 3166.38 426.771 3166.38 432.775 3166.38 434.828 3166.17 436.717 3165.77 438.44 3165.36 440.164 3164.72 441.869 3163.85 443.554 3162.98 445.239 3161.81 447.05 3160.33 448.987 3158.86 450.923 3157.24 452.889 3155.45 454.884 3153.67 456.879 3150.59 460.201 3146.21 464.849 3138.85 472.636 3133.45 479.434 3130 485.244L3151.91 485.244C3153.81 485.244 3155.34 485.128 3156.5 484.896 3157.66 484.663 3158.59 484.276 3159.29 483.734 3159.99 483.191 3160.54 482.484 3160.94 481.613 3161.35 480.741 3161.86 479.395 3162.48 477.574L3167.42 477.574 3166.44 494.541 3118.61 494.541 3118.61 491.752C3120.28 487.685 3122.53 483.521 3125.35 479.26 3128.18 474.998 3132.19 469.982 3137.38 464.21 3141.88 459.252 3145.11 455.494 3147.09 452.938 3149.26 450.149 3150.87 447.737 3151.94 445.704 3153 443.67 3153.77 441.752 3154.23 439.951 3154.7 438.15 3154.93 436.339 3154.93 434.518 3154.93 431.613 3154.47 429.047 3153.54 426.819 3152.61 424.592 3151.18 422.839 3149.27 421.561 3147.35 420.283 3144.94 419.643 3142.03 419.643 3134.79 419.643 3129.91 423.672 3127.39 431.729L3120.36 431.729 3120.36 420.573C3125.05 418.365 3129.43 416.767 3133.52 415.779 3137.61 414.792 3141.28 414.298 3144.53 414.298ZM3078.36 414.298C3086.84 414.298 3093.15 417.571 3097.3 424.117 3101.44 430.664 3103.52 440.561 3103.52 453.809 3103.52 467.522 3101.3 477.894 3096.86 484.925 3092.43 491.956 3085.95 495.471 3077.43 495.471 3069.06 495.471 3062.83 492.178 3058.74 485.593 3054.66 479.008 3052.61 469.014 3052.61 455.611 3052.61 448.483 3053.24 442.324 3054.5 437.133 3055.76 431.942 3057.52 427.652 3059.79 424.263 3062.06 420.873 3064.78 418.365 3067.95 416.738 3071.13 415.111 3074.6 414.298 3078.36 414.298ZM3226.8 411.392 3231.33 411.392 3230.46 424.873 3197.05 424.873 3197.05 450.381C3199.06 449.529 3201.25 448.89 3203.62 448.464 3205.98 448.038 3208.34 447.824 3210.7 447.824 3215.31 447.824 3219.4 448.764 3222.96 450.643 3226.53 452.521 3229.28 455.194 3231.22 458.661 3233.15 462.128 3234.12 466.147 3234.12 470.718 3234.12 475.909 3233.04 480.364 3230.87 484.082 3228.7 487.801 3225.56 490.629 3221.45 492.566 3217.35 494.503 3212.49 495.471 3206.87 495.471 3200.17 495.471 3193.16 494.096 3185.83 491.345L3185.83 479.027 3192.87 479.027C3194.03 482.978 3195.78 485.884 3198.12 487.743 3200.47 489.602 3203.5 490.532 3207.22 490.532 3212.37 490.532 3216.26 488.983 3218.9 485.884 3221.53 482.785 3222.85 478.156 3222.85 471.996 3222.85 467.89 3222.15 464.491 3220.76 461.799 3219.36 459.107 3217.48 457.16 3215.12 455.959 3212.76 454.758 3210.01 454.158 3206.87 454.158 3204.24 454.158 3201.97 454.323 3200.07 454.652 3198.17 454.981 3196.14 455.494 3193.97 456.192L3189.32 453.461 3189.32 415.227 3221.34 415.227C3222.65 415.227 3223.6 415.121 3224.18 414.908 3224.77 414.695 3225.23 414.365 3225.58 413.92 3225.93 413.474 3226.33 412.632 3226.8 411.392Z" fill="#595959" fill-rule="evenodd"/><text fill="#000000" fill-opacity="0" font-family="Arial,Arial_MSFontService,sans-serif" font-size="84.0786" x="3052.61" y="484.961">025</text><path d="M3243.88 438.992 3267.59 438.992 3267.59 441.84C3265.8 442.266 3264.55 442.672 3263.81 443.06 3263.07 443.447 3262.52 443.951 3262.15 444.571 3261.79 445.19 3261.6 446.023 3261.6 447.069 3261.6 448.115 3261.73 449.209 3261.98 450.352 3262.23 451.495 3262.63 452.822 3263.17 454.332L3273.28 483.734 3285.13 455.553C3285.91 453.693 3286.45 452.163 3286.76 450.962 3287.07 449.761 3287.23 448.638 3287.23 447.592 3287.23 445.965 3286.79 444.726 3285.92 443.873 3285.05 443.021 3283.45 442.343 3281.12 441.84L3281.12 438.992 3302.86 438.992 3302.86 441.84C3301.35 442.15 3300.18 442.624 3299.37 443.263 3298.56 443.902 3297.74 444.91 3296.93 446.285 3296.12 447.66 3295.15 449.587 3294.02 452.066L3274.44 495.122 3267.59 495.122 3251.84 451.718C3250.76 448.735 3249.89 446.691 3249.25 445.587 3248.61 444.483 3247.92 443.66 3247.16 443.118 3246.41 442.576 3245.31 442.15 3243.88 441.84Z" fill="#595959" fill-rule="evenodd"/><text fill="#000000" fill-opacity="0" font-family="Arial,Arial_MSFontService,sans-serif" font-size="56.1299" x="3243.88" y="488.106">v</text><path d="M3321.16 477.947 3326.76 477.947 3325.53 491.244 3336.45 483.555 3339.21 488.312 3327.1 493.962 3339.21 499.655 3336.45 504.37 3325.53 496.681 3326.76 509.977 3321.16 509.977 3322.43 496.681 3311.47 504.37 3308.67 499.655 3320.82 493.962 3308.67 488.312 3311.47 483.555 3322.43 491.244Z" fill="#595959" fill-rule="evenodd"/><text fill="#000000" fill-opacity="0" font-family="Arial,Arial_MSFontService,sans-serif" font-size="32.0303" x="3308.67" y="505.974">∗</text><path d="M3367.43 411.392 3370.91 411.392 3370.91 448.115 3371.15 448.173C3374.17 445.113 3376.56 442.973 3378.32 441.752 3380.08 440.532 3381.83 439.612 3383.55 438.992 3385.27 438.373 3387.12 438.063 3389.1 438.063 3391.23 438.063 3393.13 438.315 3394.79 438.818 3396.46 439.322 3397.92 440.087 3399.18 441.113 3400.44 442.14 3401.47 443.399 3402.26 444.89 3403.05 446.382 3403.65 448.163 3404.03 450.236 3404.42 452.308 3404.61 454.933 3404.61 458.109L3404.61 480.015C3404.61 483.385 3404.76 485.68 3405.05 486.9 3405.34 488.121 3405.86 489.07 3406.62 489.748 3407.37 490.425 3408.89 491.074 3411.18 491.694L3411.18 494.541 3388.29 494.541 3388.29 491.694C3389.8 491.229 3390.88 490.823 3391.54 490.474 3392.2 490.125 3392.75 489.641 3393.2 489.021 3393.64 488.401 3393.99 487.443 3394.24 486.145 3394.49 484.847 3394.62 482.881 3394.62 480.247L3394.62 465.024C3394.62 459.872 3394.36 455.93 3393.84 453.199 3393.31 450.468 3392.29 448.425 3390.76 447.069 3389.23 445.713 3387.09 445.035 3384.34 445.035 3382.79 445.035 3381.39 445.307 3380.15 445.849 3378.91 446.391 3377.48 447.36 3375.85 448.754 3374.22 450.149 3372.99 451.582 3372.16 453.054 3371.33 454.526 3370.91 456.095 3370.91 457.761L3370.91 480.015C3370.91 482.649 3370.98 484.528 3371.12 485.651 3371.25 486.775 3371.51 487.714 3371.9 488.469 3372.29 489.225 3372.88 489.844 3373.67 490.329 3374.47 490.813 3375.7 491.268 3377.36 491.694L3377.36 494.541 3354.35 494.541 3354.35 491.694C3356.06 491.229 3357.28 490.784 3358.01 490.358 3358.75 489.932 3359.32 489.389 3359.73 488.731 3360.13 488.072 3360.43 487.123 3360.63 485.884 3360.82 484.644 3360.92 482.688 3360.92 480.015L3360.92 431.381C3360.92 427.662 3360.89 425.067 3360.83 423.595 3360.77 422.122 3360.62 420.873 3360.37 419.847 3360.11 418.82 3359.77 418.016 3359.32 417.435 3358.88 416.854 3358.27 416.389 3357.52 416.041 3356.76 415.692 3355.4 415.344 3353.42 414.995L3353.42 411.973Z" fill="#595959" fill-rule="evenodd"/><text fill="#000000" fill-opacity="0" font-family="Arial,Arial_MSFontService,sans-serif" font-size="83.1489" x="3353.42" y="484.148">h</text><path d="M3157.09 608.92 3171.5 608.92C3176.07 618.952 3180.81 634.796 3185.73 656.45 3194.53 644.248 3198.92 633.44 3198.92 624.027 3198.92 619.456 3198.23 615.408 3196.83 611.883L3196.83 608.92 3208.16 608.92C3208.59 611.515 3208.8 614.11 3208.8 616.706 3208.8 623.562 3207.21 630.39 3204.04 637.188 3200.86 643.986 3195.05 653.254 3186.6 664.991L3178.88 664.991C3175.16 650.814 3171.82 639.377 3168.85 630.68 3165.89 621.984 3163.65 616.783 3162.14 615.079 3160.63 613.374 3158.95 612.348 3157.09 611.999Z" fill="#595959" fill-rule="evenodd"/><text fill="#000000" fill-opacity="0" font-family="Arial,Arial_MSFontService,sans-serif" font-size="56.0718" x="3157.09" y="657.982">ν</text><path d="M2955.08 546.745 3416.08 546.745 3416.08 554.745 2955.08 554.745Z" fill="#595959" fill-rule="evenodd"/><path d="M2368.19 1090.19 2391.89 1090.19 2391.89 1093.03C2390.11 1093.46 2388.85 1093.87 2388.12 1094.25 2387.38 1094.64 2386.83 1095.14 2386.46 1095.76 2386.09 1096.38 2385.91 1097.22 2385.91 1098.26 2385.91 1099.31 2386.04 1100.4 2386.29 1101.55 2386.54 1102.69 2386.94 1104.02 2387.48 1105.53L2397.59 1134.93 2409.44 1106.75C2410.22 1104.89 2410.76 1103.36 2411.07 1102.16 2411.38 1100.96 2411.53 1099.83 2411.53 1098.79 2411.53 1097.16 2411.1 1095.92 2410.23 1095.07 2409.36 1094.21 2407.76 1093.54 2405.43 1093.03L2405.43 1090.19 2427.16 1090.19 2427.16 1093.03C2425.65 1093.34 2424.49 1093.82 2423.68 1094.46 2422.86 1095.1 2422.05 1096.1 2421.24 1097.48 2420.42 1098.85 2419.46 1100.78 2418.33 1103.26L2398.75 1146.32 2391.89 1146.32 2376.15 1102.91C2375.06 1099.93 2374.2 1097.89 2373.56 1096.78 2372.92 1095.68 2372.23 1094.85 2371.47 1094.31 2370.72 1093.77 2369.62 1093.34 2368.19 1093.03Z" fill="#595959" fill-rule="evenodd"/><text fill="#000000" fill-opacity="0" font-family="Arial,Arial_MSFontService,sans-serif" font-size="56.1299" x="2368.19" y="1139.3">v</text><path d="M2442.24 1108.24 2445.25 1108.24 2445.25 1134.32 2445.34 1134.32C2446.78 1132.94 2448.11 1131.75 2449.33 1130.78 2450.55 1129.8 2451.72 1129.01 2452.83 1128.4 2453.95 1127.79 2455.05 1127.35 2456.13 1127.08 2457.2 1126.81 2458.34 1126.68 2459.53 1126.68 2463.94 1126.68 2467.13 1127.89 2469.08 1130.31 2471.04 1132.73 2472.01 1136.52 2472.01 1141.67L2472.01 1159.22C2472.01 1160.92 2472.04 1162.22 2472.08 1163.13 2472.12 1164.03 2472.3 1164.73 2472.61 1165.21 2472.92 1165.69 2473.44 1166.06 2474.18 1166.31 2474.92 1166.57 2475.97 1166.91 2477.32 1167.33L2477.32 1170.05 2458.59 1170.05 2458.59 1167.33C2459.72 1166.93 2460.62 1166.62 2461.29 1166.38 2461.95 1166.13 2462.46 1165.78 2462.8 1165.31 2463.14 1164.85 2463.36 1164.17 2463.45 1163.3 2463.55 1162.42 2463.6 1161.13 2463.6 1159.43L2463.6 1146.35C2463.6 1143.57 2463.48 1141.29 2463.22 1139.51 2462.97 1137.72 2462.54 1136.32 2461.95 1135.3 2461.35 1134.28 2460.55 1133.57 2459.55 1133.18 2458.54 1132.78 2457.3 1132.57 2455.83 1132.54 2454.75 1132.54 2453.6 1132.82 2452.37 1133.37 2451.14 1133.92 2450 1134.63 2448.95 1135.49 2447.9 1136.36 2447.02 1137.33 2446.31 1138.4 2445.61 1139.48 2445.25 1140.54 2445.25 1141.59L2445.25 1159.22C2445.25 1160.94 2445.29 1162.27 2445.36 1163.19 2445.43 1164.11 2445.63 1164.81 2445.97 1165.29 2446.31 1165.77 2446.82 1166.14 2447.5 1166.4 2448.18 1166.65 2449.13 1166.96 2450.35 1167.33L2450.35 1170.05 2431.7 1170.05 2431.7 1167.33C2432.92 1166.99 2433.87 1166.69 2434.57 1166.42 2435.26 1166.15 2435.78 1165.76 2436.12 1165.25 2436.46 1164.74 2436.67 1164.02 2436.76 1163.1 2436.84 1162.18 2436.88 1160.89 2436.88 1159.22L2436.88 1123.15C2436.88 1120.86 2436.88 1119.02 2436.88 1117.65 2436.88 1116.28 2436.71 1115.19 2436.37 1114.38 2436.03 1113.57 2435.45 1112.98 2434.63 1112.59 2433.81 1112.21 2432.58 1111.89 2430.94 1111.64L2430.94 1108.84Z" fill="#595959" fill-rule="evenodd"/><text fill="#000000" fill-opacity="0" font-family="Arial,Arial_MSFontService,sans-serif" font-size="61.8091" x="2430.94" y="1162.32">h</text><path d="M2527.79 1119.94 2599.38 1119.94 2599.38 1127.66 2527.79 1127.66ZM2527.79 1095.82 2599.38 1095.82 2599.38 1103.55 2527.79 1103.55Z" fill="#595959" fill-rule="evenodd"/><text fill="#000000" fill-opacity="0" font-family="Arial,Arial_MSFontService,sans-serif" font-size="31.8418" x="2527.79" y="1123.68">=</text><path d="M2642.13 999.986 2665.84 999.986 2665.84 1002.83C2664.06 1003.26 2662.8 1003.67 2662.06 1004.05 2661.33 1004.44 2660.78 1004.94 2660.41 1005.56 2660.04 1006.18 2659.86 1007.02 2659.86 1008.06 2659.86 1009.11 2659.98 1010.2 2660.23 1011.35 2660.49 1012.49 2660.88 1013.82 2661.42 1015.33L2671.53 1044.73 2683.39 1016.55C2684.16 1014.69 2684.71 1013.16 2685.02 1011.96 2685.33 1010.76 2685.48 1009.63 2685.48 1008.59 2685.48 1006.96 2685.04 1005.72 2684.17 1004.87 2683.3 1004.01 2681.7 1003.34 2679.38 1002.83L2679.38 999.986 2701.11 999.986 2701.11 1002.83C2699.6 1003.14 2698.44 1003.62 2697.62 1004.26 2696.81 1004.9 2696 1005.9 2695.18 1007.28 2694.37 1008.65 2693.4 1010.58 2692.28 1013.06L2672.7 1056.12 2665.84 1056.12 2650.09 1012.71C2649.01 1009.73 2648.15 1007.69 2647.51 1006.58 2646.87 1005.48 2646.17 1004.65 2645.42 1004.11 2644.66 1003.57 2643.57 1003.14 2642.13 1002.83Z" fill="#595959" fill-rule="evenodd"/><text fill="#000000" fill-opacity="0" font-family="Arial,Arial_MSFontService,sans-serif" font-size="56.1299" x="2642.13" y="1049.1">v</text><path d="M2719.41 1038.94 2725.02 1038.94 2723.79 1052.24 2734.7 1044.55 2737.46 1049.31 2725.36 1054.96 2737.46 1060.65 2734.7 1065.36 2723.79 1057.67 2725.02 1070.97 2719.41 1070.97 2720.68 1057.67 2709.72 1065.36 2706.92 1060.65 2719.07 1054.96 2706.92 1049.31 2709.72 1044.55 2720.68 1052.24Z" fill="#595959" fill-rule="evenodd"/><text fill="#000000" fill-opacity="0" font-family="Arial,Arial_MSFontService,sans-serif" font-size="32.0303" x="2706.92" y="1066.97">∗</text><path d="M2680.92 1142.31 2684.41 1142.31 2684.41 1193.1 2686.27 1193.1C2687.55 1193.1 2688.59 1192.96 2689.41 1192.69 2690.37 1192.34 2691.44 1191.75 2692.6 1190.92 2693.76 1190.09 2695.41 1188.68 2697.54 1186.71 2699.32 1185.04 2700.67 1183.63 2701.58 1182.46 2702.49 1181.3 2703.12 1180.24 2703.47 1179.27 2703.78 1178.45 2703.93 1177.64 2703.93 1176.83 2703.93 1175.67 2703.57 1174.76 2702.86 1174.1 2702.14 1173.44 2700.97 1172.99 2699.34 1172.76L2699.34 1169.91 2724.39 1169.91 2724.39 1172.76C2722.6 1173.11 2720.71 1173.9 2718.69 1175.14 2716.68 1176.38 2714.6 1178.01 2712.47 1180.02L2699.11 1192.69 2715.84 1214.54C2717.78 1217.09 2719.53 1218.98 2721.1 1220.2 2722.67 1221.42 2724.39 1222.23 2726.24 1222.61L2726.24 1225.46 2703.93 1225.46 2703.93 1222.61C2704.94 1222.5 2705.69 1222.28 2706.17 1221.95 2706.65 1221.62 2706.9 1221.07 2706.9 1220.29 2706.9 1219.71 2706.79 1219.14 2706.58 1218.58 2706.36 1218.01 2705.93 1217.25 2705.27 1216.28 2704.61 1215.31 2703.41 1213.63 2701.67 1211.23L2694.75 1201.93C2693.43 1200.19 2692.5 1199.04 2691.93 1198.5 2691.37 1197.96 2690.78 1197.57 2690.16 1197.34 2689.54 1197.11 2688.71 1196.99 2687.66 1196.99L2684.41 1196.99 2684.41 1210.94C2684.41 1214.27 2684.56 1216.58 2684.87 1217.88 2685.18 1219.18 2685.77 1220.16 2686.65 1220.84 2687.52 1221.52 2688.94 1222.11 2690.92 1222.61L2690.92 1225.46 2667.85 1225.46 2667.85 1222.61C2669.79 1222.11 2671.13 1221.59 2671.89 1221.05 2672.64 1220.5 2673.18 1219.85 2673.51 1219.1 2673.84 1218.34 2674.08 1217.32 2674.21 1216.02 2674.35 1214.72 2674.41 1213.03 2674.41 1210.94L2674.41 1162.3C2674.41 1158.58 2674.39 1155.99 2674.33 1154.52 2674.27 1153.04 2674.11 1151.79 2673.86 1150.77 2673.61 1149.74 2673.26 1148.94 2672.82 1148.36 2672.37 1147.78 2671.77 1147.31 2671.02 1146.96 2670.26 1146.61 2668.89 1146.26 2666.92 1145.92L2666.92 1142.89Z" fill="#595959" fill-rule="evenodd"/><text fill="#000000" fill-opacity="0" font-family="Arial,Arial_MSFontService,sans-serif" font-size="83.1489" x="2666.92" y="1215.07">k</text><path d="M2641.08 1107.75 2748.08 1107.75 2748.08 1115.75 2641.08 1115.75Z" fill="#595959" fill-rule="evenodd"/><path d="M2839.98 1089.26C2842.07 1089.26 2843.94 1089.5 2845.59 1089.98 2847.23 1090.47 2848.68 1091.21 2849.94 1092.22 2851.2 1093.23 2852.24 1094.48 2853.05 1095.97 2853.87 1097.46 2854.48 1099.25 2854.88 1101.34 2855.29 1103.43 2855.49 1106.09 2855.49 1109.3L2855.49 1131.21C2855.49 1133.88 2855.57 1135.82 2855.72 1137.02 2855.88 1138.22 2856.15 1139.15 2856.54 1139.81 2856.93 1140.47 2857.49 1141.02 2858.22 1141.46 2858.96 1141.91 2860.24 1142.38 2862.06 1142.89L2862.06 1145.73 2839.16 1145.73 2839.16 1142.89C2840.68 1142.42 2841.76 1142.02 2842.42 1141.67 2843.08 1141.32 2843.63 1140.83 2844.07 1140.21 2844.52 1139.6 2844.87 1138.64 2845.12 1137.34 2845.37 1136.04 2845.5 1134.08 2845.5 1131.44L2845.5 1116.22C2845.5 1113.51 2845.42 1111.05 2845.27 1108.84 2845.11 1106.63 2844.85 1104.82 2844.48 1103.41 2844.11 1101.99 2843.67 1100.89 2843.15 1100.09 2842.62 1099.3 2842 1098.62 2841.29 1098.06 2840.57 1097.5 2839.75 1097.05 2838.82 1096.72 2837.89 1096.39 2836.67 1096.23 2835.16 1096.23 2833.64 1096.23 2832.21 1096.53 2830.86 1097.13 2829.5 1097.73 2828.01 1098.77 2826.38 1100.24 2824.75 1101.71 2823.57 1103.16 2822.84 1104.6 2822.1 1106.03 2821.73 1107.68 2821.73 1109.54L2821.73 1131.21C2821.73 1134.54 2821.89 1136.85 2822.2 1138.15 2822.51 1139.45 2823.1 1140.44 2823.97 1141.12 2824.84 1141.79 2826.27 1142.38 2828.24 1142.89L2828.24 1145.73 2805.46 1145.73 2805.46 1142.89C2806.97 1142.42 2808.05 1142.02 2808.69 1141.67 2809.33 1141.32 2809.87 1140.83 2810.32 1140.21 2810.76 1139.6 2811.11 1138.65 2811.36 1137.37 2811.61 1136.09 2811.74 1134.09 2811.74 1131.38L2811.74 1106.05C2811.74 1103.57 2811.7 1101.57 2811.62 1100.06 2811.55 1098.55 2811.27 1097.34 2810.81 1096.43 2810.34 1095.52 2809.64 1094.84 2808.69 1094.4 2807.74 1093.95 2806.39 1093.58 2804.65 1093.27L2804.65 1090.19 2818.25 1089.66 2821.79 1089.66 2821.15 1099.13 2821.97 1099.37C2824.83 1096.46 2827.15 1094.39 2828.91 1093.15 2830.67 1091.91 2832.45 1090.95 2834.25 1090.27 2836.06 1089.6 2837.96 1089.26 2839.98 1089.26ZM2785.49 1062.59 2788.98 1062.59 2788.98 1131.21C2788.98 1134.54 2789.13 1136.85 2789.44 1138.15 2789.75 1139.45 2790.34 1140.44 2791.21 1141.12 2792.09 1141.79 2793.51 1142.38 2795.49 1142.89L2795.49 1145.73 2772.42 1145.73 2772.42 1142.89C2774.35 1142.38 2775.7 1141.86 2776.46 1141.32 2777.21 1140.78 2777.75 1140.13 2778.08 1139.37 2778.41 1138.62 2778.64 1137.59 2778.78 1136.29 2778.92 1135 2778.98 1133.3 2778.98 1131.21L2778.98 1082.57C2778.98 1078.86 2778.95 1076.26 2778.9 1074.79 2778.84 1073.32 2778.68 1072.07 2778.43 1071.04 2778.18 1070.01 2777.83 1069.21 2777.39 1068.63 2776.94 1068.05 2776.34 1067.58 2775.58 1067.23 2774.83 1066.89 2773.46 1066.54 2771.49 1066.19L2771.49 1063.17Z" fill="#595959" fill-rule="evenodd"/><text fill="#000000" fill-opacity="0" font-family="Arial,Arial_MSFontService,sans-serif" font-size="83.1489" x="2771.49" y="1135.34">ln</text><path d="M4290.44 899.525C4307.94 916.685 4321.61 940.218 4331.43 970.123 4341.25 1000.03 4346.16 1035.03 4346.16 1075.12 4346.16 1115.52 4341.25 1150.68 4331.43 1180.58 4321.61 1210.49 4307.94 1234.02 4290.44 1251.18L4286.72 1247.05C4302.41 1229.51 4314.26 1205.93 4322.28 1176.34 4330.3 1146.74 4334.31 1113.04 4334.31 1075.24 4334.31 1037.62 4330.3 1004.01 4322.28 974.393 4314.26 944.779 4302.41 921.198 4286.72 903.65ZM2951.26 899.525 2954.98 903.65C2939.29 921.198 2927.43 944.779 2919.42 974.393 2911.4 1004.01 2907.39 1037.62 2907.39 1075.24 2907.39 1113.04 2911.4 1146.74 2919.42 1176.34 2927.43 1205.93 2939.29 1229.51 2954.98 1247.05L2951.26 1251.18C2933.75 1234.02 2920.08 1210.49 2910.26 1180.58 2900.44 1150.68 2895.53 1115.52 2895.53 1075.12 2895.53 1035.03 2900.44 1000.03 2910.26 970.123 2920.08 940.218 2933.75 916.685 2951.26 899.525Z" fill="#595959" fill-rule="evenodd"/><path d="M3014.03 972.386 3017.52 972.386 3017.52 1009.11 3017.75 1009.17C3020.77 1006.11 3023.16 1003.97 3024.92 1002.75 3026.69 1001.53 3028.43 1000.61 3030.15 999.986 3031.88 999.366 3033.73 999.057 3035.7 999.057 3037.83 999.057 3039.73 999.308 3041.4 999.812 3043.06 1000.32 3044.52 1001.08 3045.78 1002.11 3047.04 1003.13 3048.07 1004.39 3048.86 1005.88 3049.66 1007.38 3050.25 1009.16 3050.64 1011.23 3051.02 1013.3 3051.22 1015.93 3051.22 1019.1L3051.22 1041.01C3051.22 1044.38 3051.36 1046.67 3051.65 1047.89 3051.94 1049.11 3052.47 1050.06 3053.22 1050.74 3053.98 1051.42 3055.5 1052.07 3057.78 1052.69L3057.78 1055.54 3034.89 1055.54 3034.89 1052.69C3036.4 1052.22 3037.48 1051.82 3038.14 1051.47 3038.8 1051.12 3039.35 1050.63 3039.8 1050.02 3040.24 1049.4 3040.59 1048.44 3040.84 1047.14 3041.1 1045.84 3041.22 1043.88 3041.22 1041.24L3041.22 1026.02C3041.22 1020.87 3040.96 1016.92 3040.44 1014.19 3039.91 1011.46 3038.89 1009.42 3037.36 1008.06 3035.83 1006.71 3033.69 1006.03 3030.94 1006.03 3029.39 1006.03 3027.99 1006.3 3026.75 1006.84 3025.51 1007.38 3024.08 1008.35 3022.45 1009.75 3020.83 1011.14 3019.6 1012.58 3018.76 1014.05 3017.93 1015.52 3017.52 1017.09 3017.52 1018.75L3017.52 1041.01C3017.52 1043.64 3017.58 1045.52 3017.72 1046.64 3017.85 1047.77 3018.12 1048.71 3018.5 1049.46 3018.89 1050.22 3019.48 1050.84 3020.28 1051.32 3021.07 1051.81 3022.3 1052.26 3023.96 1052.69L3023.96 1055.54 3000.96 1055.54 3000.96 1052.69C3002.66 1052.22 3003.88 1051.78 3004.62 1051.35 3005.35 1050.93 3005.92 1050.38 3006.33 1049.72 3006.74 1049.07 3007.04 1048.12 3007.23 1046.88 3007.42 1045.64 3007.52 1043.68 3007.52 1041.01L3007.52 992.374C3007.52 988.656 3007.49 986.06 3007.43 984.588 3007.38 983.116 3007.22 981.867 3006.97 980.84 3006.72 979.814 3006.37 979.01 3005.92 978.429 3005.48 977.848 3004.88 977.383 3004.12 977.035 3003.37 976.686 3002 976.337 3000.03 975.989L3000.03 972.967Z" fill="#595959" fill-rule="evenodd"/><text fill="#000000" fill-opacity="0" font-family="Arial,Arial_MSFontService,sans-serif" font-size="83.1489" x="3000.03" y="1045.14">h</text><path d="M2976.52 1142.31 2980.01 1142.31 2980.01 1193.1 2981.87 1193.1C2983.15 1193.1 2984.19 1192.96 2985.01 1192.69 2985.98 1192.34 2987.04 1191.75 2988.2 1190.92 2989.37 1190.09 2991.01 1188.68 2993.14 1186.71 2994.93 1185.04 2996.27 1183.63 2997.18 1182.46 2998.09 1181.3 2998.72 1180.24 2999.07 1179.27 2999.38 1178.45 2999.53 1177.64 2999.53 1176.83 2999.53 1175.67 2999.18 1174.76 2998.46 1174.1 2997.74 1173.44 2996.57 1172.99 2994.94 1172.76L2994.94 1169.91 3019.99 1169.91 3019.99 1172.76C3018.21 1173.11 3016.31 1173.9 3014.29 1175.14 3012.28 1176.38 3010.21 1178.01 3008.08 1180.02L2994.71 1192.69 3011.45 1214.54C3013.38 1217.09 3015.14 1218.98 3016.7 1220.2 3018.27 1221.42 3019.99 1222.23 3021.85 1222.61L3021.85 1225.46 2999.53 1225.46 2999.53 1222.61C3000.54 1222.5 3001.29 1222.28 3001.77 1221.95 3002.26 1221.62 3002.5 1221.07 3002.5 1220.29 3002.5 1219.71 3002.39 1219.14 3002.18 1218.58 3001.97 1218.01 3001.53 1217.25 3000.87 1216.28 3000.21 1215.31 2999.01 1213.63 2997.27 1211.23L2990.35 1201.93C2989.04 1200.19 2988.1 1199.04 2987.54 1198.5 2986.97 1197.96 2986.38 1197.57 2985.76 1197.34 2985.14 1197.11 2984.31 1196.99 2983.27 1196.99L2980.01 1196.99 2980.01 1210.94C2980.01 1214.27 2980.17 1216.58 2980.48 1217.88 2980.79 1219.18 2981.38 1220.16 2982.25 1220.84 2983.12 1221.52 2984.54 1222.11 2986.52 1222.61L2986.52 1225.46 2963.45 1225.46 2963.45 1222.61C2965.39 1222.11 2966.73 1221.59 2967.49 1221.05 2968.24 1220.5 2968.79 1219.85 2969.12 1219.1 2969.45 1218.34 2969.68 1217.32 2969.81 1216.02 2969.95 1214.72 2970.02 1213.03 2970.02 1210.94L2970.02 1162.3C2970.02 1158.58 2969.99 1155.99 2969.93 1154.52 2969.87 1153.04 2969.72 1151.79 2969.47 1150.77 2969.21 1149.74 2968.86 1148.94 2968.42 1148.36 2967.97 1147.78 2967.37 1147.31 2966.62 1146.96 2965.86 1146.61 2964.5 1146.26 2962.52 1145.92L2962.52 1142.89Z" fill="#595959" fill-rule="evenodd"/><text fill="#000000" fill-opacity="0" font-family="Arial,Arial_MSFontService,sans-serif" font-size="83.1489" x="2962.52" y="1215.07">k</text><path d="M3049.32 1206.4C3050.32 1206.4 3051.29 1206.43 3052.23 1206.47 3053.18 1206.51 3054.17 1206.6 3055.21 1206.72 3056.24 1206.85 3057.36 1207.01 3058.56 1207.21 3059.77 1207.41 3061.12 1207.66 3062.62 1207.98L3062.62 1217.45 3057.74 1217.45C3057.31 1216.26 3056.81 1215.23 3056.23 1214.37 3055.65 1213.51 3054.97 1212.8 3054.21 1212.25 3053.45 1211.69 3052.56 1211.28 3051.56 1211.01 3050.55 1210.74 3049.4 1210.61 3048.09 1210.61 3045.66 1210.61 3043.73 1211.12 3042.32 1212.14 3040.9 1213.16 3040.19 1214.62 3040.19 1216.51 3040.19 1217.31 3040.29 1218.02 3040.49 1218.64 3040.69 1219.26 3041.13 1219.89 3041.81 1220.53 3042.49 1221.17 3043.49 1221.84 3044.82 1222.55 3046.15 1223.25 3047.95 1224.08 3050.22 1225.01 3052.48 1225.92 3054.42 1226.79 3056.04 1227.64 3057.65 1228.49 3058.98 1229.4 3060.03 1230.36 3061.08 1231.33 3061.84 1232.4 3062.32 1233.59 3062.81 1234.78 3063.05 1236.15 3063.05 1237.71 3063.05 1239.92 3062.66 1241.83 3061.88 1243.43 3061.1 1245.03 3059.97 1246.36 3058.5 1247.42 3057.03 1248.48 3055.23 1249.27 3053.11 1249.78 3050.98 1250.29 3048.59 1250.54 3045.93 1250.54 3040.86 1250.54 3035.9 1249.85 3031.06 1248.46L3031.06 1238.77 3035.86 1238.77C3036.71 1241.46 3037.94 1243.41 3039.55 1244.62 3041.17 1245.82 3043.41 1246.42 3046.27 1246.42 3047.48 1246.42 3048.61 1246.29 3049.64 1246.04 3050.68 1245.78 3051.58 1245.39 3052.34 1244.85 3053.11 1244.31 3053.71 1243.63 3054.15 1242.81 3054.59 1241.99 3054.8 1241.01 3054.8 1239.88 3054.8 1239.2 3054.73 1238.6 3054.59 1238.07 3054.45 1237.55 3054.23 1237.06 3053.93 1236.61 3053.64 1236.15 3053.25 1235.72 3052.79 1235.31 3052.32 1234.9 3051.76 1234.5 3051.11 1234.1 3049.58 1233.22 3048.04 1232.44 3046.5 1231.74 3044.96 1231.05 3043.48 1230.37 3042.06 1229.7 3040.64 1229.04 3039.32 1228.37 3038.09 1227.69 3036.86 1227.01 3035.78 1226.24 3034.86 1225.37 3033.94 1224.51 3033.22 1223.52 3032.69 1222.42 3032.17 1221.31 3031.91 1220.03 3031.91 1218.55 3031.91 1216.49 3032.35 1214.69 3033.22 1213.16 3034.1 1211.63 3035.32 1210.37 3036.88 1209.38 3038.44 1208.39 3040.28 1207.64 3042.4 1207.15 3044.52 1206.65 3046.83 1206.4 3049.32 1206.4Z" fill="#595959" fill-rule="evenodd"/><text fill="#000000" fill-opacity="0" font-family="Arial,Arial_MSFontService,sans-serif" font-size="44.1372" x="3031.06" y="1245.02">s</text><path d="M2959.08 1107.75 3073.08 1107.75 3073.08 1115.75 2959.08 1115.75Z" fill="#595959" fill-rule="evenodd"/><path d="M4102.76 928.599C4118.68 942.234 4131.32 962.571 4140.67 989.61 4150.03 1016.65 4154.7 1046.82 4154.7 1080.14 4154.7 1112.95 4150.03 1143.08 4140.67 1170.52 4131.32 1197.97 4118.68 1218.47 4102.76 1232.03L4100.03 1227.73C4113.78 1213.74 4124.37 1193.5 4131.81 1167.01 4139.25 1140.51 4142.97 1111.57 4142.97 1080.2 4142.97 1048.08 4139.23 1019.01 4131.75 992.98 4124.28 966.948 4113.7 946.941 4100.03 932.957ZM3154.88 928.599 3157.61 932.957C3143.9 946.941 3133.32 966.948 3125.86 992.98 3118.4 1019.01 3114.67 1048.08 3114.67 1080.2 3114.67 1111.57 3118.39 1140.51 3125.83 1167.01 3133.27 1193.5 3143.86 1213.74 3157.61 1227.73L3154.88 1232.03C3138.96 1218.47 3126.32 1197.97 3116.97 1170.52 3107.61 1143.08 3102.94 1112.95 3102.94 1080.14 3102.94 1046.82 3107.61 1016.65 3116.97 989.61 3126.32 962.571 3138.96 942.234 3154.88 928.599Z" fill="#595959" fill-rule="evenodd"/><path d="M3242.71 981.334C3239.23 981.334 3236.4 981.412 3234.23 981.567L3234.23 1016.08 3240.8 1016.08C3244.17 1016.08 3246.9 1015.84 3248.99 1015.36 3251.08 1014.87 3253.02 1013.95 3254.8 1012.6 3256.58 1011.24 3258.01 1009.35 3259.07 1006.93 3260.14 1004.51 3260.67 1001.54 3260.67 998.011 3260.67 994.331 3260.04 991.27 3258.78 988.83 3257.52 986.39 3255.61 984.53 3253.06 983.252 3250.5 981.974 3247.05 981.334 3242.71 981.334ZM3216.51 976.221 3245.27 976.221C3254.33 976.221 3261.11 977.867 3265.61 981.16 3270.1 984.453 3272.35 989.566 3272.35 996.5 3272.35 1001.81 3270.89 1006.32 3267.96 1010.04 3265.04 1013.76 3260.65 1016.66 3254.8 1018.75L3254.8 1019.22C3257.16 1020.19 3259.19 1021.57 3260.87 1023.37 3262.56 1025.17 3264.43 1027.97 3266.48 1031.77L3271.71 1041.3C3273.22 1044.09 3274.52 1046.22 3275.6 1047.69 3276.69 1049.16 3277.79 1050.29 3278.91 1051.06 3280.04 1051.84 3281.53 1052.38 3283.39 1052.69L3283.39 1055.54 3267.29 1055.54C3265.82 1053.48 3264.43 1051.27 3263.11 1048.91 3261.79 1046.55 3260.49 1044.15 3259.22 1041.71L3254.1 1032C3252.55 1029.06 3251.28 1026.89 3250.3 1025.49 3249.31 1024.1 3248.4 1023.12 3247.57 1022.56 3246.73 1022 3245.84 1021.61 3244.89 1021.4 3243.94 1021.18 3242.52 1021.08 3240.62 1021.08L3234.23 1021.08 3234.23 1040.83C3234.23 1043.62 3234.34 1045.65 3234.55 1046.91 3234.76 1048.17 3235.08 1049.11 3235.51 1049.75 3235.93 1050.39 3236.52 1050.92 3237.25 1051.32 3237.99 1051.73 3239.25 1052.18 3241.03 1052.69L3241.03 1055.54 3216.51 1055.54 3216.51 1052.69C3218.91 1052.07 3220.52 1051.38 3221.33 1050.63 3222.14 1049.87 3222.68 1048.79 3222.93 1047.4 3223.18 1046.01 3223.31 1043.88 3223.31 1041.01L3223.31 990.747C3223.31 988.075 3223.21 986.128 3223.02 984.908 3222.82 983.688 3222.5 982.739 3222.06 982.061 3221.61 981.383 3221.02 980.84 3220.28 980.434 3219.55 980.027 3218.29 979.572 3216.51 979.068Z" fill="#595959" fill-rule="evenodd"/><text fill="#000000" fill-opacity="0" font-family="Arial,Arial_MSFontService,sans-serif" font-size="79.314" x="3216.51" y="1045.62">R</text><path d="M3313.35 1040.68C3311.82 1040.68 3310.44 1040.99 3309.21 1041.6 3307.98 1042.2 3306.9 1043.09 3305.98 1044.25 3305.06 1045.41 3304.31 1046.84 3303.73 1048.52 3303.15 1050.21 3302.78 1052.11 3302.61 1054.23L3322.32 1054.23C3322.03 1049.62 3321.19 1046.21 3319.79 1044 3318.39 1041.79 3316.24 1040.68 3313.35 1040.68ZM3313.86 1036.48C3316.87 1036.48 3319.46 1036.94 3321.64 1037.86 3323.82 1038.78 3325.59 1040.05 3326.95 1041.66 3327.63 1042.45 3328.24 1043.36 3328.77 1044.38 3329.31 1045.4 3329.77 1046.58 3330.16 1047.93 3330.54 1049.27 3330.83 1050.81 3331.05 1052.53 3331.26 1054.26 3331.39 1056.23 3331.45 1058.44L3302.35 1058.44 3302.35 1058.82C3302.35 1064.17 3303.35 1068.18 3305.35 1070.84 3307.34 1073.51 3310.51 1074.84 3314.84 1074.84 3316 1074.84 3317.11 1074.72 3318.18 1074.48 3319.24 1074.24 3320.29 1073.86 3321.34 1073.35 3322.39 1072.84 3323.44 1072.18 3324.51 1071.37 3325.57 1070.57 3326.68 1069.61 3327.84 1068.51L3330.81 1072.03C3329.23 1073.59 3327.72 1074.91 3326.29 1076.01 3324.86 1077.1 3323.44 1077.98 3322.02 1078.66 3320.6 1079.34 3319.16 1079.84 3317.69 1080.15 3316.21 1080.46 3314.66 1080.61 3313.01 1080.61 3306.56 1080.61 3301.7 1078.77 3298.44 1075.07 3295.19 1071.37 3293.56 1065.93 3293.56 1058.74 3293.56 1055.42 3294.04 1052.4 3295 1049.67 3295.97 1046.93 3297.34 1044.59 3299.12 1042.64 3300.91 1040.68 3303.05 1039.17 3305.54 1038.09 3308.03 1037.02 3310.81 1036.48 3313.86 1036.48Z" fill="#595959" fill-rule="evenodd"/><text fill="#000000" fill-opacity="0" font-family="Arial,Arial_MSFontService,sans-serif" font-size="44.1372" x="3293.56" y="1075.1">e</text><path d="M3354.38 1038.94 3359.99 1038.94 3358.76 1052.24 3369.68 1044.55 3372.44 1049.31 3360.33 1054.96 3372.44 1060.65 3369.68 1065.36 3358.76 1057.67 3359.99 1070.97 3354.38 1070.97 3355.66 1057.67 3344.7 1065.36 3341.9 1060.65 3354.04 1054.96 3341.9 1049.31 3344.7 1044.55 3355.66 1052.24Z" fill="#595959" fill-rule="evenodd"/><text fill="#000000" fill-opacity="0" font-family="Arial,Arial_MSFontService,sans-serif" font-size="32.0303" x="3341.9" y="1066.97">∗</text><path d="M3290.56 983.78 3339.5 983.78 3339.5 990.279 3290.56 990.279Z" fill="#595959" fill-rule="evenodd"/><text fill="#000000" fill-opacity="0" font-family="Arial,Arial_MSFontService,sans-serif" font-size="6.49951" x="3290.56" y="989.467">−</text><path d="M3375.08 957.187 3377.67 957.187C3377.61 958.744 3377.57 960.139 3377.54 961.371 3377.51 962.603 3377.49 963.8 3377.48 964.961 3377.46 966.122 3377.46 967.269 3377.46 968.402L3377.46 1000.69C3377.46 1001.56 3377.49 1002.32 3377.54 1002.96 3377.6 1003.6 3377.69 1004.13 3377.82 1004.57 3377.95 1005.01 3378.12 1005.39 3378.33 1005.7 3378.54 1006.01 3378.79 1006.28 3379.07 1006.51 3379.41 1006.85 3379.86 1007.11 3380.43 1007.29 3381 1007.48 3381.72 1007.63 3382.6 1007.76 3383.48 1007.89 3384.53 1007.99 3385.76 1008.06 3386.99 1008.13 3388.47 1008.18 3390.2 1008.21L3390.2 1011.9 3356.51 1011.9 3356.51 1008.21C3358.19 1008.15 3359.6 1008.09 3360.76 1008.01 3361.92 1007.94 3362.92 1007.84 3363.74 1007.72 3364.56 1007.59 3365.22 1007.45 3365.71 1007.29 3366.21 1007.14 3366.64 1006.95 3367.01 1006.72 3367.4 1006.46 3367.74 1006.19 3368.03 1005.89 3368.31 1005.59 3368.54 1005.22 3368.71 1004.76 3368.88 1004.31 3369.01 1003.76 3369.11 1003.11 3369.21 1002.46 3369.26 1001.65 3369.26 1000.69L3369.26 970.228C3369.26 969.124 3369.05 968.345 3368.62 967.892 3368.2 967.439 3367.59 967.212 3366.8 967.212 3365.92 967.212 3364.61 967.665 3362.89 968.572 3361.16 969.478 3358.92 970.823 3356.18 972.607 3355.81 971.956 3355.47 971.305 3355.16 970.653 3354.84 970.002 3354.52 969.336 3354.18 968.657 3357.69 966.731 3361.17 964.812 3364.61 962.9 3368.05 960.989 3371.54 959.084 3375.08 957.187Z" fill="#595959" fill-rule="evenodd"/><text fill="#000000" fill-opacity="0" font-family="Arial,Arial_MSFontService,sans-serif" font-size="54.7148" x="3354.18" y="1005.06">1</text><path d="M3194.19 1150.16C3191.29 1150.16 3188.83 1150.66 3186.81 1151.67 3184.8 1152.68 3183.16 1154.06 3181.9 1155.82 3180.64 1157.59 3179.72 1159.66 3179.14 1162.04 3178.56 1164.42 3178.27 1167.01 3178.27 1169.8 3178.27 1175.57 3179.45 1180.04 3181.81 1183.22 3184.18 1186.4 3187.51 1187.98 3191.81 1187.98 3193.28 1187.98 3194.68 1187.86 3196.02 1187.61 3197.36 1187.35 3198.67 1186.99 3199.94 1186.5 3201.22 1186.02 3202.47 1185.4 3203.69 1184.64 3204.91 1183.89 3206.01 1183.08 3206.97 1182.23 3207.32 1181.92 3207.63 1181.51 3207.9 1181.01 3208.18 1180.51 3208.39 1179.85 3208.54 1179.04 3208.7 1178.22 3208.78 1176.94 3208.78 1175.2 3208.78 1169.89 3208.24 1165.35 3207.18 1161.58 3206.11 1157.8 3204.49 1154.95 3202.3 1153.03 3200.11 1151.12 3197.41 1150.16 3194.19 1150.16ZM3194.83 1145.22C3202.96 1145.22 3209.16 1148.03 3213.42 1153.64 3217.68 1159.26 3219.82 1167.34 3219.82 1177.87 3219.82 1187.52 3218.25 1195.88 3215.11 1202.95 3211.97 1210.02 3207.57 1215.52 3201.92 1219.45 3196.26 1223.38 3189.66 1225.69 3182.1 1226.39L3179.72 1223.2 3179.72 1220.35C3185.15 1220.35 3189.84 1219.15 3193.81 1216.75 3197.78 1214.34 3200.98 1210.79 3203.4 1206.08 3205.82 1201.38 3207.44 1195.21 3208.25 1187.58L3207.67 1187.34C3204.42 1189.67 3201.21 1191.37 3198.05 1192.46 3194.9 1193.54 3191.48 1194.09 3187.8 1194.09 3183.42 1194.09 3179.69 1193.13 3176.61 1191.21 3173.53 1189.29 3171.22 1186.6 3169.67 1183.13 3168.12 1179.67 3167.35 1175.61 3167.35 1170.96 3167.35 1167.47 3167.93 1164.17 3169.09 1161.05 3170.25 1157.93 3171.98 1155.2 3174.26 1152.86 3176.55 1150.52 3179.4 1148.66 3182.83 1147.28 3186.26 1145.91 3190.26 1145.22 3194.83 1145.22Z" fill="#595959" fill-rule="evenodd"/><text fill="#000000" fill-opacity="0" font-family="Arial,Arial_MSFontService,sans-serif" font-size="81.1733" x="3167.35" y="1216.25">9</text><path d="M3233.75 1211.98 3245.49 1211.98 3245.49 1225.46 3233.75 1225.46Z" fill="#595959" fill-rule="evenodd"/><text fill="#000000" fill-opacity="0" font-family="Arial,Arial_MSFontService,sans-serif" font-size="13.4805" x="3233.75" y="1223.78">.</text><path d="M3285 1150.16C3282.33 1150.16 3280.09 1150.95 3278.29 1152.54 3276.49 1154.13 3275.04 1156.41 3273.93 1159.4 3272.83 1162.38 3272.04 1166.01 3271.58 1170.29 3271.12 1174.57 3270.88 1179.4 3270.88 1184.79 3270.88 1197.42 3272.05 1206.68 3274.4 1212.59 3276.74 1218.5 3280.37 1221.45 3285.29 1221.45 3289.98 1221.45 3293.46 1218.67 3295.72 1213.11 3297.99 1207.56 3299.12 1198.95 3299.12 1187.29 3299.12 1178.38 3298.54 1171.16 3297.38 1165.64 3296.22 1160.12 3294.6 1156.16 3292.53 1153.76 3290.45 1151.36 3287.95 1150.16 3285 1150.16ZM3351.47 1145.22C3358.67 1145.22 3364.11 1146.8 3367.79 1149.95 3371.47 1153.11 3373.31 1157.69 3373.31 1163.7 3373.31 1165.75 3373.11 1167.64 3372.7 1169.36 3372.3 1171.08 3371.66 1172.79 3370.79 1174.47 3369.92 1176.16 3368.74 1177.97 3367.27 1179.91 3365.8 1181.84 3364.17 1183.81 3362.39 1185.81 3360.61 1187.8 3357.53 1191.12 3353.15 1195.77 3345.79 1203.56 3340.39 1210.35 3336.94 1216.17L3358.85 1216.17C3360.74 1216.17 3362.27 1216.05 3363.44 1215.82 3364.6 1215.58 3365.53 1215.2 3366.23 1214.65 3366.92 1214.11 3367.48 1213.41 3367.88 1212.53 3368.29 1211.66 3368.8 1210.32 3369.42 1208.5L3374.36 1208.5 3373.37 1225.46 3325.55 1225.46 3325.55 1222.67C3327.22 1218.61 3329.46 1214.44 3332.29 1210.18 3335.12 1205.92 3339.13 1200.9 3344.32 1195.13 3348.81 1190.17 3352.05 1186.42 3354.02 1183.86 3356.19 1181.07 3357.81 1178.66 3358.88 1176.62 3359.94 1174.59 3360.71 1172.67 3361.17 1170.87 3361.64 1169.07 3361.87 1167.26 3361.87 1165.44 3361.87 1162.53 3361.4 1159.97 3360.47 1157.74 3359.54 1155.51 3358.12 1153.76 3356.2 1152.48 3354.29 1151.2 3351.87 1150.56 3348.97 1150.56 3341.72 1150.56 3336.84 1154.59 3334.33 1162.65L3327.3 1162.65 3327.3 1151.49C3331.98 1149.29 3336.37 1147.69 3340.46 1146.7 3344.54 1145.71 3348.21 1145.22 3351.47 1145.22ZM3285.29 1145.22C3293.78 1145.22 3300.09 1148.49 3304.24 1155.04 3308.38 1161.58 3310.45 1171.48 3310.45 1184.73 3310.45 1198.44 3308.23 1208.81 3303.8 1215.85 3299.36 1222.88 3292.89 1226.39 3284.36 1226.39 3276 1226.39 3269.77 1223.1 3265.68 1216.51 3261.6 1209.93 3259.55 1199.93 3259.55 1186.53 3259.55 1179.4 3260.18 1173.24 3261.44 1168.05 3262.7 1162.86 3264.46 1158.57 3266.73 1155.18 3268.99 1151.79 3271.72 1149.29 3274.89 1147.66 3278.07 1146.03 3281.54 1145.22 3285.29 1145.22ZM3433.74 1142.31 3438.27 1142.31 3437.4 1155.79 3403.99 1155.79 3403.99 1181.3C3406 1180.45 3408.19 1179.81 3410.55 1179.38 3412.92 1178.96 3415.28 1178.75 3417.64 1178.75 3422.25 1178.75 3426.34 1179.68 3429.9 1181.56 3433.47 1183.44 3436.22 1186.11 3438.15 1189.58 3440.09 1193.05 3441.06 1197.07 3441.06 1201.64 3441.06 1206.83 3439.97 1211.28 3437.8 1215 3435.64 1218.72 3432.5 1221.55 3428.39 1223.49 3424.28 1225.42 3419.42 1226.39 3413.81 1226.39 3407.11 1226.39 3400.09 1225.02 3392.77 1222.27L3392.77 1209.95 3399.8 1209.95C3400.97 1213.9 3402.72 1216.8 3405.06 1218.66 3407.41 1220.52 3410.44 1221.45 3414.16 1221.45 3419.31 1221.45 3423.2 1219.9 3425.83 1216.8 3428.47 1213.71 3429.79 1209.08 3429.79 1202.92 3429.79 1198.81 3429.09 1195.41 3427.69 1192.72 3426.3 1190.03 3424.42 1188.08 3422.06 1186.88 3419.69 1185.68 3416.94 1185.08 3413.81 1185.08 3411.17 1185.08 3408.91 1185.24 3407.01 1185.57 3405.11 1185.9 3403.08 1186.42 3400.91 1187.11L3396.26 1184.38 3396.26 1146.15 3428.27 1146.15C3429.59 1146.15 3430.54 1146.04 3431.12 1145.83 3431.7 1145.62 3432.17 1145.29 3432.52 1144.84 3432.87 1144.4 3433.27 1143.55 3433.74 1142.31Z" fill="#595959" fill-rule="evenodd"/><text fill="#000000" fill-opacity="0" font-family="Arial,Arial_MSFontService,sans-serif" font-size="84.0786" x="3259.55" y="1215.88">025</text><path d="M3161.08 1107.75 3449.08 1107.75 3449.08 1115.75 3161.08 1115.75Z" fill="#595959" fill-rule="evenodd"/><path d="M3516.53 1074.38 3524.78 1074.38 3524.78 1107.85 3556.45 1107.85 3556.45 1115.58 3524.78 1115.58 3524.78 1149.05 3516.53 1149.05 3516.53 1115.58 3484.86 1115.58 3484.86 1107.85 3516.53 1107.85Z" fill="#595959" fill-rule="evenodd"/><text fill="#000000" fill-opacity="0" font-family="Arial,Arial_MSFontService,sans-serif" font-size="74.6655" x="3484.86" y="1139.71">+</text><path d="M3622.18 1003.59C3618.19 1003.59 3615 1005.19 3612.62 1008.38 3610.24 1011.58 3608.83 1016.14 3608.41 1022.07L3633.8 1022.07C3633.57 1017.88 3633.04 1014.46 3632.23 1011.81 3631.42 1009.16 3630.2 1007.12 3628.57 1005.71 3626.94 1004.3 3624.81 1003.59 3622.18 1003.59ZM3622.76 998.998C3626.67 998.998 3630 999.618 3632.75 1000.86 3635.5 1002.1 3637.7 1003.79 3639.35 1005.94 3640.99 1008.09 3642.27 1010.8 3643.18 1014.08 3644.09 1017.35 3644.61 1021.62 3644.72 1026.89L3608.12 1026.89 3608.12 1027.93C3608.12 1032.51 3608.63 1036.35 3609.66 1039.47 3610.68 1042.59 3612.37 1045.03 3614.71 1046.79 3617.05 1048.55 3620.11 1049.43 3623.86 1049.43 3627.04 1049.43 3629.9 1048.84 3632.43 1047.66 3634.97 1046.48 3637.5 1044.55 3640.02 1041.88L3643.56 1045.66C3641.08 1048.25 3638.81 1050.29 3636.73 1051.76 3634.66 1053.23 3632.39 1054.38 3629.91 1055.22 3627.43 1056.05 3624.7 1056.46 3621.71 1056.46 3613.73 1056.46 3607.71 1054.07 3603.64 1049.29 3599.57 1044.5 3597.54 1037.44 3597.54 1028.11 3597.54 1022.34 3598.58 1017.24 3600.65 1012.83 3602.72 1008.41 3605.68 1005 3609.51 1002.6 3613.35 1000.2 3617.76 998.998 3622.76 998.998Z" fill="#595959" fill-rule="evenodd"/><text fill="#000000" fill-opacity="0" font-family="Arial,Arial_MSFontService,sans-serif" font-size="57.4663" x="3597.54" y="1049.28">e</text><path d="M3656.54 983.78 3705.48 983.78 3705.48 990.279 3656.54 990.279Z" fill="#595959" fill-rule="evenodd"/><text fill="#000000" fill-opacity="0" font-family="Arial,Arial_MSFontService,sans-serif" font-size="6.49951" x="3656.54" y="989.467">−</text><path d="M3787.57 961.01C3785.59 961.01 3783.94 961.527 3782.6 962.561 3781.27 963.594 3780.22 965.109 3779.44 967.106 3778.66 969.103 3778.11 971.538 3777.78 974.413 3777.46 977.287 3777.29 980.551 3777.29 984.204 3777.29 988.424 3777.5 992.07 3777.91 995.143 3778.32 998.216 3778.96 1000.74 3779.82 1002.73 3780.69 1004.71 3781.77 1006.17 3783.07 1007.1 3784.37 1008.04 3785.93 1008.5 3787.74 1008.5 3789.44 1008.5 3790.93 1008.06 3792.2 1007.19 3793.48 1006.31 3794.53 1004.94 3795.37 1003.09 3796.21 1001.23 3796.84 998.881 3797.26 996.035 3797.68 993.189 3797.9 989.826 3797.9 985.946 3797.9 981.585 3797.66 977.832 3797.2 974.689 3796.73 971.545 3796.07 968.961 3795.22 966.936 3794.37 964.911 3793.3 963.417 3792.01 962.454 3790.73 961.492 3789.25 961.01 3787.57 961.01ZM3741.06 957.187 3743.65 957.187C3743.59 958.744 3743.55 960.139 3743.52 961.371 3743.49 962.603 3743.47 963.8 3743.46 964.961 3743.44 966.122 3743.44 967.269 3743.44 968.402L3743.44 1000.69C3743.44 1001.56 3743.47 1002.32 3743.52 1002.96 3743.58 1003.6 3743.67 1004.13 3743.8 1004.57 3743.93 1005.01 3744.1 1005.39 3744.31 1005.7 3744.52 1006.01 3744.77 1006.28 3745.05 1006.51 3745.39 1006.85 3745.84 1007.11 3746.41 1007.29 3746.98 1007.48 3747.7 1007.63 3748.58 1007.76 3749.45 1007.89 3750.51 1007.99 3751.74 1008.06 3752.97 1008.13 3754.45 1008.18 3756.18 1008.21L3756.18 1011.9 3722.49 1011.9 3722.49 1008.21C3724.16 1008.15 3725.58 1008.09 3726.74 1008.01 3727.9 1007.94 3728.89 1007.84 3729.72 1007.72 3730.54 1007.59 3731.2 1007.45 3731.69 1007.29 3732.19 1007.14 3732.62 1006.95 3732.99 1006.72 3733.38 1006.46 3733.72 1006.19 3734.01 1005.89 3734.29 1005.59 3734.52 1005.22 3734.69 1004.76 3734.86 1004.31 3734.99 1003.76 3735.09 1003.11 3735.19 1002.46 3735.24 1001.65 3735.24 1000.69L3735.24 970.228C3735.24 969.124 3735.03 968.345 3734.6 967.892 3734.18 967.439 3733.57 967.212 3732.77 967.212 3731.9 967.212 3730.59 967.665 3728.87 968.572 3727.14 969.478 3724.9 970.823 3722.15 972.607 3721.79 971.956 3721.45 971.305 3721.13 970.653 3720.82 970.002 3720.5 969.336 3720.16 968.657 3723.67 966.731 3727.15 964.812 3730.59 962.9 3734.03 960.989 3737.52 959.084 3741.06 957.187ZM3787.74 956.889C3791.11 956.889 3794 957.52 3796.39 958.78 3798.78 960.04 3800.74 961.838 3802.25 964.175 3803.77 966.511 3804.88 969.365 3805.59 972.735 3806.29 976.105 3806.65 979.914 3806.65 984.162 3806.65 993.593 3804.98 1000.72 3801.64 1005.55 3798.29 1010.38 3793.45 1012.79 3787.11 1012.79 3780.82 1012.79 3776.15 1010.51 3773.09 1005.95 3770.03 1001.39 3768.5 994.485 3768.5 985.224 3768.5 980.381 3768.98 976.19 3769.92 972.65 3770.87 969.11 3772.2 966.171 3773.92 963.835 3775.63 961.499 3777.66 959.757 3780.01 958.61 3782.36 957.463 3784.94 956.889 3787.74 956.889Z" fill="#595959" fill-rule="evenodd"/><text fill="#000000" fill-opacity="0" font-family="Arial,Arial_MSFontService,sans-serif" font-size="55.9043" x="3720.16" y="1005.81">10</text><path d="M3817.85 1002.05 3826.43 1002.05 3826.43 1011.9 3817.85 1011.9Z" fill="#595959" fill-rule="evenodd"/><text fill="#000000" fill-opacity="0" font-family="Arial,Arial_MSFontService,sans-serif" font-size="9.85547" x="3817.85" y="1010.67">.</text><path d="M3906.17 985.946C3904.24 985.946 3902.58 986.208 3901.18 986.732 3899.77 987.256 3898.62 987.992 3897.71 988.941 3896.81 989.89 3896.15 991.037 3895.74 992.382 3895.33 993.727 3895.12 995.221 3895.12 996.864 3895.12 998.619 3895.35 1000.21 3895.8 1001.64 3896.26 1003.07 3896.96 1004.3 3897.91 1005.32 3898.85 1006.34 3900.03 1007.12 3901.43 1007.67 3902.83 1008.23 3904.47 1008.5 3906.34 1008.5 3908.29 1008.5 3909.94 1008.21 3911.29 1007.63 3912.63 1007.05 3913.74 1006.27 3914.6 1005.27 3915.46 1004.28 3916.09 1003.12 3916.49 1001.79 3916.89 1000.46 3917.09 999.073 3917.09 997.628 3917.09 995.787 3916.83 994.138 3916.32 992.679 3915.81 991.221 3915.08 990.003 3914.13 989.026 3913.18 988.049 3912.03 987.291 3910.67 986.753 3909.31 986.215 3907.81 985.946 3906.17 985.946ZM3906.25 961.01C3902.85 961.01 3900.26 961.881 3898.48 963.623 3896.7 965.364 3895.8 967.835 3895.8 971.035 3895.8 972.678 3896.01 974.158 3896.42 975.475 3896.83 976.792 3897.47 977.924 3898.35 978.873 3899.23 979.822 3900.33 980.537 3901.67 981.018 3903 981.5 3904.57 981.741 3906.38 981.741 3908.33 981.741 3909.97 981.471 3911.29 980.933 3912.6 980.395 3913.67 979.659 3914.47 978.724 3915.28 977.79 3915.87 976.707 3916.24 975.475 3916.6 974.243 3916.79 972.933 3916.79 971.545 3916.79 969.846 3916.53 968.345 3916 967.042 3915.48 965.74 3914.76 964.628 3913.84 963.708 3912.92 962.787 3911.81 962.107 3910.52 961.669 3909.23 961.23 3907.81 961.01 3906.25 961.01ZM3838.96 957.697 3875.92 957.697 3875.92 959.736 3850.99 1012.11 3844.49 1012.11 3844.49 1010.2 3867.34 965.768 3867.34 965.131 3849.33 965.131C3848.08 965.131 3847.11 965.23 3846.42 965.428 3845.73 965.626 3845.11 965.909 3844.57 966.278 3844.34 966.476 3844.15 966.681 3843.98 966.894 3843.81 967.106 3843.64 967.389 3843.47 967.743 3843.3 968.097 3843.12 968.565 3842.94 969.145 3842.75 969.726 3842.53 970.469 3842.28 971.375L3838.03 971.375ZM3906.38 956.889C3909.69 956.889 3912.55 957.229 3914.94 957.909 3917.33 958.589 3919.3 959.53 3920.85 960.734 3922.39 961.938 3923.54 963.375 3924.29 965.046 3925.04 966.717 3925.41 968.572 3925.41 970.611 3925.41 973.499 3924.62 975.963 3923.03 978.002 3921.45 980.041 3919.04 981.797 3915.81 983.27 3915.81 983.355 3915.82 983.468 3915.83 983.61 3915.85 983.751 3915.85 983.865 3915.85 983.95 3919.2 985.139 3921.69 986.881 3923.33 989.175 3924.97 991.469 3925.79 994.102 3925.79 997.076 3925.79 999.427 3925.33 1001.57 3924.39 1003.51 3923.46 1005.45 3922.11 1007.12 3920.36 1008.52 3918.6 1009.93 3916.49 1011 3914.03 1011.75 3911.56 1012.5 3908.79 1012.88 3905.7 1012.88 3902.81 1012.88 3900.19 1012.54 3897.82 1011.86 3895.46 1011.18 3893.43 1010.19 3891.75 1008.89 3890.06 1007.58 3888.76 1005.99 3887.84 1004.11 3886.92 1002.22 3886.46 1000.11 3886.46 997.756 3886.46 996.056 3886.69 994.548 3887.16 993.232 3887.63 991.915 3888.28 990.732 3889.13 989.684 3889.98 988.637 3891.02 987.702 3892.26 986.881 3893.49 986.059 3894.87 985.266 3896.4 984.502L3896.4 983.95C3893.23 982.59 3890.9 980.856 3889.41 978.746 3887.92 976.636 3887.18 974.122 3887.18 971.205 3887.12 969.081 3887.59 967.134 3888.58 965.364 3889.57 963.594 3890.94 962.086 3892.68 960.84 3894.42 959.594 3896.48 958.624 3898.86 957.93 3901.24 957.236 3903.75 956.889 3906.38 956.889Z" fill="#595959" fill-rule="evenodd"/><text fill="#000000" fill-opacity="0" font-family="Arial,Arial_MSFontService,sans-serif" font-size="55.9893" x="3838.03" y="1005.88">78</text><path d="M3958.96 958.631C3957.62 958.631 3956.39 958.645 3955.26 958.674 3954.13 958.702 3953.11 958.744 3952.2 958.801L3952.2 982.59 3957.3 982.59C3959.88 982.59 3962.13 982.371 3964.07 981.932 3966.01 981.493 3967.64 980.785 3968.94 979.808 3970.24 978.831 3971.22 977.556 3971.87 975.984 3972.52 974.413 3972.85 972.48 3972.85 970.186 3972.85 966.334 3971.73 963.446 3969.49 961.52 3967.25 959.594 3963.74 958.631 3958.96 958.631ZM3937.67 953.916 3960.82 953.916C3968.1 953.916 3973.54 955.169 3977.14 957.675 3980.73 960.182 3982.53 963.998 3982.53 969.124 3982.53 973.004 3981.41 976.268 3979.18 978.916 3976.94 981.564 3973.63 983.581 3969.24 984.969L3969.24 985.564C3970.85 986.3 3972.36 987.32 3973.76 988.622 3975.16 989.925 3976.59 991.766 3978.03 994.145 3979.19 996.184 3980.2 997.94 3981.05 999.412 3981.9 1000.89 3982.65 1002.15 3983.32 1003.21 3983.98 1004.28 3984.59 1005.15 3985.15 1005.85 3985.7 1006.54 3986.26 1007.11 3986.84 1007.55 3987.42 1007.99 3988.05 1008.33 3988.71 1008.57 3989.38 1008.81 3990.15 1009.01 3991.03 1009.18L3991.03 1011.9 3977.6 1011.9C3976.5 1010.37 3975.44 1008.77 3974.42 1007.1 3973.4 1005.43 3972.35 1003.6 3971.28 1001.62 3969.97 999.271 3968.88 997.281 3968 995.653 3967.13 994.024 3966.36 992.679 3965.71 991.617 3965.06 990.555 3964.47 989.727 3963.95 989.132 3963.42 988.537 3962.86 988.098 3962.25 987.815 3961.64 987.532 3960.94 987.362 3960.15 987.305 3959.35 987.249 3958.38 987.221 3957.21 987.221L3952.2 987.221 3952.2 1000.98C3952.2 1002.8 3952.25 1004.17 3952.35 1005.1 3952.45 1006.04 3952.68 1006.74 3953.05 1007.21 3953.42 1007.67 3953.96 1008.01 3954.69 1008.21 3955.41 1008.4 3956.39 1008.69 3957.64 1009.06L3957.64 1011.9 3937.67 1011.9 3937.67 1009.06C3939.03 1008.66 3940.08 1008.33 3940.82 1008.06 3941.55 1007.79 3942.09 1007.41 3942.43 1006.93 3942.77 1006.45 3942.96 1005.76 3943 1004.87 3943.05 1003.98 3943.07 1002.71 3943.07 1001.07L3943.07 964.748C3943.07 963.021 3943.03 961.711 3942.96 960.819 3942.89 959.927 3942.69 959.247 3942.35 958.78 3942.01 958.313 3941.48 957.959 3940.75 957.718 3940.03 957.477 3939 957.144 3937.67 956.72Z" fill="#595959" fill-rule="evenodd"/><text fill="#000000" fill-opacity="0" font-family="Arial,Arial_MSFontService,sans-serif" font-size="57.9858" x="3937.67" y="1004.65">R</text><path d="M4014.36 996.947C4011.82 996.947 4009.76 997.941 4008.17 999.929 4006.59 1001.92 4005.65 1004.62 4005.35 1008.04L4021.99 1008.04C4021.74 1004.2 4020.99 1001.4 4019.75 999.617 4018.52 997.837 4016.72 996.947 4014.36 996.947ZM4014.85 993.168C4017.41 993.168 4019.63 993.55 4021.49 994.312 4023.35 995.075 4024.87 996.109 4026.05 997.415 4027.22 998.721 4028.18 1000.48 4028.92 1002.68 4029.66 1004.89 4030.08 1007.96 4030.17 1011.89L4005.04 1011.89 4005.04 1012.17C4005.04 1016.65 4005.94 1019.94 4007.74 1022.05 4009.54 1024.15 4012.25 1025.2 4015.85 1025.2 4017.75 1025.2 4019.57 1024.79 4021.31 1023.95 4023.06 1023.12 4024.96 1021.73 4027.02 1019.79L4029.79 1022.91C4026.83 1025.69 4024.14 1027.62 4021.71 1028.72 4019.29 1029.82 4016.74 1030.37 4014.09 1030.37 4008.56 1030.37 4004.38 1028.81 4001.54 1025.69 3998.69 1022.57 3997.27 1018 3997.27 1011.99 3997.27 1008.3 3997.99 1005.02 3999.42 1002.18 4000.85 999.339 4002.91 997.126 4005.59 995.543 4008.27 993.96 4011.36 993.168 4014.85 993.168Z" fill="#595959" fill-rule="evenodd"/><text fill="#000000" fill-opacity="0" font-family="Arial,Arial_MSFontService,sans-serif" font-size="37.1987" x="3997.27" y="1025.72">e</text><path d="M4049.81 996.254 4054.38 996.254 4053.38 1007.1 4062.29 1000.83 4064.54 1004.71 4054.66 1009.32 4064.54 1013.97 4062.29 1017.82 4053.38 1011.54 4054.38 1022.39 4049.81 1022.39 4050.85 1011.54 4041.9 1017.82 4039.62 1013.97 4049.53 1009.32 4039.62 1004.71 4041.9 1000.83 4050.85 1007.1Z" fill="#595959" fill-rule="evenodd"/><text fill="#000000" fill-opacity="0" font-family="Arial,Arial_MSFontService,sans-serif" font-size="26.1396" x="4039.62" y="1019.13">∗</text><path d="M3997.83 956.796 4039.15 956.796 4039.15 962.794 3997.83 962.794Z" fill="#595959" fill-rule="evenodd"/><text fill="#000000" fill-opacity="0" font-family="Arial,Arial_MSFontService,sans-serif" font-size="5.99756" x="3997.83" y="962.044">−</text><path d="M4069.34 937.486 4071.63 937.486C4071.58 937.972 4071.54 939.15 4071.49 941.023 4071.45 942.895 4071.42 944.778 4071.42 946.673L4071.42 971.08C4071.42 972.536 4071.55 973.576 4071.8 974.2 4072.06 974.824 4072.46 975.315 4073.02 975.673 4073.57 976.031 4074.52 976.309 4075.86 976.505 4077.2 976.702 4079.33 976.823 4082.24 976.869L4082.24 980.093 4053.5 980.093 4053.5 976.869C4056.32 976.8 4058.38 976.673 4059.69 976.488 4060.99 976.303 4061.95 976.031 4062.56 975.673 4063.18 975.315 4063.63 974.824 4063.92 974.2 4064.21 973.576 4064.35 972.536 4064.35 971.08L4064.35 948.095C4064.35 947.263 4064.18 946.662 4063.85 946.292 4063.51 945.922 4063.03 945.737 4062.41 945.737 4061.72 945.737 4060.63 946.113 4059.15 946.864 4057.67 947.615 4055.78 948.719 4053.46 950.175L4051.63 946.673Z" fill="#595959" fill-rule="evenodd"/><text fill="#000000" fill-opacity="0" font-family="Arial,Arial_MSFontService,sans-serif" font-size="42.6069" x="4051.63" y="974.767">1</text><path d="M3876.89 1150.16C3874.22 1150.16 3871.98 1150.95 3870.18 1152.54 3868.38 1154.13 3866.93 1156.41 3865.82 1159.4 3864.72 1162.38 3863.94 1166.01 3863.47 1170.29 3863.01 1174.57 3862.77 1179.4 3862.77 1184.79 3862.77 1197.42 3863.95 1206.68 3866.29 1212.59 3868.63 1218.5 3872.26 1221.45 3877.18 1221.45 3881.87 1221.45 3885.35 1218.67 3887.61 1213.11 3889.88 1207.56 3891.01 1198.95 3891.01 1187.29 3891.01 1178.38 3890.43 1171.16 3889.27 1165.64 3888.11 1160.12 3886.49 1156.16 3884.42 1153.76 3882.35 1151.36 3879.84 1150.16 3876.89 1150.16ZM3877.18 1145.22C3885.67 1145.22 3891.98 1148.49 3896.13 1155.04 3900.27 1161.58 3902.34 1171.48 3902.34 1184.73 3902.34 1198.44 3900.13 1208.81 3895.69 1215.85 3891.26 1222.88 3884.78 1226.39 3876.25 1226.39 3867.89 1226.39 3861.66 1223.1 3857.57 1216.51 3853.49 1209.93 3851.44 1199.93 3851.44 1186.53 3851.44 1179.4 3852.07 1173.24 3853.33 1168.05 3854.59 1162.86 3856.35 1158.57 3858.62 1155.18 3860.89 1151.79 3863.61 1149.29 3866.78 1147.66 3869.96 1146.03 3873.43 1145.22 3877.18 1145.22ZM3811.13 1145.22C3815.5 1145.22 3819.34 1145.9 3822.63 1147.25 3825.92 1148.61 3828.44 1150.55 3830.19 1153.09 3831.93 1155.63 3832.8 1158.66 3832.8 1162.19 3832.8 1165.48 3832.14 1168.37 3830.82 1170.87 3829.51 1173.37 3827.66 1175.55 3825.28 1177.41 3822.89 1179.27 3819.8 1181.09 3816.01 1182.87L3816.01 1183.39C3818.37 1183.82 3820.65 1184.55 3822.83 1185.57 3825.02 1186.6 3826.97 1187.93 3828.67 1189.55 3830.38 1191.18 3831.74 1193.13 3832.77 1195.39 3833.8 1197.66 3834.31 1200.24 3834.31 1203.15 3834.31 1207.64 3833.33 1211.63 3831.38 1215.12 3829.42 1218.61 3826.43 1221.36 3822.4 1223.37 3818.37 1225.38 3813.47 1226.39 3807.7 1226.39 3804.37 1226.39 3800.77 1226.01 3796.92 1225.26 3793.07 1224.5 3789.53 1223.51 3786.32 1222.27L3786.32 1209.95 3793.29 1209.95C3794.64 1213.98 3796.44 1216.9 3798.66 1218.72 3800.89 1220.54 3803.92 1221.45 3807.76 1221.45 3812.79 1221.45 3816.6 1220.08 3819.17 1217.33 3821.75 1214.58 3823.04 1210.51 3823.04 1205.13 3823.04 1199.47 3821.33 1195.15 3817.92 1192.17 3814.52 1189.18 3809.52 1187.69 3802.93 1187.69L3797.7 1187.69 3797.7 1182.58C3802.93 1182.27 3807.34 1181.26 3810.92 1179.56 3814.51 1177.85 3817.17 1175.67 3818.91 1172.99 3820.66 1170.32 3821.53 1167.32 3821.53 1163.99 3821.53 1159.69 3820.38 1156.37 3818.1 1154.05 3815.81 1151.73 3812.48 1150.56 3808.1 1150.56 3804.46 1150.56 3801.5 1151.55 3799.21 1153.53 3796.93 1155.5 3795.24 1158.52 3794.16 1162.59L3787.19 1162.59 3787.19 1151.55C3791.68 1149.42 3795.88 1147.83 3799.8 1146.79 3803.71 1145.74 3807.49 1145.22 3811.13 1145.22Z" fill="#595959" fill-rule="evenodd"/><text fill="#000000" fill-opacity="0" font-family="Arial,Arial_MSFontService,sans-serif" font-size="81.1733" x="3786.32" y="1216.25">30</text><path d="M3591.08 1107.75 4096.08 1107.75 4096.08 1115.75 3591.08 1115.75Z" fill="#595959" fill-rule="evenodd"/><path d="M4171.73 926.992 4220.67 926.992 4220.67 933.492 4171.73 933.492Z" fill="#595959" fill-rule="evenodd"/><text fill="#000000" fill-opacity="0" font-family="Arial,Arial_MSFontService,sans-serif" font-size="6.49951" x="4171.73" y="932.679">−</text><path d="M4256.25 900.399 4258.84 900.399C4258.78 901.957 4258.74 903.352 4258.71 904.584 4258.68 905.816 4258.66 907.012 4258.65 908.173 4258.63 909.334 4258.63 910.481 4258.63 911.614L4258.63 943.899C4258.63 944.777 4258.65 945.535 4258.71 946.172 4258.77 946.809 4258.86 947.347 4258.99 947.786 4259.11 948.225 4259.28 948.601 4259.5 948.912 4259.71 949.224 4259.96 949.493 4260.24 949.719 4260.58 950.059 4261.03 950.321 4261.6 950.505 4262.17 950.689 4262.89 950.845 4263.77 950.972 4264.64 951.1 4265.7 951.199 4266.93 951.27 4268.16 951.341 4269.64 951.39 4271.37 951.418L4271.37 955.114 4237.68 955.114 4237.68 951.418C4239.35 951.362 4240.77 951.298 4241.93 951.227 4243.09 951.156 4244.08 951.057 4244.91 950.93 4245.73 950.802 4246.38 950.661 4246.88 950.505 4247.38 950.349 4247.81 950.158 4248.18 949.932 4248.57 949.677 4248.91 949.401 4249.2 949.103 4249.48 948.806 4249.71 948.431 4249.88 947.977 4250.05 947.524 4250.18 946.972 4250.28 946.321 4250.38 945.669 4250.43 944.862 4250.43 943.899L4250.43 913.441C4250.43 912.336 4250.22 911.558 4249.79 911.104 4249.37 910.651 4248.76 910.425 4247.96 910.425 4247.09 910.425 4245.78 910.878 4244.06 911.784 4242.33 912.69 4240.09 914.036 4237.34 915.82 4236.98 915.168 4236.64 914.517 4236.32 913.866 4236.01 913.214 4235.69 912.549 4235.35 911.869 4238.86 909.943 4242.33 908.025 4245.78 906.113 4249.22 904.201 4252.71 902.297 4256.25 900.399Z" fill="#595959" fill-rule="evenodd"/><text fill="#000000" fill-opacity="0" font-family="Arial,Arial_MSFontService,sans-serif" font-size="54.7148" x="4235.35" y="948.275">1</text><path d="M2368.19 1565.19 2391.89 1565.19 2391.89 1568.04C2390.11 1568.47 2388.85 1568.87 2388.12 1569.26 2387.38 1569.65 2386.83 1570.15 2386.46 1570.77 2386.09 1571.39 2385.91 1572.22 2385.91 1573.27 2385.91 1574.31 2386.04 1575.41 2386.29 1576.55 2386.54 1577.69 2386.94 1579.02 2387.48 1580.53L2397.59 1609.93 2409.44 1581.75C2410.22 1579.89 2410.76 1578.36 2411.07 1577.16 2411.38 1575.96 2411.53 1574.84 2411.53 1573.79 2411.53 1572.17 2411.1 1570.93 2410.23 1570.07 2409.36 1569.22 2407.76 1568.54 2405.43 1568.04L2405.43 1565.19 2427.16 1565.19 2427.16 1568.04C2425.65 1568.35 2424.49 1568.82 2423.68 1569.46 2422.86 1570.1 2422.05 1571.11 2421.24 1572.48 2420.42 1573.86 2419.46 1575.79 2418.33 1578.27L2398.75 1621.32 2391.89 1621.32 2376.15 1577.92C2375.06 1574.93 2374.2 1572.89 2373.56 1571.79 2372.92 1570.68 2372.23 1569.86 2371.47 1569.32 2370.72 1568.78 2369.62 1568.35 2368.19 1568.04Z" fill="#595959" fill-rule="evenodd"/><text fill="#000000" fill-opacity="0" font-family="Arial,Arial_MSFontService,sans-serif" font-size="56.1299" x="2368.19" y="1614.31">v</text><path d="M2442.24 1583.25 2445.25 1583.25 2445.25 1609.33 2445.34 1609.33C2446.78 1607.94 2448.11 1606.76 2449.33 1605.78 2450.55 1604.81 2451.72 1604.01 2452.83 1603.4 2453.95 1602.79 2455.05 1602.36 2456.13 1602.09 2457.2 1601.82 2458.34 1601.68 2459.53 1601.68 2463.94 1601.68 2467.13 1602.89 2469.08 1605.32 2471.04 1607.74 2472.01 1611.52 2472.01 1616.68L2472.01 1634.22C2472.01 1635.92 2472.04 1637.23 2472.08 1638.13 2472.12 1639.04 2472.3 1639.73 2472.61 1640.21 2472.92 1640.69 2473.44 1641.06 2474.18 1641.32 2474.92 1641.57 2475.97 1641.91 2477.32 1642.34L2477.32 1645.06 2458.59 1645.06 2458.59 1642.34C2459.72 1641.94 2460.62 1641.62 2461.29 1641.38 2461.95 1641.14 2462.46 1640.79 2462.8 1640.32 2463.14 1639.85 2463.36 1639.18 2463.45 1638.3 2463.55 1637.42 2463.6 1636.13 2463.6 1634.44L2463.6 1621.35C2463.6 1618.58 2463.48 1616.3 2463.22 1614.51 2462.97 1612.73 2462.54 1611.33 2461.95 1610.31 2461.35 1609.29 2460.55 1608.58 2459.55 1608.18 2458.54 1607.79 2457.3 1607.57 2455.83 1607.55 2454.75 1607.55 2453.6 1607.82 2452.37 1608.37 2451.14 1608.93 2450 1609.63 2448.95 1610.5 2447.9 1611.36 2447.02 1612.33 2446.31 1613.41 2445.61 1614.48 2445.25 1615.55 2445.25 1616.59L2445.25 1634.22C2445.25 1635.95 2445.29 1637.27 2445.36 1638.2 2445.43 1639.12 2445.63 1639.82 2445.97 1640.3 2446.31 1640.78 2446.82 1641.15 2447.5 1641.4 2448.18 1641.66 2449.13 1641.97 2450.35 1642.34L2450.35 1645.06 2431.7 1645.06 2431.7 1642.34C2432.92 1642 2433.87 1641.69 2434.57 1641.42 2435.26 1641.15 2435.78 1640.77 2436.12 1640.26 2436.46 1639.75 2436.67 1639.03 2436.76 1638.11 2436.84 1637.19 2436.88 1635.89 2436.88 1634.22L2436.88 1598.16C2436.88 1595.86 2436.88 1594.03 2436.88 1592.66 2436.88 1591.28 2436.71 1590.19 2436.37 1589.39 2436.03 1588.58 2435.45 1587.98 2434.63 1587.6 2433.81 1587.22 2432.58 1586.9 2430.94 1586.65L2430.94 1583.84Z" fill="#595959" fill-rule="evenodd"/><text fill="#000000" fill-opacity="0" font-family="Arial,Arial_MSFontService,sans-serif" font-size="61.8091" x="2430.94" y="1637.33">h</text><path d="M2527.79 1594.94 2599.38 1594.94 2599.38 1602.67 2527.79 1602.67ZM2527.79 1570.83 2599.38 1570.83 2599.38 1578.56 2527.79 1578.56Z" fill="#595959" fill-rule="evenodd"/><text fill="#000000" fill-opacity="0" font-family="Arial,Arial_MSFontService,sans-serif" font-size="31.8418" x="2527.79" y="1598.69">=</text><path d="M2642.13 1474.99 2665.84 1474.99 2665.84 1477.84C2664.06 1478.27 2662.8 1478.67 2662.06 1479.06 2661.33 1479.45 2660.78 1479.95 2660.41 1480.57 2660.04 1481.19 2659.86 1482.02 2659.86 1483.07 2659.86 1484.11 2659.98 1485.21 2660.23 1486.35 2660.49 1487.49 2660.88 1488.82 2661.42 1490.33L2671.53 1519.73 2683.39 1491.55C2684.16 1489.69 2684.71 1488.16 2685.02 1486.96 2685.33 1485.76 2685.48 1484.64 2685.48 1483.59 2685.48 1481.97 2685.04 1480.73 2684.17 1479.87 2683.3 1479.02 2681.7 1478.34 2679.38 1477.84L2679.38 1474.99 2701.11 1474.99 2701.11 1477.84C2699.6 1478.15 2698.44 1478.62 2697.62 1479.26 2696.81 1479.9 2696 1480.91 2695.18 1482.28 2694.37 1483.66 2693.4 1485.59 2692.28 1488.07L2672.7 1531.12 2665.84 1531.12 2650.09 1487.72C2649.01 1484.73 2648.15 1482.69 2647.51 1481.59 2646.87 1480.48 2646.17 1479.66 2645.42 1479.12 2644.66 1478.58 2643.57 1478.15 2642.13 1477.84Z" fill="#595959" fill-rule="evenodd"/><text fill="#000000" fill-opacity="0" font-family="Arial,Arial_MSFontService,sans-serif" font-size="56.1299" x="2642.13" y="1524.11">v</text><path d="M2719.41 1513.95 2725.02 1513.95 2723.79 1527.24 2734.7 1519.55 2737.46 1524.31 2725.36 1529.96 2737.46 1535.65 2734.7 1540.37 2723.79 1532.68 2725.02 1545.98 2719.41 1545.98 2720.68 1532.68 2709.72 1540.37 2706.92 1535.65 2719.07 1529.96 2706.92 1524.31 2709.72 1519.55 2720.68 1527.24Z" fill="#595959" fill-rule="evenodd"/><text fill="#000000" fill-opacity="0" font-family="Arial,Arial_MSFontService,sans-serif" font-size="32.0303" x="2706.92" y="1541.97">∗</text><path d="M2680.92 1617.32 2684.41 1617.32 2684.41 1668.1 2686.27 1668.1C2687.55 1668.1 2688.59 1667.97 2689.41 1667.7 2690.37 1667.35 2691.44 1666.76 2692.6 1665.92 2693.76 1665.09 2695.41 1663.69 2697.54 1661.71 2699.32 1660.05 2700.67 1658.63 2701.58 1657.47 2702.49 1656.31 2703.12 1655.24 2703.47 1654.27 2703.78 1653.46 2703.93 1652.65 2703.93 1651.83 2703.93 1650.67 2703.57 1649.76 2702.86 1649.1 2702.14 1648.44 2700.97 1648 2699.34 1647.77L2699.34 1644.92 2724.39 1644.92 2724.39 1647.77C2722.6 1648.12 2720.71 1648.91 2718.69 1650.15 2716.68 1651.39 2714.6 1653.02 2712.47 1655.03L2699.11 1667.7 2715.84 1689.54C2717.78 1692.1 2719.53 1693.99 2721.1 1695.21 2722.67 1696.43 2724.39 1697.23 2726.24 1697.62L2726.24 1700.47 2703.93 1700.47 2703.93 1697.62C2704.94 1697.5 2705.69 1697.28 2706.17 1696.95 2706.65 1696.62 2706.9 1696.07 2706.9 1695.3 2706.9 1694.72 2706.79 1694.14 2706.58 1693.58 2706.36 1693.02 2705.93 1692.26 2705.27 1691.29 2704.61 1690.32 2703.41 1688.63 2701.67 1686.23L2694.75 1676.94C2693.43 1675.19 2692.5 1674.05 2691.93 1673.51 2691.37 1672.96 2690.78 1672.58 2690.16 1672.35 2689.54 1672.11 2688.71 1672 2687.66 1672L2684.41 1672 2684.41 1685.94C2684.41 1689.27 2684.56 1691.59 2684.87 1692.89 2685.18 1694.18 2685.77 1695.17 2686.65 1695.85 2687.52 1696.53 2688.94 1697.12 2690.92 1697.62L2690.92 1700.47 2667.85 1700.47 2667.85 1697.62C2669.79 1697.12 2671.13 1696.59 2671.89 1696.05 2672.64 1695.51 2673.18 1694.86 2673.51 1694.11 2673.84 1693.35 2674.08 1692.32 2674.21 1691.03 2674.35 1689.73 2674.41 1688.03 2674.41 1685.94L2674.41 1637.31C2674.41 1633.59 2674.39 1630.99 2674.33 1629.52 2674.27 1628.05 2674.11 1626.8 2673.86 1625.77 2673.61 1624.75 2673.26 1623.94 2672.82 1623.36 2672.37 1622.78 2671.77 1622.32 2671.02 1621.97 2670.26 1621.62 2668.89 1621.27 2666.92 1620.92L2666.92 1617.9Z" fill="#595959" fill-rule="evenodd"/><text fill="#000000" fill-opacity="0" font-family="Arial,Arial_MSFontService,sans-serif" font-size="83.1489" x="2666.92" y="1690.07">k</text><path d="M2641.08 1582.75 2748.08 1582.75 2748.08 1590.75 2641.08 1590.75Z" fill="#595959" fill-rule="evenodd"/><path d="M2839.98 1564.26C2842.07 1564.26 2843.94 1564.5 2845.59 1564.99 2847.23 1565.47 2848.68 1566.22 2849.94 1567.23 2851.2 1568.23 2852.24 1569.48 2853.05 1570.97 2853.87 1572.47 2854.48 1574.26 2854.88 1576.35 2855.29 1578.44 2855.49 1581.09 2855.49 1584.31L2855.49 1606.21C2855.49 1608.89 2855.57 1610.82 2855.72 1612.03 2855.88 1613.23 2856.15 1614.16 2856.54 1614.81 2856.93 1615.47 2857.49 1616.03 2858.22 1616.47 2858.96 1616.92 2860.24 1617.39 2862.06 1617.89L2862.06 1620.74 2839.16 1620.74 2839.16 1617.89C2840.68 1617.43 2841.76 1617.02 2842.42 1616.67 2843.08 1616.33 2843.63 1615.84 2844.07 1615.22 2844.52 1614.6 2844.87 1613.64 2845.12 1612.34 2845.37 1611.05 2845.5 1609.08 2845.5 1606.45L2845.5 1591.22C2845.5 1588.51 2845.42 1586.05 2845.27 1583.84 2845.11 1581.64 2844.85 1579.83 2844.48 1578.41 2844.11 1577 2843.67 1575.89 2843.15 1575.1 2842.62 1574.31 2842 1573.63 2841.29 1573.07 2840.57 1572.5 2839.75 1572.06 2838.82 1571.73 2837.89 1571.4 2836.67 1571.24 2835.16 1571.24 2833.64 1571.24 2832.21 1571.54 2830.86 1572.14 2829.5 1572.74 2828.01 1573.77 2826.38 1575.24 2824.75 1576.72 2823.57 1578.17 2822.84 1579.6 2822.1 1581.04 2821.73 1582.68 2821.73 1584.54L2821.73 1606.21C2821.73 1609.55 2821.89 1611.86 2822.2 1613.16 2822.51 1614.46 2823.1 1615.44 2823.97 1616.12 2824.84 1616.8 2826.27 1617.39 2828.24 1617.89L2828.24 1620.74 2805.46 1620.74 2805.46 1617.89C2806.97 1617.43 2808.05 1617.02 2808.69 1616.67 2809.33 1616.33 2809.87 1615.84 2810.32 1615.22 2810.76 1614.6 2811.11 1613.65 2811.36 1612.37 2811.61 1611.1 2811.74 1609.1 2811.74 1606.39L2811.74 1581.06C2811.74 1578.58 2811.7 1576.58 2811.62 1575.07 2811.55 1573.56 2811.27 1572.35 2810.81 1571.44 2810.34 1570.53 2809.64 1569.85 2808.69 1569.41 2807.74 1568.96 2806.39 1568.58 2804.65 1568.27L2804.65 1565.19 2818.25 1564.67 2821.79 1564.67 2821.15 1574.14 2821.97 1574.37C2824.83 1571.47 2827.15 1569.4 2828.91 1568.16 2830.67 1566.92 2832.45 1565.96 2834.25 1565.28 2836.06 1564.6 2837.96 1564.26 2839.98 1564.26ZM2785.49 1537.59 2788.98 1537.59 2788.98 1606.21C2788.98 1609.55 2789.13 1611.86 2789.44 1613.16 2789.75 1614.46 2790.34 1615.44 2791.21 1616.12 2792.09 1616.8 2793.51 1617.39 2795.49 1617.89L2795.49 1620.74 2772.42 1620.74 2772.42 1617.89C2774.35 1617.39 2775.7 1616.87 2776.46 1616.33 2777.21 1615.78 2777.75 1615.13 2778.08 1614.38 2778.41 1613.62 2778.64 1612.6 2778.78 1611.3 2778.92 1610 2778.98 1608.31 2778.98 1606.21L2778.98 1557.58C2778.98 1553.86 2778.95 1551.27 2778.9 1549.79 2778.84 1548.32 2778.68 1547.07 2778.43 1546.05 2778.18 1545.02 2777.83 1544.22 2777.39 1543.64 2776.94 1543.05 2776.34 1542.59 2775.58 1542.24 2774.83 1541.89 2773.46 1541.54 2771.49 1541.19L2771.49 1538.17Z" fill="#595959" fill-rule="evenodd"/><text fill="#000000" fill-opacity="0" font-family="Arial,Arial_MSFontService,sans-serif" font-size="83.1489" x="2771.49" y="1610.35">ln</text><path d="M3158.82 1435.05C3174.74 1448.68 3187.38 1469.02 3196.73 1496.06 3206.09 1523.1 3210.77 1553.27 3210.77 1586.59 3210.77 1619.4 3206.09 1649.52 3196.73 1676.97 3187.38 1704.41 3174.74 1724.92 3158.82 1738.47L3156.09 1734.17C3169.84 1720.19 3180.44 1699.95 3187.87 1673.45 3195.31 1646.96 3199.03 1618.02 3199.03 1586.64 3199.03 1554.53 3195.29 1525.46 3187.81 1499.43 3180.34 1473.4 3169.76 1453.39 3156.09 1439.4ZM2947.95 1435.05 2950.68 1439.4C2936.96 1453.39 2926.38 1473.4 2918.92 1499.43 2911.47 1525.46 2907.74 1554.53 2907.74 1586.64 2907.74 1618.02 2911.46 1646.96 2918.89 1673.45 2926.33 1699.95 2936.93 1720.19 2950.68 1734.17L2947.95 1738.47C2932.02 1724.92 2919.39 1704.41 2910.03 1676.97 2900.68 1649.52 2896 1619.4 2896 1586.59 2896 1553.27 2900.68 1523.1 2910.03 1496.06 2919.39 1469.02 2932.02 1448.68 2947.95 1435.05Z" fill="#595959" fill-rule="evenodd"/><path d="M3053.54 1455.24C3050.87 1455.24 3048.63 1456.03 3046.83 1457.62 3045.03 1459.21 3043.58 1461.49 3042.47 1464.48 3041.37 1467.46 3040.59 1471.09 3040.12 1475.37 3039.66 1479.65 3039.42 1484.48 3039.42 1489.87 3039.42 1502.5 3040.6 1511.76 3042.94 1517.67 3045.28 1523.58 3048.91 1526.53 3053.83 1526.53 3058.52 1526.53 3062 1523.75 3064.26 1518.19 3066.53 1512.64 3067.66 1504.03 3067.66 1492.37 3067.66 1483.46 3067.08 1476.24 3065.92 1470.72 3064.76 1465.2 3063.14 1461.24 3061.07 1458.84 3059 1456.44 3056.49 1455.24 3053.54 1455.24ZM3053.83 1450.3C3062.32 1450.3 3068.63 1453.57 3072.78 1460.12 3076.92 1466.66 3078.99 1476.56 3078.99 1489.81 3078.99 1503.52 3076.78 1513.89 3072.34 1520.92 3067.91 1527.96 3061.43 1531.47 3052.9 1531.47 3044.54 1531.47 3038.31 1528.18 3034.22 1521.59 3030.14 1515.01 3028.09 1505.01 3028.09 1491.61 3028.09 1484.48 3028.72 1478.32 3029.98 1473.13 3031.24 1467.94 3033 1463.65 3035.27 1460.26 3037.54 1456.87 3040.26 1454.36 3043.43 1452.74 3046.61 1451.11 3050.08 1450.3 3053.83 1450.3ZM2987.78 1450.3C2992.15 1450.3 2995.99 1450.98 2999.28 1452.33 3002.57 1453.69 3005.09 1455.63 3006.83 1458.17 3008.58 1460.71 3009.45 1463.74 3009.45 1467.26 3009.45 1470.56 3008.79 1473.45 3007.47 1475.95 3006.16 1478.45 3004.31 1480.63 3001.93 1482.49 2999.54 1484.35 2996.45 1486.17 2992.66 1487.95L2992.66 1488.47C2995.02 1488.9 2997.3 1489.63 2999.48 1490.65 3001.67 1491.68 3003.62 1493.01 3005.32 1494.63 3007.03 1496.26 3008.39 1498.21 3009.42 1500.47 3010.45 1502.74 3010.96 1505.32 3010.96 1508.23 3010.96 1512.72 3009.98 1516.71 3008.03 1520.2 3006.07 1523.68 3003.08 1526.44 2999.05 1528.45 2995.02 1530.46 2990.12 1531.47 2984.35 1531.47 2981.02 1531.47 2977.42 1531.09 2973.57 1530.34 2969.72 1529.58 2966.18 1528.59 2962.97 1527.35L2962.97 1515.03 2969.94 1515.03C2971.29 1519.06 2973.09 1521.98 2975.31 1523.8 2977.54 1525.62 2980.57 1526.53 2984.41 1526.53 2989.44 1526.53 2993.25 1525.16 2995.82 1522.41 2998.4 1519.66 2999.69 1515.59 2999.69 1510.2 2999.69 1504.55 2997.98 1500.23 2994.57 1497.25 2991.17 1494.26 2986.17 1492.77 2979.58 1492.77L2974.35 1492.77 2974.35 1487.66C2979.58 1487.35 2983.99 1486.34 2987.57 1484.64 2991.16 1482.93 2993.82 1480.74 2995.56 1478.07 2997.31 1475.4 2998.18 1472.4 2998.18 1469.07 2998.18 1464.77 2997.03 1461.45 2994.75 1459.13 2992.46 1456.81 2989.13 1455.64 2984.75 1455.64 2981.11 1455.64 2978.15 1456.63 2975.86 1458.61 2973.58 1460.58 2971.89 1463.6 2970.81 1467.67L2963.84 1467.67 2963.84 1456.63C2968.33 1454.5 2972.53 1452.91 2976.45 1451.87 2980.36 1450.82 2984.14 1450.3 2987.78 1450.3ZM3104.32 1447.39 3107.81 1447.39 3107.81 1484.11 3108.04 1484.17C3111.06 1481.11 3113.45 1478.97 3115.22 1477.75 3116.98 1476.53 3118.72 1475.61 3120.44 1474.99 3122.17 1474.37 3124.02 1474.06 3125.99 1474.06 3128.12 1474.06 3130.02 1474.31 3131.69 1474.82 3133.35 1475.32 3134.82 1476.09 3136.07 1477.11 3137.33 1478.14 3138.36 1479.4 3139.15 1480.89 3139.95 1482.38 3140.54 1484.16 3140.93 1486.24 3141.31 1488.31 3141.51 1490.93 3141.51 1494.11L3141.51 1516.01C3141.51 1519.39 3141.65 1521.68 3141.94 1522.9 3142.23 1524.12 3142.76 1525.07 3143.51 1525.75 3144.27 1526.43 3145.79 1527.07 3148.07 1527.69L3148.07 1530.54 3125.18 1530.54 3125.18 1527.69C3126.69 1527.23 3127.78 1526.82 3128.43 1526.47 3129.09 1526.13 3129.64 1525.64 3130.09 1525.02 3130.54 1524.4 3130.88 1523.44 3131.14 1522.15 3131.39 1520.85 3131.51 1518.88 3131.51 1516.25L3131.51 1501.02C3131.51 1495.87 3131.25 1491.93 3130.73 1489.2 3130.21 1486.47 3129.18 1484.42 3127.65 1483.07 3126.12 1481.71 3123.98 1481.04 3121.23 1481.04 3119.68 1481.04 3118.28 1481.31 3117.05 1481.85 3115.81 1482.39 3114.37 1483.36 3112.75 1484.75 3111.12 1486.15 3109.89 1487.58 3109.06 1489.05 3108.22 1490.53 3107.81 1492.09 3107.81 1493.76L3107.81 1516.01C3107.81 1518.65 3107.87 1520.53 3108.01 1521.65 3108.15 1522.77 3108.41 1523.71 3108.79 1524.47 3109.18 1525.22 3109.77 1525.84 3110.57 1526.33 3111.36 1526.81 3112.59 1527.27 3114.26 1527.69L3114.26 1530.54 3091.25 1530.54 3091.25 1527.69C3092.95 1527.23 3094.17 1526.78 3094.91 1526.36 3095.64 1525.93 3096.21 1525.39 3096.62 1524.73 3097.03 1524.07 3097.33 1523.12 3097.52 1521.88 3097.72 1520.64 3097.81 1518.69 3097.81 1516.01L3097.81 1467.38C3097.81 1463.66 3097.78 1461.07 3097.73 1459.59 3097.67 1458.12 3097.51 1456.87 3097.26 1455.85 3097.01 1454.82 3096.66 1454.02 3096.21 1453.44 3095.77 1452.85 3095.17 1452.39 3094.41 1452.04 3093.66 1451.69 3092.29 1451.34 3090.32 1450.99L3090.32 1447.97Z" fill="#595959" fill-rule="evenodd"/><text fill="#000000" fill-opacity="0" font-family="Arial,Arial_MSFontService,sans-serif" font-size="84.0786" x="2962.97" y="1520.96">30h</text><path d="M3013.86 1617.32 3017.34 1617.32 3017.34 1668.1 3019.2 1668.1C3020.48 1668.1 3021.53 1667.97 3022.34 1667.7 3023.31 1667.35 3024.37 1666.76 3025.54 1665.92 3026.7 1665.09 3028.34 1663.69 3030.47 1661.71 3032.26 1660.05 3033.6 1658.63 3034.51 1657.47 3035.42 1656.31 3036.05 1655.24 3036.4 1654.27 3036.71 1653.46 3036.87 1652.65 3036.87 1651.83 3036.87 1650.67 3036.51 1649.76 3035.79 1649.1 3035.07 1648.44 3033.9 1648 3032.28 1647.77L3032.28 1644.92 3057.32 1644.92 3057.32 1647.77C3055.54 1648.12 3053.64 1648.91 3051.62 1650.15 3049.61 1651.39 3047.54 1653.02 3045.41 1655.03L3032.04 1667.7 3048.78 1689.54C3050.71 1692.1 3052.47 1693.99 3054.04 1695.21 3055.6 1696.43 3057.32 1697.23 3059.18 1697.62L3059.18 1700.47 3036.87 1700.47 3036.87 1697.62C3037.87 1697.5 3038.62 1697.28 3039.1 1696.95 3039.59 1696.62 3039.83 1696.07 3039.83 1695.3 3039.83 1694.72 3039.72 1694.14 3039.51 1693.58 3039.3 1693.02 3038.86 1692.26 3038.2 1691.29 3037.54 1690.32 3036.34 1688.63 3034.6 1686.23L3027.69 1676.94C3026.37 1675.19 3025.43 1674.05 3024.87 1673.51 3024.31 1672.96 3023.71 1672.58 3023.09 1672.35 3022.47 1672.11 3021.64 1672 3020.6 1672L3017.34 1672 3017.34 1685.94C3017.34 1689.27 3017.5 1691.59 3017.81 1692.89 3018.12 1694.18 3018.71 1695.17 3019.58 1695.85 3020.45 1696.53 3021.87 1697.12 3023.85 1697.62L3023.85 1700.47 3000.78 1700.47 3000.78 1697.62C3002.72 1697.12 3004.07 1696.59 3004.82 1696.05 3005.58 1695.51 3006.12 1694.86 3006.45 1694.11 3006.78 1693.35 3007.01 1692.32 3007.14 1691.03 3007.28 1689.73 3007.35 1688.03 3007.35 1685.94L3007.35 1637.31C3007.35 1633.59 3007.32 1630.99 3007.26 1629.52 3007.2 1628.05 3007.05 1626.8 3006.8 1625.77 3006.54 1624.75 3006.2 1623.94 3005.75 1623.36 3005.3 1622.78 3004.7 1622.32 3003.95 1621.97 3003.19 1621.62 3001.83 1621.27 2999.85 1620.92L2999.85 1617.9Z" fill="#595959" fill-rule="evenodd"/><text fill="#000000" fill-opacity="0" font-family="Arial,Arial_MSFontService,sans-serif" font-size="83.1489" x="2999.85" y="1690.07">k</text><path d="M3086.66 1681.41C3087.65 1681.41 3088.62 1681.43 3089.57 1681.47 3090.51 1681.52 3091.51 1681.6 3092.54 1681.73 3093.57 1681.86 3094.69 1682.02 3095.9 1682.22 3097.1 1682.42 3098.45 1682.67 3099.95 1682.98L3099.95 1692.46 3095.07 1692.46C3094.64 1691.27 3094.14 1690.24 3093.56 1689.38 3092.98 1688.51 3092.31 1687.8 3091.54 1687.25 3090.78 1686.7 3089.89 1686.29 3088.89 1686.02 3087.88 1685.75 3086.73 1685.62 3085.42 1685.62 3082.99 1685.62 3081.06 1686.13 3079.65 1687.15 3078.23 1688.16 3077.52 1689.62 3077.52 1691.52 3077.52 1692.31 3077.62 1693.02 3077.82 1693.64 3078.02 1694.27 3078.46 1694.9 3079.14 1695.54 3079.82 1696.17 3080.82 1696.84 3082.15 1697.55 3083.48 1698.26 3085.28 1699.08 3087.55 1700.02 3089.81 1700.92 3091.75 1701.8 3093.37 1702.65 3094.98 1703.5 3096.31 1704.41 3097.36 1705.37 3098.41 1706.33 3099.17 1707.41 3099.66 1708.6 3100.14 1709.79 3100.38 1711.16 3100.38 1712.72 3100.38 1714.93 3099.99 1716.83 3099.21 1718.43 3098.43 1720.03 3097.3 1721.36 3095.83 1722.43 3094.36 1723.49 3092.56 1724.27 3090.44 1724.78 3088.31 1725.29 3085.92 1725.55 3083.26 1725.55 3078.19 1725.55 3073.23 1724.85 3068.39 1723.47L3068.39 1713.78 3073.19 1713.78C3074.04 1716.47 3075.27 1718.42 3076.89 1719.62 3078.5 1720.83 3080.74 1721.43 3083.6 1721.43 3084.82 1721.43 3085.94 1721.3 3086.97 1721.04 3088.01 1720.79 3088.91 1720.39 3089.67 1719.86 3090.44 1719.32 3091.04 1718.64 3091.48 1717.82 3091.92 1716.99 3092.14 1716.02 3092.14 1714.88 3092.14 1714.21 3092.07 1713.6 3091.92 1713.08 3091.78 1712.56 3091.56 1712.07 3091.27 1711.61 3090.97 1711.16 3090.59 1710.73 3090.12 1710.32 3089.65 1709.91 3089.09 1709.5 3088.44 1709.11 3086.91 1708.23 3085.37 1707.44 3083.83 1706.75 3082.29 1706.06 3080.81 1705.38 3079.39 1704.71 3077.98 1704.05 3076.65 1703.37 3075.42 1702.69 3074.19 1702.01 3073.11 1701.24 3072.19 1700.38 3071.27 1699.51 3070.55 1698.53 3070.03 1697.43 3069.5 1696.32 3069.24 1695.03 3069.24 1693.56 3069.24 1691.49 3069.68 1689.69 3070.56 1688.16 3071.43 1686.64 3072.65 1685.38 3074.21 1684.38 3075.77 1683.39 3077.61 1682.65 3079.73 1682.15 3081.86 1681.66 3084.16 1681.41 3086.66 1681.41Z" fill="#595959" fill-rule="evenodd"/><text fill="#000000" fill-opacity="0" font-family="Arial,Arial_MSFontService,sans-serif" font-size="44.1372" x="3068.39" y="1720.03">s</text><path d="M2955.08 1582.75 3153.08 1582.75 3153.08 1590.75 2955.08 1590.75Z" fill="#595959" fill-rule="evenodd"/><text font-family="Segoe UI Light,Segoe UI Light_MSFontService,sans-serif" font-weight="300" font-size="128" transform="matrix(1 0 0 1 571.29 594)">Superficie hidráulicamente lisa →</text><text font-family="Segoe UI Light,Segoe UI Light_MSFontService,sans-serif" font-weight="300" font-size="128" transform="matrix(1 0 0 1 55.6646 1155)">Superficie hidráulicamente en transición →</text><text font-family="Segoe UI Light,Segoe UI Light_MSFontService,sans-serif" font-weight="300" font-size="128" transform="matrix(1 0 0 1 369.05 1628)">Superficie hidráulicamente rugosa →</text></g></svg>