<svg width="2532" height="1014" xmlns="http://www.w3.org/2000/svg" xmlns:xlink="http://www.w3.org/1999/xlink" xml:space="preserve" overflow="hidden"><g transform="translate(-834 -740)"><path d="M838 786C846.458 791.078 853.722 799.201 863.374 801.234 886.608 806.129 910.776 804.161 934.422 806.312 948.004 807.548 961.488 809.698 975.021 811.39 983.479 826.624 988.511 844.352 1000.39 857.092 1017.39 875.311 1063.83 896.446 1086.67 907.872 1095.97 917.184 1106.01 926.271 1112.04 938.34 1139.11 992.505 1100.25 946.034 1142.49 1009.43 1147.8 1017.4 1156.73 1022.33 1162.79 1029.74 1187.22 1059.62 1206.56 1093.86 1233.84 1121.15L1325.18 1212.55 1360.71 1248.1C1362.4 1253.18 1363.39 1258.55 1365.78 1263.33 1368.51 1268.79 1373.67 1272.9 1375.93 1278.57 1380.51 1290.01 1382.7 1302.26 1386.08 1314.11 1387.77 1331.04 1387.03 1348.39 1391.16 1364.89 1399.28 1397.42 1418.08 1426.2 1431.76 1456.3 1433.97 1461.17 1434.18 1466.88 1436.83 1471.53 1448.45 1491.88 1450.25 1490.64 1467.28 1502 1499.42 1495.23 1532.68 1492.48 1563.7 1481.69 1572.74 1478.54 1576.42 1467.21 1584 1461.38 1598.5 1450.21 1629.67 1430.91 1629.67 1430.91 1633.06 1424.14 1637.43 1417.78 1639.82 1410.6 1650.51 1378.5 1639.32 1364.35 1675.35 1354.74 1691.77 1350.35 1709.18 1351.35 1726.1 1349.66 1786.24 1393.43 1760.09 1383 1797.14 1395.36 1824.02 1368.47 1790.15 1403.68 1837.74 1339.5 1865.77 1301.71 1895.4 1265.14 1924.01 1227.79 1934.31 1214.35 1944.15 1200.58 1954.46 1187.16 1961.07 1178.57 1967.83 1170.1 1974.76 1161.77 1984.75 1149.78 1997.47 1139.78 2005.21 1126.23 2025.51 1090.68 2047.81 1056.21 2066.11 1019.59 2074.57 1002.66 2082.1 985.24 2091.48 968.809 2095.68 961.46 2101.79 955.383 2106.71 948.497 2110.25 943.53 2113.47 938.341 2116.86 933.263 2129.52 882.594 2109.74 952.879 2147.31 872.326 2149.49 867.653 2152.36 831.711 2167.61 826.624 2178.95 822.839 2191.29 823.239 2203.13 821.546 2211.32 817.449 2240.8 801.997 2248.8 801.234 2275.75 798.667 2302.93 801.234 2330 801.234" stroke="#000000" stroke-width="13.75" stroke-miterlimit="8" fill="none" fill-rule="evenodd"/><path d="M0 0 1089 0.000360892" stroke="#000000" stroke-width="2.29167" stroke-miterlimit="8" fill="none" fill-rule="evenodd" transform="matrix(1 0 0 -1 1041 888)"/><path d="M1482 924 1614.85 924" stroke="#000000" stroke-width="2.29167" stroke-miterlimit="8" fill="none" fill-rule="evenodd"/><path d="M1516 947 1582 947" stroke="#000000" stroke-width="2.29167" stroke-miterlimit="8" fill="none" fill-rule="evenodd"/><path d="M2567 1143C2567 924.295 2744.3 747 2963 747 3181.71 747 3359 924.295 3359 1143 3359 1361.7 3181.71 1539 2963 1539 2744.3 1539 2567 1361.7 2567 1143Z" stroke="#000000" stroke-width="13.75" stroke-miterlimit="8" fill="none" fill-rule="evenodd"/><path d="M2577 1044 3347 1044" stroke="#000000" stroke-width="2.29167" stroke-miterlimit="8" fill="none" fill-rule="evenodd"/><path d="M2861 1080 2993.85 1080" stroke="#000000" stroke-width="2.29167" stroke-miterlimit="8" fill="none" fill-rule="evenodd"/><path d="M2896 1103 2962 1103" stroke="#000000" stroke-width="2.29167" stroke-miterlimit="8" fill="none" fill-rule="evenodd"/><text font-family="Segoe UI,Segoe UI_MSFontService,sans-serif" font-weight="400" font-size="83" transform="matrix(1 0 0 1 1253.37 1685)">Sección Abierta</text><text font-family="Segoe UI,Segoe UI_MSFontService,sans-serif" font-weight="400" font-size="83" transform="matrix(1 0 0 1 2641.11 1683)">Sección Cerrada</text></g></svg>