<svg width="3145" height="2074" xmlns="http://www.w3.org/2000/svg" xmlns:xlink="http://www.w3.org/1999/xlink" xml:space="preserve" overflow="hidden"><g transform="translate(-912 -292)"><rect x="2605" y="631" width="578" height="490" fill="#F2F2F2"/><path d="M2575 1579 2587.42 1586.7C2589.84 1588.22 2592.48 1589.16 2594.67 1591.32L2600.88 1597.49C2602.95 1601.6 2604.99 1605.74 2607.09 1609.81 2608.44 1612.42 2609.85 1614.95 2611.23 1617.52L2619.51 1632.92C2621.21 1636.03 2623.3 1638.73 2624.69 1642.17 2630.05 1655.47 2626.37 1647.75 2637.11 1663.73 2639.87 1667.84 2643.05 1671.41 2645.39 1676.06 2646.43 1678.11 2647.17 1680.58 2648.5 1682.22 2649.5 1683.47 2656.61 1685.25 2656.78 1685.3 2660.23 1682.74 2663.39 1678.99 2667.13 1677.6 2669.17 1676.84 2671.62 1677.35 2673.34 1679.14 2675.38 1681.26 2675.19 1686.96 2677.48 1688.38L2689.91 1696.09C2691.98 1699.68 2694.35 1702.93 2696.12 1706.87 2697.83 1710.69 2698.59 1715.33 2700.26 1719.2 2701.72 1722.57 2703.85 1725.2 2705.43 1728.44 2706.62 1730.86 2707.33 1733.75 2708.54 1736.14 2709.42 1737.89 2710.54 1739.33 2711.65 1740.77 2716.07 1746.52 2720.95 1751.53 2725.1 1757.71 2727.17 1760.79 2729.38 1763.69 2731.31 1766.96 2734.56 1772.43 2737.28 1778.58 2740.63 1783.9 2742.47 1786.83 2744.94 1788.77 2746.84 1791.61 2748.06 1793.42 2748.84 1795.8 2749.95 1797.77 2754.02 1805.04 2758.84 1811.46 2762.37 1819.34 2764.44 1823.96 2766.62 1828.48 2768.58 1833.2 2771.1 1839.27 2773.17 1845.75 2775.83 1851.69 2776.64 1853.5 2777.96 1854.68 2778.93 1856.31 2780.72 1859.31 2782.61 1862.22 2784.11 1865.56 2785.39 1868.42 2785.97 1871.89 2787.21 1874.8 2788.4 1877.57 2789.75 1880.25 2791.36 1882.5 2802.17 1897.66 2801.2 1896.23 2809.99 1904.07 2814.82 1902.53 2819.82 1901.88 2824.48 1899.45 2826.83 1898.23 2828.5 1895.04 2830.69 1893.29 2844.66 1882.1 2831.25 1895.83 2845.19 1882.5 2847.68 1880.11 2849.9 1877.12 2852.43 1874.8 2857.2 1870.44 2862.63 1867.82 2867.96 1865.56 2874.48 1862.78 2880.92 1859.28 2887.63 1857.85L2902.12 1854.77C2932.6 1861.75 2920.34 1857.05 2939.39 1865.56 2941.11 1867.1 2942.86 1868.59 2944.56 1870.18 2957.03 1881.77 2940.25 1873.63 2978.73 1871.72 2986.38 1869.82 3001.15 1866.66 3007.71 1862.48L3014.96 1857.85C3015.65 1855.8 3016.02 1853.43 3017.03 1851.69 3020.92 1844.93 3027.25 1844.6 3032.56 1842.45 3039.8 1843.47 3047.08 1844.11 3054.29 1845.53 3060.2 1846.68 3071.89 1850.15 3071.89 1850.15 3075.34 1849.64 3078.83 1849.49 3082.24 1848.61 3086.78 1847.44 3091.1 1843.63 3095.7 1843.99 3098.19 1844.18 3099.84 1848.1 3101.91 1850.15 3103.64 1853.74 3105.48 1857.22 3107.09 1860.93 3108.59 1864.42 3109.38 1868.62 3111.23 1871.72 3112.26 1873.44 3113.99 1873.77 3115.37 1874.8 3117.79 1874.29 3120.25 1872.38 3122.62 1873.26 3123.68 1873.65 3123.16 1876.43 3123.65 1877.88 3125.24 1882.61 3127.24 1887.02 3128.83 1891.75 3130.35 1896.27 3131.51 1901.04 3132.97 1905.61 3134.62 1910.8 3136.27 1916 3138.15 1921.02 3140.33 1926.86 3145.59 1938.73 3148.5 1944.13 3150.79 1948.39 3153.52 1952.12 3155.74 1956.45 3157.19 1959.27 3163.31 1975.59 3167.13 1978.02 3170 1979.85 3173.34 1979.05 3176.45 1979.56 3180.93 1976.99 3185.46 1974.57 3189.9 1971.86 3193.05 1969.94 3195.85 1966.37 3199.22 1965.7 3208.8 1963.77 3218.55 1964.67 3228.21 1964.16 3249.08 1972.33 3242.23 1966.26 3250.98 1974.94 3256.18 1986.54 3249.43 1970.51 3256.16 1994.97 3257.94 2001.44 3263.48 2016.92 3266.51 2024.24 3267.81 2027.39 3269.39 2030.29 3270.65 2033.48 3272.04 2036.99 3282.76 2068.03 3285.14 2068.92L3293.42 2072C3300.33 2069.43 3307.41 2067.76 3314.13 2064.3 3316.48 2063.09 3318.21 2060.04 3320.34 2058.13 3321.66 2056.95 3323.06 2055.94 3324.48 2055.05 3333.33 2049.57 3332.49 2050.52 3342.08 2047.35 3344.84 2044.27 3347.49 2040.95 3350.36 2038.11 3358.61 2029.92 3360.58 2030.61 3366.92 2021.16 3368.52 2018.78 3376.4 2004.26 3379.35 2001.13 3382.24 1998.06 3385.56 1996 3388.66 1993.43 3390.73 1989.32 3392.29 1984.52 3394.87 1981.1 3398.59 1976.18 3403.31 1973.22 3407.3 1968.78 3410.23 1965.5 3412.82 1961.59 3415.58 1957.99 3419.68 1943.74 3418.68 1949.25 3420.75 1931.8 3421.56 1924.99 3421.45 1921.01 3422.82 1914.86 3423.41 1912.23 3423.73 1909.31 3424.89 1907.15 3429.75 1898.13 3433.65 1898.66 3440.42 1893.29 3442.62 1891.54 3444.3 1888.43 3446.63 1887.13 3449.93 1885.29 3453.58 1885.38 3456.98 1884.04 3474.93 1877.01 3457.64 1880.85 3475.62 1877.88 3478.03 1876.85 3480.42 1875.66 3482.86 1874.8 3486.29 1873.6 3489.78 1872.82 3493.22 1871.72 3494.61 1871.28 3495.98 1870.69 3497.36 1870.18 3506.23 1862.26 3499.17 1869.41 3507.71 1857.85 3512.84 1850.91 3526.07 1836.14 3529.45 1833.2 3537.73 1826.01 3546.32 1819.55 3554.29 1811.63 3557.4 1808.55 3560.37 1805.15 3563.61 1802.39 3565.22 1801.02 3567.12 1800.55 3568.79 1799.31 3570.59 1797.97 3572.16 1796.03 3573.96 1794.69 3577 1792.43 3580.21 1790.69 3583.28 1788.53 3587.94 1785.24 3597.28 1777.04 3602.95 1776.2 3617.04 1774.1 3631.24 1774.15 3645.39 1773.12 3654.03 1766.69 3644.95 1774.26 3653.67 1763.88 3655.61 1761.56 3657.86 1759.86 3659.88 1757.71 3662.69 1754.73 3665.4 1751.55 3668.16 1748.47 3672.02 1738.9 3674.91 1729.79 3680.59 1722.28 3699.5 1697.26 3687.61 1720.46 3699.22 1694.55 3700.26 1689.41 3701.82 1684.45 3702.33 1679.14 3704.24 1659.21 3703.25 1638.61 3706.47 1619.06 3707.22 1614.46 3711.05 1612.4 3713.71 1609.81 3720.05 1603.64 3726.61 1597.91 3733.38 1592.87 3734.76 1591.84 3736.1 1590.69 3737.52 1589.78 3738.53 1589.14 3739.59 1588.76 3740.63 1588.24 3744.02 1584.88 3746 1583.38 3746 1579.99" stroke="#7F7F7F" stroke-width="27.5" stroke-miterlimit="8" fill="#F2F2F2" fill-rule="evenodd"/><path d="M3745 1581C3746.05 1576.56 3749.13 1571.15 3750.9 1568.52 3752.67 1565.88 3754.22 1566.53 3755.62 1565.19 3764.79 1556.46 3767.05 1553.91 3772.93 1543.55 3776.28 1537.63 3780.14 1530.37 3782.37 1525.24 3784.6 1520.11 3784.86 1515.88 3786.3 1512.75 3787.75 1509.63 3789.25 1508.45 3791.02 1506.51 3792.79 1504.57 3793.91 1503.81 3796.92 1501.1 3799.94 1498.4 3806.04 1493.47 3809.12 1490.28 3812.2 1487.09 3813.2 1484.64 3815.41 1481.96 3816.88 1480.19 3818.56 1478.63 3820.13 1476.97L3826.43 1456.99 3828 1452" stroke="#7F7F7F" stroke-width="27.5" stroke-miterlimit="8" fill="#F2F2F2" fill-rule="evenodd"/><path d="M2575 1579C2573.9 1578.75 2572.7 1578.82 2571.69 1578.25 2570.82 1577.75 2569.64 1577.03 2568.71 1576.74 2568.06 1576.54 2567.38 1576.54 2566.72 1576.36 2564.62 1575.79 2560.44 1574.48 2560.44 1574.48 2559.66 1573.85 2558.92 1573.17 2558.12 1572.59 2557.7 1572.29 2557.2 1572.17 2556.79 1571.84 2556.41 1571.53 2556.22 1570.95 2555.8 1570.71 2555.08 1570.3 2554.25 1570.23 2553.48 1569.96 2550.78 1569 2551 1569.05 2548.85 1568.07 2548.41 1567.32 2547.8 1566.66 2547.53 1565.81 2547.02 1564.24 2546.89 1562.54 2546.53 1560.91 2546.23 1559.52 2545.87 1558.15 2545.54 1556.77 2545.1 1546.23 2546.09 1551.8 2544.55 1546.97 2544.31 1546.22 2544.22 1545.4 2543.89 1544.71 2543.35 1543.59 2540.79 1540.71 2540.24 1540.18 2539.64 1539.6 2538.89 1539.23 2538.26 1538.68 2537.26 1537.8 2536.23 1536.97 2535.28 1536.04 2533.85 1534.64 2532.42 1532.68 2531.64 1530.76 2530.87 1528.88 2529.92 1527.07 2529.32 1525.11 2528.37 1522.03 2527 1515.69 2527 1515.69 2527.6 1513.88 2529.37 1508.74 2529.32 1507.4 2529.17 1503.56 2528.04 1499.85 2527.33 1496.09 2527.08 1494.77 2525.87 1489.29 2525.35 1487.8 2523.91 1483.7 2519.25 1475.95 2518.07 1473.86 2516.8 1471.62 2511.13 1462.22 2510.12 1459.92L2507.14 1453.13C2506.7 1450.62 2506.35 1448.09 2505.82 1445.6 2505.36 1443.43 2504.35 1441.41 2504.16 1439.19 2503.79 1434.81 2504.16 1430.4 2504.16 1426" stroke="#7F7F7F" stroke-width="27.5" stroke-miterlimit="8" fill="none" fill-rule="evenodd"/><path d="M0 0 71.8414 101.466" stroke="#595959" stroke-width="3.4375" stroke-miterlimit="8" stroke-dasharray="13.75 10.3125" fill="none" fill-rule="evenodd" transform="matrix(-1 0 0 1 2587.34 1580.5)"/><path d="M0 0 1152.4 0.301706" stroke="#595959" stroke-width="6.875" stroke-miterlimit="8" fill="none" fill-rule="evenodd" transform="matrix(1 0 0 -1 2586.5 1580.8)"/><path d="M2614.5 633.5 3175.5 638.458" stroke="#404040" stroke-width="6.875" stroke-miterlimit="8" fill="none" fill-rule="evenodd"/><path d="M1050.5 295.5 2320.99 633.665" stroke="#404040" stroke-width="6.875" stroke-miterlimit="8" fill="none" fill-rule="evenodd"/><path d="M919 754 2248.9 1107.1" stroke="#7F7F7F" stroke-width="27.5" stroke-miterlimit="8" fill="none" fill-rule="evenodd"/><rect x="2604" y="450" width="578" height="672" stroke="#7F7F7F" stroke-width="27.5" stroke-miterlimit="8" fill="none"/><rect x="2553" y="389" width="684" height="81.9998" fill="#FFFFFF"/><path d="M2890.5 653.5 2972.87 654.239" stroke="#404040" stroke-width="6.875" stroke-miterlimit="8" fill="none" fill-rule="evenodd"/><path d="M2911.5 670.5 2950.49 670.501" stroke="#404040" stroke-width="6.875" stroke-miterlimit="8" fill="none" fill-rule="evenodd"/><path d="M2764.15 663.917 2764.15 1083.29 2761.85 1083.29 2761.85 663.917ZM2753.83 668.5 2763 641 2772.17 668.5ZM2772.17 1078.71 2763 1106.21 2753.83 1078.71Z"/><path d="M2256.5 1109.5 2685.5 1109.5" stroke="#404040" stroke-width="3.4375" stroke-miterlimit="8" stroke-dasharray="13.75 10.3125" fill="none" fill-rule="evenodd"/><path d="M2320.5 633.5 2617.5 633.5" stroke="#404040" stroke-width="3.4375" stroke-miterlimit="8" stroke-dasharray="13.75 10.3125" fill="none" fill-rule="evenodd"/><text font-family="Segoe UI Light,Segoe UI Light_MSFontService,sans-serif" font-weight="300" font-size="83" transform="matrix(1 0 0 1 2783.66 902)">y</text><text font-family="Segoe UI Light,Segoe UI Light_MSFontService,sans-serif" font-weight="300" font-size="83" transform="matrix(0.968282 0.249858 -0.249858 0.968282 2201.89 872)">d</text><path d="M1839.5 548.5 1979.72 585.821" stroke="#404040" stroke-width="6.875" stroke-miterlimit="8" fill="none" fill-rule="evenodd"/><path d="M1869.5 580.5 1927.55 595.951" stroke="#404040" stroke-width="6.875" stroke-miterlimit="8" fill="none" fill-rule="evenodd"/><path d="M7.00174 21.8508 115.354 428.93 113.14 429.52 4.78718 22.4402ZM-1.78485 28.9325 0 0 15.9316 24.2169ZM121.926 422.439 120.141 451.371 104.21 427.154Z" transform="matrix(-1 0 0 1 2253.14 614)"/><text font-family="Segoe UI Light,Segoe UI Light_MSFontService,sans-serif" font-weight="300" font-size="83" transform="matrix(0.968282 0.249858 -0.249858 0.968282 1483.65 1030)">S</text><text font-family="Segoe UI Light,Segoe UI Light_MSFontService,sans-serif" font-weight="300" font-size="55" transform="matrix(0.968282 0.249858 -0.249858 0.968282 1518.59 1060)">o</text><path d="M22.9163-1.14582 538.083-1.14549 538.083 1.14618 22.9163 1.14585ZM27.5 9.16668 0 0 27.5-9.16665ZM533.5-9.16632 561 0.000360892 533.5 9.16701Z" transform="matrix(-1 0 0 1 3175 530)"/><text font-family="Segoe UI Light,Segoe UI Light_MSFontService,sans-serif" font-weight="300" font-size="83" transform="matrix(1 0 0 1 2870.92 498)">T</text><path d="M1040.5 1240.5 2317.49 1580.4" stroke="#404040" stroke-width="6.875" stroke-miterlimit="8" fill="none" fill-rule="evenodd"/><path d="M916 1700 2245.9 2053.1" stroke="#7F7F7F" stroke-width="27.5" stroke-miterlimit="8" fill="none" fill-rule="evenodd"/><path d="M3305.15 1609.92 3305.15 2029.29 3302.85 2029.29 3302.85 1609.92ZM3294.83 1614.5 3304 1587 3313.17 1614.5ZM3313.17 2024.71 3304 2052.21 3294.83 2024.71Z"/><path d="M2253.5 2055.5 3309.5 2055.5" stroke="#404040" stroke-width="3.4375" stroke-miterlimit="8" stroke-dasharray="13.75 10.3125" fill="none" fill-rule="evenodd"/><path d="M2317.5 1580.5 2647.5 1580.5" stroke="#404040" stroke-width="3.4375" stroke-miterlimit="8" stroke-dasharray="13.75 10.3125" fill="none" fill-rule="evenodd"/><text font-family="Segoe UI Light,Segoe UI Light_MSFontService,sans-serif" font-weight="300" font-size="83" transform="matrix(1 0 0 1 3333.75 1848)">y</text><text font-family="Segoe UI Light,Segoe UI Light_MSFontService,sans-serif" font-weight="300" font-size="83" transform="matrix(0.968282 0.249858 -0.249858 0.968282 2198.84 1819)">d</text><path d="M1835.5 1494.5 1975.72 1531.82" stroke="#404040" stroke-width="6.875" stroke-miterlimit="8" fill="none" fill-rule="evenodd"/><path d="M1866.5 1526.5 1924.55 1541.95" stroke="#404040" stroke-width="6.875" stroke-miterlimit="8" fill="none" fill-rule="evenodd"/><path d="M7.00174 21.8508 115.354 428.93 113.14 429.52 4.78718 22.4402ZM-1.78485 28.9325 0 0 15.9316 24.2169ZM121.926 422.439 120.141 451.371 104.21 427.154Z" transform="matrix(-1 0 0 1 2250.14 1560)"/><text font-family="Segoe UI Light,Segoe UI Light_MSFontService,sans-serif" font-weight="300" font-size="83" transform="matrix(0.968282 0.249858 -0.249858 0.968282 1480.6 1977)">S</text><text font-family="Segoe UI Light,Segoe UI Light_MSFontService,sans-serif" font-weight="300" font-size="55" transform="matrix(0.968282 0.249858 -0.249858 0.968282 1515.54 2006)">o</text><path d="M22.9142-1.0951 1129.49 1.3553 1129.49 3.64696 22.9092 1.19657ZM27.4796 9.22754 0 0 27.5202-9.10575ZM1124.92-6.67567 1152.4 2.55187 1124.88 11.6576Z" transform="matrix(-1 0 0 1 3738.4 1520)"/><text font-family="Segoe UI Light,Segoe UI Light_MSFontService,sans-serif" font-weight="300" font-size="83" transform="matrix(1 0 0 1 3153.11 1497)">T</text><text font-family="Segoe UI Light,Segoe UI Light_MSFontService,sans-serif" font-weight="300" font-size="83" transform="matrix(1 0 0 1 3510.71 2116)">P</text><path d="M3835.38 1659.87 3745.5 1581.5" stroke="#404040" stroke-width="3.4375" stroke-miterlimit="8" stroke-dasharray="13.75 10.3125" fill="none" fill-rule="evenodd"/><path d="M3065.5 1598.5 3147.87 1599.24" stroke="#404040" stroke-width="6.875" stroke-miterlimit="8" fill="none" fill-rule="evenodd"/><path d="M3085.5 1614.5 3124.49 1614.5" stroke="#404040" stroke-width="6.875" stroke-miterlimit="8" fill="none" fill-rule="evenodd"/><text font-family="Segoe UI,Segoe UI_MSFontService,sans-serif" font-weight="400" font-size="64" transform="matrix(1 0 0 1 2756.48 1273)">Secci칩n </text><text font-family="Segoe UI,Segoe UI_MSFontService,sans-serif" font-weight="400" font-size="64" transform="matrix(1 0 0 1 2991.37 1273)">Transversal Regular (Prism치tico)</text><text font-family="Segoe UI,Segoe UI_MSFontService,sans-serif" font-weight="400" font-size="64" transform="matrix(1 0 0 1 2755.44 2312)">Secci칩n </text><text font-family="Segoe UI,Segoe UI_MSFontService,sans-serif" font-weight="400" font-size="64" transform="matrix(1 0 0 1 2990.34 2312)">Transversal Irregular (No Prism치tico)</text><path d="M2557.74 1703.62 2562.6 1709.34 2567.25 1717.69 2576.46 1734.19 2576.43 1734.14 2579.45 1738.99 2582.24 1744.16 2583.27 1746.63 2584.08 1748.6 2584.73 1750.17 2584.73 1750.16 2585.25 1751.42 2585.24 1751.39 2586.09 1753.23 2586.04 1753.13 2586.86 1754.55 2586.8 1754.46 2587.9 1756.01 2587.88 1755.99 2589.57 1758.24 2590.74 1759.8 2592.16 1761.76 2593.89 1764.16 2595.94 1767.09 2595.92 1767.06 2600.71 1773.46 2603.06 1776.78 2605.22 1780.42 2606.85 1783.93 2606.8 1783.83 2608.65 1786.97 2608.34 1786.63 2609.05 1787.15 2608.85 1787.03 2610.03 1787.58 2609.91 1787.54 2612.98 1788.6 2612.93 1788.58 2614.48 1789.03 2614.46 1789.03 2615.8 1789.39 2615.79 1789.39 2616.74 1789.64 2616.74 1789.64 2617.14 1789.74 2616.15 1789.95 2618.98 1787.71 2618.95 1787.73 2621.78 1785.35 2624.74 1783.15 2627.98 1781.51 2630.06 1781.09 2632.2 1781.27 2634.25 1782.06 2636.14 1783.48 2637.64 1786.09 2638.55 1789.15 2638.54 1789.12 2639.47 1791.92 2639.38 1791.7 2640.01 1792.8 2639.8 1792.54 2640.64 1793.31 2640.45 1793.17 2654.48 1801.56 2658.22 1807.45 2661.6 1813.46 2662.91 1816.78 2663.98 1820.19 2665.02 1823.58 2665 1823.51 2666.23 1826.74 2666.16 1826.59 2668.98 1831.59 2668.97 1831.56 2671.94 1836.53 2673.69 1840.75 2673.69 1840.74 2675.42 1844.85 2675.34 1844.69 2676.97 1847.29 2676.9 1847.2 2678.72 1849.55 2678.69 1849.51 2686.28 1858.41 2690.07 1862.92 2693.69 1867.72 2697.21 1872.62 2700.64 1877.7 2705.8 1886.87 2705.79 1886.86 2711.01 1895.88 2710.93 1895.76 2712.58 1897.94 2712.51 1897.87 2714.31 1899.86 2717.87 1904.05 2719.71 1907.41 2721.39 1910.79 2721.34 1910.69 2728.47 1922 2731.99 1927.76 2735.2 1933.89 2742.12 1948.8 2746.1 1958.78 2746.1 1958.76 2750.18 1968.61 2750.08 1968.43 2751.74 1970.97 2751.7 1970.91 2753.52 1973.35 2756.56 1978.24 2759.37 1983.43 2761.15 1988.46 2762.86 1993.43 2762.8 1993.3 2764.93 1997.63 2764.87 1997.52 2767.34 2001.44 2767.29 2001.37 2769.4 2004.21 2771.23 2006.67 2771.23 2006.67 2774.22 2010.63 2774.21 2010.61 2776.53 2013.57 2776.5 2013.53 2778.44 2015.79 2778.4 2015.74 2780.23 2017.63 2780.18 2017.59 2782.19 2019.44 2782.16 2019.41 2784.63 2021.54 2784.62 2021.54 2787.82 2024.28 2786.79 2024.04 2794.91 2021.92 2794.87 2021.93 2798.91 2020.74 2798.79 2020.78 2802.74 2019.14 2802.51 2019.27 2804.35 2017.95 2804.18 2018.09 2805.86 2016.32 2805.83 2016.36 2807.52 2014.44 2809.34 2012.72 2811.96 2010.73 2813.94 2009.31 2815.39 2008.33 2816.49 2007.69 2818.24 2007.13 2818.97 2007.89 2818.72 2007.69 2818.95 2007.83 2817.74 2007.86 2818.68 2007.24 2818.58 2007.31 2819.54 2006.51 2819.52 2006.53 2820.92 2005.29 2820.91 2005.3 2822.85 2003.55 2822.84 2003.56 2825.41 2001.21 2825.36 2001.25 2829.37 1997.1 2833.47 1992.94 2837.68 1989.68 2842.07 1987 2846.55 1984.77 2851.03 1982.85 2861.9 1978.17 2867.44 1976.08 2873.07 1974.54 2889.44 1971.18 2895.49 1972.49 2895.48 1972.49 2900.3 1973.5 2900.29 1973.49 2904.24 1974.29 2904.23 1974.29 2907.43 1974.9 2907.43 1974.9 2909.99 1975.38 2912.05 1975.76 2913.73 1976.09 2915.18 1976.4 2917.73 1977.13 2920.64 1978.24 2922.52 1979.04 2924.83 1980.04 2927.72 1981.3 2931.46 1982.92 2937.36 1988 2939.63 1990.12 2941.27 1991.78 2942.41 1993.01 2943.2 1993.86 2943 1993.69 2944.07 1994.43 2943.19 1994.25 2944.5 1993.98 2944.33 1994.02 2945.44 1993.61 2947.06 1993.06 2949.3 1992.41 2952.3 1991.73 2956.18 1991.04 2961.08 1990.39 2967.14 1989.81 2974.47 1989.36 2974.28 1989.38 2977.81 1988.56 2981.88 1987.61 2981.86 1987.61 2990.82 1985.36 2990.78 1985.37 2995.28 1984.07 2995.23 1984.08 2999.47 1982.67 2999.41 1982.69 3003.19 1981.17 3003.09 1981.21 3006.22 1979.58 3006.15 1979.62 3014.2 1974.67 3013.7 1975.32 3014.74 1971.85 3016.09 1968.49 3017.97 1965.89 3020.07 1963.88 3022.33 1962.35 3024.7 1961.19 3029.41 1959.57 3034.24 1957.98 3046.6 1959.51 3058.71 1961.32 3061.48 1961.9 3064.6 1962.63 3071.03 1964.28 3073.9 1965.05 3076.23 1965.7 3077.8 1966.14 3078.37 1966.3 3077.92 1966.26 3083.69 1965.59 3083.63 1965.59 3089.37 1964.62 3089.17 1964.67 3092.91 1963.31 3092.82 1963.35 3096.56 1961.6 3100.4 1960.13 3102.48 1959.71 3104.73 1959.65 3107.09 1960.64 3109 1962.6 3110.66 1964.77 3110.62 1964.72 3112.37 1966.76 3115.36 1972.62 3118.22 1978.5 3120.39 1984.49 3120.39 1984.48 3121.48 1987.42 3121.43 1987.31 3122.78 1989.98 3122.63 1989.75 3123.61 1990.89 3123.39 1990.69 3124.55 1991.48 3124.47 1991.43 3126.92 1992.8 3126.02 1992.71 3128.04 1992.08 3127.98 1992.11 3130.07 1991.32 3132.35 1990.77 3135 1991.06 3136.09 1992.4 3136.36 1994.07 3136.46 1995.66 3136.45 1995.53 3136.69 1996.9 3136.63 1996.69 3139.51 2004.11 3142.39 2011.57 3144.73 2019.02 3147.01 2026.47 3146.99 2026.42 3152.75 2042.92 3152.73 2042.87 3153.78 2045.49 3153.78 2045.47 3155.08 2048.54 3155.07 2048.52 3158.16 2055.38 3158.15 2055.36 3161.38 2062.13 3161.37 2062.11 3162.87 2065.07 3162.85 2065.04 3164.17 2067.51 3164.14 2067.45 3168.19 2074.02 3172.23 2080.71 3173.09 2082.52 3174.32 2085.3 3175.85 2088.73 3175.85 2088.72 3177.59 2092.47 3177.58 2092.44 3179.45 2096.18 3179.42 2096.13 3181.33 2099.5 3181.27 2099.41 3183.11 2102.08 3182.96 2101.9 3184.66 2103.52 3184.3 2103.29 3186.78 2104.3 3186.5 2104.22 3189.1 2104.57 3188.98 2104.56 3191.66 2104.64 3194.31 2104.86 3193.67 2104.99 3201.16 2100.92 3201.15 2100.93 3208.61 2096.75 3208.51 2096.81 3211.08 2095.02 3211.02 2095.06 3213.57 2093.03 3216.28 2091.18 3219.23 2090.03 3227.43 2088.96 3235.56 2088.61 3243.65 2088.55 3243.63 2088.55 3251.91 2088.35 3256.12 2089.9 3256.1 2089.89 3259.44 2091.05 3259.42 2091.04 3262.19 2091.93 3262.16 2091.92 3264.42 2092.59 3264.39 2092.59 3266.21 2093.08 3266.19 2093.08 3267.64 2093.44 3269.77 2093.98 3271.4 2094.6 3272.94 2095.65 3274.88 2097.41 3276.19 2098.66 3277.97 2100.37 3279 2102.57 3279.66 2103.98 3280.1 2104.92 3280.4 2105.59 3280.64 2106.61 3280.22 2107.25 3280.38 2106.85 3280.32 2107.15 3280.35 2106.92 3280.34 2107.48 3280.34 2107.36 3280.44 2108.3 3280.43 2108.23 3280.67 2109.65 3280.66 2109.61 3281.09 2111.62 3281.08 2111.59 3281.74 2114.3 3281.73 2114.28 3282.65 2117.79 3282.65 2117.77 3283.88 2122.19 3283.87 2122.16 3284.8 2125.18 3284.79 2125.15 3286.02 2128.86 3286.02 2128.84 3287.48 2133.02 3287.47 2133.01 3289.08 2137.44 3289.08 2137.43 3290.76 2141.91 3290.75 2141.9 3292.41 2146.21 3292.4 2146.2 3293.96 2150.11 3293.96 2150.1 3295.34 2153.41 3295.32 2153.36 3297.64 2158.3 3299.93 2163.3 3300.35 2164.37 3300.98 2166.01 3301.78 2168.16 3302.74 2170.73 3305.02 2176.75 3305.02 2176.74 3307.58 2183.36 3307.58 2183.35 3310.19 2189.84 3310.18 2189.82 3311.44 2192.79 3311.43 2192.77 3312.61 2195.43 3312.6 2195.41 3313.68 2197.68 3313.65 2197.63 3314.6 2199.41 3314.55 2199.32 3315.34 2200.53 3315.15 2200.31 3315.75 2200.85 3315.37 2200.62 3324.57 2203.92 3323.83 2203.91 3335.4 2200.15 3335.38 2200.15 3341.14 2198.14 3341.06 2198.17 3346.73 2195.7 3346.53 2195.81 3348.37 2194.52 3348.21 2194.66 3349.91 2192.93 3349.87 2192.97 3351.54 2191.07 3353.34 2189.27 3358.06 2185.89 3361.34 2183.95 3363.85 2182.55 3365.9 2181.51 3367.73 2180.73 3369.6 2180.07 3371.73 2179.4 3374.41 2178.59 3374.4 2178.59 3377.9 2177.51 3377.39 2177.83 3381.95 2172.78 3386.63 2167.88 3389.81 2164.96 3392.46 2162.71 3394.71 2160.88 3394.7 2160.89 3396.71 2159.25 3396.67 2159.28 3398.57 2157.57 3398.51 2157.63 3400.46 2155.62 3400.4 2155.69 3402.52 2153.14 3402.48 2153.2 3404.92 2149.87 3404.87 2149.93 3405.84 2148.42 3405.83 2148.44 3407.31 2146 3407.3 2146.01 3409.14 2142.94 3411.2 2139.53 3413.34 2136.08 3415.4 2132.87 3417.27 2130.19 3418.81 2128.31 3421.39 2125.94 3424.03 2123.86 3429.31 2119.93 3428.96 2120.36 3432.2 2113.47 3433.94 2110.06 3435.98 2106.95 3439.36 2103.22 3442.93 2100 3446.5 2096.91 3446.46 2096.96 3449.9 2093.63 3449.81 2093.72 3454.48 2088.07 3454.46 2088.11 3458.99 2082.2 3458.8 2082.57 3459.59 2079.94 3460.26 2077.74 3461.3 2074.37 3461.29 2074.38 3462.01 2071.92 3462 2071.97 3462.51 2069.89 3462.49 2069.96 3462.89 2067.71 3462.88 2067.76 3463.28 2064.81 3463.28 2064.83 3463.51 2062.93 3463.79 2060.66 3464.11 2057.94 3464.51 2054.71 3464.51 2054.73 3465.03 2049.74 3465.03 2049.76 3465.42 2045.39 3465.93 2041.11 3466.82 2036.47 3467.75 2032.08 3469.21 2027.95 3471.29 2024.61 3473.31 2022.09 3475.35 2020.14 3477.44 2018.6 3481.8 2016.01 3481.79 2016.01 3484.22 2014.52 3484.16 2014.56 3486.84 2012.66 3486.72 2012.76 3488.46 2011.14 3488.39 2011.22 3490.05 2009.35 3491.81 2007.5 3493.83 2005.99 3496.85 2004.76 3499.85 2004.03 3502.79 2003.42 3502.7 2003.44 3505.58 2002.6 3505.49 2002.63 3508.78 2001.35 3508.76 2001.36 3511.26 2000.33 3511.22 2000.34 3513.03 1999.52 3512.98 1999.55 3514.22 1998.92 3514.15 1998.96 3514.92 1998.49 3514.82 1998.57 3515.25 1998.23 3515.04 1998.44 3515.47 1997.89 3516.13 1997.51 3516.78 1997.39 3517.59 1997.28 3518.83 1997.11 3518.82 1997.11 3520.63 1996.85 3520.63 1996.86 3523.13 1996.48 3523.12 1996.48 3526.42 1995.97 3526.15 1996.05 3530.18 1994.32 3534.28 1992.71 3540.08 1991.01 3545.85 1989.4 3545.77 1989.42 3550.37 1987.77 3550.01 1987.98 3551.66 1986.57 3552.95 1985.48 3554.64 1984.07 3554.62 1984.09 3555.47 1983.35 3555.34 1983.47 3555.77 1982.97 3555.66 1983.13 3556.06 1982.44 3556.88 1981.11 3558.51 1978.76 3559.75 1977.06 3561.35 1974.95 3563.89 1971.78 3567.04 1968.08 3570.56 1964.1 3574.22 1960.07 3577.79 1956.24 3581.03 1952.85 3583.73 1950.15 3585.66 1948.38 3599.62 1937.1 3599.6 1937.11 3606.52 1931.37 3606.48 1931.4 3613.24 1925.3 3613.2 1925.34 3618.34 1920.24 3623.67 1915.33 3626.65 1913.55 3629.56 1911.95 3629.36 1912.08 3632.24 1909.61 3635.17 1907.08 3640.41 1903.7 3645.6 1900.43 3645.55 1900.47 3647.72 1898.92 3647.7 1898.94 3650.26 1897.05 3656.08 1892.87 3659.15 1890.87 3662.2 1889.13 3665.15 1887.8 3667.85 1887.07 3679.73 1885.75 3691.56 1884.98 3703.37 1884.42 3703.36 1884.42 3715.16 1883.76 3714.56 1883.97 3716.14 1882.84 3717.32 1882.01 3718.7 1881.07 3718.66 1881.09 3719.11 1880.76 3718.65 1881.74 3718.64 1881.58 3718.64 1880.94 3719.26 1879.68 3720.73 1877.64 3721.95 1876.14 3723.58 1874.22 3727.05 1870.81 3730.54 1867.56 3730.48 1867.62 3739.68 1857.72 3739.46 1858.07 3742.54 1850.49 3745.63 1843.17 3749.12 1836.21 3753.4 1829.77 3756.99 1825.28 3759.85 1821.87 3762.09 1819.36 3763.81 1817.59 3765.1 1816.41 3766.05 1815.66 3767.11 1814.99 3766.88 1815.18 3767.51 1814.5 3767.34 1814.74 3767.73 1814 3767.7 1814.06 3768.27 1812.85 3768.26 1812.86 3769.08 1811.03 3770.25 1808.42 3771.86 1804.89 3773.99 1800.27 3773.91 1800.49 3775.86 1792.3 3775.85 1792.33 3776.74 1788.21 3776.73 1788.29 3777.34 1784.08 3777.33 1784.17 3778.45 1768.06 3778.45 1768.09 3779.09 1751.87 3780.01 1735.7 3780.8 1727.67 3781.96 1719.62 3783.26 1716.09 3785.48 1713.35 3787.99 1711.16 3790.39 1709.13 3790.37 1709.14 3795.43 1704.64 3796.96 1706.35 3791.88 1710.87 3789.48 1712.9 3789.49 1712.89 3787.06 1715.01 3787.2 1714.86 3785.17 1717.39 3785.35 1717.06 3784.15 1720.3 3784.21 1720.06 3783.08 1727.97 3783.08 1727.92 3782.29 1735.9 3782.3 1735.85 3781.38 1751.99 3781.38 1751.97 3780.74 1768.2 3779.62 1784.37 3778.99 1788.66 3778.09 1792.82 3776.12 1801.13 3773.94 1805.84 3773.94 1805.84 3772.34 1809.37 3772.34 1809.36 3771.17 1811.97 3770.35 1813.81 3769.77 1815.05 3769.29 1815.95 3768.46 1816.85 3767.32 1817.57 3767.42 1817.5 3766.55 1818.18 3766.61 1818.12 3765.39 1819.25 3765.43 1819.21 3763.75 1820.94 3763.79 1820.9 3761.57 1823.38 3761.6 1823.36 3758.76 1826.74 3758.77 1826.72 3755.22 1831.17 3755.28 1831.08 3751.06 1837.42 3751.13 1837.3 3747.69 1844.16 3747.72 1844.09 3744.66 1851.37 3744.66 1851.35 3741.51 1859.13 3732.13 1869.21 3728.62 1872.48 3728.64 1872.45 3725.23 1875.82 3725.29 1875.74 3723.7 1877.61 3723.72 1877.59 3722.53 1879.06 3722.57 1879 3721.18 1880.94 3721.27 1880.78 3720.81 1881.71 3720.93 1881.19 3720.94 1881.52 3720.93 1881.47 3720.98 1882.22 3720.02 1882.94 3718.62 1883.9 3718.63 1883.89 3717.46 1884.71 3717.46 1884.71 3715.62 1886.03 3703.48 1886.71 3691.68 1887.26 3691.7 1887.26 3679.9 1888.03 3679.96 1888.03 3668.19 1889.34 3668.36 1889.31 3665.83 1889.99 3666 1889.93 3663.2 1891.19 3663.29 1891.14 3660.32 1892.84 3660.38 1892.8 3657.35 1894.78 3657.39 1894.75 3651.6 1898.91 3651.61 1898.9 3649.06 1900.79 3646.85 1902.35 3641.63 1905.63 3641.65 1905.62 3636.48 1908.96 3636.61 1908.87 3633.73 1911.34 3630.77 1913.9 3627.77 1915.55 3627.8 1915.53 3624.95 1917.23 3625.14 1917.09 3619.91 1921.91 3619.94 1921.88 3614.8 1926.98 3608 1933.12 3601.06 1938.88 3587.13 1950.14 3587.18 1950.09 3585.3 1951.82 3585.34 1951.79 3582.66 1954.47 3582.68 1954.45 3579.45 1957.82 3579.46 1957.81 3575.9 1961.62 3575.91 1961.61 3572.26 1965.63 3572.27 1965.62 3568.76 1969.59 3568.78 1969.57 3565.65 1973.25 3565.67 1973.23 3563.15 1976.37 3563.17 1976.34 3561.58 1978.44 3561.6 1978.42 3560.37 1980.1 3560.38 1980.07 3558.78 1982.39 3558.82 1982.34 3558.02 1983.63 3558.03 1983.61 3557.58 1984.37 3557.04 1985.01 3556.12 1985.82 3554.42 1987.24 3554.43 1987.23 3553.14 1988.32 3553.15 1988.31 3551.34 1989.86 3546.5 1991.59 3540.71 1993.21 3540.72 1993.21 3534.98 1994.9 3535.07 1994.87 3531.03 1996.45 3531.07 1996.43 3526.92 1998.21 3523.47 1998.75 3520.96 1999.12 3519.14 1999.38 3517.9 1999.55 3517.9 1999.55 3517.12 1999.66 3517.17 1999.65 3516.73 1999.73 3517.1 1999.6 3516.81 1999.76 3517.14 1999.48 3516.76 1999.96 3516.16 2000.42 3515.29 2000.94 3514 2001.6 3512.15 2002.44 3509.63 2003.48 3506.27 2004.79 3503.3 2005.65 3500.34 2006.27 3500.38 2006.26 3497.48 2006.97 3497.64 2006.92 3494.83 2008.06 3495.08 2007.92 3493.25 2009.28 3493.4 2009.15 3491.72 2010.91 3491.75 2010.88 3490.06 2012.78 3488.22 2014.49 3485.45 2016.45 3482.98 2017.97 3478.66 2020.54 3478.75 2020.48 3476.77 2021.94 3476.88 2021.85 3474.95 2023.69 3475.05 2023.58 3473.12 2025.99 3473.2 2025.88 3471.22 2029.06 3471.33 2028.83 3469.94 2032.77 3469.98 2032.63 3469.07 2036.94 3469.07 2036.92 3468.19 2041.5 3468.2 2041.43 3467.7 2045.64 3467.7 2045.61 3467.31 2049.97 3466.78 2054.98 3466.39 2058.21 3466.06 2060.93 3465.79 2063.21 3465.56 2065.12 3465.15 2068.09 3464.74 2070.39 3464.22 2072.54 3463.49 2075.03 3462.45 2078.41 3461.78 2080.61 3461.78 2080.6 3460.93 2083.43 3456.26 2089.52 3451.54 2095.23 3448.03 2098.63 3444.43 2101.73 3444.45 2101.71 3440.94 2104.88 3441.02 2104.8 3437.74 2108.42 3437.85 2108.28 3435.89 2111.27 3435.95 2111.16 3434.25 2114.49 3434.27 2114.46 3430.91 2121.6 3425.41 2125.69 3425.43 2125.67 3422.83 2127.71 3422.9 2127.65 3420.42 2129.94 3420.53 2129.83 3419.07 2131.61 3419.12 2131.53 3417.29 2134.16 3417.32 2134.13 3415.27 2137.31 3415.28 2137.29 3413.15 2140.73 3413.16 2140.72 3411.1 2144.12 3411.11 2144.12 3409.27 2147.19 3407.78 2149.64 3406.78 2151.2 3404.3 2154.58 3402.13 2157.19 3400.13 2159.25 3398.18 2161 3396.15 2162.66 3393.91 2164.48 3393.93 2164.46 3391.31 2166.69 3391.35 2166.66 3388.21 2169.54 3388.27 2169.49 3383.62 2174.35 3383.64 2174.32 3378.88 2179.6 3375.08 2180.78 3372.4 2181.59 3372.41 2181.59 3370.3 2182.25 3370.34 2182.23 3368.53 2182.88 3368.6 2182.85 3366.83 2183.61 3366.9 2183.58 3364.9 2184.58 3364.95 2184.56 3362.47 2185.95 3362.49 2185.94 3359.27 2187.84 3359.35 2187.78 3354.75 2191.08 3354.89 2190.96 3353.18 2192.67 3353.23 2192.62 3351.56 2194.51 3349.77 2196.34 3347.75 2197.75 3341.94 2200.28 3336.12 2202.32 3324.16 2206.21 3314.38 2202.7 3313.5 2201.91 3312.6 2200.53 3311.62 2198.68 3310.52 2196.38 3309.33 2193.69 3308.07 2190.7 3305.45 2184.2 3302.88 2177.57 3300.6 2171.53 3299.64 2168.97 3298.83 2166.83 3298.21 2165.19 3298.22 2165.2 3297.81 2164.17 3297.84 2164.23 3295.55 2159.26 3295.56 2159.27 3293.23 2154.31 3291.84 2150.97 3290.27 2147.04 3288.61 2142.72 3286.93 2138.23 3285.32 2133.78 3283.85 2129.59 3282.61 2125.86 3281.68 2122.82 3280.44 2118.38 3279.51 2114.85 3278.85 2112.11 3278.41 2110.06 3278.16 2108.58 3278.05 2107.53 3278.05 2106.78 3278.19 2106.16 3278.46 2105.75 3278.3 2106.66 3278.19 2106.23 3278.26 2106.42 3278.01 2105.86 3278.02 2105.88 3277.59 2104.95 3276.92 2103.53 3275.99 2101.53 3276.23 2101.88 3274.6 2100.31 3273.31 2099.07 3273.33 2099.09 3271.47 2097.41 3271.59 2097.5 3270.22 2096.57 3270.46 2096.69 3269.02 2096.14 3269.15 2096.18 3267.08 2095.66 3265.62 2095.29 3263.78 2094.79 3261.5 2094.12 3258.71 2093.22 3255.34 2092.05 3251.33 2090.58 3251.75 2090.65 3243.68 2090.85 3235.6 2090.9 3235.64 2090.9 3227.58 2091.24 3227.68 2091.24 3219.67 2092.29 3219.93 2092.22 3217.23 2093.27 3217.46 2093.14 3214.9 2094.9 3214.97 2094.85 3212.42 2096.87 3209.78 2098.72 3202.26 2102.93 3194.46 2107.17 3191.5 2106.93 3191.56 2106.93 3188.85 2106.85 3186.05 2106.47 3183.23 2105.33 3181.3 2103.48 3179.35 2100.67 3177.41 2097.23 3175.52 2093.45 3173.76 2089.67 3172.23 2086.23 3171 2083.47 3171.01 2083.49 3170.18 2081.74 3170.23 2081.84 3166.24 2075.21 3166.24 2075.22 3162.17 2068.62 3160.83 2066.11 3159.32 2063.13 3156.07 2056.33 3152.98 2049.45 3151.66 2046.36 3150.59 2043.7 3144.82 2027.16 3142.54 2019.69 3142.55 2019.7 3140.22 2012.29 3140.24 2012.36 3137.37 2004.94 3134.45 1997.41 3134.18 1995.87 3134.08 1994.27 3134.09 1994.38 3133.88 1993.07 3134.12 1993.61 3133.52 1992.88 3134.29 1993.29 3132.3 1993.07 3132.69 1993.05 3130.67 1993.53 3130.81 1993.49 3128.75 1994.26 3126.23 1995.04 3123.31 1993.4 3121.98 1992.5 3120.8 1991.14 3119.36 1988.28 3118.24 1985.28 3116.08 1979.34 3116.13 1979.45 3113.3 1973.63 3113.31 1973.65 3110.39 1967.92 3110.54 1968.15 3108.86 1966.19 3107.22 1964.05 3107.31 1964.15 3105.61 1962.41 3105.98 1962.67 3104.06 1961.86 3104.54 1961.95 3102.64 1962 3102.84 1961.97 3100.96 1962.36 3101.14 1962.3 3097.42 1963.73 3097.49 1963.7 3093.74 1965.45 3089.85 1966.86 3083.98 1967.86 3077.96 1968.56 3077.17 1968.34 3077.18 1968.34 3075.61 1967.9 3075.62 1967.91 3073.3 1967.27 3073.3 1967.27 3070.44 1966.5 3070.46 1966.5 3064.04 1964.86 3064.07 1964.86 3060.97 1964.13 3060.99 1964.14 3058.27 1963.57 3058.33 1963.58 3046.27 1961.78 3046.3 1961.78 3034.21 1960.29 3034.71 1960.24 3030.13 1961.74 3030.15 1961.74 3025.51 1963.33 3025.64 1963.28 3023.41 1964.37 3023.55 1964.3 3021.43 1965.72 3021.58 1965.6 3019.63 1967.47 3019.77 1967.31 3018.03 1969.72 3018.16 1969.48 3016.88 1972.65 3016.92 1972.55 3015.77 1976.4 3007.31 1981.6 3004.1 1983.27 3000.23 1984.83 2995.94 1986.26 2991.4 1987.58 2982.41 1989.84 2978.33 1990.79 2974.71 1991.64 2967.3 1992.1 2967.34 1992.1 2961.32 1992.67 2961.36 1992.66 2956.51 1993.31 2956.56 1993.3 2952.73 1993.98 2952.79 1993.97 2949.85 1994.64 2949.91 1994.63 2947.72 1995.25 2947.77 1995.23 2946.2 1995.77 2946.23 1995.76 2945.05 1996.2 2943.17 1996.59 2941.6 1995.5 2940.73 1994.57 2939.6 1993.35 2939.63 1993.38 2938.02 1991.74 2938.05 1991.78 2935.81 1989.69 2935.84 1989.72 2930.09 1984.77 2930.39 1984.95 2926.8 1983.4 2923.92 1982.15 2921.61 1981.14 2921.62 1981.15 2919.76 1980.36 2919.79 1980.37 2916.96 1979.28 2917.06 1979.32 2914.59 1978.61 2914.66 1978.63 2913.26 1978.33 2913.29 1978.33 2911.62 1978.01 2911.63 1978.01 2909.57 1977.63 2907 1977.15 2903.8 1976.53 2899.84 1975.74 2895.01 1974.73 2889.19 1973.47 2889.67 1973.47 2873.57 1976.77 2873.64 1976.76 2868.1 1978.27 2868.2 1978.24 2862.73 1980.31 2862.78 1980.29 2851.94 1984.95 2847.49 1986.87 2847.55 1986.84 2843.13 1989.03 2843.22 1988.99 2838.92 1991.6 2839.03 1991.53 2834.93 1994.71 2835.05 1994.6 2831.01 1998.7 2831.02 1998.69 2826.98 2002.87 2824.39 2005.25 2822.44 2007.01 2821.02 2008.26 2820 2009.11 2818.42 2010.17 2817.43 2009.6 2817.09 2009.24 2818.26 2009.53 2817.31 2009.84 2817.54 2009.74 2816.58 2010.3 2816.64 2010.26 2815.23 2011.2 2815.26 2011.18 2813.32 2012.58 2813.34 2012.57 2810.77 2014.51 2810.86 2014.43 2809.13 2016.07 2809.2 2016 2807.54 2017.89 2805.77 2019.75 2803.74 2021.21 2799.61 2022.92 2795.5 2024.14 2786.79 2026.41 2783.13 2023.28 2780.65 2021.13 2778.61 2019.25 2776.73 2017.31 2774.75 2015 2772.4 2012.02 2769.4 2008.04 2767.56 2005.57 2765.43 2002.7 2762.9 1998.69 2760.71 1994.24 2758.98 1989.21 2758.99 1989.22 2757.24 1984.28 2757.32 1984.45 2754.56 1979.36 2754.6 1979.42 2751.6 1974.61 2751.65 1974.69 2749.84 1972.26 2748.1 1969.59 2743.98 1959.63 2740.01 1949.67 2740.03 1949.73 2733.13 1934.88 2733.16 1934.93 2729.98 1928.86 2730.02 1928.92 2726.52 1923.21 2726.53 1923.22 2719.37 1911.86 2717.67 1908.45 2717.69 1908.49 2715.91 1905.25 2716.05 1905.44 2712.57 1901.35 2712.59 1901.38 2710.78 1899.36 2709.06 1897.08 2703.8 1888 2698.67 1878.86 2698.72 1878.94 2695.32 1873.92 2695.34 1873.94 2691.84 1869.07 2691.85 1869.09 2688.26 1864.33 2688.3 1864.38 2684.53 1859.89 2684.53 1859.9 2676.93 1850.97 2675.06 1848.56 2673.34 1845.83 2671.57 1841.63 2669.86 1837.49 2669.93 1837.64 2667 1832.73 2664.12 1827.64 2662.85 1824.29 2661.79 1820.88 2660.73 1817.5 2660.76 1817.58 2659.5 1814.37 2659.56 1814.51 2656.24 1808.6 2656.27 1808.65 2652.7 1803.01 2653.07 1803.38 2639.17 1795.07 2638.12 1794.11 2637.33 1792.75 2636.36 1789.83 2635.48 1786.87 2635.58 1787.11 2634.27 1784.82 2634.57 1785.16 2633 1783.98 2633.29 1784.14 2631.53 1783.47 2631.84 1783.54 2630.03 1783.39 2630.35 1783.37 2628.59 1783.72 2628.88 1783.62 2625.87 1785.15 2626.03 1785.05 2623.17 1787.17 2623.23 1787.13 2620.41 1789.5 2617.13 1792.1 2616.17 1791.86 2615.21 1791.61 2613.85 1791.24 2612.26 1790.77 2609.11 1789.68 2607.78 1789.06 2606.79 1788.33 2604.8 1784.95 2603.17 1781.43 2603.22 1781.54 2601.12 1777.99 2601.17 1778.07 2598.85 1774.8 2598.86 1774.82 2594.08 1768.42 2592.01 1765.49 2592.02 1765.49 2590.3 1763.09 2590.31 1763.1 2588.89 1761.16 2588.89 1761.17 2587.73 1759.61 2587.74 1759.61 2586.04 1757.35 2584.9 1755.75 2584.03 1754.24 2583.15 1752.33 2582.61 1751.05 2581.96 1749.47 2581.15 1747.51 2580.15 1745.09 2580.2 1745.19 2577.45 1740.11 2577.49 1740.18 2574.47 1735.33 2565.25 1718.81 2560.65 1710.56 2560.78 1710.74 2555.99 1705.11ZM2551.18 1717.69 2526 1677 2569.42 1697.12ZM3783.63 1698.27 3827 1678.06 3801.92 1718.81Z"/><text font-family="Segoe UI Light,Segoe UI Light_MSFontService,sans-serif" font-weight="300" font-size="83" transform="matrix(1 0 0 1 3333.01 749)">A</text><path d="M0.41925-1.06638 341.102 132.874 340.263 135.007-0.41925 1.06638ZM339.771 123.732 362.01 142.325 333.063 140.795Z" transform="matrix(1 0 0 -1 2939 870.326)"/></g></svg>