<svg width="1757" height="1296" xmlns="http://www.w3.org/2000/svg" xmlns:xlink="http://www.w3.org/1999/xlink" xml:space="preserve" overflow="hidden"><g transform="translate(-448 -608)"><path d="M0 268 113.608 0 1500.39 0 1614 268Z" fill="#F2F2F2" fill-rule="evenodd" transform="matrix(1 0 0 -1 521 1105)"/><path d="M0 420 178.284 0 1568.72 0 1747 420" stroke="#000000" stroke-width="10.3125" stroke-miterlimit="8" fill="none" fill-rule="evenodd" transform="matrix(1 0 0 -1 453 1105)"/><path d="M0 446 189.241 0 829.759 0 1019 446" stroke="#000000" stroke-width="10.3125" stroke-miterlimit="8" fill="#F2F2F2" fill-rule="evenodd" transform="matrix(1 0 0 -1 817 1545)"/><path d="M1190.25 859.913 1193.22 1515.53 1190.93 1515.54 1187.96 859.923ZM1179.96 864.541 1189 837 1198.29 864.458ZM1201.22 1510.91 1192.18 1538.45 1182.89 1510.99Z"/><text font-family="Segoe UI Light,Segoe UI Light_MSFontService,sans-serif" font-weight="300" font-size="83" transform="matrix(1 0 0 1 1225.59 1174)">y</text><text font-family="Segoe UI Light,Segoe UI Light_MSFontService,sans-serif" font-weight="300" font-size="55" transform="matrix(1 0 0 1 1262.83 1194)">i</text><path d="M22.9179-1.14583 1585.07-1.14548 1585.07 1.14619 22.9179 1.14584ZM27.5 9.16667 0 0 27.5-9.16666ZM1580.49-9.16631 1607.99 0.000360892 1580.49 9.16702Z" transform="matrix(-1 0 0 1 2128.99 731)"/><text font-family="Segoe UI Light,Segoe UI Light_MSFontService,sans-serif" font-weight="300" font-size="83" transform="matrix(1 0 0 1 1335.87 714)">T</text><path d="M1532.15 1127.92 1532.15 1511.08 1529.85 1511.08 1529.85 1127.92ZM1521.83 1132.5 1531 1105 1540.17 1132.5ZM1540.17 1506.5 1531 1534 1521.83 1506.5Z"/><text font-family="Segoe UI Light,Segoe UI Light_MSFontService,sans-serif" font-weight="300" font-size="83" transform="matrix(1 0 0 1 1562.46 1333)">y</text><text font-family="Segoe UI Light,Segoe UI Light_MSFontService,sans-serif" font-weight="300" font-size="55" transform="matrix(1 0 0 1 1599.7 1353)">m</text><path d="M1517.5 1105.5 1847.5 1105.5" stroke="#404040" stroke-width="3.4375" stroke-miterlimit="8" stroke-dasharray="13.75 10.3125" fill="none" fill-rule="evenodd"/><path d="M22.9163-1.14582 609.786-1.14549 609.786 1.14618 22.9163 1.14585ZM27.5 9.16668 0 0 27.5-9.16665ZM605.202-9.16632 632.702 0.000360892 605.202 9.16701Z" transform="matrix(-1 0 0 1 1645.7 1612)"/><text font-family="Segoe UI Light,Segoe UI Light_MSFontService,sans-serif" font-weight="300" font-size="83" transform="matrix(1 0 0 1 1303.59 1702)">B</text><path d="M2020.5 1099.5 2020.5 1726.5" stroke="#404040" stroke-width="3.4375" stroke-miterlimit="8" stroke-dasharray="13.75 10.3125" fill="none" fill-rule="evenodd"/><path d="M635.5 1099.5 635.5 1726.5" stroke="#404040" stroke-width="3.4375" stroke-miterlimit="8" stroke-dasharray="13.75 10.3125" fill="none" fill-rule="evenodd"/><path d="M0 0 1610.4 0.665125" stroke="#404040" stroke-width="4.58333" stroke-miterlimit="8" fill="none" fill-rule="evenodd" transform="matrix(1 0 0 -1 518.5 834.165)"/><path d="M0 0 264 0.665125" stroke="#404040" stroke-width="4.58333" stroke-miterlimit="8" fill="none" fill-rule="evenodd" transform="matrix(1 0 0 -1 1483.5 854.165)"/><path d="M0 0 132 0.665125" stroke="#404040" stroke-width="4.58333" stroke-miterlimit="8" fill="none" fill-rule="evenodd" transform="matrix(1 0 0 -1 1538.5 879.165)"/><path d="M0 47.9998 23 0 46.0001 47.9998Z" stroke="#404040" stroke-width="4.58333" stroke-miterlimit="8" fill="none" fill-rule="evenodd" transform="matrix(1 0 0 -1 1587.5 825.5)"/><path d="M0 187 0 0 81.9998 187Z" stroke="#000000" stroke-width="2.29167" stroke-miterlimit="8" fill="none" fill-rule="evenodd" transform="matrix(-1 0 0 1 1847 1223)"/><text font-family="Segoe UI Light,Segoe UI Light_MSFontService,sans-serif" font-weight="300" font-size="73" transform="matrix(1 0 0 1 1783.82 1467)">z</text><text font-family="Segoe UI Light,Segoe UI Light_MSFontService,sans-serif" font-weight="300" font-size="49" transform="matrix(1 0 0 1 1817.62 1484)">1</text><path d="M0 187 0 0 81.9998 187Z" stroke="#000000" stroke-width="2.29167" stroke-miterlimit="8" fill="none" fill-rule="evenodd" transform="matrix(-1 0 0 1 2173 869)"/><text font-family="Segoe UI Light,Segoe UI Light_MSFontService,sans-serif" font-weight="300" font-size="73" transform="matrix(1 0 0 1 2109.23 1112)">z</text><text font-family="Segoe UI Light,Segoe UI Light_MSFontService,sans-serif" font-weight="300" font-size="49" transform="matrix(1 0 0 1 2143.03 1129)">2</text><path d="M22.9225-1.1304 1361.76-0.228719 1361.76 2.06295 22.9209 1.16127ZM27.4938 9.18519 0 0 27.5062-9.14814ZM1357.18-8.25264 1384.67 0.932546 1357.16 10.0807Z" transform="matrix(-1 0 0 1 2017.67 1730)"/><text font-family="Segoe UI Light,Segoe UI Light_MSFontService,sans-serif" font-weight="300" font-size="83" transform="matrix(1 0 0 1 1293.45 1835)">B</text><text font-family="Segoe UI Light,Segoe UI Light_MSFontService,sans-serif" font-weight="300" font-size="55" transform="matrix(1 0 0 1 1338.14 1855)">v</text></g></svg>