<svg width="1050" height="678" xmlns="http://www.w3.org/2000/svg" xmlns:xlink="http://www.w3.org/1999/xlink" xml:space="preserve" overflow="hidden"><g transform="translate(-2888 -1093)"><path d="M0 395 165.844 0 805.172 0 979 395" fill="#F2F2F2" fill-rule="evenodd" transform="matrix(1 0 0 -1 2915 1546)"/><path d="M0 446 189.241 0 829.759 0 1019 446" stroke="#000000" stroke-width="10.3125" stroke-miterlimit="8" fill="none" fill-rule="evenodd" transform="matrix(1 0 0 -1 2893 1545)"/><path d="M3607.22 1172.91 3608.39 1511.17 3606.1 1511.18 3604.93 1172.92ZM3596.93 1177.53 3606 1150 3615.26 1177.47ZM3616.4 1506.56 3607.32 1534.09 3598.06 1506.62Z"/><text font-family="Segoe UI Light,Segoe UI Light_MSFontService,sans-serif" font-weight="300" font-size="83" transform="matrix(1 0 0 1 3534.57 1354)">y</text><text font-family="Segoe UI Light,Segoe UI Light_MSFontService,sans-serif" font-weight="300" font-size="55" transform="matrix(1 0 0 1 3571.81 1374)">t</text><path d="M22.9163-1.14582 609.786-1.14549 609.786 1.14618 22.9163 1.14585ZM27.5 9.16668 0 0 27.5-9.16665ZM605.202-9.16632 632.702 0.000360892 605.202 9.16701Z" transform="matrix(-1 0 0 1 3721.7 1612)"/><text font-family="Segoe UI Light,Segoe UI Light_MSFontService,sans-serif" font-weight="300" font-size="83" transform="matrix(1 0 0 1 3379.7 1702)">b</text><path d="M0 0 973.5 0.665125" stroke="#404040" stroke-width="4.58333" stroke-miterlimit="8" fill="none" fill-rule="evenodd" transform="matrix(1 0 0 -1 2915.5 1151.17)"/><path d="M0 0 264 0.665125" stroke="#404040" stroke-width="4.58333" stroke-miterlimit="8" fill="none" fill-rule="evenodd" transform="matrix(1 0 0 -1 3245.5 1172.17)"/><path d="M0 0 132 0.665125" stroke="#404040" stroke-width="4.58333" stroke-miterlimit="8" fill="none" fill-rule="evenodd" transform="matrix(1 0 0 -1 3300.5 1196.17)"/><path d="M0 47.0001 23 0 46.0001 47.0001Z" stroke="#404040" stroke-width="4.58333" stroke-miterlimit="8" fill="none" fill-rule="evenodd" transform="matrix(1 0 0 -1 3349.5 1142.5)"/><path d="M0 187 0 0 80.9998 187Z" stroke="#000000" stroke-width="2.29167" stroke-miterlimit="8" fill="none" fill-rule="evenodd" transform="matrix(-1 0 0 1 3923 1223)"/><text font-family="Segoe UI Light,Segoe UI Light_MSFontService,sans-serif" font-weight="300" font-size="73" transform="matrix(1 0 0 1 3859.93 1467)">z</text></g></svg>