<svg width="3262" height="872" xmlns="http://www.w3.org/2000/svg" xmlns:xlink="http://www.w3.org/1999/xlink" xml:space="preserve" overflow="hidden"><g transform="translate(-691 -720)"><path d="M776 886 788.422 893.719C790.844 895.239 793.482 896.176 795.668 898.35L801.88 904.525C803.95 908.641 805.987 912.796 808.091 916.875 809.438 919.487 810.851 922.021 812.232 924.594L820.513 940.031C822.213 943.15 824.302 945.847 825.689 949.294 831.054 962.629 827.372 954.891 838.111 970.906 840.872 975.023 844.051 978.599 846.393 983.256 847.428 985.314 848.173 987.784 849.499 989.431 850.504 990.68 857.613 992.469 857.78 992.519 861.231 989.946 864.389 986.195 868.132 984.8 870.168 984.041 872.624 984.549 874.343 986.344 876.382 988.471 876.187 994.179 878.484 995.606L890.906 1003.32C892.977 1006.93 895.353 1010.18 897.117 1014.13 898.829 1017.96 899.589 1022.61 901.258 1026.48 902.716 1029.86 904.849 1032.49 906.434 1035.74 907.618 1038.17 908.333 1041.06 909.54 1043.46 910.418 1045.21 911.544 1046.66 912.645 1048.09 917.068 1053.86 921.948 1058.88 926.103 1065.07 928.173 1068.16 930.377 1071.06 932.314 1074.34 935.559 1079.82 938.276 1085.98 941.631 1091.32 943.474 1094.25 945.936 1096.2 947.842 1099.04 949.062 1100.86 949.843 1103.24 950.948 1105.21 955.021 1112.5 959.84 1118.93 963.37 1126.82 965.44 1131.46 967.616 1135.99 969.581 1140.72 972.104 1146.8 974.168 1153.3 976.827 1159.24 977.64 1161.06 978.96 1162.24 979.933 1163.88 981.724 1166.88 983.614 1169.79 985.109 1173.14 986.393 1176.01 986.972 1179.49 988.214 1182.4 989.401 1185.18 990.746 1187.86 992.355 1190.12 1003.17 1205.3 1002.2 1203.87 1010.99 1211.73 1015.82 1210.19 1020.82 1209.53 1025.48 1207.1 1027.83 1205.87 1029.5 1202.68 1031.69 1200.93 1045.66 1189.71 1032.25 1203.48 1046.19 1190.12 1048.68 1187.73 1050.9 1184.72 1053.43 1182.4 1058.2 1178.03 1063.63 1175.41 1068.96 1173.14 1075.48 1170.36 1081.92 1166.85 1088.63 1165.42L1103.12 1162.33C1133.6 1169.32 1121.34 1164.62 1140.39 1173.14 1142.11 1174.68 1143.86 1176.18 1145.56 1177.77 1158.03 1189.39 1141.25 1181.22 1179.73 1179.31 1187.38 1177.41 1202.15 1174.25 1208.71 1170.05L1215.96 1165.42C1216.65 1163.36 1217.02 1160.99 1218.03 1159.24 1221.92 1152.47 1228.25 1152.14 1233.56 1149.98 1240.8 1151.01 1248.08 1151.65 1255.29 1153.07 1261.2 1154.23 1272.89 1157.7 1272.89 1157.7 1276.34 1157.19 1279.83 1157.04 1283.24 1156.16 1287.78 1154.98 1292.1 1151.16 1296.7 1151.52 1299.19 1151.72 1300.84 1155.64 1302.91 1157.7 1304.64 1161.3 1306.48 1164.78 1308.09 1168.51 1309.59 1172 1310.38 1176.21 1312.23 1179.31 1313.26 1181.03 1314.99 1181.37 1316.37 1182.4 1318.79 1181.89 1321.25 1179.97 1323.62 1180.86 1324.68 1181.25 1324.16 1184.03 1324.65 1185.49 1326.24 1190.23 1328.24 1194.64 1329.83 1199.38 1331.35 1203.91 1332.51 1208.69 1333.97 1213.28 1335.62 1218.47 1337.27 1223.68 1339.15 1228.71 1341.33 1234.57 1346.59 1246.46 1349.5 1251.87 1351.79 1256.14 1354.52 1259.87 1356.74 1264.22 1358.19 1267.04 1364.31 1283.39 1368.13 1285.83 1371 1287.67 1374.34 1286.86 1377.45 1287.38 1381.93 1284.8 1386.46 1282.37 1390.9 1279.66 1394.05 1277.74 1396.85 1274.16 1400.22 1273.48 1409.8 1271.55 1419.55 1272.45 1429.21 1271.94 1450.08 1280.13 1443.23 1274.05 1451.98 1282.74 1457.18 1294.36 1450.43 1278.31 1457.16 1302.81 1458.94 1309.3 1464.48 1324.81 1467.51 1332.14 1468.81 1335.3 1470.39 1338.21 1471.65 1341.41 1473.04 1344.92 1483.76 1376.02 1486.14 1376.91L1494.42 1380C1501.33 1377.43 1508.41 1375.75 1515.13 1372.28 1517.48 1371.07 1519.21 1368.02 1521.34 1366.11 1522.66 1364.92 1524.06 1363.9 1525.48 1363.02 1534.33 1357.52 1533.49 1358.48 1543.08 1355.3 1545.84 1352.21 1548.49 1348.89 1551.36 1346.04 1559.61 1337.84 1561.58 1338.52 1567.92 1329.06 1569.52 1326.67 1577.4 1312.12 1580.35 1308.99 1583.24 1305.91 1586.56 1303.84 1589.66 1301.27 1591.73 1297.15 1593.29 1292.34 1595.87 1288.92 1599.59 1283.99 1604.31 1281.02 1608.3 1276.57 1611.23 1273.29 1613.82 1269.36 1616.58 1265.76 1620.68 1251.48 1619.68 1257 1621.75 1239.52 1622.56 1232.69 1622.45 1228.7 1623.82 1222.54 1624.41 1219.91 1624.73 1216.98 1625.89 1214.82 1630.75 1205.78 1634.65 1206.31 1641.42 1200.93 1643.62 1199.18 1645.3 1196.05 1647.63 1194.75 1650.93 1192.91 1654.58 1193 1657.98 1191.66 1675.93 1184.62 1658.64 1188.47 1676.62 1185.49 1679.03 1184.46 1681.42 1183.26 1683.86 1182.4 1687.29 1181.2 1690.78 1180.41 1694.22 1179.31 1695.61 1178.87 1696.98 1178.28 1698.36 1177.77 1707.23 1169.83 1700.17 1177 1708.71 1165.42 1713.84 1158.47 1727.07 1143.66 1730.45 1140.72 1738.73 1133.51 1747.32 1127.04 1755.29 1119.11 1758.4 1116.02 1761.37 1112.61 1764.61 1109.84 1766.22 1108.47 1768.12 1108 1769.79 1106.76 1771.59 1105.41 1773.16 1103.47 1774.96 1102.12 1778 1099.86 1781.21 1098.12 1784.28 1095.95 1788.94 1092.65 1798.28 1084.45 1803.95 1083.6 1818.04 1081.5 1832.24 1081.54 1846.39 1080.51 1855.03 1074.07 1845.95 1081.65 1854.67 1071.25 1856.61 1068.93 1858.86 1067.23 1860.88 1065.07 1863.69 1062.08 1866.4 1058.9 1869.16 1055.81 1873.02 1046.22 1875.91 1037.09 1881.59 1029.57 1900.5 1004.5 1888.61 1027.75 1900.22 1001.78 1901.26 996.635 1902.82 991.662 1903.33 986.344 1905.24 966.372 1904.25 945.734 1907.47 926.137 1908.22 921.529 1912.05 919.471 1914.71 916.875 1921.05 910.692 1927.61 904.946 1934.38 899.894 1935.76 898.864 1937.1 897.713 1938.52 896.806 1939.53 896.165 1940.59 895.777 1941.63 895.262 1945.02 891.889 1947 890.391 1947 886.991" stroke="#7F7F7F" stroke-width="27.5" stroke-miterlimit="8" fill="#F2F2F2" fill-rule="evenodd"/><path d="M1947 888C1948.04 883.596 1951.08 878.228 1952.83 875.613 1954.58 872.998 1956.1 873.637 1957.49 872.31 1966.55 863.651 1968.78 861.124 1974.59 850.839 1977.91 844.968 1981.72 837.763 1983.92 832.671 1986.12 827.578 1986.38 823.381 1987.81 820.284 1989.23 817.187 1990.72 816.017 1992.47 814.09 1994.22 812.163 1995.32 811.406 1998.3 808.722 2001.28 806.039 2007.3 801.153 2010.35 797.987 2013.39 794.822 2014.38 792.382 2016.56 789.729 2018.01 787.971 2019.67 786.426 2021.23 784.774L2027.45 764.955 2029 760" stroke="#7F7F7F" stroke-width="27.5" stroke-miterlimit="8" fill="#F2F2F2" fill-rule="evenodd"/><path d="M777 887C775.881 886.749 774.664 886.819 773.643 886.246 772.759 885.75 771.564 885.027 770.622 884.739 769.966 884.538 769.27 884.54 768.608 884.362 766.471 883.786 762.23 882.478 762.23 882.478 761.447 881.85 760.693 881.173 759.881 880.593 759.458 880.292 758.945 880.166 758.538 879.84 758.152 879.53 757.956 878.947 757.531 878.709 756.802 878.3 755.959 878.228 755.181 877.956 752.444 876.995 752.66 877.05 750.482 876.071 750.034 875.318 749.418 874.66 749.139 873.81 748.623 872.238 748.494 870.537 748.132 868.911 747.823 867.522 747.461 866.148 747.125 864.766 746.678 854.232 747.684 859.802 746.118 854.968 745.876 854.221 745.786 853.404 745.447 852.707 744.902 851.586 742.307 848.709 741.755 848.185 741.139 847.599 740.377 847.233 739.741 846.677 738.734 845.798 737.688 844.971 736.72 844.039 735.269 842.643 733.823 840.678 733.027 838.763 732.244 836.879 731.289 835.073 730.677 833.111 729.718 830.033 728.328 823.69 728.328 823.69 728.933 821.878 730.732 816.738 730.677 815.399 730.522 811.56 729.381 807.851 728.663 804.094 728.41 802.767 727.179 797.288 726.649 795.803 725.187 791.699 720.464 783.949 719.265 781.859 717.978 779.617 712.233 770.217 711.209 767.916L708.188 761.133C707.74 758.621 707.384 756.085 706.845 753.596 706.376 751.433 705.356 749.405 705.167 747.19 704.792 742.813 705.167 738.396 705.167 734" stroke="#7F7F7F" stroke-width="27.5" stroke-miterlimit="8" fill="none" fill-rule="evenodd"/><path d="M0 0 1152.4 0.301706" stroke="#595959" stroke-width="6.875" stroke-miterlimit="8" fill="none" fill-rule="evenodd" transform="matrix(1 0 0 -1 787.5 887.802)"/><path d="M1300.5 912.5 1382.87 913.239" stroke="#404040" stroke-width="6.875" stroke-miterlimit="8" fill="none" fill-rule="evenodd"/><path d="M1320.5 928.5 1359.49 928.5" stroke="#404040" stroke-width="6.875" stroke-miterlimit="8" fill="none" fill-rule="evenodd"/><path d="M0 193 81.8145 0 1081.19 0 1163 193Z" fill="#F2F2F2" fill-rule="evenodd" transform="matrix(1 0 0 -1 2283 1063)"/><path d="M-12.6589 297.632 119.378-13.75 1139.62-13.75 1271.66 297.632 1266.6 299.779 1135.98-8.25 123.02-8.25-7.59536 299.779ZM-2.53179 301.926 126.662-2.75 1132.34-2.75 1261.53 301.926 1246.34 308.368 1121.41 13.75 137.588 13.75 12.6589 308.368Z" fill="#7F7F7F" transform="matrix(1 0 0 -1 2234 1063)"/><path d="M0 321 136.127 0 596.872 0 733 321" fill="#F2F2F2" fill-rule="evenodd" transform="matrix(1 0 0 -1 2497 1369)"/><path d="M-12.6588 315.632 127.023-13.75 605.977-13.75 745.659 315.632 740.595 317.779 602.335-8.25 130.665-8.25-7.59526 317.779ZM-2.53175 319.926 134.307-2.75 598.693-2.75 735.532 319.926 720.341 326.368 587.768 13.75 145.232 13.75 12.6588 326.368Z" fill="#7F7F7F" transform="matrix(1 0 0 -1 2497 1369)"/><path d="M0 0 1159.69 0.478904" stroke="#404040" stroke-width="4.58333" stroke-miterlimit="8" fill="none" fill-rule="evenodd" transform="matrix(1 0 0 -1 2282.5 867.979)"/><path d="M0 0 190.113 0.478904" stroke="#404040" stroke-width="4.58333" stroke-miterlimit="8" fill="none" fill-rule="evenodd" transform="matrix(1 0 0 -1 2734.5 882.979)"/><path d="M0 0 95.0565 0.478904" stroke="#404040" stroke-width="4.58333" stroke-miterlimit="8" fill="none" fill-rule="evenodd" transform="matrix(1 0 0 -1 2773.5 899.979)"/><path d="M0 34 16.5 0 33 34Z" stroke="#404040" stroke-width="4.58333" stroke-miterlimit="8" fill="none" fill-rule="evenodd" transform="matrix(1 0 0 -1 2809.5 861.5)"/><path d="M0 47.9998 22.9999 0 45.9997 47.9998Z" stroke="#404040" stroke-width="4.58333" stroke-miterlimit="8" fill="none" fill-rule="evenodd" transform="matrix(1 0 0 -1 1318.5 872.5)"/><text font-family="Segoe UI,Segoe UI_MSFontService,sans-serif" font-weight="400" font-size="64" transform="matrix(1 0 0 1 1402.83 1538)">Canal Natural Erosionable</text><text font-family="Segoe UI,Segoe UI_MSFontService,sans-serif" font-weight="400" font-size="64" transform="matrix(1 0 0 1 2895.02 1538)">Canal No Erosionable</text><text font-family="Segoe UI Light,Segoe UI Light_MSFontService,sans-serif" font-weight="300" font-size="55" transform="matrix(1 0 0 1 3495.76 1037)">Recubrimiento en </text><text font-family="Segoe UI Light,Segoe UI Light_MSFontService,sans-serif" font-weight="300" font-size="55" transform="matrix(1 0 0 1 3495.76 1103)">concreto.</text><path d="M0.344405-1.09285 284.004 88.3008 283.315 90.4865-0.344405 1.09285ZM282.044 79.2732 305.517 96.2818 276.533 96.7588Z" transform="matrix(1 0 0 -1 3157 1221.28)"/></g></svg>