<?xml version="1.0" encoding="UTF-8" standalone="no"?>
<!DOCTYPE svg PUBLIC "-//W3C//DTD SVG 1.1//EN" "http://www.w3.org/Graphics/SVG/1.1/DTD/svg11.dtd">
<!-- Generated by Microsoft Visio, SVG Export FlowClassification.svg Page-1 -->
<svg xmlns="http://www.w3.org/2000/svg" xmlns:xlink="http://www.w3.org/1999/xlink" xmlns:ev="http://www.w3.org/2001/xml-events"
		xmlns:v="http://schemas.microsoft.com/visio/2003/SVGExtensions/" width="6.86138in" height="3.27581in"
		viewBox="0 0 494.02 235.858" xml:space="preserve" color-interpolation-filters="sRGB" class="st7">
	<v:documentProperties v:langID="1033" v:viewMarkup="false"/>

	<style type="text/css">
	<![CDATA[
		.st1 {fill:#f2f2f2;stroke:none;stroke-width:1.5}
		.st2 {fill:#990000;font-family:Segoe UI;font-size:0.666664em}
		.st3 {font-size:1em}
		.st4 {marker-end:url(#mrkr6-46);stroke:#990000;stroke-linecap:round;stroke-linejoin:round;stroke-width:0.5}
		.st5 {fill:#990000;fill-opacity:1;stroke:#990000;stroke-opacity:1;stroke-width:0.25773195876289}
		.st6 {marker-end:url(#mrkr6-82);stroke:#990000;stroke-linecap:round;stroke-linejoin:round;stroke-width:0.5}
		.st7 {fill:none;fill-rule:evenodd;font-size:12px;overflow:visible;stroke-linecap:square;stroke-miterlimit:3}
	]]>
	</style>

	<defs id="Markers">
		<g id="lend6">
			<path d="M 2 1 L 0 0 L 2.01237 -1.00641 C 2.32921 -0.372876 2.32921 0.372869 2.01238 1.0064 " style="stroke:none"/>
		</g>
		<marker id="mrkr6-46" class="st5" v:arrowType="6" v:arrowSize="0" v:setback="8.01" refX="-8.01" orient="auto"
				markerUnits="strokeWidth" overflow="visible">
			<use xlink:href="#lend6" transform="scale(-3.88,-3.88) "/>
		</marker>
		<marker id="mrkr6-82" class="st5" v:arrowType="6" v:arrowSize="0" v:setback="8.73" refX="-8.73" orient="auto"
				markerUnits="strokeWidth" overflow="visible">
			<use xlink:href="#lend6" transform="scale(-3.88,-3.88) "/>
		</marker>
	</defs>
	<g v:mID="0" v:index="1" v:groupContext="foregroundPage">
		<title>Page-1</title>
		<v:pageProperties v:drawingScale="0.0393701" v:pageScale="0.0393701" v:drawingUnits="24" v:shadowOffsetX="8.50394"
				v:shadowOffsetY="-8.50394"/>
		<v:layer v:name="Connector" v:index="0"/>
		<g id="shape302-1" v:mID="302" v:groupContext="shape" transform="translate(1.5,-64.2796)">
			<title>Rounded Rectangle.302</title>
			<desc>Clasificación flujo en canales a superficie libre</desc>
			<v:userDefs>
				<v:ud v:nameU="CTypeTopLeftSnip" v:prompt="" v:val="VT0(0):5"/>
				<v:ud v:nameU="CTypeTopRightSnip" v:prompt="" v:val="VT0(0):5"/>
				<v:ud v:nameU="CTypeBotLeftSnip" v:prompt="" v:val="VT0(0):5"/>
				<v:ud v:nameU="CTypeBotRightSnip" v:prompt="" v:val="VT0(0):5"/>
				<v:ud v:nameU="CornerLockHoriz" v:prompt="" v:val="VT0(1):5"/>
				<v:ud v:nameU="CornerLockVert" v:prompt="" v:val="VT0(1):5"/>
				<v:ud v:nameU="CornerLockDiag" v:prompt="" v:val="VT0(0):5"/>
				<v:ud v:nameU="TopLeftOffset" v:prompt="" v:val="VT0(0.15748031496063):24"/>
				<v:ud v:nameU="TopRightOffset" v:prompt="" v:val="VT0(0.15748031496063):24"/>
				<v:ud v:nameU="BotLeftOffset" v:prompt="" v:val="VT0(0.15748031496063):24"/>
				<v:ud v:nameU="BotRightOffset" v:prompt="" v:val="VT0(0.15748031496063):24"/>
				<v:ud v:nameU="visVersion" v:prompt="" v:val="VT0(15):26"/>
			</v:userDefs>
			<v:textBlock v:margins="rect(2,2,2,2)" v:tabSpace="42.5197"/>
			<v:textRect cx="47.9196" cy="224.52" width="95.84" height="22.6772"/>
			<path d="M11.34 235.86 L84.5 235.86 A11.3384 11.3384 -180 0 0 95.84 224.52 A11.3384 11.3384 -180 0 0 84.5 213.18 L11.34
						 213.18 A11.3384 11.3384 -180 0 0 0 224.52 A11.3384 11.3384 -180 0 0 11.34 235.86 Z" class="st1"/>
			<text x="11.9" y="222.12" class="st2" v:langID="1033"><v:paragraph v:horizAlign="1"/><v:tabList/>Clasificación flujo en <tspan
						x="4.96" dy="1.2em" class="st3">canales a superficie libre</tspan></text>		</g>
		<g id="shape303-5" v:mID="303" v:groupContext="shape" transform="translate(124.554,-118.138)">
			<title>Rounded Rectangle.303</title>
			<desc>Flujo permanente</desc>
			<v:userDefs>
				<v:ud v:nameU="CTypeTopLeftSnip" v:prompt="" v:val="VT0(0):5"/>
				<v:ud v:nameU="CTypeTopRightSnip" v:prompt="" v:val="VT0(0):5"/>
				<v:ud v:nameU="CTypeBotLeftSnip" v:prompt="" v:val="VT0(0):5"/>
				<v:ud v:nameU="CTypeBotRightSnip" v:prompt="" v:val="VT0(0):5"/>
				<v:ud v:nameU="CornerLockHoriz" v:prompt="" v:val="VT0(1):5"/>
				<v:ud v:nameU="CornerLockVert" v:prompt="" v:val="VT0(1):5"/>
				<v:ud v:nameU="CornerLockDiag" v:prompt="" v:val="VT0(0):5"/>
				<v:ud v:nameU="TopLeftOffset" v:prompt="" v:val="VT0(0.15748031496063):24"/>
				<v:ud v:nameU="TopRightOffset" v:prompt="" v:val="VT0(0.15748031496063):24"/>
				<v:ud v:nameU="BotLeftOffset" v:prompt="" v:val="VT0(0.15748031496063):24"/>
				<v:ud v:nameU="BotRightOffset" v:prompt="" v:val="VT0(0.15748031496063):24"/>
				<v:ud v:nameU="visVersion" v:prompt="" v:val="VT0(15):26"/>
			</v:userDefs>
			<v:textBlock v:margins="rect(2,2,2,2)" v:tabSpace="42.5197"/>
			<v:textRect cx="47.9196" cy="224.52" width="95.84" height="22.6772"/>
			<path d="M11.34 235.86 L84.5 235.86 A11.3384 11.3384 -180 0 0 95.84 224.52 A11.3384 11.3384 -180 0 0 84.5 213.18 L11.34
						 213.18 A11.3384 11.3384 -180 0 0 0 224.52 A11.3384 11.3384 -180 0 0 11.34 235.86 Z" class="st1"/>
			<text x="16.95" y="226.92" class="st2" v:langID="1033"><v:paragraph v:horizAlign="1"/><v:tabList/>Flujo permanente</text>		</g>
		<g id="shape304-8" v:mID="304" v:groupContext="shape" transform="translate(124.554,-18.9253)">
			<title>Rounded Rectangle.304</title>
			<desc>Flujo No permanente</desc>
			<v:userDefs>
				<v:ud v:nameU="CTypeTopLeftSnip" v:prompt="" v:val="VT0(0):5"/>
				<v:ud v:nameU="CTypeTopRightSnip" v:prompt="" v:val="VT0(0):5"/>
				<v:ud v:nameU="CTypeBotLeftSnip" v:prompt="" v:val="VT0(0):5"/>
				<v:ud v:nameU="CTypeBotRightSnip" v:prompt="" v:val="VT0(0):5"/>
				<v:ud v:nameU="CornerLockHoriz" v:prompt="" v:val="VT0(1):5"/>
				<v:ud v:nameU="CornerLockVert" v:prompt="" v:val="VT0(1):5"/>
				<v:ud v:nameU="CornerLockDiag" v:prompt="" v:val="VT0(0):5"/>
				<v:ud v:nameU="TopLeftOffset" v:prompt="" v:val="VT0(0.15748031496063):24"/>
				<v:ud v:nameU="TopRightOffset" v:prompt="" v:val="VT0(0.15748031496063):24"/>
				<v:ud v:nameU="BotLeftOffset" v:prompt="" v:val="VT0(0.15748031496063):24"/>
				<v:ud v:nameU="BotRightOffset" v:prompt="" v:val="VT0(0.15748031496063):24"/>
				<v:ud v:nameU="visVersion" v:prompt="" v:val="VT0(15):26"/>
			</v:userDefs>
			<v:textBlock v:margins="rect(2,2,2,2)" v:tabSpace="42.5197"/>
			<v:textRect cx="47.9196" cy="224.52" width="95.84" height="22.6772"/>
			<path d="M11.34 235.86 L84.5 235.86 A11.3384 11.3384 -180 0 0 95.84 224.52 A11.3384 11.3384 -180 0 0 84.5 213.18 L11.34
						 213.18 A11.3384 11.3384 -180 0 0 0 224.52 A11.3384 11.3384 -180 0 0 11.34 235.86 Z" class="st1"/>
			<text x="10.51" y="226.92" class="st2" v:langID="1033"><v:paragraph v:horizAlign="1"/><v:tabList/>Flujo No permanente</text>		</g>
		<g id="shape305-11" v:mID="305" v:groupContext="shape" transform="translate(241.654,-172.587)">
			<title>Rounded Rectangle.305</title>
			<desc>Flujo variado</desc>
			<v:userDefs>
				<v:ud v:nameU="CTypeTopLeftSnip" v:prompt="" v:val="VT0(0):5"/>
				<v:ud v:nameU="CTypeTopRightSnip" v:prompt="" v:val="VT0(0):5"/>
				<v:ud v:nameU="CTypeBotLeftSnip" v:prompt="" v:val="VT0(0):5"/>
				<v:ud v:nameU="CTypeBotRightSnip" v:prompt="" v:val="VT0(0):5"/>
				<v:ud v:nameU="CornerLockHoriz" v:prompt="" v:val="VT0(1):5"/>
				<v:ud v:nameU="CornerLockVert" v:prompt="" v:val="VT0(1):5"/>
				<v:ud v:nameU="CornerLockDiag" v:prompt="" v:val="VT0(0):5"/>
				<v:ud v:nameU="TopLeftOffset" v:prompt="" v:val="VT0(0.15748031496063):24"/>
				<v:ud v:nameU="TopRightOffset" v:prompt="" v:val="VT0(0.15748031496063):24"/>
				<v:ud v:nameU="BotLeftOffset" v:prompt="" v:val="VT0(0.15748031496063):24"/>
				<v:ud v:nameU="BotRightOffset" v:prompt="" v:val="VT0(0.15748031496063):24"/>
				<v:ud v:nameU="visVersion" v:prompt="" v:val="VT0(15):26"/>
			</v:userDefs>
			<v:textBlock v:margins="rect(2,2,2,2)" v:tabSpace="42.5197"/>
			<v:textRect cx="47.9196" cy="224.52" width="95.84" height="22.6772"/>
			<path d="M11.34 235.86 L84.5 235.86 A11.3384 11.3384 -180 0 0 95.84 224.52 A11.3384 11.3384 -180 0 0 84.5 213.18 L11.34
						 213.18 A11.3384 11.3384 -180 0 0 0 224.52 A11.3384 11.3384 -180 0 0 11.34 235.86 Z" class="st1"/>
			<text x="25.28" y="226.92" class="st2" v:langID="1033"><v:paragraph v:horizAlign="1"/><v:tabList/>Flujo variado</text>		</g>
		<g id="shape306-14" v:mID="306" v:groupContext="shape" transform="translate(241.654,-92.6261)">
			<title>Rounded Rectangle.306</title>
			<desc>Flujo uniforme</desc>
			<v:userDefs>
				<v:ud v:nameU="CTypeTopLeftSnip" v:prompt="" v:val="VT0(0):5"/>
				<v:ud v:nameU="CTypeTopRightSnip" v:prompt="" v:val="VT0(0):5"/>
				<v:ud v:nameU="CTypeBotLeftSnip" v:prompt="" v:val="VT0(0):5"/>
				<v:ud v:nameU="CTypeBotRightSnip" v:prompt="" v:val="VT0(0):5"/>
				<v:ud v:nameU="CornerLockHoriz" v:prompt="" v:val="VT0(1):5"/>
				<v:ud v:nameU="CornerLockVert" v:prompt="" v:val="VT0(1):5"/>
				<v:ud v:nameU="CornerLockDiag" v:prompt="" v:val="VT0(0):5"/>
				<v:ud v:nameU="TopLeftOffset" v:prompt="" v:val="VT0(0.15748031496063):24"/>
				<v:ud v:nameU="TopRightOffset" v:prompt="" v:val="VT0(0.15748031496063):24"/>
				<v:ud v:nameU="BotLeftOffset" v:prompt="" v:val="VT0(0.15748031496063):24"/>
				<v:ud v:nameU="BotRightOffset" v:prompt="" v:val="VT0(0.15748031496063):24"/>
				<v:ud v:nameU="visVersion" v:prompt="" v:val="VT0(15):26"/>
			</v:userDefs>
			<v:textBlock v:margins="rect(2,2,2,2)" v:tabSpace="42.5197"/>
			<v:textRect cx="47.9196" cy="224.52" width="95.84" height="22.6772"/>
			<path d="M11.34 235.86 L84.5 235.86 A11.3384 11.3384 -180 0 0 95.84 224.52 A11.3384 11.3384 -180 0 0 84.5 213.18 L11.34
						 213.18 A11.3384 11.3384 -180 0 0 0 224.52 A11.3384 11.3384 -180 0 0 11.34 235.86 Z" class="st1"/>
			<text x="22.31" y="226.92" class="st2" v:langID="1033"><v:paragraph v:horizAlign="1"/><v:tabList/>Flujo uniforme</text>		</g>
		<g id="shape307-17" v:mID="307" v:groupContext="shape" transform="translate(244.059,-53.6568)">
			<title>Rounded Rectangle.307</title>
			<desc>Flujo variado</desc>
			<v:userDefs>
				<v:ud v:nameU="CTypeTopLeftSnip" v:prompt="" v:val="VT0(0):5"/>
				<v:ud v:nameU="CTypeTopRightSnip" v:prompt="" v:val="VT0(0):5"/>
				<v:ud v:nameU="CTypeBotLeftSnip" v:prompt="" v:val="VT0(0):5"/>
				<v:ud v:nameU="CTypeBotRightSnip" v:prompt="" v:val="VT0(0):5"/>
				<v:ud v:nameU="CornerLockHoriz" v:prompt="" v:val="VT0(1):5"/>
				<v:ud v:nameU="CornerLockVert" v:prompt="" v:val="VT0(1):5"/>
				<v:ud v:nameU="CornerLockDiag" v:prompt="" v:val="VT0(0):5"/>
				<v:ud v:nameU="TopLeftOffset" v:prompt="" v:val="VT0(0.15748031496063):24"/>
				<v:ud v:nameU="TopRightOffset" v:prompt="" v:val="VT0(0.15748031496063):24"/>
				<v:ud v:nameU="BotLeftOffset" v:prompt="" v:val="VT0(0.15748031496063):24"/>
				<v:ud v:nameU="BotRightOffset" v:prompt="" v:val="VT0(0.15748031496063):24"/>
				<v:ud v:nameU="visVersion" v:prompt="" v:val="VT0(15):26"/>
			</v:userDefs>
			<v:textBlock v:margins="rect(2,2,2,2)" v:tabSpace="42.5197"/>
			<v:textRect cx="47.9196" cy="224.52" width="95.84" height="22.6772"/>
			<path d="M11.34 235.86 L84.5 235.86 A11.3384 11.3384 -180 0 0 95.84 224.52 A11.3384 11.3384 -180 0 0 84.5 213.18 L11.34
						 213.18 A11.3384 11.3384 -180 0 0 0 224.52 A11.3384 11.3384 -180 0 0 11.34 235.86 Z" class="st1"/>
			<text x="25.28" y="226.92" class="st2" v:langID="1033"><v:paragraph v:horizAlign="1"/><v:tabList/>Flujo variado</text>		</g>
		<g id="shape309-20" v:mID="309" v:groupContext="shape" transform="translate(368.449,-211.681)">
			<title>Rounded Rectangle.309</title>
			<desc>Flujo gradualmente variado (FGV)</desc>
			<v:userDefs>
				<v:ud v:nameU="CTypeTopLeftSnip" v:prompt="" v:val="VT0(0):5"/>
				<v:ud v:nameU="CTypeTopRightSnip" v:prompt="" v:val="VT0(0):5"/>
				<v:ud v:nameU="CTypeBotLeftSnip" v:prompt="" v:val="VT0(0):5"/>
				<v:ud v:nameU="CTypeBotRightSnip" v:prompt="" v:val="VT0(0):5"/>
				<v:ud v:nameU="CornerLockHoriz" v:prompt="" v:val="VT0(1):5"/>
				<v:ud v:nameU="CornerLockVert" v:prompt="" v:val="VT0(1):5"/>
				<v:ud v:nameU="CornerLockDiag" v:prompt="" v:val="VT0(0):5"/>
				<v:ud v:nameU="TopLeftOffset" v:prompt="" v:val="VT0(0.15748031496063):24"/>
				<v:ud v:nameU="TopRightOffset" v:prompt="" v:val="VT0(0.15748031496063):24"/>
				<v:ud v:nameU="BotLeftOffset" v:prompt="" v:val="VT0(0.15748031496063):24"/>
				<v:ud v:nameU="BotRightOffset" v:prompt="" v:val="VT0(0.15748031496063):24"/>
				<v:ud v:nameU="visVersion" v:prompt="" v:val="VT0(15):26"/>
			</v:userDefs>
			<v:textBlock v:margins="rect(2,2,2,2)" v:tabSpace="42.5197"/>
			<v:textRect cx="62.0353" cy="224.52" width="124.08" height="22.6772"/>
			<path d="M11.34 235.86 L112.73 235.86 A11.3384 11.3384 -180 0 0 124.07 224.52 A11.3384 11.3384 -180 0 0 112.73 213.18
						 L11.34 213.18 A11.3384 11.3384 -180 0 0 0 224.52 A11.3384 11.3384 -180 0 0 11.34 235.86 Z" class="st1"/>
			<text x="2.96" y="226.92" class="st2" v:langID="1033"><v:paragraph v:horizAlign="1"/><v:tabList/>Flujo gradualmente variado (FGV)</text>		</g>
		<g id="shape310-23" v:mID="310" v:groupContext="shape" transform="translate(368.449,-172.712)">
			<title>Rounded Rectangle.310</title>
			<desc>Flujo rápidamente variado (FRV)</desc>
			<v:userDefs>
				<v:ud v:nameU="CTypeTopLeftSnip" v:prompt="" v:val="VT0(0):5"/>
				<v:ud v:nameU="CTypeTopRightSnip" v:prompt="" v:val="VT0(0):5"/>
				<v:ud v:nameU="CTypeBotLeftSnip" v:prompt="" v:val="VT0(0):5"/>
				<v:ud v:nameU="CTypeBotRightSnip" v:prompt="" v:val="VT0(0):5"/>
				<v:ud v:nameU="CornerLockHoriz" v:prompt="" v:val="VT0(1):5"/>
				<v:ud v:nameU="CornerLockVert" v:prompt="" v:val="VT0(1):5"/>
				<v:ud v:nameU="CornerLockDiag" v:prompt="" v:val="VT0(0):5"/>
				<v:ud v:nameU="TopLeftOffset" v:prompt="" v:val="VT0(0.15748031496063):24"/>
				<v:ud v:nameU="TopRightOffset" v:prompt="" v:val="VT0(0.15748031496063):24"/>
				<v:ud v:nameU="BotLeftOffset" v:prompt="" v:val="VT0(0.15748031496063):24"/>
				<v:ud v:nameU="BotRightOffset" v:prompt="" v:val="VT0(0.15748031496063):24"/>
				<v:ud v:nameU="visVersion" v:prompt="" v:val="VT0(15):26"/>
			</v:userDefs>
			<v:textBlock v:margins="rect(2,2,2,2)" v:tabSpace="42.5197"/>
			<v:textRect cx="62.0353" cy="224.52" width="124.08" height="22.6772"/>
			<path d="M11.34 235.86 L112.73 235.86 A11.3384 11.3384 -180 0 0 124.07 224.52 A11.3384 11.3384 -180 0 0 112.73 213.18
						 L11.34 213.18 A11.3384 11.3384 -180 0 0 0 224.52 A11.3384 11.3384 -180 0 0 11.34 235.86 Z" class="st1"/>
			<text x="5.58" y="226.92" class="st2" v:langID="1033"><v:paragraph v:horizAlign="1"/><v:tabList/>Flujo rápidamente variado (FRV)</text>		</g>
		<g id="shape311-26" v:mID="311" v:groupContext="shape" transform="translate(368.449,-133.743)">
			<title>Rounded Rectangle.311</title>
			<desc>Flujo espacialmente variado (FEV)</desc>
			<v:userDefs>
				<v:ud v:nameU="CTypeTopLeftSnip" v:prompt="" v:val="VT0(0):5"/>
				<v:ud v:nameU="CTypeTopRightSnip" v:prompt="" v:val="VT0(0):5"/>
				<v:ud v:nameU="CTypeBotLeftSnip" v:prompt="" v:val="VT0(0):5"/>
				<v:ud v:nameU="CTypeBotRightSnip" v:prompt="" v:val="VT0(0):5"/>
				<v:ud v:nameU="CornerLockHoriz" v:prompt="" v:val="VT0(1):5"/>
				<v:ud v:nameU="CornerLockVert" v:prompt="" v:val="VT0(1):5"/>
				<v:ud v:nameU="CornerLockDiag" v:prompt="" v:val="VT0(0):5"/>
				<v:ud v:nameU="TopLeftOffset" v:prompt="" v:val="VT0(0.15748031496063):24"/>
				<v:ud v:nameU="TopRightOffset" v:prompt="" v:val="VT0(0.15748031496063):24"/>
				<v:ud v:nameU="BotLeftOffset" v:prompt="" v:val="VT0(0.15748031496063):24"/>
				<v:ud v:nameU="BotRightOffset" v:prompt="" v:val="VT0(0.15748031496063):24"/>
				<v:ud v:nameU="visVersion" v:prompt="" v:val="VT0(15):26"/>
			</v:userDefs>
			<v:textBlock v:margins="rect(2,2,2,2)" v:tabSpace="42.5197"/>
			<v:textRect cx="62.0353" cy="224.52" width="124.08" height="22.6772"/>
			<path d="M11.34 235.86 L112.73 235.86 A11.3384 11.3384 -180 0 0 124.07 224.52 A11.3384 11.3384 -180 0 0 112.73 213.18
						 L11.34 213.18 A11.3384 11.3384 -180 0 0 0 224.52 A11.3384 11.3384 -180 0 0 11.34 235.86 Z" class="st1"/>
			<text x="3.09" y="226.92" class="st2" v:langID="1033"><v:paragraph v:horizAlign="1"/><v:tabList/>Flujo espacialmente variado (FEV)</text>		</g>
		<g id="shape312-29" v:mID="312" v:groupContext="shape" transform="translate(368.449,-92.6261)">
			<title>Rounded Rectangle.312</title>
			<desc>Flujo gradualmente variado no permanente</desc>
			<v:userDefs>
				<v:ud v:nameU="CTypeTopLeftSnip" v:prompt="" v:val="VT0(0):5"/>
				<v:ud v:nameU="CTypeTopRightSnip" v:prompt="" v:val="VT0(0):5"/>
				<v:ud v:nameU="CTypeBotLeftSnip" v:prompt="" v:val="VT0(0):5"/>
				<v:ud v:nameU="CTypeBotRightSnip" v:prompt="" v:val="VT0(0):5"/>
				<v:ud v:nameU="CornerLockHoriz" v:prompt="" v:val="VT0(1):5"/>
				<v:ud v:nameU="CornerLockVert" v:prompt="" v:val="VT0(1):5"/>
				<v:ud v:nameU="CornerLockDiag" v:prompt="" v:val="VT0(0):5"/>
				<v:ud v:nameU="TopLeftOffset" v:prompt="" v:val="VT0(0.15748031496063):24"/>
				<v:ud v:nameU="TopRightOffset" v:prompt="" v:val="VT0(0.15748031496063):24"/>
				<v:ud v:nameU="BotLeftOffset" v:prompt="" v:val="VT0(0.15748031496063):24"/>
				<v:ud v:nameU="BotRightOffset" v:prompt="" v:val="VT0(0.15748031496063):24"/>
				<v:ud v:nameU="visVersion" v:prompt="" v:val="VT0(15):26"/>
			</v:userDefs>
			<v:textBlock v:margins="rect(2,2,2,2)" v:tabSpace="42.5197"/>
			<v:textRect cx="62.0353" cy="224.52" width="124.08" height="22.6772"/>
			<path d="M11.34 235.86 L112.73 235.86 A11.3384 11.3384 -180 0 0 124.07 224.52 A11.3384 11.3384 -180 0 0 112.73 213.18
						 L11.34 213.18 A11.3384 11.3384 -180 0 0 0 224.52 A11.3384 11.3384 -180 0 0 11.34 235.86 Z" class="st1"/>
			<text x="7.95" y="222.12" class="st2" v:langID="1033"><v:paragraph v:horizAlign="1"/><v:tabList/>Flujo gradualmente variado no <tspan
						x="40.65" dy="1.2em" class="st3">permanente</tspan></text>		</g>
		<g id="shape313-33" v:mID="313" v:groupContext="shape" transform="translate(368.449,-53.6568)">
			<title>Rounded Rectangle.313</title>
			<desc>Flujo rápidamente variado no permanente</desc>
			<v:userDefs>
				<v:ud v:nameU="CTypeTopLeftSnip" v:prompt="" v:val="VT0(0):5"/>
				<v:ud v:nameU="CTypeTopRightSnip" v:prompt="" v:val="VT0(0):5"/>
				<v:ud v:nameU="CTypeBotLeftSnip" v:prompt="" v:val="VT0(0):5"/>
				<v:ud v:nameU="CTypeBotRightSnip" v:prompt="" v:val="VT0(0):5"/>
				<v:ud v:nameU="CornerLockHoriz" v:prompt="" v:val="VT0(1):5"/>
				<v:ud v:nameU="CornerLockVert" v:prompt="" v:val="VT0(1):5"/>
				<v:ud v:nameU="CornerLockDiag" v:prompt="" v:val="VT0(0):5"/>
				<v:ud v:nameU="TopLeftOffset" v:prompt="" v:val="VT0(0.15748031496063):24"/>
				<v:ud v:nameU="TopRightOffset" v:prompt="" v:val="VT0(0.15748031496063):24"/>
				<v:ud v:nameU="BotLeftOffset" v:prompt="" v:val="VT0(0.15748031496063):24"/>
				<v:ud v:nameU="BotRightOffset" v:prompt="" v:val="VT0(0.15748031496063):24"/>
				<v:ud v:nameU="visVersion" v:prompt="" v:val="VT0(15):26"/>
			</v:userDefs>
			<v:textBlock v:margins="rect(2,2,2,2)" v:tabSpace="42.5197"/>
			<v:textRect cx="62.0353" cy="224.52" width="124.08" height="22.6772"/>
			<path d="M11.34 235.86 L112.73 235.86 A11.3384 11.3384 -180 0 0 124.07 224.52 A11.3384 11.3384 -180 0 0 112.73 213.18
						 L11.34 213.18 A11.3384 11.3384 -180 0 0 0 224.52 A11.3384 11.3384 -180 0 0 11.34 235.86 Z" class="st1"/>
			<text x="10.21" y="222.12" class="st2" v:langID="1033"><v:paragraph v:horizAlign="1"/><v:tabList/>Flujo rápidamente variado no <tspan
						x="40.65" dy="1.2em" class="st3">permanente</tspan></text>		</g>
		<g id="shape314-37" v:mID="314" v:groupContext="shape" transform="translate(368.449,-14.6875)">
			<title>Rounded Rectangle.314</title>
			<desc>Flujo espacialmente variado no permanente</desc>
			<v:userDefs>
				<v:ud v:nameU="CTypeTopLeftSnip" v:prompt="" v:val="VT0(0):5"/>
				<v:ud v:nameU="CTypeTopRightSnip" v:prompt="" v:val="VT0(0):5"/>
				<v:ud v:nameU="CTypeBotLeftSnip" v:prompt="" v:val="VT0(0):5"/>
				<v:ud v:nameU="CTypeBotRightSnip" v:prompt="" v:val="VT0(0):5"/>
				<v:ud v:nameU="CornerLockHoriz" v:prompt="" v:val="VT0(1):5"/>
				<v:ud v:nameU="CornerLockVert" v:prompt="" v:val="VT0(1):5"/>
				<v:ud v:nameU="CornerLockDiag" v:prompt="" v:val="VT0(0):5"/>
				<v:ud v:nameU="TopLeftOffset" v:prompt="" v:val="VT0(0.15748031496063):24"/>
				<v:ud v:nameU="TopRightOffset" v:prompt="" v:val="VT0(0.15748031496063):24"/>
				<v:ud v:nameU="BotLeftOffset" v:prompt="" v:val="VT0(0.15748031496063):24"/>
				<v:ud v:nameU="BotRightOffset" v:prompt="" v:val="VT0(0.15748031496063):24"/>
				<v:ud v:nameU="visVersion" v:prompt="" v:val="VT0(15):26"/>
			</v:userDefs>
			<v:textBlock v:margins="rect(2,2,2,2)" v:tabSpace="42.5197"/>
			<v:textRect cx="62.0353" cy="224.52" width="124.08" height="22.6772"/>
			<path d="M11.34 235.86 L112.73 235.86 A11.3384 11.3384 -180 0 0 124.07 224.52 A11.3384 11.3384 -180 0 0 112.73 213.18
						 L11.34 213.18 A11.3384 11.3384 -180 0 0 0 224.52 A11.3384 11.3384 -180 0 0 11.34 235.86 Z" class="st1"/>
			<text x="7.35" y="222.12" class="st2" v:langID="1033"><v:paragraph v:horizAlign="1"/><v:tabList/>Flujo espacialmente variado no <tspan
						x="40.65" dy="1.2em" class="st3">permanente</tspan></text>		</g>
		<g id="shape315-41" v:mID="315" v:groupContext="shape" v:layerMember="0" transform="translate(97.3392,-75.6182)">
			<title>Dynamic connector.315</title>
			<v:userDefs>
				<v:ud v:nameU="visVersion" v:val="VT0(15):26"/>
			</v:userDefs>
			<path d="M0 235.86 C10.63 235.86 10.63 222.57 10.63 209.28 C10.63 196.96 10.63 184.63 22.87 182.37 L23.22 182.34"
					class="st4"/>
		</g>
		<g id="shape316-47" v:mID="316" v:groupContext="shape" v:layerMember="0" transform="translate(97.3392,-75.6182)">
			<title>Dynamic connector.316</title>
			<v:userDefs>
				<v:ud v:nameU="visVersion" v:val="VT0(15):26"/>
			</v:userDefs>
			<path d="M0 235.86 C9.64 235.86 10.54 273.16 22.99 280.11 L23.34 280.2" class="st4"/>
		</g>
		<g id="shape317-52" v:mID="317" v:groupContext="shape" v:layerMember="0" transform="translate(220.394,-129.476)">
			<title>Dynamic connector.317</title>
			<v:userDefs>
				<v:ud v:nameU="visVersion" v:val="VT0(15):26"/>
			</v:userDefs>
			<path d="M0 235.86 C10.63 235.86 10.63 222.25 10.63 208.63 C10.63 197.16 10.63 185.68 17 182.36 L17.35 182.28"
					class="st4"/>
		</g>
		<g id="shape318-57" v:mID="318" v:groupContext="shape" v:layerMember="0" transform="translate(220.394,-129.476)">
			<title>Dynamic connector.318</title>
			<v:userDefs>
				<v:ud v:nameU="visVersion" v:val="VT0(15):26"/>
			</v:userDefs>
			<path d="M0 235.86 C9.05 235.86 10.4 254.37 17.17 259.86 L17.5 259.98" class="st4"/>
		</g>
		<g id="shape319-62" v:mID="319" v:groupContext="shape" v:layerMember="0" transform="translate(220.394,-30.2639)">
			<title>Dynamic connector.319</title>
			<v:userDefs>
				<v:ud v:nameU="visVersion" v:val="VT0(15):26"/>
			</v:userDefs>
			<path d="M0 235.86 C9.36 235.86 10.48 208.91 19.52 202.49 L19.86 202.38" class="st4"/>
		</g>
		<g id="shape320-67" v:mID="320" v:groupContext="shape" v:layerMember="0" transform="translate(220.394,-30.2639)">
			<title>Dynamic connector.320</title>
			<v:userDefs>
				<v:ud v:nameU="visVersion" v:val="VT0(15):26"/>
			</v:userDefs>
			<path d="M0 235.86 C9.33 235.86 10.47 255.52 19.43 260.32 L19.78 260.41" class="st4"/>
		</g>
		<g id="shape321-72" v:mID="321" v:groupContext="shape" v:layerMember="0" transform="translate(337.493,-183.925)">
			<title>Dynamic connector.321</title>
			<v:userDefs>
				<v:ud v:nameU="visVersion" v:val="VT0(15):26"/>
			</v:userDefs>
			<path d="M0 235.86 C9.82 235.86 10.57 202.51 26.64 197.41 L27 197.36" class="st4"/>
		</g>
		<g id="shape322-77" v:mID="322" v:groupContext="shape" v:layerMember="0" transform="translate(337.493,-176.901)">
			<title>Dynamic connector.322</title>
			<v:userDefs>
				<v:ud v:nameU="visVersion" v:val="VT0(15):26"/>
			</v:userDefs>
			<path d="M0 228.83 C5.31 228.83 7.09 228.83 8.47 228.83 C9.17 228.83 9.76 228.83 10.12 228.82 C10.63 228.81 10.63 228.76
						 11.07 228.74 C11.66 228.71 13.01 228.71 14.48 228.71 C16.94 228.71 19.73 228.71 26.59 228.71" class="st6"/>
		</g>
		<g id="shape323-83" v:mID="323" v:groupContext="shape" v:layerMember="0" transform="translate(337.493,-183.925)">
			<title>Dynamic connector.323</title>
			<v:userDefs>
				<v:ud v:nameU="visVersion" v:val="VT0(15):26"/>
			</v:userDefs>
			<path d="M0 235.86 C9.82 235.86 10.57 268.99 26.64 274.06 L27 274.11" class="st4"/>
		</g>
		<g id="shape324-88" v:mID="324" v:groupContext="shape" v:layerMember="0" transform="translate(339.898,-64.9954)">
			<title>Dynamic connector.324</title>
			<v:userDefs>
				<v:ud v:nameU="visVersion" v:val="VT0(15):26"/>
			</v:userDefs>
			<path d="M0 235.86 C9.71 235.86 10.55 203.37 24.27 197.72 L24.62 197.65" class="st4"/>
		</g>
		<g id="shape325-93" v:mID="325" v:groupContext="shape" v:layerMember="0" transform="translate(339.898,-57.9088)">
			<title>Dynamic connector.325</title>
			<v:userDefs>
				<v:ud v:nameU="visVersion" v:val="VT0(15):26"/>
			</v:userDefs>
			<path d="M0 228.77 C5.88 228.77 16.6 228.77 24.19 228.77" class="st6"/>
		</g>
		<g id="shape326-98" v:mID="326" v:groupContext="shape" v:layerMember="0" transform="translate(339.898,-64.9954)">
			<title>Dynamic connector.326</title>
			<v:userDefs>
				<v:ud v:nameU="visVersion" v:val="VT0(15):26"/>
			</v:userDefs>
			<path d="M0 235.86 C9.71 235.86 10.55 268.35 24.27 274 L24.62 274.06" class="st4"/>
		</g>
	</g>
</svg>
