<svg width="1345" height="908" xmlns="http://www.w3.org/2000/svg" xmlns:xlink="http://www.w3.org/1999/xlink" xml:space="preserve" overflow="hidden"><g transform="translate(-1790 -1467)"><rect x="1791" y="1468" width="244" height="906" stroke="#000000" stroke-width="2.29167" stroke-miterlimit="8" stroke-dasharray="18.3333 6.875" fill="#BFBFBF"/><path d="M1888.5 1667C1888.5 1653.47 1899.47 1642.5 1913 1642.5 1926.53 1642.5 1937.5 1653.47 1937.5 1667 1937.5 1680.53 1926.53 1691.5 1913 1691.5 1899.47 1691.5 1888.5 1680.53 1888.5 1667Z" stroke="#172C51" stroke-width="4.58333" stroke-miterlimit="8" fill="#FFFFFF" fill-rule="evenodd"/><path d="M1869.94 1471.5 1869.94 1640.88 1863.06 1640.88 1863.06 1471.5ZM1880.25 1636.29 1866.5 1663.79 1852.75 1636.29Z" fill="#FFFFFF"/><path d="M1827.94 1468.5 1827.94 2171.58 1821.06 2171.58 1821.06 1468.5ZM1838.25 2167 1824.5 2194.5 1810.75 2167Z" fill="#FFFFFF"/><text font-family="Segoe UI Light,Segoe UI Light_MSFontService,sans-serif" font-weight="300" font-size="73" transform="matrix(1 0 0 1 1887.22 1580)">0.2y</text><path d="M1888.5 2194C1888.5 2180.47 1899.47 2169.5 1913 2169.5 1926.53 2169.5 1937.5 2180.47 1937.5 2194 1937.5 2207.53 1926.53 2218.5 1913 2218.5 1899.47 2218.5 1888.5 2207.53 1888.5 2194Z" stroke="#172C51" stroke-width="4.58333" stroke-miterlimit="8" fill="#FFFFFF" fill-rule="evenodd"/><path d="M0 0 99 0.000360892" stroke="#FFFFFF" stroke-width="2.29167" stroke-linecap="square" stroke-miterlimit="8" stroke-dasharray="6.875 2.29167" fill="none" fill-rule="evenodd" transform="matrix(1 0 0 -1 1813 2194)"/><path d="M0.647658-0.945237 205.199 139.209 203.904 141.1-0.647658 0.945237ZM205.952 130.002 223.456 153.108 195.589 145.126Z" fill="#404040" transform="matrix(1 0 0 -1 1908 2191.11)"/><text font-family="Segoe UI Light,Segoe UI Light_MSFontService,sans-serif" font-weight="300" font-size="73" transform="matrix(1 0 0 1 1850.39 1867)">0.8y</text><path d="M1854 1666 1924.04 1666" stroke="#FFFFFF" stroke-width="2.29167" stroke-linecap="square" stroke-miterlimit="8" stroke-dasharray="6.875 2.29167" fill="none" fill-rule="evenodd"/><text font-family="Segoe UI Light,Segoe UI Light_MSFontService,sans-serif" font-weight="300" font-size="73" transform="matrix(1 0 0 1 2146.45 1783)">V</text><text font-family="Segoe UI Light,Segoe UI Light_MSFontService,sans-serif" font-weight="300" font-size="49" transform="matrix(1 0 0 1 2190.57 1800)">0.2</text><text font-family="Segoe UI Light,Segoe UI Light_MSFontService,sans-serif" font-weight="300" font-size="73" transform="matrix(1 0 0 1 2157.98 2019)">V</text><text font-family="Segoe UI Light,Segoe UI Light_MSFontService,sans-serif" font-weight="300" font-size="49" transform="matrix(1 0 0 1 2202.09 2036)">0.8</text><path d="M1908.3 1666.89 2097.87 1717.57 2097.28 1719.79 1907.7 1669.11ZM2095.51 1708.64 2119.71 1724.6 2090.78 1726.35Z" fill="#404040"/><path d="M2377 1843.91 2395.33 1843.91 2395.33 1846.11C2393.95 1846.44 2392.98 1846.75 2392.41 1847.05 2391.84 1847.35 2391.41 1847.74 2391.13 1848.22 2390.84 1848.7 2390.7 1849.34 2390.7 1850.15 2390.7 1850.96 2390.8 1851.8 2390.99 1852.69 2391.19 1853.57 2391.49 1854.6 2391.91 1855.76L2399.73 1878.5 2408.89 1856.71C2409.49 1855.27 2409.91 1854.09 2410.15 1853.16 2410.39 1852.23 2410.51 1851.36 2410.51 1850.55 2410.51 1849.3 2410.17 1848.34 2409.5 1847.68 2408.83 1847.02 2407.59 1846.5 2405.79 1846.11L2405.79 1843.91 2422.6 1843.91 2422.6 1846.11C2421.43 1846.35 2420.53 1846.71 2419.9 1847.21 2419.27 1847.7 2418.64 1848.48 2418.01 1849.54 2417.38 1850.61 2416.64 1852.1 2415.77 1854.01L2400.63 1887.3 2395.33 1887.3 2383.15 1853.74C2382.32 1851.44 2381.65 1849.86 2381.16 1849 2380.66 1848.15 2380.12 1847.51 2379.54 1847.09 2378.95 1846.68 2378.11 1846.35 2377 1846.11Z" fill-rule="evenodd"/><text fill="#000000" fill-opacity="0" font-family="Arial,Arial_MSFontService,sans-serif" font-size="43.3945" x="2377" y="1881.88">v</text><path d="M2379.63 1828.32 2419.21 1828.32 2419.21 1833.08 2379.63 1833.08Z" fill-rule="evenodd"/><text fill="#000000" fill-opacity="0" font-family="Arial,Arial_MSFontService,sans-serif" font-size="4.76172" x="2379.63" y="1832.48">ത</text><path d="M2432.89 1873.98 2434.89 1873.98 2434.89 1897.37C2434.89 1899.25 2434.97 1900.55 2435.15 1901.28 2435.32 1902.01 2435.66 1902.57 2436.15 1902.95 2436.64 1903.33 2437.44 1903.66 2438.55 1903.95L2438.55 1905.55 2425.73 1905.55 2425.73 1903.95C2426.58 1903.69 2427.18 1903.46 2427.54 1903.26 2427.9 1903.06 2428.21 1902.79 2428.46 1902.44 2428.71 1902.09 2428.9 1901.56 2429.05 1900.84 2429.19 1900.12 2429.26 1899 2429.26 1897.47L2429.26 1883.21C2429.26 1881.81 2429.24 1880.69 2429.19 1879.84 2429.15 1878.99 2429 1878.3 2428.74 1877.79 2428.47 1877.28 2428.08 1876.9 2427.54 1876.65 2427.01 1876.4 2426.25 1876.18 2425.27 1876.01L2425.27 1874.28ZM2429.06 1861.45 2435.08 1861.45 2435.08 1867.8 2429.06 1867.8Z" fill-rule="evenodd"/><text fill="#000000" fill-opacity="0" font-family="Arial,Arial_MSFontService,sans-serif" font-size="44.0996" x="2425.27" y="1900.04">i</text><path d="M2476.84 1866.91 2532.19 1866.91 2532.19 1872.88 2476.84 1872.88ZM2476.84 1848.26 2532.19 1848.26 2532.19 1854.24 2476.84 1854.24Z" fill-rule="evenodd"/><text fill="#000000" fill-opacity="0" font-family="Arial,Arial_MSFontService,sans-serif" font-size="24.6172" x="2476.84" y="1869.8">=</text><path d="M2593.38 1755.45 2595.85 1755.45C2595.67 1758.32 2595.58 1762.3 2595.58 1767.39L2595.58 1805.76C2595.58 1807.49 2595.68 1808.8 2595.87 1809.69 2596.07 1810.57 2596.41 1811.29 2596.91 1811.84 2597.4 1812.4 2598.11 1812.83 2599.04 1813.15 2599.97 1813.46 2601.14 1813.7 2602.54 1813.87 2603.95 1814.03 2605.81 1814.14 2608.11 1814.2L2608.11 1817.48 2574.92 1817.48 2574.92 1814.2C2578.24 1814.05 2580.62 1813.85 2582.04 1813.6 2583.46 1813.34 2584.55 1812.96 2585.29 1812.45 2586.04 1811.94 2586.59 1811.22 2586.93 1810.29 2587.28 1809.37 2587.45 1807.85 2587.45 1805.76L2587.45 1769.33C2587.45 1768.13 2587.24 1767.25 2586.82 1766.7 2586.4 1766.14 2585.79 1765.87 2584.98 1765.87 2584.02 1765.87 2582.66 1766.36 2580.89 1767.35 2579.13 1768.34 2576.94 1769.7 2574.33 1771.44L2572.36 1767.98Z" fill-rule="evenodd"/><text fill="#000000" fill-opacity="0" font-family="Arial,Arial_MSFontService,sans-serif" font-size="62.0371" x="2572.36" y="1809.73">1</text><path d="M2590.19 1886.14C2595.76 1886.14 2599.97 1887.36 2602.81 1889.8 2605.66 1892.24 2607.08 1895.78 2607.08 1900.42 2607.08 1902.01 2606.92 1903.47 2606.61 1904.8 2606.3 1906.14 2605.8 1907.45 2605.13 1908.76 2604.45 1910.06 2603.55 1911.46 2602.41 1912.96 2601.27 1914.45 2600.01 1915.97 2598.64 1917.52 2597.26 1919.06 2594.88 1921.63 2591.49 1925.22 2585.8 1931.24 2581.63 1936.5 2578.96 1940.99L2595.9 1940.99C2597.36 1940.99 2598.55 1940.9 2599.45 1940.72 2600.34 1940.54 2601.06 1940.24 2601.6 1939.82 2602.14 1939.4 2602.57 1938.85 2602.88 1938.18 2603.2 1937.51 2603.59 1936.47 2604.07 1935.06L2607.89 1935.06 2607.13 1948.18 2570.16 1948.18 2570.16 1946.02C2571.44 1942.88 2573.18 1939.66 2575.37 1936.36 2577.55 1933.07 2580.65 1929.19 2584.67 1924.73 2588.14 1920.89 2590.64 1917.99 2592.17 1916.01 2593.84 1913.86 2595.1 1911.99 2595.92 1910.42 2596.74 1908.85 2597.33 1907.36 2597.69 1905.97 2598.05 1904.58 2598.23 1903.18 2598.23 1901.77 2598.23 1899.53 2597.87 1897.54 2597.15 1895.82 2596.44 1894.1 2595.33 1892.74 2593.85 1891.75 2592.37 1890.77 2590.51 1890.27 2588.26 1890.27 2582.66 1890.27 2578.89 1893.39 2576.94 1899.62L2571.5 1899.62 2571.5 1890.99C2575.13 1889.28 2578.52 1888.05 2581.68 1887.28 2584.84 1886.52 2587.68 1886.14 2590.19 1886.14Z" fill-rule="evenodd"/><text fill="#000000" fill-opacity="0" font-family="Arial,Arial_MSFontService,sans-serif" font-size="62.0371" x="2570.16" y="1940.42">2</text><path d="M2564.15 1857.86 2615.15 1857.86 2615.15 1863.86 2564.15 1863.86Z" fill-rule="evenodd"/><path d="M3057.97 1817.97C3066.72 1820.28 3073.43 1825.26 3078.12 1832.91 3082.81 1840.56 3085.15 1849.79 3085.15 1860.61 3085.15 1871.45 3082.81 1880.68 3078.14 1888.3 3073.47 1895.92 3066.75 1900.89 3057.97 1903.19L3056.89 1899.73C3063.81 1897.43 3068.96 1892.87 3072.33 1886.08 3075.69 1879.28 3077.38 1870.64 3077.38 1860.16 3077.38 1850.03 3075.7 1841.63 3072.35 1834.93 3068.99 1828.24 3063.8 1823.74 3056.76 1821.43ZM2665.9 1817.97 2667.11 1821.43C2660.1 1823.74 2654.92 1828.24 2651.55 1834.93 2648.18 1841.63 2646.49 1850.03 2646.49 1860.16 2646.49 1870.64 2648.18 1879.28 2651.55 1886.08 2654.92 1892.87 2660.06 1897.43 2666.98 1899.73L2665.9 1903.19C2657.12 1900.89 2650.4 1895.92 2645.73 1888.3 2641.06 1880.68 2638.72 1871.45 2638.72 1860.61 2638.72 1849.79 2641.07 1840.56 2645.75 1832.91 2650.44 1825.26 2657.15 1820.28 2665.9 1817.97Z" fill-rule="evenodd"/><path d="M2669.53 1843.91 2687.86 1843.91 2687.86 1846.11C2686.48 1846.44 2685.51 1846.75 2684.94 1847.05 2684.37 1847.35 2683.94 1847.74 2683.66 1848.22 2683.37 1848.7 2683.23 1849.34 2683.23 1850.15 2683.23 1850.96 2683.33 1851.8 2683.52 1852.69 2683.72 1853.57 2684.03 1854.6 2684.45 1855.76L2692.26 1878.5 2701.43 1856.71C2702.02 1855.27 2702.44 1854.09 2702.68 1853.16 2702.92 1852.23 2703.04 1851.36 2703.04 1850.55 2703.04 1849.3 2702.71 1848.34 2702.03 1847.68 2701.36 1847.02 2700.12 1846.5 2698.33 1846.11L2698.33 1843.91 2715.13 1843.91 2715.13 1846.11C2713.96 1846.35 2713.06 1846.71 2712.43 1847.21 2711.8 1847.7 2711.17 1848.48 2710.54 1849.54 2709.92 1850.61 2709.17 1852.1 2708.3 1854.01L2693.16 1887.3 2687.86 1887.3 2675.69 1853.74C2674.85 1851.44 2674.18 1849.86 2673.69 1849 2673.19 1848.15 2672.65 1847.51 2672.07 1847.09 2671.49 1846.68 2670.64 1846.35 2669.53 1846.11Z" fill-rule="evenodd"/><text fill="#000000" fill-opacity="0" font-family="Arial,Arial_MSFontService,sans-serif" font-size="43.3945" x="2669.53" y="1881.88">v</text><path d="M2733.63 1863.15C2732.13 1863.15 2730.87 1863.6 2729.85 1864.49 2728.84 1865.39 2728.02 1866.67 2727.4 1868.35 2726.78 1870.03 2726.34 1872.08 2726.08 1874.49 2725.81 1876.9 2725.68 1879.62 2725.68 1882.65 2725.68 1889.76 2726.34 1894.98 2727.66 1898.3 2728.98 1901.63 2731.03 1903.29 2733.8 1903.29 2736.44 1903.29 2738.39 1901.73 2739.67 1898.6 2740.95 1895.47 2741.58 1890.62 2741.58 1884.06 2741.58 1879.04 2741.26 1874.98 2740.6 1871.87 2739.95 1868.76 2739.04 1866.53 2737.87 1865.18 2736.7 1863.83 2735.29 1863.15 2733.63 1863.15ZM2733.8 1860.37C2738.57 1860.37 2742.13 1862.21 2744.46 1865.9 2746.8 1869.59 2747.96 1875.16 2747.96 1882.62 2747.96 1890.34 2746.71 1896.18 2744.22 1900.14 2741.72 1904.1 2738.07 1906.07 2733.27 1906.07 2728.56 1906.07 2725.06 1904.22 2722.76 1900.51 2720.45 1896.81 2719.3 1891.18 2719.3 1883.63 2719.3 1879.62 2719.66 1876.15 2720.37 1873.23 2721.08 1870.31 2722.07 1867.89 2723.34 1865.98 2724.62 1864.07 2726.15 1862.66 2727.94 1861.75 2729.73 1860.83 2731.68 1860.37 2733.8 1860.37Z" fill-rule="evenodd"/><text fill="#000000" fill-opacity="0" font-family="Arial,Arial_MSFontService,sans-serif" font-size="45.7026" x="2719.3" y="1900.36">0</text><path d="M2755.89 1897.96 2762.5 1897.96 2762.5 1905.55 2755.89 1905.55Z" fill-rule="evenodd"/><text fill="#000000" fill-opacity="0" font-family="Arial,Arial_MSFontService,sans-serif" font-size="7.58984" x="2755.89" y="1904.6">.</text><path d="M2784.88 1860.37C2788.94 1860.37 2792.01 1861.26 2794.08 1863.04 2796.15 1864.82 2797.19 1867.39 2797.19 1870.78 2797.19 1871.93 2797.07 1872.99 2796.84 1873.96 2796.61 1874.94 2796.25 1875.89 2795.76 1876.84 2795.27 1877.79 2794.61 1878.81 2793.78 1879.9 2792.95 1880.99 2792.04 1882.1 2791.03 1883.22 2790.03 1884.35 2788.3 1886.22 2785.83 1888.83 2781.69 1893.22 2778.65 1897.05 2776.71 1900.32L2789.04 1900.32C2790.11 1900.32 2790.97 1900.25 2791.62 1900.12 2792.28 1899.99 2792.8 1899.77 2793.19 1899.47 2793.59 1899.16 2793.9 1898.76 2794.13 1898.27 2794.36 1897.78 2794.64 1897.02 2794.99 1896L2797.77 1896 2797.22 1905.55 2770.29 1905.55 2770.29 1903.98C2771.23 1901.69 2772.5 1899.35 2774.09 1896.95 2775.68 1894.55 2777.94 1891.72 2780.86 1888.47 2783.39 1885.68 2785.21 1883.57 2786.32 1882.13 2787.55 1880.56 2788.46 1879.2 2789.06 1878.05 2789.66 1876.91 2790.09 1875.83 2790.35 1874.82 2790.61 1873.8 2790.74 1872.78 2790.74 1871.76 2790.74 1870.12 2790.48 1868.68 2789.96 1867.42 2789.43 1866.17 2788.63 1865.18 2787.55 1864.46 2786.47 1863.74 2785.11 1863.38 2783.48 1863.38 2779.4 1863.38 2776.65 1865.65 2775.23 1870.19L2771.28 1870.19 2771.28 1863.9C2773.91 1862.66 2776.38 1861.76 2778.69 1861.21 2780.99 1860.65 2783.05 1860.37 2784.88 1860.37Z" fill-rule="evenodd"/><text fill="#000000" fill-opacity="0" font-family="Arial,Arial_MSFontService,sans-serif" font-size="45.1792" x="2770.29" y="1899.9">2</text><path d="M2858.67 1831.69 2865.04 1831.69 2865.04 1857.56 2889.53 1857.56 2889.53 1863.54 2865.04 1863.54 2865.04 1889.41 2858.67 1889.41 2858.67 1863.54 2834.18 1863.54 2834.18 1857.56 2858.67 1857.56Z" fill-rule="evenodd"/><text fill="#000000" fill-opacity="0" font-family="Arial,Arial_MSFontService,sans-serif" font-size="57.7246" x="2834.18" y="1882.2">+</text><path d="M2917.47 1843.91 2935.79 1843.91 2935.79 1846.11C2934.42 1846.44 2933.44 1846.75 2932.87 1847.05 2932.31 1847.35 2931.88 1847.74 2931.59 1848.22 2931.31 1848.7 2931.17 1849.34 2931.17 1850.15 2931.17 1850.96 2931.27 1851.8 2931.46 1852.69 2931.65 1853.57 2931.96 1854.6 2932.38 1855.76L2940.2 1878.5 2949.36 1856.71C2949.96 1855.27 2950.38 1854.09 2950.62 1853.16 2950.86 1852.23 2950.98 1851.36 2950.98 1850.55 2950.98 1849.3 2950.64 1848.34 2949.97 1847.68 2949.29 1847.02 2948.06 1846.5 2946.26 1846.11L2946.26 1843.91 2963.06 1843.91 2963.06 1846.11C2961.89 1846.35 2961 1846.71 2960.37 1847.21 2959.74 1847.7 2959.11 1848.48 2958.48 1849.54 2957.85 1850.61 2957.1 1852.1 2956.23 1854.01L2941.1 1887.3 2935.79 1887.3 2923.62 1853.74C2922.78 1851.44 2922.12 1849.86 2921.62 1849 2921.13 1848.15 2920.59 1847.51 2920 1847.09 2919.42 1846.68 2918.57 1846.35 2917.47 1846.11Z" fill-rule="evenodd"/><text fill="#000000" fill-opacity="0" font-family="Arial,Arial_MSFontService,sans-serif" font-size="43.3945" x="2917.47" y="1881.88">v</text><path d="M2981.57 1863.15C2980.06 1863.15 2978.8 1863.6 2977.79 1864.49 2976.78 1865.39 2975.96 1866.67 2975.34 1868.35 2974.71 1870.03 2974.27 1872.08 2974.01 1874.49 2973.75 1876.9 2973.62 1879.62 2973.62 1882.65 2973.62 1889.76 2974.28 1894.98 2975.6 1898.3 2976.92 1901.63 2978.96 1903.29 2981.73 1903.29 2984.37 1903.29 2986.33 1901.73 2987.6 1898.6 2988.88 1895.47 2989.52 1890.62 2989.52 1884.06 2989.52 1879.04 2989.19 1874.98 2988.54 1871.87 2987.88 1868.76 2986.97 1866.53 2985.81 1865.18 2984.64 1863.83 2983.23 1863.15 2981.57 1863.15ZM2981.73 1860.37C2986.51 1860.37 2990.06 1862.21 2992.4 1865.9 2994.73 1869.59 2995.9 1875.16 2995.9 1882.62 2995.9 1890.34 2994.65 1896.18 2992.15 1900.14 2989.65 1904.1 2986.01 1906.07 2981.21 1906.07 2976.5 1906.07 2972.99 1904.22 2970.69 1900.51 2968.39 1896.81 2967.24 1891.18 2967.24 1883.63 2967.24 1879.62 2967.59 1876.15 2968.3 1873.23 2969.01 1870.31 2970 1867.89 2971.28 1865.98 2972.56 1864.07 2974.09 1862.66 2975.88 1861.75 2977.66 1860.83 2979.62 1860.37 2981.73 1860.37Z" fill-rule="evenodd"/><text fill="#000000" fill-opacity="0" font-family="Arial,Arial_MSFontService,sans-serif" font-size="45.7026" x="2967.24" y="1900.36">0</text><path d="M3003.82 1897.96 3010.43 1897.96 3010.43 1905.55 3003.82 1905.55Z" fill-rule="evenodd"/><text fill="#000000" fill-opacity="0" font-family="Arial,Arial_MSFontService,sans-serif" font-size="7.58984" x="3003.82" y="1904.6">.</text><path d="M3032.56 1883.76C3030.94 1883.76 3029.59 1884.01 3028.49 1884.52 3027.38 1885.02 3026.49 1885.69 3025.8 1886.54 3025.12 1887.39 3024.62 1888.39 3024.33 1889.54 3024.04 1890.68 3023.89 1891.91 3023.89 1893.22 3023.89 1894.64 3024.05 1895.96 3024.38 1897.19 3024.71 1898.42 3025.22 1899.49 3025.93 1900.38 3026.64 1901.28 3027.55 1901.98 3028.67 1902.51 3029.78 1903.03 3031.13 1903.29 3032.72 1903.29 3034.51 1903.29 3036.04 1902.93 3037.32 1902.2 3038.59 1901.47 3039.56 1900.38 3040.23 1898.94 3040.9 1897.5 3041.23 1895.8 3041.23 1893.84 3041.23 1891.75 3040.87 1889.94 3040.15 1888.42 3039.43 1886.91 3038.41 1885.75 3037.11 1884.96 3035.8 1884.16 3034.28 1883.76 3032.56 1883.76ZM3032.72 1863.15C3029.97 1863.15 3027.87 1863.9 3026.42 1865.39 3024.97 1866.89 3024.25 1869.01 3024.25 1871.76 3024.25 1873.04 3024.4 1874.25 3024.71 1875.39 3025.01 1876.52 3025.5 1877.5 3026.18 1878.33 3026.85 1879.16 3027.73 1879.82 3028.81 1880.31 3029.89 1880.8 3031.22 1881.05 3032.79 1881.05 3034.6 1881.05 3036.12 1880.69 3037.35 1879.98 3038.58 1879.28 3039.5 1878.24 3040.1 1876.88 3040.7 1875.51 3041 1873.94 3041 1872.15 3041 1870.19 3040.64 1868.52 3039.94 1867.16 3039.23 1865.8 3038.25 1864.79 3037.01 1864.13 3035.76 1863.48 3034.34 1863.15 3032.72 1863.15ZM3032.79 1860.37C3035.93 1860.37 3038.57 1860.81 3040.7 1861.7 3042.84 1862.58 3044.45 1863.86 3045.53 1865.52 3046.61 1867.19 3047.15 1869.19 3047.15 1871.53 3047.15 1873.93 3046.56 1875.99 3045.38 1877.73 3044.2 1879.46 3042.38 1880.87 3039.92 1881.96L3039.98 1882.39C3042.45 1883.35 3044.31 1884.75 3045.58 1886.59 3046.84 1888.44 3047.48 1890.65 3047.48 1893.25 3047.48 1895.8 3046.87 1898.05 3045.64 1899.99 3044.42 1901.93 3042.65 1903.43 3040.33 1904.49 3038.01 1905.55 3035.3 1906.07 3032.2 1906.07 3029.3 1906.07 3026.75 1905.59 3024.56 1904.62 3022.37 1903.65 3020.67 1902.23 3019.46 1900.37 3018.25 1898.5 3017.64 1896.3 3017.64 1893.77 3017.64 1891.88 3017.97 1890.23 3018.62 1888.83 3019.28 1887.44 3020.13 1886.29 3021.19 1885.38 3022.25 1884.48 3023.58 1883.65 3025.2 1882.91L3025.13 1882.49C3020.44 1880.46 3018.1 1876.98 3018.1 1872.05 3018.1 1869.8 3018.71 1867.8 3019.95 1866.03 3021.18 1864.26 3022.93 1862.88 3025.21 1861.88 3027.49 1860.87 3030.02 1860.37 3032.79 1860.37Z" fill-rule="evenodd"/><text fill="#000000" fill-opacity="0" font-family="Arial,Arial_MSFontService,sans-serif" font-size="45.7026" x="3017.64" y="1900.36">8</text><path d="M2401.21 1993.75C2397.35 1993.75 2394.39 1995.31 2392.34 1998.42 2390.29 2001.53 2389.26 2005.92 2389.26 2011.58 2389.26 2017.33 2390.09 2021.7 2391.76 2024.7 2393.42 2027.69 2395.91 2029.19 2399.24 2029.19 2400.49 2029.19 2401.56 2029.08 2402.45 2028.85 2403.33 2028.63 2404.2 2028.26 2405.05 2027.75 2405.91 2027.24 2406.78 2026.56 2407.66 2025.69 2408.54 2024.82 2409.18 2024.03 2409.57 2023.33 2409.96 2022.63 2410.26 2021.81 2410.47 2020.88 2410.68 2019.95 2410.78 2018.75 2410.78 2017.29L2410.78 2007.09C2410.78 2004.3 2410.6 2002.15 2410.24 2000.62 2409.88 1999.09 2409.27 1997.8 2408.4 1996.74 2407.53 1995.67 2406.51 1994.91 2405.35 1994.44 2404.18 1993.98 2402.8 1993.75 2401.21 1993.75ZM2401.3 1990.15C2403.43 1990.15 2405.35 1990.37 2407.05 1990.81 2408.76 1991.24 2410.51 1991.94 2412.31 1992.89L2415.45 1990.15 2418.51 1990.87 2418.51 2041.99C2418.51 2043.76 2418.58 2045.16 2418.71 2046.19 2418.84 2047.23 2419.08 2048.04 2419.43 2048.64 2419.77 2049.24 2420.28 2049.71 2420.96 2050.04 2421.63 2050.36 2422.51 2050.68 2423.58 2050.98L2423.58 2053.18 2405.26 2053.18 2405.26 2050.98C2406.69 2050.68 2407.73 2050.35 2408.38 2049.99 2409.02 2049.63 2409.52 2049.17 2409.86 2048.62 2410.2 2048.07 2410.44 2047.32 2410.58 2046.37 2410.71 2045.43 2410.78 2043.97 2410.78 2041.99L2410.78 2026.5C2409.16 2028.32 2407.66 2029.78 2406.27 2030.88 2404.87 2031.97 2403.32 2032.86 2401.62 2033.55 2399.91 2034.24 2398.1 2034.58 2396.18 2034.58 2391.24 2034.58 2387.44 2032.74 2384.79 2029.06 2382.14 2025.37 2380.82 2020.01 2380.82 2012.97 2380.82 2008 2381.68 2003.8 2383.4 2000.37 2385.12 1996.95 2387.53 1994.38 2390.61 1992.69 2393.7 1991 2397.26 1990.15 2401.3 1990.15Z" fill-rule="evenodd"/><text fill="#000000" fill-opacity="0" font-family="Arial,Arial_MSFontService,sans-serif" font-size="63.0253" x="2380.82" y="2045.3">q</text><path d="M2439.58 2020.99 2441.58 2020.99 2441.58 2044.38C2441.58 2046.26 2441.67 2047.56 2441.84 2048.29 2442.01 2049.02 2442.35 2049.58 2442.84 2049.96 2443.33 2050.34 2444.13 2050.68 2445.24 2050.96L2445.24 2052.56 2432.42 2052.56 2432.42 2050.96C2433.27 2050.7 2433.87 2050.47 2434.23 2050.27 2434.59 2050.08 2434.9 2049.8 2435.15 2049.46 2435.4 2049.11 2435.6 2048.57 2435.74 2047.85 2435.88 2047.13 2435.95 2046.01 2435.95 2044.48L2435.95 2030.22C2435.95 2028.82 2435.93 2027.7 2435.89 2026.85 2435.84 2026 2435.69 2025.32 2435.43 2024.8 2435.17 2024.29 2434.77 2023.91 2434.23 2023.66 2433.7 2023.41 2432.94 2023.2 2431.96 2023.02L2431.96 2021.29ZM2435.75 2008.46 2441.77 2008.46 2441.77 2014.81 2435.75 2014.81Z" fill-rule="evenodd"/><text fill="#000000" fill-opacity="0" font-family="Arial,Arial_MSFontService,sans-serif" font-size="44.0996" x="2431.96" y="2047.05">i</text><path d="M2483.54 2013.92 2538.88 2013.92 2538.88 2019.89 2483.54 2019.89ZM2483.54 1995.28 2538.88 1995.28 2538.88 2001.25 2483.54 2001.25Z" fill-rule="evenodd"/><text fill="#000000" fill-opacity="0" font-family="Arial,Arial_MSFontService,sans-serif" font-size="24.6172" x="2483.54" y="2016.82">=</text><path d="M2600.61 2013.38C2594.53 2013.44 2589.98 2014.25 2586.96 2015.8 2583.93 2017.36 2582.42 2019.71 2582.42 2022.86 2582.42 2024.56 2582.76 2025.91 2583.45 2026.9 2584.14 2027.89 2585.01 2028.57 2586.06 2028.94 2587.1 2029.32 2588.35 2029.51 2589.79 2029.51 2591.82 2029.51 2593.67 2029.01 2595.33 2028.02 2597 2027.04 2598.29 2025.78 2599.22 2024.25 2600.15 2022.72 2600.61 2021.21 2600.61 2019.71ZM2595.76 1990.15C2598.72 1990.15 2601.11 1990.63 2602.9 1991.57 2604.7 1992.51 2606.05 1993.96 2606.95 1995.9 2607.84 1997.85 2608.29 2000.79 2608.29 2004.71L2608.29 2020.34C2608.29 2022.56 2608.31 2024.12 2608.34 2025.04 2608.37 2025.95 2608.46 2026.8 2608.61 2027.57 2608.76 2028.35 2608.98 2028.97 2609.28 2029.44 2609.58 2029.9 2610.02 2030.3 2610.61 2030.63 2611.19 2030.96 2612.14 2031.3 2613.46 2031.66L2613.46 2033.86 2601.15 2033.86 2601.38 2027.44 2600.7 2027.26C2598.1 2029.93 2595.65 2031.81 2593.36 2032.92 2591.07 2034.03 2588.63 2034.58 2586.06 2034.58 2583.78 2034.58 2581.77 2034.14 2580.04 2033.26 2578.3 2032.37 2576.97 2031.13 2576.04 2029.53 2575.11 2027.93 2574.65 2026.08 2574.65 2023.98 2574.65 2019.61 2576.81 2016.23 2581.14 2013.85 2585.47 2011.47 2591.96 2010.08 2600.61 2009.7L2600.61 2006.78C2600.61 2003.66 2600.31 2001.21 2599.71 1999.41 2599.11 1997.61 2598.17 1996.29 2596.88 1995.46 2595.59 1994.62 2593.87 1994.2 2591.72 1994.2 2589.38 1994.2 2587.5 1994.81 2586.08 1996.04 2584.66 1997.27 2583.59 1999.11 2582.87 2001.56L2576.98 2001.56 2576.98 1995.72C2579.86 1994.23 2582.25 1993.13 2584.17 1992.42 2586.09 1991.72 2588 1991.17 2589.92 1990.76 2591.84 1990.36 2593.78 1990.15 2595.76 1990.15Z" fill-rule="evenodd"/><text fill="#000000" fill-opacity="0" font-family="Arial,Arial_MSFontService,sans-serif" font-size="44.4277" x="2574.65" y="2029.03">a</text><path d="M2616.59 1990.92 2634.92 1990.92 2634.92 1993.12C2633.54 1993.45 2632.57 1993.76 2632 1994.06 2631.43 1994.36 2631.01 1994.75 2630.72 1995.23 2630.44 1995.71 2630.29 1996.35 2630.29 1997.16 2630.29 1997.97 2630.39 1998.82 2630.59 1999.7 2630.78 2000.58 2631.09 2001.61 2631.51 2002.78L2639.32 2025.51 2648.49 2003.72C2649.09 2002.28 2649.51 2001.1 2649.75 2000.17 2649.99 1999.24 2650.11 1998.38 2650.11 1997.57 2650.11 1996.31 2649.77 1995.35 2649.09 1994.69 2648.42 1994.03 2647.19 1993.51 2645.39 1993.12L2645.39 1990.92 2662.19 1990.92 2662.19 1993.12C2661.02 1993.36 2660.12 1993.73 2659.49 1994.22 2658.87 1994.71 2658.24 1995.49 2657.61 1996.56 2656.98 1997.62 2656.23 1999.11 2655.36 2001.03L2640.22 2034.31 2634.92 2034.31 2622.75 2000.76C2621.91 1998.45 2621.24 1996.87 2620.75 1996.02 2620.25 1995.16 2619.72 1994.53 2619.13 1994.11 2618.55 1993.69 2617.7 1993.36 2616.59 1993.12Z" fill-rule="evenodd"/><text fill="#000000" fill-opacity="0" font-family="Arial,Arial_MSFontService,sans-serif" font-size="43.3945" x="2616.59" y="2028.89">v</text><path d="M2619.22 1975.33 2658.8 1975.33 2658.8 1980.09 2619.22 1980.09Z" fill-rule="evenodd"/><text fill="#000000" fill-opacity="0" font-family="Arial,Arial_MSFontService,sans-serif" font-size="4.76172" x="2619.22" y="1979.5">ത</text><path d="M2672.48 2020.99 2674.48 2020.99 2674.48 2044.38C2674.48 2046.26 2674.57 2047.56 2674.74 2048.29 2674.92 2049.02 2675.25 2049.58 2675.74 2049.96 2676.23 2050.34 2677.03 2050.68 2678.14 2050.96L2678.14 2052.56 2665.32 2052.56 2665.32 2050.96C2666.17 2050.7 2666.78 2050.47 2667.14 2050.27 2667.5 2050.08 2667.8 2049.8 2668.05 2049.46 2668.3 2049.11 2668.5 2048.57 2668.64 2047.85 2668.78 2047.13 2668.85 2046.01 2668.85 2044.48L2668.85 2030.22C2668.85 2028.82 2668.83 2027.7 2668.79 2026.85 2668.74 2026 2668.59 2025.32 2668.33 2024.8 2668.07 2024.29 2667.67 2023.91 2667.14 2023.66 2666.6 2023.41 2665.84 2023.2 2664.86 2023.02L2664.86 2021.29ZM2668.66 2008.46 2674.68 2008.46 2674.68 2014.81 2668.66 2014.81Z" fill-rule="evenodd"/><text fill="#000000" fill-opacity="0" font-family="Arial,Arial_MSFontService,sans-serif" font-size="44.0996" x="2664.86" y="2047.05">i</text><path d="M2716.44 2013.92 2771.78 2013.92 2771.78 2019.89 2716.44 2019.89ZM2716.44 1995.28 2771.78 1995.28 2771.78 2001.25 2716.44 2001.25Z" fill-rule="evenodd"/><text fill="#000000" fill-opacity="0" font-family="Arial,Arial_MSFontService,sans-serif" font-size="24.6172" x="2716.44" y="2016.82">=</text><path d="M2831 1995.59C2829.29 1995.59 2827.84 1995.85 2826.64 1996.38 2825.44 1996.9 2824.25 1997.72 2823.07 1998.82 2821.89 1999.93 2821.02 2001.03 2820.46 2002.1 2819.91 2003.18 2819.63 2004.41 2819.63 2005.79L2819.63 2017.69C2819.63 2020 2819.74 2021.83 2819.95 2023.19 2820.16 2024.56 2820.51 2025.69 2821 2026.59 2821.5 2027.48 2822.22 2028.31 2823.16 2029.06 2824.1 2029.81 2825.16 2030.32 2826.33 2030.61 2827.49 2030.89 2828.8 2031.03 2830.23 2031.03 2833.83 2031.03 2836.55 2029.57 2838.41 2026.63 2840.27 2023.7 2841.19 2019.29 2841.19 2013.42 2841.19 2007.49 2840.35 2003.04 2838.66 2000.06 2836.96 1997.08 2834.41 1995.59 2831 1995.59ZM2816.98 1969.58 2819.63 1969.58 2819.63 1997.97 2819.81 1998.02C2821.91 1995.83 2823.65 1994.24 2825.05 1993.25 2826.44 1992.27 2827.88 1991.51 2829.36 1990.99 2830.84 1990.46 2832.47 1990.2 2834.23 1990.2 2837.44 1990.2 2840.18 1991.02 2842.48 1992.65 2844.77 1994.28 2846.53 1996.73 2847.78 1999.99 2849.02 2003.26 2849.64 2007.25 2849.64 2011.99 2849.64 2016.87 2848.9 2020.99 2847.42 2024.36 2845.93 2027.73 2843.75 2030.28 2840.86 2032 2837.97 2033.72 2834.55 2034.58 2830.59 2034.58 2828.38 2034.58 2826.29 2034.38 2824.33 2033.98 2822.36 2033.57 2820.31 2032.86 2818.15 2031.84L2815.01 2034.58 2811.91 2033.86 2811.91 1985.03C2811.91 1982.16 2811.88 1980.15 2811.84 1979.01 2811.79 1977.88 2811.67 1976.91 2811.48 1976.12 2811.28 1975.32 2811.01 1974.7 2810.67 1974.25 2810.33 1973.8 2809.86 1973.44 2809.28 1973.17 2808.69 1972.9 2807.64 1972.63 2806.11 1972.37L2806.11 1970.03Z" fill-rule="evenodd"/><text fill="#000000" fill-opacity="0" font-family="Arial,Arial_MSFontService,sans-serif" font-size="65.002" x="2806.11" y="2026.46">b</text><path d="M2864.71 2020.99 2866.7 2020.99 2866.7 2044.38C2866.7 2046.26 2866.79 2047.56 2866.97 2048.29 2867.14 2049.02 2867.47 2049.58 2867.96 2049.96 2868.46 2050.34 2869.26 2050.68 2870.37 2050.96L2870.37 2052.56 2857.54 2052.56 2857.54 2050.96C2858.4 2050.7 2859 2050.47 2859.36 2050.27 2859.72 2050.08 2860.03 2049.8 2860.28 2049.46 2860.53 2049.11 2860.72 2048.57 2860.87 2047.85 2861.01 2047.13 2861.08 2046.01 2861.08 2044.48L2861.08 2030.22C2861.08 2028.82 2861.06 2027.7 2861.01 2026.85 2860.97 2026 2860.82 2025.32 2860.55 2024.8 2860.29 2024.29 2859.89 2023.91 2859.36 2023.66 2858.83 2023.41 2858.07 2023.2 2857.09 2023.02L2857.09 2021.29ZM2860.88 2008.46 2866.9 2008.46 2866.9 2014.81 2860.88 2014.81Z" fill-rule="evenodd"/><text fill="#000000" fill-opacity="0" font-family="Arial,Arial_MSFontService,sans-serif" font-size="44.0996" x="2857.09" y="2047.05">i</text><path d="M2877.41 1990.92 2895.69 1990.92 2895.69 1993.12C2894.28 1993.45 2893.29 1993.77 2892.73 1994.09 2892.16 1994.4 2891.74 1994.8 2891.47 1995.3 2891.2 1995.79 2891.06 1996.43 2891.06 1997.21 2891.06 1998.02 2891.16 1998.85 2891.36 1999.72 2891.55 2000.59 2891.86 2001.61 2892.28 2002.78L2900.27 2025.28 2909.26 2003.72C2909.77 2002.52 2910.16 2001.42 2910.45 2000.42 2910.73 1999.42 2910.87 1998.48 2910.87 1997.61 2910.87 1996.32 2910.52 1995.35 2909.82 1994.69 2909.11 1994.03 2907.89 1993.51 2906.16 1993.12L2906.16 1990.92 2922.96 1990.92 2922.96 1993.12C2921.79 1993.36 2920.89 1993.73 2920.26 1994.22 2919.63 1994.71 2919 1995.49 2918.38 1996.56 2917.75 1997.62 2917 1999.11 2916.13 2001.03L2899.87 2037.55C2898.22 2041.26 2896.62 2044.27 2895.06 2046.58 2893.5 2048.88 2891.79 2050.62 2889.92 2051.79 2888.05 2052.96 2885.82 2053.54 2883.25 2053.54 2881.6 2053.54 2879.74 2053.34 2877.68 2052.96L2877.68 2044.06 2881.67 2044.06C2882.03 2045.29 2882.48 2046.14 2883.02 2046.62 2883.56 2047.1 2884.34 2047.34 2885.36 2047.34 2886.26 2047.34 2887.06 2047.17 2887.76 2046.82 2888.47 2046.48 2889.2 2045.89 2889.96 2045.05 2890.73 2044.21 2891.62 2042.92 2892.66 2041.19 2893.69 2039.45 2894.85 2037.25 2896.14 2034.58L2883.56 2000.76C2882.75 1998.57 2882.1 1997.04 2881.61 1996.17 2881.11 1995.31 2880.58 1994.65 2880.01 1994.2 2879.44 1993.75 2878.58 1993.39 2877.41 1993.12Z" fill-rule="evenodd"/><text fill="#000000" fill-opacity="0" font-family="Arial,Arial_MSFontService,sans-serif" font-size="62.621" x="2877.41" y="2045.71">y</text><path d="M2933.25 2020.99 2935.25 2020.99 2935.25 2044.38C2935.25 2046.26 2935.34 2047.56 2935.51 2048.29 2935.68 2049.02 2936.02 2049.58 2936.51 2049.96 2937 2050.34 2937.8 2050.68 2938.91 2050.96L2938.91 2052.56 2926.09 2052.56 2926.09 2050.96C2926.94 2050.7 2927.54 2050.47 2927.9 2050.27 2928.26 2050.08 2928.57 2049.8 2928.82 2049.46 2929.07 2049.11 2929.27 2048.57 2929.41 2047.85 2929.55 2047.13 2929.62 2046.01 2929.62 2044.48L2929.62 2030.22C2929.62 2028.82 2929.6 2027.7 2929.56 2026.85 2929.51 2026 2929.36 2025.32 2929.1 2024.8 2928.84 2024.29 2928.44 2023.91 2927.9 2023.66 2927.37 2023.41 2926.61 2023.2 2925.63 2023.02L2925.63 2021.29ZM2929.43 2008.46 2935.44 2008.46 2935.44 2014.81 2929.43 2014.81Z" fill-rule="evenodd"/><text fill="#000000" fill-opacity="0" font-family="Arial,Arial_MSFontService,sans-serif" font-size="44.0996" x="2925.63" y="2047.05">i</text><path d="M2945.91 1990.92 2964.23 1990.92 2964.23 1993.12C2962.86 1993.45 2961.88 1993.76 2961.31 1994.06 2960.75 1994.36 2960.32 1994.75 2960.03 1995.23 2959.75 1995.71 2959.61 1996.35 2959.61 1997.16 2959.61 1997.97 2959.7 1998.82 2959.9 1999.7 2960.09 2000.58 2960.4 2001.61 2960.82 2002.78L2968.64 2025.51 2977.8 2003.72C2978.4 2002.28 2978.82 2001.1 2979.06 2000.17 2979.3 1999.24 2979.42 1998.38 2979.42 1997.57 2979.42 1996.31 2979.08 1995.35 2978.41 1994.69 2977.73 1994.03 2976.5 1993.51 2974.7 1993.12L2974.7 1990.92 2991.5 1990.92 2991.5 1993.12C2990.33 1993.36 2989.44 1993.73 2988.81 1994.22 2988.18 1994.71 2987.55 1995.49 2986.92 1996.56 2986.29 1997.62 2985.54 1999.11 2984.67 2001.03L2969.54 2034.31 2964.23 2034.31 2952.06 2000.76C2951.22 1998.45 2950.56 1996.87 2950.06 1996.02 2949.57 1995.16 2949.03 1994.53 2948.44 1994.11 2947.86 1993.69 2947.01 1993.36 2945.91 1993.12Z" fill-rule="evenodd"/><text fill="#000000" fill-opacity="0" font-family="Arial,Arial_MSFontService,sans-serif" font-size="43.3945" x="2945.91" y="2028.89">v</text><path d="M2948.54 1975.33 2988.11 1975.33 2988.11 1980.09 2948.54 1980.09Z" fill-rule="evenodd"/><text fill="#000000" fill-opacity="0" font-family="Arial,Arial_MSFontService,sans-serif" font-size="4.76172" x="2948.54" y="1979.5">ത</text><path d="M3001.8 2020.99 3003.79 2020.99 3003.79 2044.38C3003.79 2046.26 3003.88 2047.56 3004.05 2048.29 3004.23 2049.02 3004.56 2049.58 3005.05 2049.96 3005.54 2050.34 3006.34 2050.68 3007.46 2050.96L3007.46 2052.56 2994.63 2052.56 2994.63 2050.96C2995.48 2050.7 2996.09 2050.47 2996.45 2050.27 2996.81 2050.08 2997.11 2049.8 2997.36 2049.46 2997.61 2049.11 2997.81 2048.57 2997.95 2047.85 2998.09 2047.13 2998.17 2046.01 2998.17 2044.48L2998.17 2030.22C2998.17 2028.82 2998.14 2027.7 2998.1 2026.85 2998.06 2026 2997.9 2025.32 2997.64 2024.8 2997.38 2024.29 2996.98 2023.91 2996.45 2023.66 2995.91 2023.41 2995.16 2023.2 2994.17 2023.02L2994.17 2021.29ZM2997.97 2008.46 3003.99 2008.46 3003.99 2014.81 2997.97 2014.81Z" fill-rule="evenodd"/><text fill="#000000" fill-opacity="0" font-family="Arial,Arial_MSFontService,sans-serif" font-size="44.0996" x="2994.17" y="2047.05">i</text></g></svg>