<svg width="1345" height="908" xmlns="http://www.w3.org/2000/svg" xmlns:xlink="http://www.w3.org/1999/xlink" xml:space="preserve" overflow="hidden"><g transform="translate(-1790 -1467)"><rect x="1791" y="1468" width="244" height="906" stroke="#000000" stroke-width="2.29167" stroke-miterlimit="8" stroke-dasharray="18.3333 6.875" fill="#BFBFBF"/><path d="M1888.5 1667C1888.5 1653.47 1899.47 1642.5 1913 1642.5 1926.53 1642.5 1937.5 1653.47 1937.5 1667 1937.5 1680.53 1926.53 1691.5 1913 1691.5 1899.47 1691.5 1888.5 1680.53 1888.5 1667Z" stroke="#172C51" stroke-width="4.58333" stroke-miterlimit="8" fill="#FFFFFF" fill-rule="evenodd"/><path d="M1869.94 1471.5 1869.94 1640.88 1863.06 1640.88 1863.06 1471.5ZM1880.25 1636.29 1866.5 1663.79 1852.75 1636.29Z" fill="#FFFFFF"/><path d="M1827.94 1468.5 1827.94 2171.58 1821.06 2171.58 1821.06 1468.5ZM1838.25 2167 1824.5 2194.5 1810.75 2167Z" fill="#FFFFFF"/><text font-family="Segoe UI Light,Segoe UI Light_MSFontService,sans-serif" font-weight="300" font-size="73" transform="matrix(1 0 0 1 1887.22 1580)">0.2y</text><path d="M1888.5 2194C1888.5 2180.47 1899.47 2169.5 1913 2169.5 1926.53 2169.5 1937.5 2180.47 1937.5 2194 1937.5 2207.53 1926.53 2218.5 1913 2218.5 1899.47 2218.5 1888.5 2207.53 1888.5 2194Z" stroke="#172C51" stroke-width="4.58333" stroke-miterlimit="8" fill="#FFFFFF" fill-rule="evenodd"/><path d="M0 0 99 0.000360892" stroke="#FFFFFF" stroke-width="2.29167" stroke-linecap="square" stroke-miterlimit="8" stroke-dasharray="6.875 2.29167" fill="none" fill-rule="evenodd" transform="matrix(1 0 0 -1 1813 2194)"/><path d="M0.647658-0.945237 205.199 139.209 203.904 141.1-0.647658 0.945237ZM205.952 130.002 223.456 153.108 195.589 145.126Z" fill="#404040" transform="matrix(1 0 0 -1 1908 2191.11)"/><text font-family="Segoe UI Light,Segoe UI Light_MSFontService,sans-serif" font-weight="300" font-size="73" transform="matrix(1 0 0 1 1850.39 1867)">0.8y</text><path d="M1854 1666 1924.04 1666" stroke="#FFFFFF" stroke-width="2.29167" stroke-linecap="square" stroke-miterlimit="8" stroke-dasharray="6.875 2.29167" fill="none" fill-rule="evenodd"/><text font-family="Segoe UI Light,Segoe UI Light_MSFontService,sans-serif" font-weight="300" font-size="73" transform="matrix(1 0 0 1 2146.45 1783)">V</text><text font-family="Segoe UI Light,Segoe UI Light_MSFontService,sans-serif" font-weight="300" font-size="49" transform="matrix(1 0 0 1 2190.57 1800)">0.2</text><text font-family="Segoe UI Light,Segoe UI Light_MSFontService,sans-serif" font-weight="300" font-size="73" transform="matrix(1 0 0 1 2157.98 2019)">V</text><text font-family="Segoe UI Light,Segoe UI Light_MSFontService,sans-serif" font-weight="300" font-size="49" transform="matrix(1 0 0 1 2202.09 2036)">0.8</text><path d="M1908.3 1666.89 2097.87 1717.57 2097.28 1719.79 1907.7 1669.11ZM2095.51 1708.64 2119.71 1724.6 2090.78 1726.35Z" fill="#404040"/><path d="M2377 1843.91 2395.33 1843.91 2395.33 1846.11C2393.95 1846.44 2392.98 1846.75 2392.41 1847.05 2391.84 1847.35 2391.41 1847.74 2391.13 1848.22 2390.84 1848.7 2390.7 1849.34 2390.7 1850.15 2390.7 1850.96 2390.8 1851.8 2390.99 1852.69 2391.19 1853.57 2391.49 1854.6 2391.91 1855.76L2399.73 1878.5 2408.89 1856.71C2409.49 1855.27 2409.91 1854.09 2410.15 1853.16 2410.39 1852.23 2410.51 1851.36 2410.51 1850.55 2410.51 1849.3 2410.17 1848.34 2409.5 1847.68 2408.83 1847.02 2407.59 1846.5 2405.79 1846.11L2405.79 1843.91 2422.6 1843.91 2422.6 1846.11C2421.43 1846.35 2420.53 1846.71 2419.9 1847.21 2419.27 1847.7 2418.64 1848.48 2418.01 1849.54 2417.38 1850.61 2416.64 1852.1 2415.77 1854.01L2400.63 1887.3 2395.33 1887.3 2383.15 1853.74C2382.32 1851.44 2381.65 1849.86 2381.16 1849 2380.66 1848.15 2380.12 1847.51 2379.54 1847.09 2378.95 1846.68 2378.11 1846.35 2377 1846.11Z" fill-rule="evenodd"/><text fill="#000000" fill-opacity="0" font-family="Arial,Arial_MSFontService,sans-serif" font-size="43.3945" x="2377" y="1881.88">v</text><path d="M2379.63 1828.32 2419.21 1828.32 2419.21 1833.08 2379.63 1833.08Z" fill-rule="evenodd"/><text fill="#000000" fill-opacity="0" font-family="Arial,Arial_MSFontService,sans-serif" font-size="4.76172" x="2379.63" y="1832.48">ത</text><path d="M2432.89 1873.98 2434.89 1873.98 2434.89 1897.37C2434.89 1899.25 2434.97 1900.55 2435.15 1901.28 2435.32 1902.01 2435.66 1902.57 2436.15 1902.95 2436.64 1903.33 2437.44 1903.66 2438.55 1903.95L2438.55 1905.55 2425.73 1905.55 2425.73 1903.95C2426.58 1903.69 2427.18 1903.46 2427.54 1903.26 2427.9 1903.06 2428.21 1902.79 2428.46 1902.44 2428.71 1902.09 2428.9 1901.56 2429.05 1900.84 2429.19 1900.12 2429.26 1899 2429.26 1897.47L2429.26 1883.21C2429.26 1881.81 2429.24 1880.69 2429.19 1879.84 2429.15 1878.99 2429 1878.3 2428.74 1877.79 2428.47 1877.28 2428.08 1876.9 2427.54 1876.65 2427.01 1876.4 2426.25 1876.18 2425.27 1876.01L2425.27 1874.28ZM2429.06 1861.45 2435.08 1861.45 2435.08 1867.8 2429.06 1867.8Z" fill-rule="evenodd"/><text fill="#000000" fill-opacity="0" font-family="Arial,Arial_MSFontService,sans-serif" font-size="44.0996" x="2425.27" y="1900.04">i</text><path d="M2476.84 1866.91 2532.19 1866.91 2532.19 1872.88 2476.84 1872.88ZM2476.84 1848.26 2532.19 1848.26 2532.19 1854.24 2476.84 1854.24Z" fill-rule="evenodd"/><text fill="#000000" fill-opacity="0" font-family="Arial,Arial_MSFontService,sans-serif" font-size="24.6172" x="2476.84" y="1869.8">=</text><path d="M2593.38 1755.45 2595.85 1755.45C2595.67 1758.32 2595.58 1762.3 2595.58 1767.39L2595.58 1805.76C2595.58 1807.49 2595.68 1808.8 2595.87 1809.69 2596.07 1810.57 2596.41 1811.29 2596.91 1811.84 2597.4 1812.4 2598.11 1812.83 2599.04 1813.15 2599.97 1813.46 2601.14 1813.7 2602.54 1813.87 2603.95 1814.03 2605.81 1814.14 2608.11 1814.2L2608.11 1817.48 2574.92 1817.48 2574.92 1814.2C2578.24 1814.05 2580.62 1813.85 2582.04 1813.6 2583.46 1813.34 2584.55 1812.96 2585.29 1812.45 2586.04 1811.94 2586.59 1811.22 2586.93 1810.29 2587.28 1809.37 2587.45 1807.85 2587.45 1805.76L2587.45 1769.33C2587.45 1768.13 2587.24 1767.25 2586.82 1766.7 2586.4 1766.14 2585.79 1765.87 2584.98 1765.87 2584.02 1765.87 2582.66 1766.36 2580.89 1767.35 2579.13 1768.34 2576.94 1769.7 2574.33 1771.44L2572.36 1767.98Z" fill-rule="evenodd"/><text fill="#000000" fill-opacity="0" font-family="Arial,Arial_MSFontService,sans-serif" font-size="62.0371" x="2572.36" y="1809.73">1</text><path d="M2590.19 1886.14C2595.76 1886.14 2599.97 1887.36 2602.81 1889.8 2605.66 1892.24 2607.08 1895.78 2607.08 1900.42 2607.08 1902.01 2606.92 1903.47 2606.61 1904.8 2606.3 1906.14 2605.8 1907.45 2605.13 1908.76 2604.45 1910.06 2603.55 1911.46 2602.41 1912.96 2601.27 1914.45 2600.01 1915.97 2598.64 1917.52 2597.26 1919.06 2594.88 1921.63 2591.49 1925.22 2585.8 1931.24 2581.63 1936.5 2578.96 1940.99L2595.9 1940.99C2597.36 1940.99 2598.55 1940.9 2599.45 1940.72 2600.34 1940.54 2601.06 1940.24 2601.6 1939.82 2602.14 1939.4 2602.57 1938.85 2602.88 1938.18 2603.2 1937.51 2603.59 1936.47 2604.07 1935.06L2607.89 1935.06 2607.13 1948.18 2570.16 1948.18 2570.16 1946.02C2571.44 1942.88 2573.18 1939.66 2575.37 1936.36 2577.55 1933.07 2580.65 1929.19 2584.67 1924.73 2588.14 1920.89 2590.64 1917.99 2592.17 1916.01 2593.84 1913.86 2595.1 1911.99 2595.92 1910.42 2596.74 1908.85 2597.33 1907.36 2597.69 1905.97 2598.05 1904.58 2598.23 1903.18 2598.23 1901.77 2598.23 1899.53 2597.87 1897.54 2597.15 1895.82 2596.44 1894.1 2595.33 1892.74 2593.85 1891.75 2592.37 1890.77 2590.51 1890.27 2588.26 1890.27 2582.66 1890.27 2578.89 1893.39 2576.94 1899.62L2571.5 1899.62 2571.5 1890.99C2575.13 1889.28 2578.52 1888.05 2581.68 1887.28 2584.84 1886.52 2587.68 1886.14 2590.19 1886.14Z" fill-rule="evenodd"/><text fill="#000000" fill-opacity="0" font-family="Arial,Arial_MSFontService,sans-serif" font-size="62.0371" x="2570.16" y="1940.42">2</text><path d="M2564.15 1857.86 2615.15 1857.86 2615.15 1863.86 2564.15 1863.86Z" fill-rule="evenodd"/><path d="M3057.97 1817.97C3066.72 1820.28 3073.43 1825.26 3078.12 1832.91 3082.81 1840.56 3085.15 1849.79 3085.15 1860.61 3085.15 1871.45 3082.81 1880.68 3078.14 1888.3 3073.47 1895.92 3066.75 1900.89 3057.97 1903.19L3056.89 1899.73C3063.81 1897.43 3068.96 1892.87 3072.33 1886.08 3075.69 1879.28 3077.38 1870.64 3077.38 1860.16 3077.38 1850.03 3075.7 1841.63 3072.35 1834.93 3068.99 1828.24 3063.8 1823.74 3056.76 1821.43ZM2665.9 1817.97 2667.11 1821.43C2660.1 1823.74 2654.92 1828.24 2651.55 1834.93 2648.18 1841.63 2646.49 1850.03 2646.49 1860.16 2646.49 1870.64 2648.18 1879.28 2651.55 1886.08 2654.92 1892.87 2660.06 1897.43 2666.98 1899.73L2665.9 1903.19C2657.12 1900.89 2650.4 1895.92 2645.73 1888.3 2641.06 1880.68 2638.72 1871.45 2638.72 1860.61 2638.72 1849.79 2641.07 1840.56 2645.75 1832.91 2650.44 1825.26 2657.15 1820.28 2665.9 1817.97Z" fill-rule="evenodd"/><path d="M2669.53 1843.91 2687.86 1843.91 2687.86 1846.11C2686.48 1846.44 2685.51 1846.75 2684.94 1847.05 2684.37 1847.35 2683.94 1847.74 2683.66 1848.22 2683.37 1848.7 2683.23 1849.34 2683.23 1850.15 2683.23 1850.96 2683.33 1851.8 2683.52 1852.69 2683.72 1853.57 2684.03 1854.6 2684.45 1855.76L2692.26 1878.5 2701.43 1856.71C2702.02 1855.27 2702.44 1854.09 2702.68 1853.16 2702.92 1852.23 2703.04 1851.36 2703.04 1850.55 2703.04 1849.3 2702.71 1848.34 2702.03 1847.68 2701.36 1847.02 2700.12 1846.5 2698.33 1846.11L2698.33 1843.91 2715.13 1843.91 2715.13 1846.11C2713.96 1846.35 2713.06 1846.71 2712.43 1847.21 2711.8 1847.7 2711.17 1848.48 2710.54 1849.54 2709.92 1850.61 2709.17 1852.1 2708.3 1854.01L2693.16 1887.3 2687.86 1887.3 2675.69 1853.74C2674.85 1851.44 2674.18 1849.86 2673.69 1849 2673.19 1848.15 2672.65 1847.51 2672.07 1847.09 2671.49 1846.68 2670.64 1846.35 2669.53 1846.11Z" fill-rule="evenodd"/><text fill="#000000" fill-opacity="0" font-family="Arial,Arial_MSFontService,sans-serif" font-size="43.3945" x="2669.53" y="1881.88">v</text><path d="M2733.63 1863.15C2732.13 1863.15 2730.87 1863.6 2729.85 1864.49 2728.84 1865.39 2728.02 1866.67 2727.4 1868.35 2726.78 1870.03 2726.34 1872.08 2726.08 1874.49 2725.81 1876.9 2725.68 1879.62 2725.68 1882.65 2725.68 1889.76 2726.34 1894.98 2727.66 1898.3 2728.98 1901.63 2731.03 1903.29 2733.8 1903.29 2736.44 1903.29 2738.39 1901.73 2739.67 1898.6 2740.95 1895.47 2741.58 1890.62 2741.58 1884.06 2741.58 1879.04 2741.26 1874.98 2740.6 1871.87 2739.95 1868.76 2739.04 1866.53 2737.87 1865.18 2736.7 1863.83 2735.29 1863.15 2733.63 1863.15ZM2733.8 1860.37C2738.57 1860.37 2742.13 1862.21 2744.46 1865.9 2746.8 1869.59 2747.96 1875.16 2747.96 1882.62 2747.96 1890.34 2746.71 1896.18 2744.22 1900.14 2741.72 1904.1 2738.07 1906.07 2733.27 1906.07 2728.56 1906.07 2725.06 1904.22 2722.76 1900.51 2720.45 1896.81 2719.3 1891.18 2719.3 1883.63 2719.3 1879.62 2719.66 1876.15 2720.37 1873.23 2721.08 1870.31 2722.07 1867.89 2723.34 1865.98 2724.62 1864.07 2726.15 1862.66 2727.94 1861.75 2729.73 1860.83 2731.68 1860.37 2733.8 1860.37Z" fill-rule="evenodd"/><text fill="#000000" fill-opacity="0" font-family="Arial,Arial_MSFontService,sans-serif" font-size="45.7026" x="2719.3" y="1900.36">0</text><path d="M2755.89 1897.96 2762.5 1897.96 2762.5 1905.55 2755.89 1905.55Z" fill-rule="evenodd"/><text fill="#000000" fill-opacity="0" font-family="Arial,Arial_MSFontService,sans-serif" font-size="7.58984" x="2755.89" y="1904.6">.</text><path d="M2784.88 1860.37C2788.94 1860.37 2792.01 1861.26 2794.08 1863.04 2796.15 1864.82 2797.19 1867.39 2797.19 1870.78 2797.19 1871.93 2797.07 1872.99 2796.84 1873.96 2796.61 1874.94 2796.25 1875.89 2795.76 1876.84 2795.27 1877.79 2794.61 1878.81 2793.78 1879.9 2792.95 1880.99 2792.04 1882.1 2791.03 1883.22 2790.03 1884.35 2788.3 1886.22 2785.83 1888.83 2781.69 1893.22 2778.65 1897.05 2776.71 1900.32L2789.04 1900.32C2790.11 1900.32 2790.97 1900.25 2791.62 1900.12 2792.28 1899.99 2792.8 1899.77 2793.19 1899.47 2793.59 1899.16 2793.9 1898.76 2794.13 1898.27 2794.36 1897.78 2794.64 1897.02 2794.99 1896L2797.77 1896 2797.22 1905.55 2770.29 1905.55 2770.29 1903.98C2771.23 1901.69 2772.5 1899.35 2774.09 1896.95 2775.68 1894.55 2777.94 1891.72 2780.86 1888.47 2783.39 1885.68 2785.21 1883.57 2786.32 1882.13 2787.55 1880.56 2788.46 1879.2 2789.06 1878.05 2789.66 1876.91 2790.09 1875.83 2790.35 1874.82 2790.61 1873.8 2790.74 1872.78 2790.74 1871.76 2790.74 1870.12 2790.48 1868.68 2789.96 1867.42 2789.43 1866.17 2788.63 1865.18 2787.55 1864.46 2786.47 1863.74 2785.11 1863.38 2783.48 1863.38 2779.4 1863.38 2776.65 1865.65 2775.23 1870.19L2771.28 1870.19 2771.28 1863.9C2773.91 1862.66 2776.38 1861.76 2778.69 1861.21 2780.99 1860.65 2783.05 1860.37 2784.88 1860.37Z" fill-rule="evenodd"/><text fill="#000000" fill-opacity="0" font-family="Arial,Arial_MSFontService,sans-serif" font-size="45.1792" x="2770.29" y="1899.9">2</text><path d="M2858.67 1831.69 2865.04 1831.69 2865.04 1857.56 2889.53 1857.56 2889.53 1863.54 2865.04 1863.54 2865.04 1889.41 2858.67 1889.41 2858.67 1863.54 2834.18 1863.54 2834.18 1857.56 2858.67 1857.56Z" fill-rule="evenodd"/><text fill="#000000" fill-opacity="0" font-family="Arial,Arial_MSFontService,sans-serif" font-size="57.7246" x="2834.18" y="1882.2">+</text><path d="M2917.47 1843.91 2935.79 1843.91 2935.79 1846.11C2934.42 1846.44 2933.44 1846.75 2932.87 1847.05 2932.31 1847.35 2931.88 1847.74 2931.59 1848.22 2931.31 1848.7 2931.17 1849.34 2931.17 1850.15 2931.17 1850.96 2931.27 1851.8 2931.46 1852.69 2931.65 1853.57 2931.96 1854.6 2932.38 1855.76L2940.2 1878.5 2949.36 1856.71C2949.96 1855.27 2950.38 1854.09 2950.62 1853.16 2950.86 1852.23 2950.98 1851.36 2950.98 1850.55 2950.98 1849.3 2950.64 1848.34 2949.97 1847.68 2949.29 1847.02 2948.06 1846.5 2946.26 1846.11L2946.26 1843.91 2963.06 1843.91 2963.06 1846.11C2961.89 1846.35 2961 1846.71 2960.37 1847.21 2959.74 1847.7 2959.11 1848.48 2958.48 1849.54 2957.85 1850.61 2957.1 1852.1 2956.23 1854.01L2941.1 1887.3 2935.79 1887.3 2923.62 1853.74C2922.78 1851.44 2922.12 1849.86 2921.62 1849 2921.13 1848.15 2920.59 1847.51 2920 1847.09 2919.42 1846.68 2918.57 1846.35 2917.47 1846.11Z" fill-rule="evenodd"/><text fill="#000000" fill-opacity="0" font-family="Arial,Arial_MSFontService,sans-serif" font-size="43.3945" x="2917.47" y="1881.88">v</text><path d="M2981.57 1863.15C2980.06 1863.15 2978.8 1863.6 2977.79 1864.49 2976.78 1865.39 2975.96 1866.67 2975.34 1868.35 2974.71 1870.03 2974.27 1872.08 2974.01 1874.49 2973.75 1876.9 2973.62 1879.62 2973.62 1882.65 2973.62 1889.76 2974.28 1894.98 2975.6 1898.3 2976.92 1901.63 2978.96 1903.29 2981.73 1903.29 2984.37 1903.29 2986.33 1901.73 2987.6 1898.6 2988.88 1895.47 2989.52 1890.62 2989.52 1884.06 2989.52 1879.04 2989.19 1874.98 2988.54 1871.87 2987.88 1868.76 2986.97 1866.53 2985.81 1865.18 2984.64 1863.83 2983.23 1863.15 2981.57 1863.15ZM2981.73 1860.37C2986.51 1860.37 2990.06 1862.21 2992.4 1865.9 2994.73 1869.59 2995.9 1875.16 2995.9 1882.62 2995.9 1890.34 2994.65 1896.18 2992.15 1900.14 2989.65 1904.1 2986.01 1906.07 2981.21 1906.07 2976.5 1906.07 2972.99 1904.22 2970.69 1900.51 2968.39 1896.81 2967.24 1891.18 2967.24 1883.63 2967.24 1879.62 2967.59 1876.15 2968.3 1873.23 2969.01 1870.31 2970 1867.89 2971.28 1865.98 2972.56 1864.07 2974.09 1862.66 2975.88 1861.75 2977.66 1860.83 2979.62 1860.37 2981.73 1860.37Z" fill-rule="evenodd"/><text fill="#000000" fill-opacity="0" font-family="Arial,Arial_MSFontService,sans-serif" font-size="45.7026" x="2967.24" y="1900.36">0</text><path d="M3003.82 1897.96 3010.43 1897.96 3010.43 1905.55 3003.82 1905.55Z" fill-rule="evenodd"/><text fill="#000000" fill-opacity="0" font-family="Arial,Arial_MSFontService,sans-serif" font-size="7.58984" x="3003.82" y="1904.6">.</text><path d="M3032.56 1883.76C3030.94 1883.76 3029.59 1884.01 3028.49 1884.52 3027.38 1885.02 3026.49 1885.69 3025.8 1886.54 3025.12 1887.39 3024.62 1888.39 3024.33 1889.54 3024.04 1890.68 3023.89 1891.91 3023.89 1893.22 3023.89 1894.64 3024.05 1895.96 3024.38 1897.19 3024.71 1898.42 3025.22 1899.49 3025.93 1900.38 3026.64 1901.28 3027.55 1901.98 3028.67 1902.51 3029.78 1903.03 3031.13 1903.29 3032.72 1903.29 3034.51 1903.29 3036.04 1902.93 3037.32 1902.2 3038.59 1901.47 3039.56 1900.38 3040.23 1898.94 3040.9 1897.5 3041.23 1895.8 3041.23 1893.84 3041.23 1891.75 3040.87 1889.94 3040.15 1888.42 3039.43 1886.91 3038.41 1885.75 3037.11 1884.96 3035.8 1884.16 3034.28 1883.76 3032.56 1883.76ZM3032.72 1863.15C3029.97 1863.15 3027.87 1863.9 3026.42 1865.39 3024.97 1866.89 3024.25 1869.01 3024.25 1871.76 3024.25 1873.04 3024.4 1874.25 3024.71 1875.39 3025.01 1876.52 3025.5 1877.5 3026.18 1878.33 3026.85 1879.16 3027.73 1879.82 3028.81 1880.31 3029.89 1880.8 3031.22 1881.05 3032.79 1881.05 3034.6 1881.05 3036.12 1880.69 3037.35 1879.98 3038.58 1879.28 3039.5 1878.24 3040.1 1876.88 3040.7 1875.51 3041 1873.94 3041 1872.15 3041 1870.19 3040.64 1868.52 3039.94 1867.16 3039.23 1865.8 3038.25 1864.79 3037.01 1864.13 3035.76 1863.48 3034.34 1863.15 3032.72 1863.15ZM3032.79 1860.37C3035.93 1860.37 3038.57 1860.81 3040.7 1861.7 3042.84 1862.58 3044.45 1863.86 3045.53 1865.52 3046.61 1867.19 3047.15 1869.19 3047.15 1871.53 3047.15 1873.93 3046.56 1875.99 3045.38 1877.73 3044.2 1879.46 3042.38 1880.87 3039.92 1881.96L3039.98 1882.39C3042.45 1883.35 3044.31 1884.75 3045.58 1886.59 3046.84 1888.44 3047.48 1890.65 3047.48 1893.25 3047.48 1895.8 3046.87 1898.05 3045.64 1899.99 3044.42 1901.93 3042.65 1903.43 3040.33 1904.49 3038.01 1905.55 3035.3 1906.07 3032.2 1906.07 3029.3 1906.07 3026.75 1905.59 3024.56 1904.62 3022.37 1903.65 3020.67 1902.23 3019.46 1900.37 3018.25 1898.5 3017.64 1896.3 3017.64 1893.77 3017.64 1891.88 3017.97 1890.23 3018.62 1888.83 3019.28 1887.44 3020.13 1886.29 3021.19 1885.38 3022.25 1884.48 3023.58 1883.65 3025.2 1882.91L3025.13 1882.49C3020.44 1880.46 3018.1 1876.98 3018.1 1872.05 3018.1 1869.8 3018.71 1867.8 3019.95 1866.03 3021.18 1864.26 3022.93 1862.88 3025.21 1861.88 3027.49 1860.87 3030.02 1860.37 3032.79 1860.37Z" fill-rule="evenodd"/><text fill="#000000" fill-opacity="0" font-family="Arial,Arial_MSFontService,sans-serif" font-size="45.7026" x="3017.64" y="1900.36">8</text><path d="M2401.21 1993.75C2397.35 1993.75 2394.39 1995.31 2392.34 1998.42 2390.29 2001.53 2389.26 2005.92 2389.26 2011.58 2389.26 2017.33 2390.09 2021.7 2391.76 2024.7 2393.42 2027.69 2395.91 2029.19 2399.24 2029.19 2400.49 2029.19 2401.56 2029.08 2402.45 2028.85 2403.33 2028.63 2404.2 2028.26 2405.05 2027.75 2405.91 2027.24 2406.78 2026.56 2407.66 2025.69 2408.54 2024.82 2409.18 2024.03 2409.57 2023.33 2409.96 2022.63 2410.26 2021.81 2410.47 2020.88 2410.68 2019.95 2410.78 2018.75 2410.78 2017.29L2410.78 2007.09C2410.78 2004.3 2410.6 2002.15 2410.24 2000.62 2409.88 1999.09 2409.27 1997.8 2408.4 1996.74 2407.53 1995.67 2406.51 1994.91 2405.35 1994.44 2404.18 1993.98 2402.8 1993.75 2401.21 1993.75ZM2401.3 1990.15C2403.43 1990.15 2405.35 1990.37 2407.05 1990.81 2408.76 1991.24 2410.51 1991.94 2412.31 1992.89L2415.45 1990.15 2418.51 1990.87 2418.51 2041.99C2418.51 2043.76 2418.58 2045.16 2418.71 2046.19 2418.84 2047.23 2419.08 2048.04 2419.43 2048.64 2419.77 2049.24 2420.28 2049.71 2420.96 2050.04 2421.63 2050.36 2422.51 2050.68 2423.58 2050.98L2423.58 2053.18 2405.26 2053.18 2405.26 2050.98C2406.69 2050.68 2407.73 2050.35 2408.38 2049.99 2409.02 2049.63 2409.52 2049.17 2409.86 2048.62 2410.2 2048.07 2410.44 2047.32 2410.58 2046.37 2410.71 2045.43 2410.78 2043.97 2410.78 2041.99L2410.78 2026.5C2409.16 2028.32 2407.66 2029.78 2406.27 2030.88 2404.87 2031.97 2403.32 2032.86 2401.62 2033.55 2399.91 2034.24 2398.1 2034.58 2396.18 2034.58 2391.24 2034.58 2387.44 2032.74 2384.79 2029.06 2382.14 2025.37 2380.82 2020.01 2380.82 2012.97 2380.82 2008 2381.68 2003.8 2383.4 2000.37 2385.12 1996.95 2387.53 1994.38 2390.61 1992.69 2393.7 1991 2397.26 1990.15 2401.3 1990.15Z" fill-rule="evenodd"/><text fill="#000000" fill-opacity="0" font-family="Arial,Arial_MSFontService,sans-serif" font-size="63.0253" x="2380.82" y="2045.3">q</text><path d="M2439.58 2020.99 2441.58 2020.99 2441.58 2044.38C2441.58 2046.26 2441.67 2047.56 2441.84 2048.29 2442.01 2049.02 2442.35 2049.58 2442.84 2049.96 2443.33 2050.34 2444.13 2050.68 2445.24 2050.96L2445.24 2052.56 2432.42 2052.56 2432.42 2050.96C2433.27 2050.7 2433.87 2050.47 2434.23 2050.27 2434.59 2050.08 2434.9 2049.8 2435.15 2049.46 2435.4 2049.11 2435.6 2048.57 2435.74 2047.85 2435.88 2047.13 2435.95 2046.01 2435.95 2044.48L2435.95 2030.22C2435.95 2028.82 2435.93 2027.7 2435.89 2026.85 2435.84 2026 2435.69 2025.32 2435.43 2024.8 2435.17 2024.29 2434.77 2023.91 2434.23 2023.66 2433.7 2023.41 2432.94 2023.2 2431.96 2023.02L2431.96 2021.29ZM2435.75 2008.46 2441.77 2008.46 2441.77 2014.81 2435.75 2014.81Z" fill-rule="evenodd"/><text fill="#000000" fill-opacity="0" font-family="Arial,Arial_MSFontService,sans-serif" font-size="44.0996" x="2431.96" y="2047.05">i</text><path d="M2483.54 2013.92 2538.88 2013.92 2538.88 2019.89 2483.54 2019.89ZM2483.54 1995.28 2538.88 1995.28 2538.88 2001.25 2483.54 2001.25Z" fill-rule="evenodd"/><text fill="#000000" fill-opacity="0" font-family="Arial,Arial_MSFontService,sans-serif" font-size="24.6172" x="2483.54" y="2016.82">=</text><path d="M2600.61 2013.38C2594.53 2013.44 2589.98 2014.25 2586.96 2015.8 2583.93 2017.36 2582.42 2019.71 2582.42 2022.86 2582.42 2024.56 2582.76 2025.91 2583.45 2026.9 2584.14 2027.89 2585.01 2028.57 2586.06 2028.94 2587.1 2029.32 2588.35 2029.51 2589.79 2029.51 2591.82 2029.51 2593.67 2029.01 2595.33 2028.02 2597 2027.04 2598.29 2025.78 2599.22 2024.25 2600.15 2022.72 2600.61 2021.21 2600.61 2019.71ZM2595.76 1990.15C2598.72 1990.15 2601.11 1990.63 2602.9 1991.57 2604.7 1992.51 2606.05 1993.96 2606.95 1995.9 2607.84 1997.85 2608.29 2000.79 2608.29 2004.71L2608.29 2020.34C2608.29 2022.56 2608.31 2024.12 2608.34 2025.04 2608.37 2025.95 2608.46 2026.8 2608.61 2027.57 2608.76 2028.35 2608.98 2028.97 2609.28 2029.44 2609.58 2029.9 2610.02 2030.3 2610.61 2030.63 2611.19 2030.96 2612.14 2031.3 2613.46 2031.66L2613.46 2033.86 2601.15 2033.86 2601.38 2027.44 2600.7 2027.26C2598.1 2029.93 2595.65 2031.81 2593.36 2032.92 2591.07 2034.03 2588.63 2034.58 2586.06 2034.58 2583.78 2034.58 2581.77 2034.14 2580.04 2033.26 2578.3 2032.37 2576.97 2031.13 2576.04 2029.53 2575.11 2027.93 2574.65 2026.08 2574.65 2023.98 2574.65 2019.61 2576.81 2016.23 2581.14 2013.85 2585.47 2011.47 2591.96 2010.08 2600.61 2009.7L2600.61 2006.78C2600.61 2003.66 2600.31 2001.21 2599.71 1999.41 2599.11 1997.61 2598.17 1996.29 2596.88 1995.46 2595.59 1994.62 2593.87 1994.2 2591.72 1994.2 2589.38 1994.2 2587.5 1994.81 2586.08 1996.04 2584.66 1997.27 2583.59 1999.11 2582.87 2001.56L2576.98 2001.56 2576.98 1995.72C2579.86 1994.23 2582.25 1993.13 2584.17 1992.42 2586.09 1991.72 2588 1991.17 2589.92 1990.76 2591.84 1990.36 2593.78 1990.15 2595.76 1990.15Z" fill-rule="evenodd"/><text fill="#000000" fill-opacity="0" font-family="Arial,Arial_MSFontService,sans-serif" font-size="44.4277" x="2574.65" y="2029.03">a</text><path d="M2616.59 1990.92 2634.92 1990.92 2634.92 1993.12C2633.54 1993.45 2632.57 1993.76 2632 1994.06 2631.43 1994.36 2631.01 1994.75 2630.72 1995.23 2630.44 1995.71 2630.29 1996.35 2630.29 1997.16 2630.29 1997.97 2630.39 1998.82 2630.59 1999.7 2630.78 2000.58 2631.09 2001.61 2631.51 2002.78L2639.32 2025.51 2648.49 2003.72C2649.09 2002.28 2649.51 2001.1 2649.75 2000.17 2649.99 1999.24 2650.11 1998.38 2650.11 1997.57 2650.11 1996.31 2649.77 1995.35 2649.09 1994.69 2648.42 1994.03 2647.19 1993.51 2645.39 1993.12L2645.39 1990.92 2662.19 1990.92 2662.19 1993.12C2661.02 1993.36 2660.12 1993.73 2659.49 1994.22 2658.87 1994.71 2658.24 1995.49 2657.61 1996.56 2656.98 1997.62 2656.23 1999.11 2655.36 2001.03L2640.22 2034.31 2634.92 2034.31 2622.75 2000.76C2621.91 1998.45 2621.24 1996.87 2620.75 1996.02 2620.25 1995.16 2619.72 1994.53 2619.13 1994.11 2618.55 1993.69 2617.7 1993.36 2616.59 1993.12Z" fill-rule="evenodd"/><text fill="#000000" fill-opacity="0" font-family="Arial,Arial_MSFontService,sans-serif" font-size="43.3945" x="2616.59" y="2028.89">v</text><path d="M2619.22 1975.33 2658.8 1975.33 2658.8 1980.09 2619.22 1980.09Z" fill-rule="evenodd"/><text fill="#000000" fill-opacity="0" font-family="Arial,Arial_MSFontService,sans-serif" font-size="4.76172" x="2619.22" y="1979.5">ത</text><path d="M2672.48 2020.99 2674.48 2020.99 2674.48 2044.38C2674.48 2046.26 2674.57 2047.56 2674.74 2048.29 2674.92 2049.02 2675.25 2049.58 2675.74 2049.96 2676.23 2050.34 2677.03 2050.68 2678.14 2050.96L2678.14 2052.56 2665.32 2052.56 2665.32 2050.96C2666.17 2050.7 2666.78 2050.47 2667.14 2050.27 2667.5 2050.08 2667.8 2049.8 2668.05 2049.46 2668.3 2049.11 2668.5 2048.57 2668.64 2047.85 2668.78 2047.13 2668.85 2046.01 2668.85 2044.48L2668.85 2030.22C2668.85 2028.82 2668.83 2027.7 2668.79 2026.85 2668.74 2026 2668.59 2025.32 2668.33 2024.8 2668.07 2024.29 2667.67 2023.91 2667.14 2023.66 2666.6 2023.41 2665.84 2023.2 2664.86 2023.02L2664.86 2021.29ZM2668.66 2008.46 2674.68 2008.46 2674.68 2014.81 2668.66 2014.81Z" fill-rule="evenodd"/><text fill="#000000" fill-opacity="0" font-family="Arial,Arial_MSFontService,sans-serif" font-size="44.0996" x="2664.86" y="2047.05">i</text><path d="M2716.44 2013.92 2771.78 2013.92 2771.78 2019.89 2716.44 2019.89ZM2716.44 1995.28 2771.78 1995.28 2771.78 2001.25 2716.44 2001.25Z" fill-rule="evenodd"/><text fill="#000000" fill-opacity="0" font-family="Arial,Arial_MSFontService,sans-serif" font-size="24.6172" x="2716.44" y="2016.82">=</text><path d="M2988.15 1964.99C2996.89 1967.29 3003.61 1972.27 3008.29 1979.92 3012.98 1987.57 3015.32 1996.81 3015.32 2007.62 3015.32 2018.46 3012.99 2027.69 3008.32 2035.31 3003.64 2042.93 2996.92 2047.9 2988.15 2050.2L2987.07 2046.74C2993.99 2044.44 2999.13 2039.89 3002.5 2033.09 3005.87 2026.29 3007.55 2017.65 3007.55 2007.17 3007.55 1997.05 3005.87 1988.64 3002.52 1981.94 2999.17 1975.25 2993.97 1970.75 2986.93 1968.45ZM2839.22 1964.99 2840.43 1968.45C2833.42 1970.75 2828.24 1975.25 2824.87 1981.94 2821.5 1988.64 2819.81 1997.05 2819.81 2007.17 2819.81 2017.65 2821.5 2026.29 2824.87 2033.09 2828.24 2039.89 2833.38 2044.44 2840.3 2046.74L2839.22 2050.2C2830.44 2047.9 2823.72 2042.93 2819.05 2035.31 2814.38 2027.69 2812.04 2018.46 2812.04 2007.62 2812.04 1996.81 2814.38 1987.57 2819.07 1979.92 2823.76 1972.27 2830.47 1967.29 2839.22 1964.99Z" fill-rule="evenodd"/><path d="M2869.04 1995.59C2867.33 1995.59 2865.88 1995.85 2864.68 1996.38 2863.48 1996.9 2862.29 1997.72 2861.11 1998.82 2859.93 1999.93 2859.06 2001.03 2858.51 2002.1 2857.95 2003.18 2857.67 2004.41 2857.67 2005.79L2857.67 2017.69C2857.67 2020 2857.78 2021.83 2857.99 2023.19 2858.2 2024.56 2858.55 2025.69 2859.04 2026.59 2859.54 2027.48 2860.26 2028.31 2861.2 2029.06 2862.14 2029.81 2863.2 2030.32 2864.37 2030.61 2865.54 2030.89 2866.84 2031.03 2868.28 2031.03 2871.87 2031.03 2874.59 2029.57 2876.45 2026.63 2878.31 2023.7 2879.24 2019.29 2879.24 2013.42 2879.24 2007.49 2878.39 2003.04 2876.7 2000.06 2875.01 1997.08 2872.45 1995.59 2869.04 1995.59ZM2892.89 1990.92 2911.18 1990.92 2911.18 1993.12C2909.77 1993.45 2908.78 1993.77 2908.21 1994.09 2907.64 1994.4 2907.22 1994.8 2906.96 1995.3 2906.69 1995.79 2906.55 1996.43 2906.55 1997.21 2906.55 1998.02 2906.65 1998.85 2906.84 1999.72 2907.04 2000.59 2907.34 2001.61 2907.76 2002.78L2915.76 2025.28 2924.74 2003.72C2925.25 2002.52 2925.65 2001.42 2925.93 2000.42 2926.22 1999.42 2926.36 1998.48 2926.36 1997.61 2926.36 1996.32 2926.01 1995.35 2925.31 1994.69 2924.6 1994.03 2923.38 1993.51 2921.64 1993.12L2921.64 1990.92 2938.45 1990.92 2938.45 1993.12C2937.28 1993.36 2936.38 1993.73 2935.75 1994.22 2935.12 1994.71 2934.49 1995.49 2933.86 1996.56 2933.23 1997.62 2932.49 1999.11 2931.62 2001.03L2915.36 2037.55C2913.71 2041.26 2912.11 2044.27 2910.55 2046.58 2908.99 2048.88 2907.28 2050.62 2905.41 2051.79 2903.53 2052.96 2901.31 2053.54 2898.73 2053.54 2897.09 2053.54 2895.23 2053.34 2893.16 2052.96L2893.16 2044.06 2897.16 2044.06C2897.52 2045.29 2897.97 2046.14 2898.51 2046.62 2899.05 2047.1 2899.83 2047.34 2900.85 2047.34 2901.74 2047.34 2902.55 2047.17 2903.25 2046.82 2903.95 2046.48 2904.69 2045.89 2905.45 2045.05 2906.21 2044.21 2907.11 2042.92 2908.15 2041.19 2909.18 2039.45 2910.34 2037.25 2911.63 2034.58L2899.05 2000.76C2898.24 1998.57 2897.59 1997.04 2897.09 1996.17 2896.6 1995.31 2896.07 1994.65 2895.5 1994.2 2894.93 1993.75 2894.06 1993.39 2892.89 1993.12ZM2855.02 1969.58 2857.67 1969.58 2857.67 1997.97 2857.85 1998.02C2859.95 1995.83 2861.69 1994.24 2863.09 1993.25 2864.48 1992.27 2865.92 1991.51 2867.4 1990.99 2868.88 1990.46 2870.51 1990.2 2872.27 1990.2 2875.48 1990.2 2878.23 1991.02 2880.52 1992.65 2882.81 1994.28 2884.57 1996.73 2885.82 1999.99 2887.06 2003.26 2887.68 2007.25 2887.68 2011.99 2887.68 2016.87 2886.94 2020.99 2885.46 2024.36 2883.98 2027.73 2881.79 2030.28 2878.9 2032 2876.01 2033.72 2872.59 2034.58 2868.64 2034.58 2866.42 2034.58 2864.33 2034.38 2862.37 2033.98 2860.41 2033.57 2858.35 2032.86 2856.19 2031.84L2853.05 2034.58 2849.95 2033.86 2849.95 1985.03C2849.95 1982.16 2849.93 1980.15 2849.88 1979.01 2849.84 1977.88 2849.72 1976.91 2849.52 1976.12 2849.33 1975.32 2849.06 1974.7 2848.71 1974.25 2848.37 1973.8 2847.9 1973.44 2847.32 1973.17 2846.74 1972.9 2845.68 1972.63 2844.15 1972.37L2844.15 1970.03Z" fill-rule="evenodd"/><text fill="#000000" fill-opacity="0" font-family="Arial,Arial_MSFontService,sans-serif" font-size="83.9589" x="2844.15" y="2043.04">by</text><path d="M2939.67 1990.92 2958 1990.92 2958 1993.12C2956.62 1993.45 2955.65 1993.76 2955.08 1994.06 2954.51 1994.36 2954.09 1994.75 2953.8 1995.23 2953.52 1995.71 2953.37 1996.35 2953.37 1997.16 2953.37 1997.97 2953.47 1998.82 2953.67 1999.7 2953.86 2000.58 2954.17 2001.61 2954.59 2002.78L2962.4 2025.51 2971.57 2003.72C2972.17 2002.28 2972.59 2001.1 2972.83 2000.17 2973.06 1999.24 2973.18 1998.38 2973.18 1997.57 2973.18 1996.31 2972.85 1995.35 2972.17 1994.69 2971.5 1994.03 2970.26 1993.51 2968.47 1993.12L2968.47 1990.92 2985.27 1990.92 2985.27 1993.12C2984.1 1993.36 2983.2 1993.73 2982.57 1994.22 2981.94 1994.71 2981.32 1995.49 2980.69 1996.56 2980.06 1997.62 2979.31 1999.11 2978.44 2001.03L2963.3 2034.31 2958 2034.31 2945.83 2000.76C2944.99 1998.45 2944.32 1996.87 2943.83 1996.02 2943.33 1995.16 2942.79 1994.53 2942.21 1994.11 2941.63 1993.69 2940.78 1993.36 2939.67 1993.12Z" fill-rule="evenodd"/><text fill="#000000" fill-opacity="0" font-family="Arial,Arial_MSFontService,sans-serif" font-size="43.3945" x="2939.67" y="2028.89">v</text><path d="M2942.3 1975.33 2981.88 1975.33 2981.88 1980.09 2942.3 1980.09Z" fill-rule="evenodd"/><text fill="#000000" fill-opacity="0" font-family="Arial,Arial_MSFontService,sans-serif" font-size="4.76172" x="2942.3" y="1979.5">ത</text><path d="M3035.24 2019.49 3037.6 2019.49 3037.6 2044.22C3037.6 2045.55 3037.63 2046.57 3037.69 2047.26 3037.76 2047.96 3037.93 2048.5 3038.2 2048.88 3038.47 2049.26 3038.88 2049.55 3039.41 2049.73 3039.95 2049.92 3040.68 2050.16 3041.62 2050.47L3041.62 2052.56 3027.26 2052.56 3027.26 2050.47C3028.13 2050.16 3028.82 2049.92 3029.34 2049.75 3029.85 2049.58 3030.24 2049.31 3030.5 2048.95 3030.76 2048.59 3030.93 2048.06 3031 2047.36 3031.08 2046.66 3031.12 2045.65 3031.12 2044.32L3031.12 2028.91C3031.12 2028.15 3031.1 2027.5 3031.07 2026.96 3031.04 2026.43 3031 2025.98 3030.96 2025.61 3030.91 2025.08 3030.84 2024.64 3030.73 2024.28 3030.62 2023.92 3030.42 2023.61 3030.12 2023.33 3029.83 2023.06 3029.41 2022.83 3028.88 2022.63 3028.34 2022.43 3027.64 2022.25 3026.77 2022.07L3026.77 2019.85ZM3030.89 2006.3 3037.79 2006.3 3037.79 2013.34 3030.89 2013.34Z" fill-rule="evenodd"/><text fill="#000000" fill-opacity="0" font-family="Arial,Arial_MSFontService,sans-serif" font-size="46.2588" x="3026.77" y="2046.78">i</text></g></svg>