<svg width="4033" height="1297" xmlns="http://www.w3.org/2000/svg" xmlns:xlink="http://www.w3.org/1999/xlink" xml:space="preserve" overflow="hidden"><g transform="translate(-135 -641)"><path d="M246 835 286.821 852C294.78 855.349 303.448 857.412 310.633 862.2L331.043 875.8C337.847 884.866 344.54 894.017 351.453 903 355.88 908.752 360.525 914.333 365.061 920L392.274 954C397.859 960.87 404.726 966.81 409.283 974.4 426.914 1003.77 414.813 986.727 450.104 1022 459.175 1031.07 469.62 1038.94 477.318 1049.2 480.719 1053.73 483.167 1059.17 487.523 1062.8 490.825 1065.55 514.187 1069.49 514.737 1069.6 526.076 1063.93 536.455 1055.67 548.754 1052.6 555.445 1050.93 563.514 1052.05 569.164 1056 575.863 1060.69 575.223 1073.26 582.771 1076.4L623.592 1093.4C630.396 1101.33 638.203 1108.51 644.003 1117.2 649.628 1125.63 652.125 1135.87 657.609 1144.4 662.398 1151.85 669.409 1157.64 674.618 1164.8 678.507 1170.14 680.856 1176.51 684.823 1181.8 687.709 1185.65 691.408 1188.83 695.028 1192 709.56 1204.71 725.597 1215.75 739.251 1229.4 746.054 1236.2 753.295 1242.59 759.661 1249.8 770.324 1261.88 779.254 1275.45 790.277 1287.2 796.334 1293.66 804.425 1297.94 810.687 1304.2 814.696 1308.21 817.263 1313.45 820.892 1317.8 834.277 1333.85 850.115 1348.01 861.713 1365.4 868.517 1375.6 875.668 1385.58 882.123 1396 890.415 1409.39 897.198 1423.7 905.936 1436.8 908.604 1440.8 912.945 1443.41 916.141 1447 922.025 1453.62 928.237 1460.03 933.149 1467.4 937.369 1473.73 939.271 1481.39 943.354 1487.8 947.252 1493.92 951.674 1499.83 956.962 1504.8 992.51 1538.24 989.324 1535.09 1018.19 1552.4 1034.07 1549 1050.49 1547.56 1065.82 1542.2 1073.53 1539.5 1079.03 1532.47 1086.23 1528.6 1132.12 1503.9 1088.07 1534.22 1133.85 1504.8 1142.06 1499.53 1149.36 1492.91 1157.66 1487.8 1173.32 1478.17 1191.19 1472.4 1208.69 1467.4 1230.11 1461.28 1251.27 1453.55 1273.32 1450.4L1320.95 1443.6C1421.09 1459 1380.82 1448.63 1443.41 1467.4 1449.08 1470.8 1454.81 1474.1 1460.42 1477.6 1501.38 1503.19 1446.24 1485.21 1572.67 1481 1597.84 1476.81 1646.35 1469.84 1667.92 1460.6L1691.73 1450.4C1694 1445.87 1695.24 1440.65 1698.54 1436.8 1711.33 1421.89 1732.13 1421.15 1749.56 1416.4 1773.38 1418.67 1797.29 1420.08 1821 1423.2 1840.41 1425.75 1878.83 1433.4 1878.83 1433.4 1890.17 1432.27 1901.62 1431.95 1912.85 1430 1927.75 1427.41 1941.96 1419.01 1957.07 1419.8 1965.24 1420.23 1970.68 1428.87 1977.48 1433.4 1983.15 1441.33 1989.21 1449 1994.49 1457.2 1999.43 1464.89 2002.02 1474.17 2008.1 1481 2011.46 1484.79 2017.17 1485.53 2021.7 1487.8 2029.64 1486.67 2037.74 1482.46 2045.51 1484.4 2048.99 1485.27 2047.31 1491.39 2048.92 1494.6 2054.14 1505.04 2060.7 1514.76 2065.93 1525.2 2070.92 1535.18 2074.75 1545.71 2079.53 1555.8 2084.96 1567.25 2090.38 1578.72 2096.54 1589.8 2103.71 1602.69 2121.02 1628.88 2130.56 1640.8 2138.09 1650.21 2147.05 1658.43 2154.37 1668 2159.13 1674.22 2179.25 1710.23 2191.79 1715.6 2201.23 1719.64 2212.2 1717.87 2222.41 1719 2237.15 1713.33 2252.01 1707.98 2266.63 1702 2276.96 1697.77 2286.18 1689.89 2297.24 1688.4 2328.73 1684.15 2360.74 1686.13 2392.49 1685 2461.08 1703.04 2438.59 1689.65 2467.33 1708.8 2484.4 1734.39 2462.25 1699.03 2484.34 1753 2490.18 1767.28 2508.41 1801.45 2518.36 1817.6 2522.64 1824.56 2527.82 1830.96 2531.96 1838 2536.52 1845.74 2571.76 1914.24 2579.59 1916.2L2606.8 1923C2629.48 1917.33 2652.75 1913.64 2674.84 1906 2682.56 1903.33 2688.23 1896.6 2695.25 1892.4 2699.59 1889.79 2704.17 1887.55 2708.85 1885.6 2737.93 1873.49 2735.17 1875.6 2766.68 1868.6 2775.75 1861.8 2784.46 1854.49 2793.9 1848.2 2821.01 1830.14 2827.47 1831.65 2848.32 1810.8 2853.58 1805.55 2879.47 1773.51 2889.14 1766.6 2898.64 1759.82 2909.55 1755.27 2919.76 1749.6 2926.56 1740.53 2931.7 1729.93 2940.17 1722.4 2952.39 1711.54 2967.91 1705.01 2980.99 1695.2 2990.63 1687.97 2999.13 1679.33 3008.2 1671.4 3021.7 1639.94 3018.42 1652.1 3025.21 1613.6 3027.87 1598.56 3027.49 1589.77 3032.02 1576.2 3033.95 1570.41 3035.01 1563.97 3038.82 1559.2 3054.76 1539.28 3067.59 1540.46 3089.85 1528.6 3097.06 1524.75 3102.6 1517.87 3110.26 1515 3121.08 1510.94 3133.09 1511.14 3144.27 1508.2 3203.26 1492.69 3146.42 1501.16 3205.5 1494.6 3213.44 1492.33 3221.28 1489.69 3229.32 1487.8 3240.57 1485.15 3252.03 1483.42 3263.33 1481 3267.91 1480.02 3272.41 1478.73 3276.94 1477.6 3306.08 1460.12 3282.9 1475.9 3310.96 1450.4 3327.81 1435.09 3371.29 1402.47 3382.4 1396 3409.61 1380.13 3437.82 1365.87 3464.04 1348.4 3474.24 1341.6 3484 1334.08 3494.65 1328 3499.95 1324.97 3506.2 1323.93 3511.66 1321.2 3517.57 1318.24 3522.76 1313.96 3528.67 1311 3538.66 1306.01 3549.19 1302.18 3559.29 1297.4 3574.62 1290.14 3605.29 1272.06 3623.92 1270.2 3670.23 1265.57 3716.9 1265.67 3763.39 1263.4 3791.79 1249.2 3761.95 1265.91 3790.6 1243 3796.99 1237.89 3804.36 1234.15 3811.01 1229.4 3820.24 1222.81 3829.16 1215.8 3838.23 1209 3850.91 1187.88 3860.39 1167.77 3879.05 1151.2 3941.19 1095.99 3902.14 1147.19 3940.28 1090 3943.68 1078.67 3948.81 1067.71 3950.48 1056 3956.77 1012.01 3953.53 966.561 3964.09 923.4 3966.57 913.25 3979.15 908.718 3987.9 903 4008.74 889.383 4030.27 876.727 4052.54 865.6 4057.07 863.333 4061.48 860.796 4066.14 858.8 4069.44 857.388 4072.95 856.533 4076.35 855.4 4087.5 847.971 4094 844.67 4094 837.184" stroke="#7F7F7F" stroke-width="27.5" stroke-miterlimit="8" fill="#EBEBEB" fill-rule="evenodd"/><rect x="2771" y="837" width="244" height="907" stroke="#000000" stroke-width="2.29167" stroke-miterlimit="8" stroke-dasharray="18.3333 6.875" fill="#BFBFBF"/><path d="M0 0 3813.28 0.665125" stroke="#595959" stroke-width="6.875" stroke-miterlimit="8" fill="none" fill-rule="evenodd" transform="matrix(1 0 0 -1 281.5 838.165)"/><path d="M0 82.9998 40 0 80.0001 82.9998Z" stroke="#595959" stroke-width="4.58333" stroke-miterlimit="8" fill="none" fill-rule="evenodd" transform="matrix(1 0 0 -1 1553.5 829.5)"/><path d="M4093 839C4093.77 834.183 4096.04 828.312 4097.34 825.452 4098.64 822.591 4099.77 823.291 4100.81 821.839 4107.54 812.369 4109.21 809.604 4113.53 798.355 4115.99 791.934 4118.83 784.054 4120.46 778.484 4122.1 772.914 4122.3 768.323 4123.36 764.935 4124.42 761.548 4125.52 760.269 4126.82 758.161 4128.13 756.054 4128.94 755.226 4131.16 752.29 4133.38 749.355 4137.86 744.011 4140.12 740.548 4142.39 737.086 4143.12 734.418 4144.75 731.516 4145.83 729.593 4147.06 727.903 4148.22 726.097L4152.84 704.419 4154 699" stroke="#7F7F7F" stroke-width="27.5" stroke-miterlimit="8" fill="#F2F2F2" fill-rule="evenodd"/><path d="M248 836C246.461 835.686 244.788 835.774 243.384 835.059 242.168 834.439 240.526 833.537 239.23 833.177 238.328 832.926 237.371 832.93 236.461 832.707 233.522 831.988 227.692 830.355 227.692 830.355 226.615 829.571 225.578 828.727 224.461 828.002 223.88 827.626 223.175 827.469 222.615 827.062 222.084 826.675 221.814 825.948 221.23 825.65 220.228 825.14 219.068 825.05 217.999 824.709 214.235 823.51 214.533 823.578 211.538 822.357 210.922 821.416 210.075 820.596 209.691 819.534 208.982 817.571 208.804 815.448 208.307 813.419 207.881 811.684 207.384 809.969 206.922 808.244 206.308 795.093 207.691 802.047 205.538 796.012 205.205 795.08 205.08 794.06 204.614 793.19 203.866 791.791 200.297 788.199 199.537 787.544 198.69 786.814 197.644 786.357 196.768 785.662 195.383 784.565 193.946 783.533 192.614 782.369 190.62 780.627 188.631 778.173 187.537 775.783 186.46 773.431 185.147 771.177 184.306 768.727 182.987 764.884 181.076 756.966 181.076 756.966 181.908 754.704 184.381 748.287 184.306 746.616 184.092 741.823 182.523 737.194 181.537 732.502 181.189 730.846 179.496 724.007 178.768 722.153 176.757 717.03 170.263 707.355 168.614 704.746 166.844 701.947 158.945 690.212 157.537 687.34L153.383 678.872C152.767 675.736 152.278 672.571 151.537 669.463 150.892 666.763 149.49 664.232 149.229 661.465 148.713 656.002 149.229 650.488 149.229 645" stroke="#7F7F7F" stroke-width="27.5" stroke-miterlimit="8" fill="none" fill-rule="evenodd"/><rect x="328" y="837" width="245" height="190" stroke="#000000" stroke-width="2.29167" stroke-miterlimit="8" stroke-dasharray="18.3333 6.875" fill="none"/><rect x="573" y="837" width="244" height="342" stroke="#000000" stroke-width="2.29167" stroke-miterlimit="8" stroke-dasharray="18.3333 6.875" fill="none"/><rect x="817" y="837" width="244" height="648" stroke="#000000" stroke-width="2.29167" stroke-miterlimit="8" stroke-dasharray="18.3333 6.875" fill="none"/><rect x="1062" y="837" width="244" height="623" stroke="#000000" stroke-width="2.29167" stroke-miterlimit="8" stroke-dasharray="18.3333 6.875" fill="none"/><rect x="1306" y="837" width="244" height="612" stroke="#000000" stroke-width="2.29167" stroke-miterlimit="8" stroke-dasharray="18.3333 6.875" fill="none"/><rect x="1550" y="837" width="244" height="615" stroke="#000000" stroke-width="2.29167" stroke-miterlimit="8" stroke-dasharray="18.3333 6.875" fill="none"/><rect x="1795" y="837" width="244" height="584" stroke="#000000" stroke-width="2.29167" stroke-miterlimit="8" stroke-dasharray="18.3333 6.875" fill="none"/><rect x="2038" y="837" width="245" height="822" stroke="#000000" stroke-width="2.29167" stroke-miterlimit="8" stroke-dasharray="18.3333 6.875" fill="none"/><rect x="2283" y="837" width="244" height="841" stroke="#000000" stroke-width="2.29167" stroke-miterlimit="8" stroke-dasharray="18.3333 6.875" fill="none"/><rect x="2526" y="837" width="245" height="1066" stroke="#000000" stroke-width="2.29167" stroke-miterlimit="8" stroke-dasharray="18.3333 6.875" fill="none"/><rect x="3015" y="837" width="244" height="669" stroke="#000000" stroke-width="2.29167" stroke-miterlimit="8" stroke-dasharray="18.3333 6.875" fill="none"/><rect x="3259" y="836" width="244" height="549" stroke="#000000" stroke-width="2.29167" stroke-miterlimit="8" stroke-dasharray="18.3333 6.875" fill="none"/><rect x="3503" y="835" width="245" height="425" stroke="#000000" stroke-width="2.29167" stroke-miterlimit="8" stroke-dasharray="18.3333 6.875" fill="none"/><rect x="3747" y="837" width="245" height="313" stroke="#000000" stroke-width="2.29167" stroke-miterlimit="8" stroke-dasharray="18.3333 6.875" fill="none"/><text font-family="Segoe UI Light,Segoe UI Light_MSFontService,sans-serif" font-weight="300" font-size="83" transform="matrix(1 0 0 1 1406.92 1709)">Subsección</text><path d="M0.490319-1.03563 186.455 87.0097 185.475 89.0809-0.490319 1.03563ZM185.745 77.799 206.677 97.8516 177.9 94.369Z" transform="matrix(-1 0 0 1 2037.68 1581)"/><text font-family="Segoe UI Light,Segoe UI Light_MSFontService,sans-serif" font-weight="300" font-size="83" transform="matrix(1 0 0 1 3178.6 1663)">Punto de medición</text><path d="M2867.5 1036C2867.5 1022.47 2878.69 1011.5 2892.5 1011.5 2906.31 1011.5 2917.5 1022.47 2917.5 1036 2917.5 1049.53 2906.31 1060.5 2892.5 1060.5 2878.69 1060.5 2867.5 1049.53 2867.5 1036Z" stroke="#172C51" stroke-width="4.58333" stroke-miterlimit="8" fill="#FFFFFF" fill-rule="evenodd"/><path d="M2847.79 840.5 2847.79 1009.88 2843.21 1009.88 2843.21 840.5ZM2859.25 1005.29 2845.5 1032.79 2831.75 1005.29Z" fill="#FFFFFF"/><path d="M2806.79 837.5 2806.79 1540.58 2802.21 1540.58 2802.21 837.5ZM2818.25 1536 2804.5 1563.5 2790.75 1536Z" fill="#FFFFFF"/><text font-family="Segoe UI Light,Segoe UI Light_MSFontService,sans-serif" font-weight="300" font-size="73" transform="matrix(1 0 0 1 2866.72 949)">0.2y</text><path d="M2867.5 1563C2867.5 1549.47 2878.69 1538.5 2892.5 1538.5 2906.31 1538.5 2917.5 1549.47 2917.5 1563 2917.5 1576.53 2906.31 1587.5 2892.5 1587.5 2878.69 1587.5 2867.5 1576.53 2867.5 1563Z" stroke="#172C51" stroke-width="4.58333" stroke-miterlimit="8" fill="#FFFFFF" fill-rule="evenodd"/><path d="M0 0 99 0.000360892" stroke="#FFFFFF" stroke-width="2.29167" stroke-linecap="square" stroke-miterlimit="8" stroke-dasharray="6.875 2.29167" fill="none" fill-rule="evenodd" transform="matrix(1 0 0 -1 2793 1563)"/><path d="M2888.31 1558.9 3124.1 1625.73 3123.47 1627.94 2887.69 1561.1ZM3121.87 1616.76 3145.83 1633.08 3116.87 1634.4Z"/><text font-family="Segoe UI Light,Segoe UI Light_MSFontService,sans-serif" font-weight="300" font-size="73" transform="matrix(1 0 0 1 2829.89 1236)">0.8y</text><path d="M2834 1035 2904.03 1035" stroke="#FFFFFF" stroke-width="2.29167" stroke-linecap="square" stroke-miterlimit="8" stroke-dasharray="6.875 2.29167" fill="none" fill-rule="evenodd"/><path d="M1188.79 863.417 1188.79 1440.02 1184.21 1440.02 1184.21 863.417ZM1172.75 868 1186.5 840.5 1200.25 868ZM1200.25 1435.44 1186.5 1462.94 1172.75 1435.44Z"/><text font-family="Segoe UI Light,Segoe UI Light_MSFontService,sans-serif" font-weight="300" font-size="83" transform="matrix(1 0 0 1 1208.01 1172)">y</text><text font-family="Segoe UI Light,Segoe UI Light_MSFontService,sans-serif" font-weight="300" font-size="55" transform="matrix(1 0 0 1 1245.25 1192)">i</text><path d="M1085.42 804.208 1282.95 804.209 1282.95 808.792 1085.42 808.792ZM1090 820.25 1062.5 806.5 1090 792.75ZM1278.36 792.75 1305.86 806.5 1278.36 820.25Z"/><text font-family="Segoe UI Light,Segoe UI Light_MSFontService,sans-serif" font-weight="300" font-size="83" transform="matrix(1 0 0 1 1166.1 776)">b</text><text font-family="Segoe UI Light,Segoe UI Light_MSFontService,sans-serif" font-weight="300" font-size="55" transform="matrix(1 0 0 1 1212.51 796)">i</text><path d="M0.588134-0.983378 253.199 150.097 252.023 152.064-0.588134 0.983378ZM253.383 140.861 272.279 162.843 243.972 156.595Z" transform="matrix(-1 0 0 1 1143.28 1418)"/><text font-family="Segoe UI Light,Segoe UI Light_MSFontService,sans-serif" font-weight="300" font-size="83" transform="matrix(1 0 0 1 463.159 1634)">Área</text><text font-family="Segoe UI Light,Segoe UI Light_MSFontService,sans-serif" font-weight="300" font-size="55" transform="matrix(1 0 0 1 623.645 1654)">subsección</text><text font-family="Segoe UI,Segoe UI_MSFontService,sans-serif" font-weight="400" font-size="83" transform="matrix(1 0 0 1 562.022 1733)">a=</text><text font-family="Segoe UI,Segoe UI_MSFontService,sans-serif" font-weight="400" font-size="83" transform="matrix(1 0 0 1 660.563 1733)">y</text><text font-family="Segoe UI,Segoe UI_MSFontService,sans-serif" font-weight="400" font-size="55" transform="matrix(1 0 0 1 700.668 1753)">i</text><text font-family="Segoe UI,Segoe UI_MSFontService,sans-serif" font-weight="400" font-size="83" transform="matrix(1 0 0 1 713.845 1733)">b</text><text font-family="Segoe UI,Segoe UI_MSFontService,sans-serif" font-weight="400" font-size="55" transform="matrix(1 0 0 1 762.543 1753)">i</text></g></svg>