<svg width="3278" height="1843" xmlns="http://www.w3.org/2000/svg" xmlns:xlink="http://www.w3.org/1999/xlink" xml:space="preserve" overflow="hidden"><defs><clipPath id="clip0"><rect x="561" y="260" width="3278" height="1843"/></clipPath></defs><g clip-path="url(#clip0)" transform="translate(-561 -260)"><g><path d="M858 1655.05 3701 1655.05M858 1456.05 3701 1456.05M858 1257.04 3701 1257.04M858 1058.03 3701 1058.03M858 859.028 3701 859.028M858 661.022 3701 661.022M858 462 3701 462" stroke="#F2F2F2" stroke-width="2.29167" stroke-linejoin="round" stroke-miterlimit="10" fill="none"/></g><g><path d="M1142.04 462 1142.04 1854M1426.05 462 1426.05 1854M1710.06 462 1710.06 1854M1995.07 462 1995.07 1854M2279.07 462 2279.07 1854M2563.08 462 2563.08 1854M2848.09 462 2848.09 1854M3132.1 462 3132.1 1854M3416.11 462 3416.11 1854M3701 462 3701 1854" stroke="#F2F2F2" stroke-width="2.29167" stroke-linejoin="round" stroke-miterlimit="10" fill="none"/></g><g><path d="M0 0 0.000360892 1393" stroke="#BFBFBF" stroke-width="3.4375" stroke-linejoin="round" stroke-miterlimit="10" fill="none" fill-rule="evenodd" transform="matrix(1 0 0 -1 857.5 1854.5)"/></g><g><path d="M857.5 1854.5 3700.5 1854.5" stroke="#BFBFBF" stroke-width="3.4375" stroke-linejoin="round" stroke-miterlimit="10" fill="none" fill-rule="evenodd"/></g><g><path d="M857.5 1157.5C952.267 1157.5 1023.34 1157.5 1141.8 1157.5 1260.26 1157.5 1378.72 1157.5 1568.25 1157.5 1757.78 1157.5 2042.08 1157.5 2279 1157.5 2515.92 1157.5 2752.83 1157.5 2989.75 1157.5 3226.67 1157.5 3463.58 1157.5 3700.5 1157.5" stroke="#5F5F5F" stroke-width="6.875" stroke-linecap="round" stroke-linejoin="round" stroke-miterlimit="10" fill="none"/></g><g><path d="M857.5 1655.5C952.267 1489.6 1023.34 1323.7 1141.8 1157.8 1260.26 991.894 1378.72 643.5 1568.25 660.09 1757.78 676.68 2042.08 1124.61 2279 1257.34 2515.92 1390.06 2752.83 1423.24 2989.75 1456.42 3226.67 1489.6 3463.58 1456.42 3700.5 1456.42" stroke="#B3B3B3" stroke-width="6.875" stroke-linecap="round" stroke-linejoin="round" stroke-miterlimit="10" fill="none"/></g><g><text fill="#595959" font-family="Segoe UI Light,Segoe UI Light_MSFontService,sans-serif" font-weight="300" font-size="55" transform="matrix(1 0 0 1 773.03 1872)">0</text></g><g><text fill="#595959" font-family="Segoe UI Light,Segoe UI Light_MSFontService,sans-serif" font-weight="300" font-size="55" transform="matrix(1 0 0 1 773.03 1673)">2</text></g><g><text fill="#595959" font-family="Segoe UI Light,Segoe UI Light_MSFontService,sans-serif" font-weight="300" font-size="55" transform="matrix(1 0 0 1 772.159 1474)">4</text></g><g><text fill="#595959" font-family="Segoe UI Light,Segoe UI Light_MSFontService,sans-serif" font-weight="300" font-size="55" transform="matrix(1 0 0 1 773.03 1275)">6</text></g><g><text fill="#595959" font-family="Segoe UI Light,Segoe UI Light_MSFontService,sans-serif" font-weight="300" font-size="55" transform="matrix(1 0 0 1 773.03 1076)">8</text></g><g><text fill="#595959" font-family="Segoe UI Light,Segoe UI Light_MSFontService,sans-serif" font-weight="300" font-size="55" transform="matrix(1 0 0 1 753.482 877)">10</text></g><g><text fill="#595959" font-family="Segoe UI Light,Segoe UI Light_MSFontService,sans-serif" font-weight="300" font-size="55" transform="matrix(1 0 0 1 753.482 679)">12</text></g><g><text fill="#595959" font-family="Segoe UI Light,Segoe UI Light_MSFontService,sans-serif" font-weight="300" font-size="55" transform="matrix(1 0 0 1 752.611 480)">14</text></g><g><text fill="#595959" font-family="Segoe UI Light,Segoe UI Light_MSFontService,sans-serif" font-weight="300" font-size="55" transform="matrix(1 0 0 1 843.373 1952)">0</text></g><g><text fill="#595959" font-family="Segoe UI Light,Segoe UI Light_MSFontService,sans-serif" font-weight="300" font-size="55" transform="matrix(1 0 0 1 1117.91 1952)">10</text></g><g><text fill="#595959" font-family="Segoe UI Light,Segoe UI Light_MSFontService,sans-serif" font-weight="300" font-size="55" transform="matrix(1 0 0 1 1397.87 1952)">20</text></g><g><text fill="#595959" font-family="Segoe UI Light,Segoe UI Light_MSFontService,sans-serif" font-weight="300" font-size="55" transform="matrix(1 0 0 1 1682.18 1952)">30</text></g><g><text fill="#595959" font-family="Segoe UI Light,Segoe UI Light_MSFontService,sans-serif" font-weight="300" font-size="55" transform="matrix(1 0 0 1 1966.05 1952)">40</text></g><g><text fill="#595959" font-family="Segoe UI Light,Segoe UI Light_MSFontService,sans-serif" font-weight="300" font-size="55" transform="matrix(1 0 0 1 2250.8 1952)">50</text></g><g><text fill="#595959" font-family="Segoe UI Light,Segoe UI Light_MSFontService,sans-serif" font-weight="300" font-size="55" transform="matrix(1 0 0 1 2535.11 1952)">60</text></g><g><text fill="#595959" font-family="Segoe UI Light,Segoe UI Light_MSFontService,sans-serif" font-weight="300" font-size="55" transform="matrix(1 0 0 1 2819.85 1952)">70</text></g><g><text fill="#595959" font-family="Segoe UI Light,Segoe UI Light_MSFontService,sans-serif" font-weight="300" font-size="55" transform="matrix(1 0 0 1 3103.73 1952)">80</text></g><g><text fill="#595959" font-family="Segoe UI Light,Segoe UI Light_MSFontService,sans-serif" font-weight="300" font-size="55" transform="matrix(1 0 0 1 3388.04 1952)">90</text></g><g><text fill="#595959" font-family="Segoe UI Light,Segoe UI Light_MSFontService,sans-serif" font-weight="300" font-size="55" transform="matrix(1 0 0 1 3662.58 1952)">100</text></g><g><text fill="#595959" font-family="Segoe UI Light,Segoe UI Light_MSFontService,sans-serif" font-weight="300" font-size="64" transform="matrix(6.12323e-17 -1 1 6.12323e-17 722.521 1291)">Caudal, Q</text></g><g><text fill="#595959" font-family="Segoe UI Light,Segoe UI Light_MSFontService,sans-serif" font-weight="300" font-size="64" transform="matrix(1 0 0 1 2152.11 2049)">Tiempo, t</text></g><g><text fill="#595959" font-family="Segoe UI Light,Segoe UI Light_MSFontService,sans-serif" font-weight="300" font-size="83" transform="matrix(1 0 0 1 1578.47 383)">Tipos de flujo en función del tiempo</text></g><g><rect x="2889.5" y="794.5" width="693" height="248" stroke="#D9D9D9" stroke-width="3.4375" stroke-linejoin="round" stroke-miterlimit="10" fill="#FFFFFF"/></g><g><path d="M2910.5 856.5 2998.5 856.5" stroke="#5F5F5F" stroke-width="6.875" stroke-linecap="round" stroke-linejoin="round" stroke-miterlimit="10" fill="none" fill-rule="evenodd"/></g><g><text fill="#595959" font-family="Segoe UI Light,Segoe UI Light_MSFontService,sans-serif" font-weight="300" font-size="73" transform="matrix(1 0 0 1 3007.91 881)">F. Permanente</text></g><g><path d="M2910.5 980.5 2998.5 980.5" stroke="#B3B3B3" stroke-width="6.875" stroke-linecap="round" stroke-linejoin="round" stroke-miterlimit="10" fill="none" fill-rule="evenodd"/></g><g><text fill="#595959" font-family="Segoe UI Light,Segoe UI Light_MSFontService,sans-serif" font-weight="300" font-size="73" transform="matrix(1 0 0 1 3007.91 1005)">F. No Permanente</text></g></g></svg>