<svg width="1891" height="1174" xmlns="http://www.w3.org/2000/svg" xmlns:xlink="http://www.w3.org/1999/xlink" xml:space="preserve" overflow="hidden"><g transform="translate(-1098 -664)"><path d="M0 0 0.000360892 945.384" stroke="#404040" stroke-width="6.875" stroke-miterlimit="8" fill="none" fill-rule="evenodd" transform="matrix(0.999023 0.0441997 0.0441997 -0.999023 1762.86 1642.1)"/><path d="M0 0 207.706 117.695" stroke="#404040" stroke-width="6.875" stroke-miterlimit="8" fill="none" fill-rule="evenodd" transform="matrix(0.999023 0.0441997 0.0441997 -0.999023 1769.81 1642.4)"/><path d="M1981.07 1533.95C2027.5 1512.64 2057.43 1491.49 2097.12 1467.31 2136.81 1443.12 2157.74 1424.72 2182.49 1402.7 2207.23 1380.67 2224.9 1360.02 2245.59 1335.14 2266.28 1310.26 2287.56 1283.09 2306.63 1253.4 2325.71 1223.72 2350.65 1173.45 2360.04 1157.02 2366.84 1140.48 2378.58 1107.17 2385.91 1082.71 2393.23 1058.25 2397.14 1034.36 2403.99 1010.27" stroke="#404040" stroke-width="6.875" stroke-miterlimit="8" fill="none" fill-rule="evenodd"/><path d="M2402.61 1016.73C2416.87 951.746 2424.26 886.46 2429.9 838.256 2435.53 790.052 2434.66 767.816 2436.41 727.506" stroke="#404040" stroke-width="6.875" stroke-miterlimit="8" fill="none" fill-rule="evenodd"/><path d="M1801.07 696.395 2413.62 724.179 2413.42 728.757 1800.86 700.974ZM2409.56 712.524 2436.41 727.506 2408.32 739.996Z" fill="#404040"/><path d="M1800.24 797.358 2412.53 825.13 2412.33 829.708 1800.03 801.937ZM2408.47 813.475 2435.32 828.457 2407.23 840.947Z" fill="#404040"/><path d="M1797.36 917.254 2396.23 944.431 2396.02 949.009 1797.15 921.833ZM2392.17 932.776 2419.02 947.759 2390.92 960.248Z" fill="#404040"/><path d="M1786.82 1003.46 2373.8 1030.11 2373.59 1034.69 1786.61 1008.04ZM2369.74 1018.45 2396.59 1033.44 2368.49 1045.93Z" fill="#404040"/><path d="M1789.72 1089.9 2352.02 1115.46 2351.81 1120.04 1789.51 1094.48ZM2347.96 1103.81 2374.8 1118.79 2346.71 1131.28Z" fill="#404040"/><path d="M1782.29 1178.97 2308 1202.9 2307.8 1207.48 1782.08 1183.55ZM2303.95 1191.25 2330.79 1206.24 2302.7 1218.72Z" fill="#404040"/><path d="M1780.24 1292.59 2232.81 1313.29 2232.6 1317.87 1780.03 1297.17ZM2228.75 1301.63 2255.59 1316.62 2227.5 1329.1Z" fill="#404040"/><path d="M1769.74 1395.34 2149.16 1412.8 2148.95 1417.38 1769.53 1399.92ZM2145.11 1401.14 2171.94 1416.14 2143.84 1428.61Z" fill="#404040"/><path d="M0.00796375-2.29165 244.403-1.44235 244.387 3.14095-0.00796375 2.29165ZM239.86-12.9165 267.312 0.928937 239.764 14.5833Z" fill="#404040" transform="matrix(0.999023 0.0441997 0.0441997 -0.999023 1771.63 1485.72)"/><path d="M1769.46 1542.27 1911.38 1549.16 1911.16 1553.74 1769.24 1546.85ZM1907.36 1537.49 1934.16 1552.56 1906.03 1564.96Z" fill="#404040"/><path d="M1763.84 1596.26 1814.08 1598.97 1813.83 1603.54 1763.6 1600.84ZM1810.12 1587.28 1836.84 1602.49 1808.64 1614.74Z" fill="#404040"/><path d="M1111.4 666.964 2977.28 749.517" stroke="#404040" stroke-width="4.58333" stroke-miterlimit="8" fill="none" fill-rule="evenodd"/><path d="M0 0 0.000360892 945.384" stroke="#C00000" stroke-width="4.58333" stroke-miterlimit="8" fill="none" fill-rule="evenodd" transform="matrix(0.999023 0.0441997 0.0441997 -0.999023 1596.96 1632.28)"/><path d="M1257.58 1616.64C1258.57 1613.57 1263.47 1513.77 1265.8 1469.88 1273.54 1433.11 1276.81 1416.09 1290.95 1380.54 1305.09 1345 1333.55 1289.3 1350.62 1256.61 1367.7 1223.92 1371 1219.95 1393.42 1184.41 1415.84 1148.87 1460.53 1080.88 1485.12 1043.38 1509.7 1005.87 1523.1 993.603 1540.94 959.405 1558.78 925.207 1575.94 882.746 1592.16 838.186 1608.37 793.626 1623.3 742.834 1638.22 692.042" stroke="#C00000" stroke-width="4.58333" stroke-miterlimit="8" fill="none" fill-rule="evenodd"/><path d="M0.00479143-2.29166 314.883-1.63331 314.874 2.95001-0.00479143 2.29166ZM310.324-13.1012 337.795 0.706266 310.267 14.3987Z" fill="#C00000" transform="matrix(-0.999023 -0.0441997 -0.0441997 0.999023 1603.08 1464.45)"/><path d="M0.00479143-2.29166 314.883-1.63331 314.874 2.95001-0.00479143 2.29166ZM310.324-13.1012 337.795 0.706266 310.267 14.3987Z" fill="#C00000" transform="matrix(-0.999023 -0.0441997 -0.0441997 0.999023 1600.16 1531.16)"/><path d="M2.62311e-06-2.29167 292.375-2.29133 292.375 2.292-2.62311e-06 2.29167ZM287.792-13.7497 315.292 0.000360892 287.791 13.7503Z" fill="#C00000" transform="matrix(-0.999023 -0.0441997 -0.0441997 0.999023 1606.65 1405.65)"/><path d="M0.00680114-2.29166 215.068-1.6534 215.055 2.92991-0.00680114 2.29166ZM210.519-13.1253 237.978 0.706266 210.437 14.3746Z" fill="#C00000" transform="matrix(-0.999023 -0.0441997 -0.0441997 0.999023 1610.53 1225.49)"/><path d="M7.07305e-06-2.29167 94.0125-2.29138 94.0125 2.29196-7.07305e-06 2.29167ZM89.4292-13.7497 116.929 0.000360892 89.4291 13.7503Z" fill="#C00000" transform="matrix(-0.999023 -0.0441997 -0.0441997 0.999023 1627.36 1005.55)"/><path d="M0.0221028-2.29156 50.3305-1.80632 50.2863 2.7768-0.0221028 2.29156ZM45.8579-13.3083 73.224 0.706266 45.5927 14.1904Z" fill="#C00000" transform="matrix(-0.999023 -0.0441997 -0.0441997 0.999023 1623.2 938.984)"/><path d="M0.0311415-2.29146 29.0851-1.8966 29.0228 2.68631-0.0311415 2.29146ZM24.6579-13.4162 51.9685 0.706266 24.2842 14.0813Z" fill="#C00000" transform="matrix(-0.999023 -0.0441997 -0.0441997 0.999023 1633 856.213)"/><path d="M0.0110518-2.29164 123.543-1.69589 123.521 2.88739-0.0110518 2.29164ZM119.015-13.1762 146.448 0.706266 118.882 14.3235Z" fill="#C00000" transform="matrix(-0.999023 -0.0441997 -0.0441997 0.999023 1621.83 1062.65)"/><path d="M0.00830512-2.29165 171.974-1.66844 171.957 2.91487-0.00830512 2.29165ZM167.432-13.1433 194.882 0.706266 167.332 14.3565Z" fill="#C00000" transform="matrix(-0.999023 -0.0441997 -0.0441997 0.999023 1616.77 1140.16)"/><path d="M0.00593224-2.29166 249.924-1.64472 249.912 2.9386-0.00593224 2.29166ZM245.37-13.1149 272.835 0.706266 245.299 14.385Z" fill="#C00000" transform="matrix(-0.999023 -0.0441997 -0.0441997 0.999023 1599.62 1317.81)"/><path d="M0.00479143-2.29166 314.883-1.63331 314.874 2.95001-0.00479143 2.29166ZM310.324-13.1012 337.795 0.706266 310.267 14.3987Z" fill="#C00000" transform="matrix(-0.999023 -0.0441997 -0.0441997 0.999023 1599.32 1595.51)"/><path d="M2411.35 1340.85C2413.06 1340.93 2414.27 1341.43 2415 1342.35 2415.72 1343.28 2416.04 1344.49 2415.98 1345.98 2415.93 1347.12 2415.67 1348.42 2415.2 1349.87 2414.73 1351.33 2414.09 1352.86 2413.28 1354.46 2412.47 1356.07 2411.52 1357.71 2410.42 1359.38 2409.33 1361.06 2408.13 1362.68 2406.82 1364.25 2405.51 1365.83 2404.13 1367.3 2402.66 1368.67 2401.2 1370.05 2399.69 1371.24 2398.13 1372.24 2396.58 1373.24 2395.01 1374.02 2393.43 1374.58 2391.85 1375.14 2390.28 1375.39 2388.74 1375.32 2388.05 1375.29 2387.48 1375.09 2387.04 1374.72 2386.59 1374.36 2386.24 1373.86 2385.98 1373.22 2385.72 1372.57 2385.55 1371.82 2385.47 1370.96 2385.39 1370.1 2385.37 1369.16 2385.42 1368.14 2385.48 1366.79 2385.62 1365.34 2385.86 1363.81 2386.09 1362.27 2386.38 1360.73 2386.71 1359.17L2388.64 1349.37C2388.76 1348.81 2388.86 1348.27 2388.94 1347.76 2389.02 1347.26 2389.07 1346.88 2389.08 1346.65 2389.11 1345.91 2389.02 1345.3 2388.8 1344.81 2388.59 1344.33 2388.2 1344.07 2387.63 1344.05 2387.17 1344.03 2386.68 1344.14 2386.15 1344.39 2385.61 1344.64 2385.07 1344.97 2384.52 1345.37 2383.96 1345.78 2383.43 1346.21 2382.91 1346.68 2382.39 1347.14 2381.9 1347.58 2381.46 1347.99L2379.84 1345.92C2380.61 1345.19 2381.42 1344.47 2382.29 1343.76 2383.15 1343.05 2384.06 1342.41 2385.01 1341.85 2385.96 1341.28 2386.96 1340.84 2388 1340.52 2389.03 1340.19 2390.09 1340.05 2391.15 1340.1 2392.06 1340.14 2392.79 1340.32 2393.34 1340.64 2393.9 1340.97 2394.33 1341.38 2394.63 1341.88 2394.92 1342.38 2395.12 1342.92 2395.21 1343.51 2395.31 1344.1 2395.34 1344.68 2395.31 1345.25 2395.3 1345.58 2395.27 1345.9 2395.24 1346.21 2395.2 1346.51 2395.15 1346.8 2395.09 1347.06L2392.53 1359.86C2392.25 1361.2 2392.02 1362.52 2391.82 1363.8 2391.62 1365.09 2391.5 1366.23 2391.45 1367.23 2391.41 1368.23 2391.43 1369.04 2391.52 1369.66 2391.61 1370.28 2391.83 1370.6 2392.16 1370.62 2392.94 1370.65 2393.94 1370.38 2395.16 1369.8 2396.37 1369.23 2397.66 1368.42 2399.01 1367.37 2400.36 1366.32 2401.73 1365.08 2403.1 1363.63 2404.47 1362.18 2405.72 1360.6 2406.84 1358.89 2407.96 1357.17 2408.9 1355.36 2409.63 1353.44 2410.37 1351.53 2410.79 1349.58 2410.87 1347.61 2410.91 1346.76 2410.76 1346.09 2410.41 1345.61 2410.06 1345.13 2409.5 1344.87 2408.71 1344.84 2407.72 1344.8 2406.78 1345.14 2405.9 1345.87 2405.02 1346.61 2404.11 1347.58 2403.15 1348.8L2401.2 1346.9C2401.81 1346.07 2402.51 1345.28 2403.32 1344.53 2404.13 1343.78 2404.98 1343.13 2405.87 1342.57 2406.76 1342.02 2407.68 1341.58 2408.62 1341.27 2409.56 1340.95 2410.47 1340.81 2411.35 1340.85Z" fill="#404040" fill-rule="evenodd"/><text fill="#000000" fill-opacity="0" font-family="Arial,Arial_MSFontService,sans-serif" font-size="35.236" x="2379.84" y="1370.92">𝑣</text><path d="M2430.23 1356.17 2432.09 1356.25 2427.9 1370.7 2428.26 1370.82C2429.15 1369.84 2430.01 1369 2430.83 1368.3 2431.66 1367.61 2432.45 1367.04 2433.22 1366.6 2433.99 1366.16 2434.76 1365.84 2435.51 1365.65 2436.26 1365.46 2437.01 1365.38 2437.77 1365.41 2439.63 1365.49 2440.99 1366.05 2441.86 1367.07 2442.72 1368.09 2443.11 1369.49 2443.03 1371.27 2443.01 1371.8 2442.93 1372.45 2442.79 1373.21 2442.65 1373.97 2442.43 1374.87 2442.13 1375.89L2440.05 1382.97C2439.87 1383.64 2439.71 1384.18 2439.59 1384.6 2439.47 1385.01 2439.38 1385.37 2439.31 1385.66 2439.25 1385.95 2439.2 1386.2 2439.17 1386.4 2439.15 1386.61 2439.13 1386.83 2439.12 1387.05 2439.09 1387.7 2439.19 1388.18 2439.42 1388.49 2439.65 1388.79 2440.04 1388.96 2440.59 1388.98 2440.9 1388.99 2441.21 1388.95 2441.51 1388.84 2441.82 1388.73 2442.16 1388.56 2442.52 1388.31 2442.89 1388.07 2443.29 1387.76 2443.73 1387.37 2444.17 1386.98 2444.67 1386.52 2445.23 1385.97 2445.49 1386.28 2445.77 1386.58 2446.06 1386.88 2446.35 1387.17 2446.63 1387.47 2446.91 1387.76 2445.99 1388.61 2445.16 1389.34 2444.41 1389.94 2443.65 1390.54 2442.94 1391.02 2442.27 1391.39 2441.6 1391.75 2440.94 1392.01 2440.29 1392.17 2439.65 1392.32 2438.96 1392.38 2438.24 1392.35 2437.62 1392.32 2437.05 1392.17 2436.53 1391.91 2436.02 1391.64 2435.58 1391.29 2435.22 1390.85 2434.86 1390.41 2434.58 1389.9 2434.4 1389.31 2434.21 1388.73 2434.13 1388.09 2434.16 1387.4 2434.19 1386.71 2434.3 1385.92 2434.49 1385.03 2434.69 1384.14 2434.92 1383.21 2435.19 1382.24 2435.45 1381.27 2435.74 1380.29 2436.06 1379.3 2436.37 1378.31 2436.65 1377.38 2436.92 1376.5 2437.18 1375.62 2437.41 1374.82 2437.59 1374.11 2437.78 1373.39 2437.88 1372.82 2437.9 1372.39 2437.92 1371.9 2437.91 1371.45 2437.86 1371.02 2437.81 1370.6 2437.69 1370.22 2437.51 1369.89 2437.32 1369.57 2437.07 1369.31 2436.75 1369.11 2436.43 1368.91 2436.01 1368.8 2435.5 1368.78 2434.67 1368.75 2433.76 1369.02 2432.77 1369.62 2431.77 1370.21 2430.82 1371 2429.9 1371.98 2428.99 1372.96 2428.16 1374.06 2427.43 1375.29 2426.69 1376.52 2426.16 1377.76 2425.85 1379 2425.31 1381.03 2424.79 1383.07 2424.28 1385.1 2423.78 1387.13 2423.27 1389.16 2422.75 1391.19L2417.78 1390.98 2425.14 1363.48C2425.37 1362.61 2425.54 1361.9 2425.66 1361.35 2425.78 1360.81 2425.85 1360.33 2425.86 1359.94 2425.88 1359.61 2425.84 1359.32 2425.75 1359.08 2425.65 1358.83 2425.49 1358.63 2425.24 1358.47 2425 1358.31 2424.66 1358.19 2424.24 1358.1 2423.81 1358.02 2423.28 1357.95 2422.64 1357.9L2423.1 1356.16Z" fill="#404040" fill-rule="evenodd"/><text fill="#000000" fill-opacity="0" font-family="Arial,Arial_MSFontService,sans-serif" font-size="36.1926" x="2417.78" y="1387.83">ℎ</text><path d="M1283.49 1030.31 1304.49 1031.24 1304.28 1036.04 1290.64 1035.44 1289.74 1055.84C1289.57 1059.64 1290.95 1061.61 1293.87 1061.74 1295.2 1061.79 1296.69 1061.23 1298.33 1060.04L1299.7 1062.21C1296.6 1064.45 1293.8 1065.51 1291.28 1065.4 1288.53 1065.28 1286.52 1064.48 1285.27 1063 1284.01 1061.51 1283.46 1059.18 1283.6 1056L1284.52 1035.17 1281.39 1035.03C1279.51 1034.95 1278.05 1035.19 1277 1035.75 1275.95 1036.31 1274.83 1037.31 1273.62 1038.75L1271.43 1036.77C1273.74 1033.89 1275.69 1032.07 1277.27 1031.3 1278.85 1030.52 1280.92 1030.19 1283.49 1030.31Z" fill="#C00000" fill-rule="evenodd"/><text fill="#000000" fill-opacity="0" font-family="Arial,Arial_MSFontService,sans-serif" font-size="35.1263" x="1271.43" y="1061.02">τ</text><path d="M1323.12 1057.34C1322.16 1057.29 1321.24 1057.47 1320.38 1057.86 1319.52 1058.26 1318.72 1058.82 1317.98 1059.54 1317.23 1060.27 1316.56 1061.14 1315.96 1062.15 1315.35 1063.16 1314.83 1064.25 1314.39 1065.42 1313.95 1066.59 1313.59 1067.82 1313.33 1069.1 1313.07 1070.39 1312.91 1071.68 1312.85 1072.97 1312.76 1074.95 1313.1 1076.43 1313.88 1077.4 1314.66 1078.38 1315.88 1078.91 1317.56 1078.98 1318.49 1079.02 1319.38 1078.83 1320.22 1078.41 1321.07 1077.99 1321.86 1077.41 1322.58 1076.66 1323.3 1075.92 1323.96 1075.04 1324.55 1074.02 1325.14 1073 1325.65 1071.9 1326.08 1070.73 1326.51 1069.56 1326.86 1068.34 1327.11 1067.08 1327.36 1065.83 1327.52 1064.59 1327.57 1063.39 1327.66 1061.47 1327.34 1060.01 1326.63 1058.98 1325.91 1057.96 1324.74 1057.41 1323.12 1057.34ZM1323.73 1054.8C1325.28 1054.87 1326.63 1055.18 1327.77 1055.73 1328.91 1056.28 1329.85 1057 1330.59 1057.89 1331.32 1058.77 1331.86 1059.8 1332.2 1060.98 1332.53 1062.15 1332.67 1063.39 1332.62 1064.7 1332.5 1067.32 1332.01 1069.68 1331.14 1071.77 1330.27 1073.86 1329.11 1075.64 1327.68 1077.11 1326.24 1078.57 1324.57 1079.68 1322.69 1080.42 1320.8 1081.17 1318.77 1081.49 1316.59 1081.4 1315.16 1081.33 1313.89 1081.06 1312.77 1080.58 1311.65 1080.1 1310.71 1079.44 1309.96 1078.59 1309.2 1077.75 1308.64 1076.74 1308.26 1075.58 1307.89 1074.41 1307.74 1073.1 1307.8 1071.66 1307.91 1069.21 1308.4 1066.94 1309.26 1064.84 1310.12 1062.75 1311.26 1060.94 1312.68 1059.43 1314.11 1057.91 1315.76 1056.73 1317.64 1055.9 1319.53 1055.07 1321.56 1054.7 1323.73 1054.8Z" fill="#C00000" fill-rule="evenodd"/><text fill="#000000" fill-opacity="0" font-family="Arial,Arial_MSFontService,sans-serif" font-size="26.6301" x="1307.79" y="1078.09">𝑜</text><path d="M1405.38 1162.01 1346.96 1101.75 1348.61 1100.16 1407.03 1160.42ZM1341.1 1113.82 1331.83 1084.5 1360.85 1094.67Z"/><path d="M2543.95 762.459 2727.06 770.561" stroke="#404040" stroke-width="4.58333" stroke-miterlimit="8" fill="none" fill-rule="evenodd"/><path d="M2571.15 786.602 2682.55 791.531" stroke="#404040" stroke-width="4.58333" stroke-miterlimit="8" fill="none" fill-rule="evenodd"/><path d="M2645.34 1152.99 2622.16 1677.01 2619.87 1676.91 2643.05 1152.89ZM2634.84 1157.11 2645.21 1130.05 2653.15 1157.93Z"/><text font-family="Segoe UI Light,Segoe UI Light_MSFontService,sans-serif" font-weight="300" font-size="83" transform="matrix(0.999023 0.0441997 -0.0441997 0.999023 2669 1401)">h</text><path d="M1099.43 1611.36 2935.56 1692.6 2934.92 1707.02 1098.8 1625.78ZM1098.58 1630.59 2934.7 1711.83 2934.49 1716.63 1098.37 1635.4Z" fill="#595959"/><path d="M2875.57 767.956 2835.84 1666 2833.55 1665.9 2873.28 767.855ZM2865.07 772.079 2875.44 745.011 2883.38 772.889ZM2844.06 1661.77 2833.68 1688.84 2825.74 1660.96Z"/><text font-family="Segoe UI Light,Segoe UI Light_MSFontService,sans-serif" font-weight="300" font-size="83" transform="matrix(0.999023 0.0441997 -0.0441997 0.999023 2890.78 1278)">y</text><text font-family="Segoe UI Light,Segoe UI Light_MSFontService,sans-serif" font-weight="300" font-size="55" transform="matrix(0.999023 0.0441997 -0.0441997 0.999023 2927.09 1300)">t</text><path d="M2294.3 1276.07 2355.98 1311.23 2354.85 1313.23 2293.16 1278.06ZM2358.24 1298.01 2375.32 1323.58 2344.62 1321.91Z"/><path d="M2384.29 1121.01 2733.06 1136.44" stroke="#404040" stroke-width="2.29167" stroke-miterlimit="8" stroke-dasharray="18.3333 6.875" fill="none" fill-rule="evenodd"/><text font-family="Segoe UI Light,Segoe UI Light_MSFontService,sans-serif" font-weight="300" font-size="83" transform="matrix(0.999673 0.0255762 -0.0255762 0.999673 1902.85 1767)">S</text><text font-family="Segoe UI Light,Segoe UI Light_MSFontService,sans-serif" font-weight="300" font-size="55" transform="matrix(0.999673 0.0255762 -0.0255762 0.999673 1943.58 1788)">o</text></g></svg>