<svg width="2610" height="1305" xmlns="http://www.w3.org/2000/svg" xmlns:xlink="http://www.w3.org/1999/xlink" xml:space="preserve" overflow="hidden"><defs><clipPath id="clip0"><rect x="1568" y="1285" width="2610" height="1305"/></clipPath></defs><g clip-path="url(#clip0)" transform="translate(-1568 -1285)"><path d="M1587.5 1313.5 2640.71 1313.5" stroke="#404040" stroke-width="6.875" stroke-miterlimit="8" fill="none" fill-rule="evenodd"/><path d="M2920.5 1316.5 3973.71 1316.5" stroke="#404040" stroke-width="6.875" stroke-miterlimit="8" fill="none" fill-rule="evenodd"/><path d="M0 0 0.000360892 945.384" stroke="#404040" stroke-width="6.875" stroke-miterlimit="8" fill="none" fill-rule="evenodd" transform="matrix(1 0 0 -1 1720.5 2258.88)"/><path d="M0 0 207.706 117.695" stroke="#404040" stroke-width="6.875" stroke-miterlimit="8" fill="none" fill-rule="evenodd" transform="matrix(1 0 0 -1 1727.5 2259.19)"/><path d="M1934.5 2141.5C1979.9 2118.16 2008.84 2095.7 2047.39 2069.78 2085.94 2043.86 2106.02 2024.55 2129.75 2001.44 2153.47 1978.33 2170.19 1956.92 2189.75 1931.14 2209.3 1905.36 2229.34 1877.27 2247.07 1846.76 2264.79 1816.26 2287.47 1764.93 2296.11 1748.09 2302.18 1731.26 2312.42 1697.45 2318.65 1672.69 2324.88 1647.92 2327.73 1623.88 2333.5 1599.5" stroke="#404040" stroke-width="6.875" stroke-miterlimit="8" fill="none" fill-rule="evenodd"/><path d="M2332.5 1605.5C2343.61 1540.05 2348 1474.6 2351.42 1426.26 2354.83 1377.93 2353.03 1355.79 2352.99 1315.5" stroke="#404040" stroke-width="6.875" stroke-miterlimit="8" fill="none" fill-rule="evenodd"/><path d="M1717.5 1310.21 2330.69 1310.89 2330.68 1315.47 1717.5 1314.79ZM2326.12 1299.43 2353.6 1313.21 2326.09 1326.93Z" fill="#404040"/><path d="M1720.5 1413.21 2333.43 1413.89 2333.42 1418.47 1720.5 1417.79ZM2328.86 1402.43 2356.34 1416.21 2328.83 1429.93Z" fill="#404040"/><path d="M1723.5 1533.21 2322.99 1533.89 2322.99 1538.47 1723.5 1537.79ZM2318.42 1522.43 2345.9 1536.21 2318.39 1549.93Z" fill="#404040"/><path d="M1716.5 1619.21 2304.09 1619.89 2304.08 1624.47 1716.5 1623.79ZM2299.52 1608.42 2327 1622.21 2299.48 1635.92Z" fill="#404040"/><path d="M1723.5 1706.21 2286.38 1706.89 2286.37 1711.47 1723.5 1710.79ZM2281.81 1695.42 2309.29 1709.21 2281.78 1722.92Z" fill="#404040"/><path d="M1719.5 1795.21 2245.76 1795.89 2245.76 1800.47 1719.5 1799.79ZM2241.2 1784.42 2268.68 1798.21 2241.16 1811.92Z" fill="#404040"/><path d="M1722.5 1909.21 2175.54 1909.88 2175.54 1914.46 1722.5 1913.79ZM2170.98 1898.42 2198.46 1912.21 2170.94 1925.92Z" fill="#404040"/><path d="M1716.5 2012.21 2096.32 2012.87 2096.31 2017.46 1716.5 2016.79ZM2091.76 2001.41 2119.23 2015.21 2091.71 2028.91Z" fill="#404040"/><path d="M0.00796374-2.29165 244.403-1.44235 244.387 3.14095-0.00796374 2.29165ZM239.859-12.9165 267.312 0.928937 239.764 14.5833Z" fill="#404040" transform="matrix(1 0 0 -1 1722.5 2102.43)"/><path d="M1723.51 2158.21 1865.59 2158.82 1865.57 2163.4 1723.49 2162.79ZM1861.06 2147.34 1888.5 2161.21 1860.94 2174.84Z" fill="#404040"/><path d="M1719.52 2213.21 1769.83 2213.69 1769.79 2218.28 1719.48 2217.79ZM1765.36 2202.19 1792.72 2216.21 1765.09 2229.69Z" fill="#404040"/><path d="M2004.57 1650.14C2006.28 1650.14 2007.52 1650.58 2008.28 1651.48 2009.04 1652.37 2009.42 1653.56 2009.42 1655.06 2009.42 1656.2 2009.22 1657.51 2008.81 1658.98 2008.41 1660.45 2007.84 1662.01 2007.1 1663.65 2006.36 1665.29 2005.48 1666.97 2004.46 1668.69 2003.44 1670.41 2002.31 1672.09 2001.08 1673.72 1999.84 1675.35 1998.52 1676.88 1997.12 1678.32 1995.72 1679.75 1994.26 1681.01 1992.75 1682.08 1991.24 1683.15 1989.71 1684 1988.16 1684.63 1986.6 1685.25 1985.05 1685.57 1983.5 1685.57 1982.81 1685.57 1982.24 1685.4 1981.77 1685.05 1981.31 1684.71 1980.94 1684.22 1980.65 1683.59 1980.37 1682.96 1980.16 1682.22 1980.05 1681.36 1979.93 1680.51 1979.87 1679.57 1979.87 1678.55 1979.87 1677.19 1979.95 1675.74 1980.12 1674.2 1980.28 1672.65 1980.5 1671.1 1980.76 1669.53L1982.26 1659.66C1982.35 1659.09 1982.43 1658.55 1982.49 1658.03 1982.55 1657.52 1982.58 1657.15 1982.58 1656.91 1982.58 1656.17 1982.46 1655.57 1982.22 1655.09 1981.98 1654.62 1981.58 1654.38 1981.01 1654.38 1980.56 1654.38 1980.07 1654.52 1979.55 1654.79 1979.02 1655.06 1978.5 1655.41 1977.96 1655.84 1977.43 1656.27 1976.91 1656.73 1976.41 1657.21 1975.91 1657.7 1975.45 1658.16 1975.02 1658.59L1973.31 1656.59C1974.05 1655.83 1974.83 1655.08 1975.66 1654.33 1976.49 1653.58 1977.37 1652.9 1978.3 1652.3 1979.23 1651.69 1980.2 1651.2 1981.22 1650.83 1982.24 1650.47 1983.29 1650.28 1984.36 1650.28 1985.26 1650.28 1986 1650.43 1986.57 1650.73 1987.14 1651.02 1987.58 1651.42 1987.91 1651.9 1988.23 1652.39 1988.45 1652.93 1988.57 1653.51 1988.68 1654.09 1988.74 1654.67 1988.74 1655.24 1988.74 1655.57 1988.73 1655.89 1988.71 1656.2 1988.68 1656.51 1988.65 1656.79 1988.6 1657.05L1986.6 1669.96C1986.39 1671.31 1986.21 1672.64 1986.07 1673.93 1985.93 1675.23 1985.86 1676.37 1985.86 1677.37 1985.86 1678.37 1985.92 1679.18 1986.03 1679.8 1986.15 1680.41 1986.38 1680.72 1986.71 1680.72 1987.5 1680.72 1988.48 1680.41 1989.67 1679.78 1990.86 1679.15 1992.11 1678.28 1993.41 1677.18 1994.72 1676.07 1996.03 1674.76 1997.33 1673.25 1998.64 1671.75 1999.82 1670.11 2000.86 1668.35 2001.91 1666.59 2002.76 1664.74 2003.41 1662.79 2004.06 1660.84 2004.39 1658.88 2004.39 1656.91 2004.39 1656.06 2004.21 1655.4 2003.84 1654.93 2003.47 1654.47 2002.89 1654.24 2002.11 1654.24 2001.11 1654.24 2000.19 1654.62 1999.35 1655.4 1998.5 1656.17 1997.63 1657.18 1996.73 1658.44L1994.7 1656.63C1995.27 1655.77 1995.94 1654.95 1996.71 1654.17 1997.48 1653.38 1998.3 1652.69 1999.17 1652.1 2000.04 1651.51 2000.93 1651.03 2001.86 1650.67 2002.79 1650.32 2003.69 1650.14 2004.57 1650.14Z" fill="#404040" fill-rule="evenodd"/><text fill="#000000" fill-opacity="0" font-family="Arial,Arial_MSFontService,sans-serif" font-size="35.4307" x="1973.31" y="1681.14">ğ‘£</text><path d="M2024.1 1664.6 2025.97 1664.6 2022.42 1679.23 2022.79 1679.33C2023.63 1678.31 2024.45 1677.44 2025.24 1676.7 2026.04 1675.97 2026.81 1675.36 2027.56 1674.89 2028.31 1674.42 2029.06 1674.07 2029.8 1673.84 2030.54 1673.62 2031.29 1673.51 2032.05 1673.51 2033.91 1673.51 2035.3 1674 2036.2 1674.98 2037.11 1675.96 2037.56 1677.34 2037.56 1679.12 2037.56 1679.66 2037.51 1680.31 2037.41 1681.08 2037.3 1681.84 2037.12 1682.74 2036.86 1683.78L2035.1 1690.95C2034.95 1691.62 2034.82 1692.17 2034.72 1692.59 2034.61 1693.01 2034.53 1693.37 2034.48 1693.67 2034.43 1693.96 2034.4 1694.21 2034.38 1694.42 2034.36 1694.62 2034.35 1694.84 2034.35 1695.06 2034.35 1695.72 2034.47 1696.19 2034.72 1696.49 2034.96 1696.78 2035.35 1696.93 2035.91 1696.93 2036.22 1696.93 2036.52 1696.87 2036.82 1696.75 2037.13 1696.62 2037.45 1696.43 2037.81 1696.18 2038.16 1695.92 2038.55 1695.58 2038.97 1695.18 2039.4 1694.77 2039.87 1694.29 2040.41 1693.72 2040.68 1694.01 2040.97 1694.3 2041.28 1694.58 2041.58 1694.87 2041.88 1695.15 2042.17 1695.43 2041.29 1696.32 2040.49 1697.09 2039.76 1697.72 2039.04 1698.35 2038.35 1698.86 2037.69 1699.26 2037.04 1699.65 2036.39 1699.94 2035.75 1700.12 2035.11 1700.3 2034.43 1700.39 2033.71 1700.39 2033.08 1700.39 2032.51 1700.27 2031.98 1700.03 2031.46 1699.79 2031.01 1699.46 2030.63 1699.04 2030.25 1698.61 2029.95 1698.11 2029.73 1697.53 2029.52 1696.96 2029.41 1696.32 2029.41 1695.63 2029.41 1694.94 2029.49 1694.15 2029.64 1693.25 2029.8 1692.35 2029.99 1691.41 2030.21 1690.43 2030.44 1689.45 2030.68 1688.46 2030.95 1687.45 2031.22 1686.45 2031.46 1685.51 2031.69 1684.62 2031.91 1683.73 2032.1 1682.93 2032.26 1682.2 2032.41 1681.48 2032.49 1680.9 2032.49 1680.47 2032.49 1679.98 2032.46 1679.53 2032.39 1679.11 2032.32 1678.69 2032.18 1678.32 2031.98 1678 2031.79 1677.68 2031.52 1677.43 2031.2 1677.25 2030.87 1677.06 2030.45 1676.97 2029.93 1676.97 2029.1 1676.97 2028.2 1677.29 2027.24 1677.93 2026.27 1678.57 2025.35 1679.4 2024.48 1680.42 2023.61 1681.43 2022.83 1682.57 2022.15 1683.83 2021.47 1685.09 2021 1686.35 2020.74 1687.61 2020.29 1689.66 2019.86 1691.72 2019.45 1693.77 2019.03 1695.82 2018.61 1697.88 2018.18 1699.93L2013.21 1699.93 2019.34 1672.13C2019.53 1671.25 2019.68 1670.54 2019.77 1669.99 2019.86 1669.43 2019.91 1668.96 2019.91 1668.56 2019.91 1668.24 2019.86 1667.95 2019.76 1667.71 2019.65 1667.47 2019.48 1667.27 2019.23 1667.13 2018.98 1666.98 2018.64 1666.87 2018.2 1666.8 2017.77 1666.73 2017.24 1666.69 2016.6 1666.67L2016.99 1664.91Z" fill="#404040" fill-rule="evenodd"/><text fill="#000000" fill-opacity="0" font-family="Arial,Arial_MSFontService,sans-serif" font-size="35.7905" x="2013.21" y="1695.92">â„</text><path d="M2462.5 1345.5 2582.63 1345.5" stroke="#404040" stroke-width="4.58333" stroke-miterlimit="8" fill="none" fill-rule="evenodd"/><path d="M2490.5 1368.5 2553.9 1368.5" stroke="#404040" stroke-width="4.58333" stroke-miterlimit="8" fill="none" fill-rule="evenodd"/><path d="M1568 2256.97 2640.5 2256.97 2640.5 2271.41 1568 2271.41ZM1568 2276.22 2640.5 2276.22 2640.5 2281.03 1568 2281.03Z" fill="#595959"/><text font-family="Segoe UI Light,Segoe UI Light_MSFontService,sans-serif" font-weight="300" font-size="83" transform="matrix(1 0 0 1 2076.63 2382)">S</text><text font-family="Segoe UI Light,Segoe UI Light_MSFontService,sans-serif" font-weight="300" font-size="55" transform="matrix(1 0 0 1 2117.88 2402)">o</text><path d="M0 0 0.000360892 945.384" stroke="#404040" stroke-width="6.875" stroke-miterlimit="8" fill="none" fill-rule="evenodd" transform="matrix(1 0 0 -1 3054.5 2261.88)"/><path d="M0 0 207.706 117.695" stroke="#BFBFBF" stroke-width="4.58333" stroke-miterlimit="8" stroke-dasharray="18.3333 13.75" fill="none" fill-rule="evenodd" transform="matrix(1 0 0 -1 3061.5 2261.19)"/><path d="M3267.5 2143.5C3312.9 2120.2 3341.84 2097.78 3380.39 2071.91 3418.94 2046.04 3439.02 2026.76 3462.75 2003.7 3486.47 1980.63 3503.19 1959.26 3522.75 1933.53 3542.3 1907.8 3562.34 1879.76 3580.07 1849.31 3597.79 1818.86 3620.47 1767.62 3629.11 1750.82 3635.18 1734.01 3645.42 1700.27 3651.65 1675.55 3657.88 1650.83 3660.73 1626.83 3666.5 1602.5" stroke="#BFBFBF" stroke-width="4.58333" stroke-miterlimit="8" stroke-dasharray="18.3333 13.75" fill="none" fill-rule="evenodd"/><path d="M3665.5 1608.5C3677.14 1543.05 3681.74 1477.6 3685.32 1429.26 3688.9 1380.93 3687 1358.79 3686.97 1318.5" stroke="#BFBFBF" stroke-width="4.58333" stroke-miterlimit="8" stroke-dasharray="18.3333 13.75" fill="none" fill-rule="evenodd"/><path d="M1.92784e-06-2.29167 406.083-2.29133 406.083 2.29201-1.92784e-06 2.29167ZM401.5-13.7497 429 0.000360892 401.5 13.7503Z" fill="#404040" transform="matrix(1 0 0 -1 3056.5 1497.5)"/><path d="M3268.77 1603.73C3270.48 1603.73 3271.72 1604.17 3272.48 1605.06 3273.24 1605.96 3273.62 1607.15 3273.62 1608.65 3273.62 1609.79 3273.42 1611.09 3273.01 1612.57 3272.61 1614.04 3272.04 1615.6 3271.3 1617.24 3270.57 1618.88 3269.69 1620.56 3268.66 1622.28 3267.64 1624 3266.51 1625.68 3265.28 1627.31 3264.04 1628.93 3262.72 1630.47 3261.32 1631.91 3259.92 1633.34 3258.46 1634.6 3256.96 1635.67 3255.45 1636.74 3253.91 1637.58 3252.36 1638.21 3250.8 1638.84 3249.25 1639.16 3247.71 1639.16 3247.02 1639.16 3246.44 1638.99 3245.98 1638.64 3245.51 1638.3 3245.14 1637.81 3244.85 1637.18 3244.57 1636.55 3244.37 1635.81 3244.25 1634.95 3244.13 1634.1 3244.07 1633.16 3244.07 1632.14 3244.07 1630.78 3244.15 1629.33 3244.32 1627.79 3244.49 1626.24 3244.7 1624.69 3244.96 1623.12L3246.46 1613.25C3246.55 1612.68 3246.63 1612.13 3246.69 1611.62 3246.75 1611.11 3246.78 1610.74 3246.78 1610.5 3246.78 1609.76 3246.66 1609.16 3246.42 1608.68 3246.18 1608.21 3245.78 1607.97 3245.21 1607.97 3244.76 1607.97 3244.27 1608.11 3243.75 1608.38 3243.23 1608.65 3242.7 1609 3242.16 1609.43 3241.63 1609.86 3241.11 1610.32 3240.61 1610.8 3240.11 1611.29 3239.65 1611.75 3239.22 1612.18L3237.51 1610.18C3238.25 1609.42 3239.03 1608.67 3239.86 1607.92 3240.7 1607.17 3241.57 1606.49 3242.5 1605.88 3243.43 1605.28 3244.4 1604.79 3245.42 1604.42 3246.45 1604.06 3247.49 1603.87 3248.56 1603.87 3249.46 1603.87 3250.2 1604.02 3250.77 1604.32 3251.34 1604.61 3251.79 1605.01 3252.11 1605.49 3252.43 1605.98 3252.65 1606.51 3252.77 1607.1 3252.89 1607.68 3252.95 1608.26 3252.95 1608.83 3252.95 1609.16 3252.93 1609.48 3252.91 1609.79 3252.89 1610.1 3252.85 1610.38 3252.8 1610.64L3250.81 1623.55C3250.59 1624.9 3250.41 1626.23 3250.27 1627.52 3250.13 1628.82 3250.06 1629.96 3250.06 1630.96 3250.06 1631.96 3250.12 1632.77 3250.24 1633.38 3250.36 1634 3250.58 1634.31 3250.91 1634.31 3251.7 1634.31 3252.68 1634 3253.87 1633.37 3255.06 1632.74 3256.31 1631.87 3257.61 1630.76 3258.92 1629.66 3260.23 1628.35 3261.54 1626.84 3262.84 1625.33 3264.02 1623.7 3265.06 1621.94 3266.11 1620.18 3266.96 1618.33 3267.61 1616.38 3268.27 1614.43 3268.59 1612.47 3268.59 1610.5 3268.59 1609.65 3268.41 1608.99 3268.04 1608.52 3267.67 1608.06 3267.1 1607.83 3266.31 1607.83 3265.31 1607.83 3264.39 1608.21 3263.55 1608.99 3262.71 1609.76 3261.83 1610.77 3260.93 1612.03L3258.9 1610.22C3259.47 1609.36 3260.14 1608.54 3260.91 1607.76 3261.68 1606.97 3262.5 1606.28 3263.37 1605.69 3264.24 1605.09 3265.14 1604.62 3266.06 1604.26 3266.99 1603.91 3267.89 1603.73 3268.77 1603.73Z" fill="#404040" fill-rule="evenodd"/><text fill="#000000" fill-opacity="0" font-family="Arial,Arial_MSFontService,sans-serif" font-size="35.4307" x="3237.51" y="1634.73">ğ‘£</text><path d="M3280.25 1627.1C3281.53 1627.1 3282.52 1627.51 3283.22 1628.35 3283.92 1629.19 3284.27 1630.29 3284.27 1631.65 3284.27 1632.03 3284.24 1632.4 3284.19 1632.76 3284.14 1633.12 3284.04 1633.48 3283.9 1633.82L3284.21 1633.95C3285.85 1631.66 3287.49 1629.94 3289.13 1628.8 3290.77 1627.66 3292.45 1627.1 3294.18 1627.1 3296.01 1627.1 3297.37 1627.57 3298.28 1628.51 3299.19 1629.45 3299.64 1630.83 3299.64 1632.66 3299.64 1632.81 3299.64 1632.97 3299.64 1633.11 3299.64 1633.26 3299.62 1633.41 3299.59 1633.56L3299.69 1633.56C3301.29 1631.37 3302.89 1629.75 3304.48 1628.69 3306.06 1627.63 3307.72 1627.1 3309.45 1627.1 3311.28 1627.1 3312.64 1627.59 3313.55 1628.57 3314.45 1629.55 3314.91 1630.93 3314.91 1632.71 3314.91 1633.25 3314.82 1633.97 3314.65 1634.87 3314.48 1635.78 3314.26 1636.77 3314.01 1637.86 3313.76 1638.95 3313.49 1640.07 3313.2 1641.24 3312.91 1642.4 3312.63 1643.5 3312.37 1644.54 3312.22 1645.21 3312.09 1645.76 3312 1646.18 3311.9 1646.6 3311.83 1646.96 3311.78 1647.24 3311.72 1647.53 3311.69 1647.77 3311.67 1647.98 3311.65 1648.19 3311.65 1648.41 3311.65 1648.65 3311.65 1649.31 3311.77 1649.78 3312.01 1650.08 3312.25 1650.37 3312.64 1650.52 3313.17 1650.52 3313.48 1650.52 3313.79 1650.46 3314.1 1650.33 3314.42 1650.21 3314.75 1650.02 3315.1 1649.77 3315.45 1649.51 3315.84 1649.17 3316.27 1648.77 3316.69 1648.36 3317.16 1647.88 3317.68 1647.31L3319.46 1649.01C3318.63 1649.88 3317.86 1650.62 3317.15 1651.24 3316.43 1651.86 3315.74 1652.37 3315.07 1652.78 3314.41 1653.19 3313.75 1653.49 3313.1 1653.69 3312.44 1653.88 3311.75 1653.98 3311.02 1653.98 3310.37 1653.98 3309.77 1653.86 3309.24 1653.62 3308.7 1653.38 3308.25 1653.05 3307.88 1652.62 3307.51 1652.2 3307.22 1651.7 3307.01 1651.12 3306.81 1650.55 3306.7 1649.91 3306.7 1649.22 3306.7 1647.81 3307.01 1645.99 3307.61 1643.76 3307.94 1642.64 3308.23 1641.57 3308.5 1640.54 3308.77 1639.51 3309 1638.56 3309.19 1637.69 3309.38 1636.82 3309.53 1636.05 3309.64 1635.36 3309.75 1634.68 3309.81 1634.12 3309.81 1633.67 3309.81 1632.6 3309.61 1631.81 3309.2 1631.31 3308.79 1630.81 3308.16 1630.56 3307.3 1630.56 3306.76 1630.56 3306.19 1630.7 3305.59 1630.98 3304.99 1631.25 3304.38 1631.64 3303.77 1632.13 3303.15 1632.62 3302.55 1633.2 3301.97 1633.88 3301.38 1634.55 3300.84 1635.28 3300.34 1636.06 3299.84 1636.85 3299.39 1637.67 3299 1638.53 3298.62 1639.4 3298.32 1640.27 3298.11 1641.15L3295.55 1653.52 3290.5 1653.52C3290.74 1652.41 3291.02 1651.23 3291.32 1649.96 3291.62 1648.69 3291.93 1647.41 3292.24 1646.12 3292.55 1644.82 3292.84 1643.55 3293.13 1642.29 3293.41 1641.03 3293.67 1639.85 3293.89 1638.75 3294.12 1637.66 3294.3 1636.67 3294.44 1635.8 3294.57 1634.93 3294.64 1634.24 3294.64 1633.72 3294.64 1632.63 3294.43 1631.84 3294.01 1631.33 3293.59 1630.82 3292.91 1630.56 3291.98 1630.56 3291.15 1630.56 3290.26 1630.87 3289.31 1631.49 3288.36 1632.12 3287.46 1632.93 3286.61 1633.94 3285.75 1634.95 3284.99 1636.09 3284.32 1637.36 3283.65 1638.62 3283.17 1639.91 3282.89 1641.2L3280.25 1653.52 3275.18 1653.52 3279.06 1636.64C3279.29 1635.71 3279.45 1634.9 3279.56 1634.21 3279.66 1633.52 3279.71 1632.95 3279.71 1632.5 3279.71 1631.24 3279.2 1630.61 3278.18 1630.61 3277.87 1630.61 3277.56 1630.68 3277.24 1630.81 3276.92 1630.94 3276.58 1631.13 3276.23 1631.39 3275.88 1631.65 3275.49 1631.98 3275.08 1632.37 3274.67 1632.77 3274.2 1633.24 3273.68 1633.77L3271.9 1632.09C3272.74 1631.23 3273.52 1630.48 3274.24 1629.85 3274.95 1629.22 3275.64 1628.7 3276.31 1628.3 3276.97 1627.89 3277.62 1627.59 3278.26 1627.39 3278.9 1627.19 3279.56 1627.1 3280.25 1627.1Z" fill="#404040" fill-rule="evenodd"/><text fill="#000000" fill-opacity="0" font-family="Arial,Arial_MSFontService,sans-serif" font-size="26.8882" x="3271.9" y="1650.62">ğ‘š</text><path d="M3767.5 1345.5 3887.63 1345.5" stroke="#404040" stroke-width="4.58333" stroke-miterlimit="8" fill="none" fill-rule="evenodd"/><path d="M3795.5 1368.5 3858.9 1368.5" stroke="#404040" stroke-width="4.58333" stroke-miterlimit="8" fill="none" fill-rule="evenodd"/><path d="M2901 2259.97 3973.5 2259.97 3973.5 2274.41 2901 2274.41ZM2901 2279.22 3973.5 2279.22 3973.5 2284.03 2901 2284.03Z" fill="#595959"/><path d="M1.92784e-06-2.29167 406.083-2.29133 406.083 2.29201-1.92784e-06 2.29167ZM401.5-13.7497 429 0.000360892 401.5 13.7503Z" fill="#404040" transform="matrix(1 0 0 -1 3056.5 1583.5)"/><path d="M1.92784e-06-2.29167 406.083-2.29133 406.083 2.29201-1.92784e-06 2.29167ZM401.5-13.7497 429 0.000360892 401.5 13.7503Z" fill="#404040" transform="matrix(1 0 0 -1 3056.5 1673.5)"/><path d="M1.92784e-06-2.29167 406.083-2.29133 406.083 2.29201-1.92784e-06 2.29167ZM401.5-13.7497 429 0.000360892 401.5 13.7503Z" fill="#404040" transform="matrix(1 0 0 -1 3056.5 1759.5)"/><path d="M1.92784e-06-2.29167 406.083-2.29133 406.083 2.29201-1.92784e-06 2.29167ZM401.5-13.7497 429 0.000360892 401.5 13.7503Z" fill="#404040" transform="matrix(1 0 0 -1 3058.5 1840.5)"/><path d="M1.92784e-06-2.29167 406.083-2.29133 406.083 2.29201-1.92784e-06 2.29167ZM401.5-13.7497 429 0.000360892 401.5 13.7503Z" fill="#404040" transform="matrix(1 0 0 -1 3058.5 1927.5)"/><path d="M1.92784e-06-2.29167 406.083-2.29133 406.083 2.29201-1.92784e-06 2.29167ZM401.5-13.7497 429 0.000360892 401.5 13.7503Z" fill="#404040" transform="matrix(1 0 0 -1 3057.5 2017.5)"/><path d="M1.92784e-06-2.29167 406.083-2.29133 406.083 2.29201-1.92784e-06 2.29167ZM401.5-13.7497 429 0.000360892 401.5 13.7503Z" fill="#404040" transform="matrix(1 0 0 -1 3057.5 2106.5)"/><path d="M0 0 0.000360892 945.384" stroke="#404040" stroke-width="6.875" stroke-miterlimit="8" fill="none" fill-rule="evenodd" transform="matrix(1 0 0 -1 3490.5 2258.88)"/><path d="M1.92784e-06-2.29167 406.083-2.29133 406.083 2.29201-1.92784e-06 2.29167ZM401.5-13.7497 429 0.000360892 401.5 13.7503Z" fill="#404040" transform="matrix(1 0 0 -1 3056.5 2187.5)"/><path d="M1.92784e-06-2.29167 406.083-2.29133 406.083 2.29201-1.92784e-06 2.29167ZM401.5-13.7497 429 0.000360892 401.5 13.7503Z" fill="#404040" transform="matrix(1 0 0 -1 3057.5 1316.5)"/><path d="M1.92784e-06-2.29167 406.083-2.29133 406.083 2.29201-1.92784e-06 2.29167ZM401.5-13.7497 429 0.000360892 401.5 13.7503Z" fill="#404040" transform="matrix(1 0 0 -1 3056.5 1406.5)"/><path d="M1.92784e-05-22.9167 314.417-22.9164 314.417 22.9169-1.92784e-05 22.9167ZM291.5-68.7498 429 0.000360892 291.5 68.7502Z" fill="#A6A6A6" transform="matrix(1 0 0 -1 2522 1771)"/><path d="M3783.71 1865.61C3785.43 1865.61 3786.66 1866.05 3787.42 1866.94 3788.18 1867.83 3788.56 1869.03 3788.56 1870.52 3788.56 1871.67 3788.36 1872.97 3787.96 1874.45 3787.55 1875.92 3786.98 1877.48 3786.25 1879.12 3785.51 1880.75 3784.63 1882.44 3783.61 1884.16 3782.59 1885.88 3781.46 1887.56 3780.22 1889.18 3778.99 1890.81 3777.67 1892.35 3776.26 1893.78 3774.86 1895.22 3773.41 1896.47 3771.9 1897.54 3770.39 1898.61 3768.86 1899.46 3767.3 1900.09 3765.74 1900.72 3764.19 1901.04 3762.65 1901.04 3761.96 1901.04 3761.38 1900.86 3760.92 1900.52 3760.46 1900.18 3760.08 1899.69 3759.8 1899.06 3759.51 1898.43 3759.31 1897.69 3759.19 1896.83 3759.07 1895.97 3759.01 1895.04 3759.01 1894.01 3759.01 1892.66 3759.1 1891.21 3759.26 1889.67 3759.43 1888.12 3759.64 1886.56 3759.9 1885L3761.4 1875.12C3761.5 1874.55 3761.57 1874.01 3761.63 1873.5 3761.69 1872.99 3761.72 1872.62 3761.72 1872.38 3761.72 1871.64 3761.6 1871.04 3761.37 1870.56 3761.13 1870.09 3760.72 1869.85 3760.15 1869.85 3759.7 1869.85 3759.21 1869.98 3758.69 1870.26 3758.17 1870.53 3757.64 1870.88 3757.11 1871.31 3756.57 1871.74 3756.05 1872.19 3755.56 1872.68 3755.06 1873.17 3754.59 1873.63 3754.17 1874.05L3752.45 1872.06C3753.19 1871.3 3753.97 1870.54 3754.81 1869.79 3755.64 1869.05 3756.52 1868.37 3757.44 1867.76 3758.37 1867.16 3759.35 1866.67 3760.37 1866.3 3761.39 1865.93 3762.43 1865.75 3763.5 1865.75 3764.41 1865.75 3765.14 1865.9 3765.71 1866.19 3766.28 1866.49 3766.73 1866.88 3767.05 1867.37 3767.37 1867.86 3767.59 1868.39 3767.71 1868.97 3767.83 1869.56 3767.89 1870.13 3767.89 1870.7 3767.89 1871.04 3767.88 1871.36 3767.85 1871.67 3767.83 1871.97 3767.79 1872.26 3767.75 1872.52L3765.75 1885.42C3765.54 1886.78 3765.36 1888.1 3765.21 1889.4 3765.07 1890.69 3765 1891.84 3765 1892.84 3765 1893.84 3765.06 1894.64 3765.18 1895.26 3765.3 1895.88 3765.52 1896.19 3765.86 1896.19 3766.64 1896.19 3767.63 1895.87 3768.81 1895.24 3770 1894.61 3771.25 1893.75 3772.56 1892.64 3773.86 1891.54 3775.17 1890.23 3776.48 1888.72 3777.79 1887.21 3778.96 1885.58 3780.01 1883.82 3781.05 1882.06 3781.9 1880.21 3782.56 1878.26 3783.21 1876.31 3783.54 1874.35 3783.54 1872.38 3783.54 1871.52 3783.35 1870.86 3782.98 1870.4 3782.62 1869.94 3782.04 1869.7 3781.25 1869.7 3780.26 1869.7 3779.34 1870.09 3778.49 1870.86 3777.65 1871.64 3776.78 1872.65 3775.87 1873.91L3773.84 1872.09C3774.41 1871.24 3775.08 1870.42 3775.85 1869.63 3776.63 1868.85 3777.45 1868.16 3778.31 1867.57 3779.18 1866.97 3780.08 1866.5 3781.01 1866.14 3781.93 1865.78 3782.84 1865.61 3783.71 1865.61Z" fill="#BFBFBF" fill-rule="evenodd"/><text fill="#000000" fill-opacity="0" font-family="Arial,Arial_MSFontService,sans-serif" font-size="35.4307" x="3752.45" y="1896.61">ğ‘£</text><path d="M3803.25 1880.07 3805.11 1880.07 3801.57 1894.69 3801.93 1894.8C3802.78 1893.78 3803.59 1892.9 3804.39 1892.17 3805.18 1891.44 3805.95 1890.83 3806.7 1890.36 3807.46 1889.88 3808.2 1889.53 3808.94 1889.31 3809.69 1889.08 3810.44 1888.97 3811.19 1888.97 3813.06 1888.97 3814.44 1889.46 3815.35 1890.45 3816.25 1891.43 3816.71 1892.81 3816.71 1894.59 3816.71 1895.12 3816.66 1895.77 3816.55 1896.54 3816.45 1897.31 3816.27 1898.21 3816.01 1899.25L3814.25 1906.42C3814.09 1907.09 3813.96 1907.64 3813.86 1908.06 3813.76 1908.48 3813.68 1908.84 3813.63 1909.13 3813.58 1909.43 3813.54 1909.68 3813.52 1909.88 3813.51 1910.09 3813.5 1910.31 3813.5 1910.53 3813.5 1911.19 3813.62 1911.66 3813.86 1911.95 3814.1 1912.25 3814.5 1912.39 3815.05 1912.39 3815.36 1912.39 3815.67 1912.33 3815.97 1912.21 3816.27 1912.09 3816.6 1911.9 3816.95 1911.64 3817.31 1911.38 3817.69 1911.05 3818.12 1910.65 3818.54 1910.24 3819.02 1909.75 3819.55 1909.18 3819.83 1909.48 3820.12 1909.77 3820.42 1910.05 3820.72 1910.34 3821.02 1910.62 3821.31 1910.89 3820.43 1911.79 3819.63 1912.55 3818.91 1913.18 3818.18 1913.81 3817.49 1914.33 3816.84 1914.72 3816.18 1915.12 3815.53 1915.41 3814.9 1915.59 3814.26 1915.77 3813.58 1915.86 3812.85 1915.86 3812.23 1915.86 3811.66 1915.74 3811.13 1915.5 3810.6 1915.26 3810.15 1914.93 3809.77 1914.5 3809.39 1914.08 3809.09 1913.58 3808.88 1913 3808.66 1912.42 3808.55 1911.79 3808.55 1911.1 3808.55 1910.41 3808.63 1909.62 3808.79 1908.72 3808.94 1907.82 3809.13 1906.88 3809.36 1905.9 3809.58 1904.91 3809.83 1903.92 3810.09 1902.92 3810.36 1901.92 3810.61 1900.98 3810.83 1900.09 3811.06 1899.2 3811.25 1898.39 3811.4 1897.67 3811.56 1896.94 3811.63 1896.37 3811.63 1895.93 3811.63 1895.45 3811.6 1895 3811.53 1894.58 3811.46 1894.15 3811.33 1893.78 3811.13 1893.46 3810.93 1893.14 3810.67 1892.89 3810.34 1892.71 3810.01 1892.53 3809.59 1892.44 3809.07 1892.44 3808.24 1892.44 3807.35 1892.76 3806.38 1893.4 3805.42 1894.04 3804.5 1894.86 3803.62 1895.88 3802.75 1896.9 3801.98 1898.04 3801.3 1899.3 3800.61 1900.56 3800.14 1901.82 3799.89 1903.08 3799.44 1905.13 3799.01 1907.18 3798.59 1909.24 3798.18 1911.29 3797.75 1913.34 3797.32 1915.4L3792.35 1915.4 3798.49 1887.6C3798.68 1886.72 3798.82 1886.01 3798.92 1885.45 3799.01 1884.9 3799.06 1884.43 3799.06 1884.03 3799.06 1883.7 3799.01 1883.42 3798.9 1883.18 3798.8 1882.93 3798.62 1882.74 3798.37 1882.59 3798.12 1882.45 3797.78 1882.34 3797.35 1882.27 3796.92 1882.2 3796.38 1882.16 3795.74 1882.14L3796.13 1880.38Z" fill="#BFBFBF" fill-rule="evenodd"/><text fill="#000000" fill-opacity="0" font-family="Arial,Arial_MSFontService,sans-serif" font-size="35.7905" x="3792.35" y="1911.39">â„</text><path d="M3607.59 1795.48 3723.03 1857.56 3720.86 1861.6 3605.41 1799.52ZM3724.42 1845.3 3742.13 1870.43 3711.4 1869.52Z" fill="#A6A6A6"/><text font-family="Segoe UI,Segoe UI_MSFontService,sans-serif" font-weight="400" font-size="64" transform="matrix(1 0 0 1 2216.16 2534)">Perfil de velocidades</text><text font-family="Segoe UI,Segoe UI_MSFontService,sans-serif" font-weight="400" font-size="64" transform="matrix(1 0 0 1 3424.77 2536)">Perfil de velocidad media</text><text font-family="Segoe UI Light,Segoe UI Light_MSFontService,sans-serif" font-weight="300" font-size="83" transform="matrix(1 0 0 1 3429.88 2363)">S</text><text font-family="Segoe UI Light,Segoe UI Light_MSFontService,sans-serif" font-weight="300" font-size="55" transform="matrix(1 0 0 1 3471.13 2383)">o</text></g></svg>